<svg width="291" height="292" viewBox="0 0 291 292" fill="none" xmlns="http://www.w3.org/2000/svg">
<path fill-rule="evenodd" clip-rule="evenodd" d="M60.9144 27.3298C12.0243 61.6932 -4.47287 109.179 1.00471 170.045C10.9288 280.481 135.56 318.237 217.53 273.35C293.529 231.856 316.105 118.092 255.229 48.7425C205.114 -8.32224 119.9 -14.164 60.9144 27.2654V27.3298Z" fill="#EBF3FF"/>
<path d="M150.553 186.518H28.7148V282.499H150.553V186.518Z" fill="#A3C1FA"/>
<path d="M28.2852 282.521V186.54C28.2904 186.428 28.3373 186.321 28.4168 186.242C28.4963 186.162 28.6025 186.115 28.7147 186.11H150.553C150.611 186.107 150.668 186.116 150.721 186.137C150.775 186.157 150.823 186.189 150.864 186.229C150.904 186.27 150.936 186.318 150.957 186.372C150.977 186.425 150.986 186.483 150.983 186.54V282.521C150.983 282.635 150.938 282.744 150.857 282.825C150.777 282.905 150.667 282.951 150.553 282.951H28.7147C28.6025 282.945 28.4963 282.898 28.4168 282.819C28.3373 282.739 28.2904 282.633 28.2852 282.521ZM29.1229 186.969V282.091H150.124V186.969H29.1229Z" fill="#A3C1FA"/>
<path d="M142.885 11.2219H48.7563V135.424H142.885V11.2219Z" fill="#A3C1FA"/>
<path d="M48.7993 10.7925H142.885C142.987 10.808 143.081 10.8601 143.148 10.939C143.215 11.0179 143.251 11.1184 143.25 11.222V135.424C143.257 135.531 143.223 135.637 143.155 135.721C143.087 135.804 142.991 135.859 142.885 135.875H48.7993C48.741 135.875 48.6834 135.864 48.6298 135.841C48.5762 135.818 48.5279 135.784 48.4877 135.742C48.4475 135.7 48.4163 135.65 48.396 135.595C48.3757 135.541 48.3668 135.482 48.3697 135.424V11.1576C48.3697 11.0437 48.415 10.9344 48.4955 10.8539C48.5761 10.7733 48.6854 10.728 48.7993 10.728V10.7925ZM142.52 11.6516H49.1001V135.059H142.455L142.52 11.6516Z" fill="#A3C1FA"/>
<path d="M149.394 185.423H27.5552V281.404H149.394V185.423Z" fill="white"/>
<path fill-rule="evenodd" clip-rule="evenodd" d="M149.394 281.404H43.8159C100.869 281.404 147.374 239.051 149.394 186.046V281.404Z" fill="#F5F8FF"/>
<path fill-rule="evenodd" clip-rule="evenodd" d="M149.394 281.404H138.181C144.217 281.404 149.157 239.051 149.394 186.046V281.404Z" fill="#E5EBFC"/>
<path d="M27.4258 281.404V185.359H149.329V281.469H27.4902L27.4258 281.404ZM27.6621 185.552V281.297H149.264V185.552H27.6621Z" fill="#B2C0F0"/>
<path fill-rule="evenodd" clip-rule="evenodd" d="M262.704 191.093V276.744C262.704 271.009 251.964 266.413 238.968 266.413C225.972 266.413 215.339 271.009 215.339 276.744V191.093C215.339 185.359 225.929 180.762 238.968 180.762C252.007 180.762 262.704 185.359 262.704 191.093Z" fill="#EAEEFC"/>
<path fill-rule="evenodd" clip-rule="evenodd" d="M221.784 269.613V184.005C227.221 181.732 233.076 180.627 238.968 180.762C244.205 180.678 249.417 181.507 254.37 183.211V268.883C249.415 267.188 244.205 266.36 238.968 266.435C233.081 266.308 227.231 267.397 221.784 269.635V269.613Z" fill="#CFD9FC"/>
<path fill-rule="evenodd" clip-rule="evenodd" d="M228.851 267.401C220.817 269.055 215.275 272.62 215.275 276.744V191.093C215.275 186.969 220.817 183.404 228.851 181.729V250.799V267.401Z" fill="#E5EBFF"/>
<path fill-rule="evenodd" clip-rule="evenodd" d="M245.283 285.785C243.187 286.03 241.079 286.152 238.968 286.151C225.865 286.151 215.339 281.469 215.339 275.756V191.329C216.736 196.484 226.853 200.5 238.968 200.5C241.081 200.513 243.192 200.37 245.283 200.07V285.785Z" fill="#E5EBFC"/>
<path fill-rule="evenodd" clip-rule="evenodd" d="M262.704 191.329V275.756C262.704 279.815 257.42 283.316 249.623 285.034V199.383C256.69 197.837 261.673 194.894 262.704 191.329Z" fill="#D4DCF7"/>
<path fill-rule="evenodd" clip-rule="evenodd" d="M262.704 191.329V275.756C262.68 276.691 262.406 277.604 261.91 278.397V192.983C262.256 192.474 262.524 191.917 262.704 191.329Z" fill="#B7C4F0"/>
<path fill-rule="evenodd" clip-rule="evenodd" d="M250.16 284.926C249.976 284.931 249.794 284.967 249.623 285.034V199.383C249.794 199.383 249.988 199.383 250.16 199.254V284.926Z" fill="#FEFEFE"/>
<path fill-rule="evenodd" clip-rule="evenodd" d="M218.991 281.297V195.861C223.136 198.631 230.247 200.478 238.323 200.607V286.065C230.161 285.936 223.051 284.024 218.991 281.211V281.297Z" fill="white"/>
<path fill-rule="evenodd" clip-rule="evenodd" d="M262.704 191.329C261.738 196.011 256.131 198.288 249.623 199.383C256.69 197.837 261.673 194.894 262.704 191.329Z" fill="#FEFEFE"/>
<path fill-rule="evenodd" clip-rule="evenodd" d="M215.275 191.329C219.571 199.19 237.507 201.037 245.348 200.07C243.256 200.37 241.145 200.513 239.033 200.5C226.853 200.5 216.736 196.484 215.404 191.329H215.275Z" fill="#A2B0E0"/>
<path d="M185.374 231.298H171.132V235.55H185.374V231.298Z" fill="#94B9FF"/>
<path fill-rule="evenodd" clip-rule="evenodd" d="M183.978 240.447V226.358L193.601 233.446L183.978 240.447Z" fill="#87B1FF"/>
<path d="M183.999 231.298H183.075V235.55H183.999V231.298Z" fill="#71A1FA"/>
<path d="M141.231 9.54675H47.1025V133.749H141.231V9.54675Z" fill="white"/>
<path fill-rule="evenodd" clip-rule="evenodd" d="M141.166 133.77V26.1915C141.166 84.416 99.5795 131.837 47.6392 133.856L141.166 133.77Z" fill="#F5F8FF"/>
<path d="M47.1025 9.50378H141.295V133.835H47.1025V9.50378ZM141.102 9.63264H47.167V133.706H141.167L141.102 9.63264Z" fill="#8781A7"/>
<path fill-rule="evenodd" clip-rule="evenodd" d="M243.157 14.057V130.334V130.205C243.157 125.781 235.059 122.216 225.07 122.216C215.082 122.216 206.983 125.781 206.983 130.205V14.057C206.983 9.76157 215.082 6.0675 225.07 6.0675C235.059 6.0675 243.157 9.69714 243.157 14.057Z" fill="#EAEEFC"/>
<path fill-rule="evenodd" clip-rule="evenodd" d="M206.983 130.205V14.0569C206.983 10.5562 212.117 7.61376 219.227 6.49695V78.4883V122.645C212.16 123.698 207.048 126.704 206.983 130.205Z" fill="#E5EBFF"/>
<path fill-rule="evenodd" clip-rule="evenodd" d="M213.213 124.192V8.02187C217.017 6.66949 221.033 6.00761 225.07 6.06744C226.657 6.0665 228.243 6.16689 229.817 6.36809V122.516C228.242 122.326 226.657 122.225 225.07 122.216C221.031 122.152 217.013 122.821 213.213 124.192Z" fill="#CFD9FC"/>
<path fill-rule="evenodd" clip-rule="evenodd" d="M209.668 17.6007C213.296 19.7427 217.401 20.946 221.612 21.1015C215.468 21.531 211.559 19.9417 209.668 17.6651V17.6007Z" fill="#FEFEFE"/>
<path fill-rule="evenodd" clip-rule="evenodd" d="M243.157 14.3577V129.411C243.05 133.47 236.154 136.777 227.218 137.271V21.123C235.424 20.6935 241.954 17.9229 243.157 14.3577Z" fill="#D4DCF7"/>
<path fill-rule="evenodd" clip-rule="evenodd" d="M230.505 136.971C229.452 137.099 228.357 137.228 227.218 137.271V21.123C228.357 21.123 229.366 20.9511 230.505 20.8223V136.971Z" fill="#D4DCF7"/>
<path fill-rule="evenodd" clip-rule="evenodd" d="M227.218 137.271V21.1229H227.455V137.271H227.218Z" fill="#FEFEFE"/>
<path fill-rule="evenodd" clip-rule="evenodd" d="M243.157 14.3577V129.411C243.15 130.035 242.987 130.647 242.684 131.193V15.453C242.868 15.1368 243.026 14.8064 243.157 14.4651V14.3577Z" fill="#B7C4F0"/>
<path fill-rule="evenodd" clip-rule="evenodd" d="M216.606 123.139V76.0399V6.99091C218.846 6.46047 221.136 6.17247 223.437 6.13184V76.0399V122.28C221.137 122.331 218.848 122.619 216.606 123.139Z" fill="#CFD9FC"/>
<path fill-rule="evenodd" clip-rule="evenodd" d="M222.793 137.271C213.9 136.777 207.026 133.47 206.897 129.411V14.3577C208.057 17.9229 214.631 20.6935 222.793 21.123V137.271Z" fill="white"/>
<path fill-rule="evenodd" clip-rule="evenodd" d="M222.793 137.271C220.724 137.164 218.668 136.877 216.649 136.412V20.3282C218.677 20.7283 220.73 20.9938 222.793 21.123V137.271Z" fill="#E5EBFC"/>
<path fill-rule="evenodd" clip-rule="evenodd" d="M243.157 14.3577C241.761 20.1994 230.269 21.3807 227.218 21.123C235.424 20.6935 241.954 17.9229 243.157 14.3577Z" fill="#FEFEFE"/>
<path fill-rule="evenodd" clip-rule="evenodd" d="M206.983 14.4865V14.057C206.983 9.76157 215.082 6.0675 225.07 6.0675C226.99 6.07509 228.906 6.21859 230.805 6.49701H229.345C216.972 6.49701 206.983 10.0622 206.983 14.4865Z" fill="#BDC9F2"/>
<path fill-rule="evenodd" clip-rule="evenodd" d="M206.983 14.3577C209.131 18.9752 219.056 20.8009 222.879 21.123C214.716 20.6935 208.143 17.9229 206.983 14.3577Z" fill="#A2B0E0"/>
<path d="M47.1025 9.00977H141.36H141.467C141.467 9.00977 141.467 9.00976 141.467 9.13862V9.26748V133.835V133.964H141.36C141.36 133.964 141.36 133.964 141.231 133.964H46.9091H46.8018C46.8018 133.964 46.8018 133.964 46.8018 133.835V9.26748C46.8018 9.26748 46.8018 9.26749 46.8018 9.13862C46.8018 9.13862 46.8018 9.13863 46.8018 9.00977C46.8018 9.00977 46.8017 9.00977 46.9091 9.00977H47.1025ZM140.694 10.1266H47.6395V133.212H140.694V10.1266Z" fill="#82AEFF"/>
<path d="M177.104 69.5753H162.862V73.7634H177.104V69.5753Z" fill="#94B9FF"/>
<path fill-rule="evenodd" clip-rule="evenodd" d="M175.708 78.7245V64.657L185.331 71.6585L175.708 78.7245Z" fill="#87B1FF"/>
<path d="M175.707 69.5753H174.784V73.7634H175.707V69.5753Z" fill="#71A1FA"/>
<path d="M72.8579 69.5753V59.116H75.006V67.7068H79.1517V69.5538L72.8579 69.5753ZM84.0493 63.0033C83.8559 62.9898 83.662 63.0215 83.483 63.0961C83.304 63.1707 83.1448 63.286 83.0182 63.4329C82.7291 63.7789 82.5563 64.2073 82.5242 64.6571H85.5745C85.5821 64.2108 85.4297 63.7765 85.1449 63.4329C85.0095 63.2794 84.8395 63.1605 84.649 63.0858C84.4585 63.0111 84.2529 62.9828 84.0493 63.0033ZM84.3715 69.7686C83.8234 69.8013 83.2745 69.7188 82.7603 69.5264C82.246 69.3341 81.7778 69.0361 81.3858 68.6518C81.0134 68.2496 80.7278 67.7751 80.5467 67.2578C80.3657 66.7406 80.2929 66.1916 80.3332 65.645C80.2509 64.5318 80.6053 63.4303 81.3213 62.5738C81.6587 62.1894 82.0806 61.8885 82.554 61.6948C83.0273 61.501 83.5392 61.4196 84.0493 61.457C85.0091 61.4166 85.9476 61.7474 86.67 62.3805C87.3184 63.128 87.6497 64.0988 87.5936 65.0866V66.139H82.4812C82.5079 66.6756 82.695 67.1918 83.0182 67.6209C83.4303 67.9529 83.9504 68.1212 84.4789 68.0934C84.9283 68.1491 85.3828 68.1491 85.8322 68.0934C86.2879 67.9623 86.7331 67.7972 87.164 67.5994V69.3176C86.7664 69.4893 86.3574 69.6328 85.9397 69.7471C85.4209 69.8293 84.8967 69.8724 84.3715 69.876V69.7686ZM92.6416 68.0505C93.1013 68.0237 93.5524 67.9145 93.9734 67.7283V69.4035C93.3607 69.6559 92.7028 69.7801 92.0402 69.7686C91.6943 69.7958 91.3466 69.7485 91.0205 69.6299C90.6944 69.5114 90.3975 69.3243 90.1499 69.0814C89.7178 68.5239 89.4971 67.8315 89.5269 67.1269V63.2396H88.4959V62.3161L89.7202 61.5858L90.3217 59.8676H91.7609V61.5858H93.909V63.2396H91.7609V67.1269C91.7446 67.2487 91.7574 67.3726 91.7985 67.4884C91.8396 67.6042 91.9077 67.7085 91.9972 67.7927C92.1823 67.9536 92.4179 68.0448 92.6631 68.0505H92.6416ZM98.914 68.0505C99.3723 68.015 99.822 67.9062 100.246 67.7283V69.4035C99.6331 69.6559 98.9751 69.7801 98.3125 69.7686C97.9661 69.8017 97.6168 69.7572 97.2898 69.6383C96.9628 69.5194 96.6665 69.3291 96.4222 69.0814C95.964 68.538 95.74 67.8352 95.7993 67.1269V63.2396H94.7682V62.3161L95.9926 61.5858L96.5941 59.8676H97.9474V61.5858H100.095V63.2396H97.9474V67.1269C97.9423 67.2536 97.9669 67.3798 98.0191 67.4953C98.0713 67.6109 98.1496 67.7127 98.2481 67.7927C98.3364 67.8777 98.4408 67.9443 98.5551 67.9885C98.6694 68.0328 98.7914 68.0538 98.914 68.0505ZM105.057 63.0033C104.864 62.9898 104.67 63.0215 104.491 63.0961C104.312 63.1707 104.153 63.286 104.026 63.4329C103.751 63.7818 103.6 64.2126 103.597 64.6571H106.583C106.596 64.4347 106.565 64.2119 106.491 64.0017C106.417 63.7915 106.302 63.5981 106.153 63.4329C106.018 63.2794 105.848 63.1605 105.657 63.0858C105.467 63.0111 105.261 62.9828 105.057 63.0033ZM105.358 69.7686C104.82 69.7975 104.282 69.713 103.779 69.5206C103.276 69.3282 102.818 69.0322 102.437 68.6518C102.049 68.2587 101.75 67.7866 101.561 67.2678C101.372 66.7489 101.297 66.1954 101.341 65.645C101.259 64.5318 101.613 63.4303 102.329 62.5738C102.667 62.1894 103.089 61.8885 103.562 61.6948C104.035 61.501 104.547 61.4196 105.057 61.457C105.534 61.4313 106.01 61.4997 106.46 61.6581C106.909 61.8166 107.323 62.062 107.678 62.3805C108.327 63.128 108.658 64.0988 108.602 65.0866V66.139H103.532C103.523 66.6861 103.723 67.2161 104.091 67.6209C104.477 67.9545 104.978 68.1241 105.487 68.0934C105.929 68.15 106.377 68.15 106.819 68.0934C107.283 67.9661 107.735 67.8009 108.172 67.5994V69.3176C107.779 69.4992 107.369 69.643 106.948 69.7471C106.422 69.8301 105.891 69.8732 105.358 69.876V69.7686ZM114.745 61.457C114.987 61.4188 115.234 61.4188 115.476 61.457L115.304 63.6047C115.098 63.5694 114.887 63.5694 114.681 63.6047C114.385 63.5799 114.087 63.6167 113.806 63.7128C113.525 63.8089 113.267 63.9622 113.048 64.1631C112.856 64.3526 112.707 64.581 112.611 64.8329C112.515 65.0848 112.473 65.3544 112.49 65.6235V69.6827H110.342V61.6932H111.931L112.296 63.0463C112.572 62.6095 112.929 62.2302 113.349 61.9295C113.749 61.6836 114.211 61.557 114.681 61.5644L114.745 61.457Z" fill="#71A1FA"/>
<path d="M88.0663 81.3877C88.0892 81.797 88.0134 82.2058 87.8452 82.5796C87.6769 82.9534 87.4212 83.2812 87.0996 83.5355C86.3611 84.0759 85.4571 84.3418 84.5435 84.2872C83.6181 84.3021 82.701 84.1113 81.8584 83.7287V81.8173C82.3709 82.0667 82.9024 82.275 83.4479 82.4401C83.8705 82.5419 84.3024 82.5995 84.7368 82.612C85.0744 82.622 85.4085 82.5404 85.7034 82.3757C85.8188 82.2781 85.9114 82.1563 85.9745 82.019C86.0376 81.8817 86.0697 81.7322 86.0686 81.581C86.0677 81.4082 86.0234 81.2383 85.9397 81.0871C85.8207 80.9065 85.6582 80.7588 85.4671 80.6575C85.0877 80.3808 84.6766 80.15 84.2427 79.9702C83.7676 79.7485 83.3145 79.4825 82.8894 79.1756C82.604 78.9189 82.3769 78.604 82.2235 78.2521C82.0502 77.8909 81.9691 77.4925 81.9873 77.0923C81.9566 76.7083 82.0186 76.3225 82.1681 75.9675C82.3177 75.6124 82.5503 75.2984 82.8465 75.052C83.5142 74.5201 84.3579 74.2594 85.2094 74.3218C85.6799 74.3246 86.1485 74.3823 86.6056 74.4936L88.0234 74.9876L87.336 76.5984C86.9464 76.425 86.5443 76.2814 86.133 76.1688C85.8081 76.097 85.4775 76.0538 85.1449 76.04C84.8253 76.0033 84.5034 76.0876 84.2427 76.2762C84.1434 76.374 84.0654 76.4912 84.0137 76.6206C83.9619 76.7499 83.9375 76.8886 83.942 77.0279C83.9593 77.196 83.9954 77.3617 84.0494 77.5219C84.1744 77.6635 84.3191 77.7864 84.479 77.887C84.8839 78.1538 85.3159 78.3769 85.7678 78.5528C86.4434 78.8463 87.0451 79.2865 87.5293 79.8414C87.8964 80.2962 88.0871 80.8681 88.0663 81.4522V81.3877ZM89.527 74.7513C89.527 74.1285 89.8922 73.7634 90.6225 73.7634C90.7598 73.7436 90.8997 73.7549 91.0319 73.7966C91.1642 73.8383 91.2854 73.9092 91.3865 74.0041C91.4876 74.099 91.5661 74.2155 91.616 74.3448C91.666 74.4742 91.6861 74.6131 91.675 74.7513C91.6847 74.8842 91.6669 75.0177 91.6225 75.1434C91.5782 75.269 91.5083 75.3842 91.4173 75.4815C91.3098 75.5761 91.1831 75.6463 91.0458 75.687C90.9086 75.7278 90.7642 75.7383 90.6225 75.7178C89.8922 75.7178 89.527 75.4171 89.527 74.7513ZM91.675 84.0939H89.6129V76.6413H91.6321L91.675 84.0939ZM98.7851 84.0939H93.0713V82.9126L96.4223 78.2521H93.2646V76.6413H98.6778V77.9944L95.3912 82.5475H98.7851V84.0939ZM103.232 77.9944C103.053 77.9893 102.875 78.0211 102.708 78.0876C102.542 78.154 102.391 78.2539 102.265 78.381C102.017 78.72 101.868 79.1216 101.835 79.5407H104.649C104.667 79.1233 104.538 78.7128 104.284 78.381C104.144 78.2494 103.978 78.1473 103.797 78.0809C103.616 78.0145 103.424 77.9851 103.232 77.9944ZM103.554 84.2227C103.053 84.2523 102.55 84.1801 102.078 84.0102C101.605 83.8404 101.172 83.5766 100.804 83.2348C100.468 82.86 100.209 82.4222 100.043 81.9465C99.877 81.4709 99.8072 80.967 99.8377 80.4642C99.7754 79.4202 100.096 78.3892 100.74 77.5648C101.054 77.2209 101.44 76.9503 101.871 76.7721C102.302 76.594 102.766 76.5127 103.232 76.5339C103.673 76.5032 104.115 76.57 104.527 76.7297C104.939 76.8893 105.311 77.1378 105.616 77.4574C105.93 77.7793 106.173 78.1637 106.328 78.5855C106.483 79.0074 106.548 79.4572 106.518 79.9058V80.8938H101.835C101.839 81.3882 102.014 81.8661 102.33 82.2468C102.497 82.4101 102.695 82.5379 102.913 82.6228C103.131 82.7076 103.363 82.7478 103.597 82.7408C104.034 82.7447 104.469 82.6795 104.886 82.5475C105.317 82.4819 105.732 82.3362 106.11 82.118V83.7287C105.763 83.8992 105.395 84.022 105.015 84.0939C104.532 84.1735 104.043 84.2166 103.554 84.2227Z" fill="#71A1FA"/>
<path d="M67.187 231.663V221.161H69.3351V229.752H73.6312V231.599L67.187 231.663ZM78.3999 225.027C78.1969 225.013 77.9934 225.044 77.8039 225.118C77.6145 225.193 77.4438 225.308 77.3044 225.456C77.0477 225.815 76.8987 226.24 76.8748 226.681H79.9251C79.9221 226.236 79.7709 225.805 79.4955 225.456C79.3519 225.314 79.1806 225.202 78.9922 225.128C78.8037 225.054 78.6022 225.02 78.3999 225.027ZM78.7007 231.792C77.6054 231.85 76.5317 231.472 75.7149 230.74C74.9834 229.89 74.6134 228.788 74.6838 227.668C74.6087 226.56 74.9538 225.463 75.6504 224.597C76.0016 224.225 76.429 223.932 76.9035 223.739C77.3779 223.547 77.8883 223.458 78.3999 223.48C78.866 223.457 79.3319 223.527 79.7707 223.686C80.2096 223.844 80.6125 224.088 80.9562 224.404C81.293 224.765 81.5525 225.192 81.7187 225.657C81.885 226.123 81.9544 226.617 81.9228 227.11V228.162H76.7245C76.7533 228.702 76.9484 229.22 77.283 229.644C77.4698 229.817 77.6899 229.951 77.9301 230.036C78.1702 230.12 78.4251 230.155 78.6792 230.138C79.1484 230.161 79.6184 230.118 80.0754 230.009C80.516 229.896 80.9414 229.73 81.3428 229.515V231.234C80.9774 231.412 80.5963 231.556 80.2043 231.663C79.6784 231.745 79.1471 231.789 78.6148 231.792H78.7007ZM86.9707 230.074C87.4293 230.033 87.8826 229.947 88.324 229.816V231.427C87.7033 231.678 87.0387 231.802 86.3693 231.792C86.023 231.824 85.6741 231.778 85.3473 231.66C85.0206 231.541 84.7241 231.351 84.479 231.105C84.2549 230.835 84.0864 230.523 83.9832 230.188C83.8799 229.852 83.844 229.5 83.8775 229.15V225.263H82.8465V224.339L84.0494 223.609L84.6723 221.891H86.0041V223.609H88.1522V225.263H86.0041V229.15C85.9973 229.277 86.0211 229.404 86.0734 229.52C86.1257 229.636 86.2051 229.737 86.3048 229.816C86.4845 229.986 86.7236 230.078 86.9707 230.074ZM93.2002 230.074C93.6734 230.037 94.1414 229.951 94.5964 229.816V231.427C93.9548 231.683 93.268 231.807 92.5772 231.792C92.232 231.811 91.8865 231.76 91.5616 231.642C91.2367 231.524 90.9391 231.341 90.6869 231.105C90.2854 230.536 90.0955 229.845 90.1499 229.15V225.263H89.1188V224.339L90.2573 223.609L90.9447 221.891H92.2765V223.609H94.4245V225.263H92.2765V229.15C92.2601 229.272 92.2731 229.396 92.3142 229.512C92.3552 229.628 92.4233 229.732 92.5128 229.816C92.7121 229.967 92.9509 230.056 93.2002 230.074ZM99.4081 225.027C99.2116 225.015 99.015 225.047 98.8328 225.121C98.6506 225.196 98.4875 225.31 98.3555 225.456C98.0932 225.816 97.9303 226.238 97.883 226.681H100.933C100.93 226.236 100.779 225.805 100.504 225.456C100.365 225.307 100.195 225.191 100.005 225.116C99.8153 225.042 99.6112 225.011 99.4081 225.027ZM99.7088 231.792C98.6135 231.85 97.5398 231.472 96.723 230.74C95.9915 229.89 95.6215 228.788 95.6919 227.668C95.6169 226.56 95.962 225.463 96.6585 224.597C97.0098 224.225 97.4372 223.932 97.9116 223.739C98.3861 223.547 98.8964 223.458 99.4081 223.48C100.367 223.444 101.304 223.775 102.029 224.404C102.662 225.159 102.984 226.126 102.931 227.11V228.162H97.8185C97.8424 228.711 98.0548 229.234 98.42 229.644C98.6044 229.827 98.8275 229.967 99.0728 230.052C99.3182 230.138 99.5795 230.167 99.8377 230.138C100.286 230.162 100.734 230.118 101.17 230.009C101.627 229.885 102.073 229.72 102.501 229.515V231.234C102.11 231.402 101.708 231.545 101.298 231.663C100.772 231.745 100.241 231.789 99.7088 231.792ZM109.074 223.48C109.317 223.448 109.562 223.448 109.805 223.48L109.633 225.628C109.434 225.594 109.23 225.594 109.031 225.628C108.733 225.608 108.433 225.647 108.149 225.743C107.865 225.838 107.603 225.989 107.377 226.187C107.191 226.38 107.045 226.609 106.949 226.86C106.853 227.111 106.809 227.379 106.819 227.647V231.771H104.671V223.717H106.26L106.561 225.07H106.797C107.034 224.617 107.39 224.237 107.829 223.974C108.224 223.715 108.688 223.581 109.16 223.588L109.074 223.48Z" fill="#71A1FA"/>
<path d="M82.3519 242.853C82.3836 243.259 82.3161 243.666 82.1552 244.041C81.9942 244.415 81.7448 244.744 81.4283 245C80.6823 245.524 79.782 245.781 78.8721 245.731C77.953 245.753 77.0413 245.562 76.2085 245.172V243.261C76.81 243.519 77.3684 243.755 77.7765 243.884C78.1745 244.001 78.5862 244.066 79.001 244.077C79.3616 244.086 79.7179 243.997 80.0321 243.819C80.1525 243.726 80.2485 243.605 80.3121 243.467C80.3757 243.328 80.4049 243.177 80.3972 243.025C80.399 242.845 80.3383 242.67 80.2254 242.531C80.2254 242.337 79.9676 242.23 79.7957 242.101C79.4018 241.854 78.9929 241.632 78.5713 241.435C78.1013 241.208 77.6551 240.935 77.2395 240.619C76.9429 240.373 76.7138 240.055 76.5736 239.696C76.3654 239.345 76.2611 238.943 76.2729 238.536C76.2587 238.156 76.3261 237.777 76.4706 237.425C76.6151 237.073 76.8334 236.756 77.1106 236.496C77.8007 235.991 78.6408 235.734 79.495 235.765C79.9884 235.763 80.4798 235.828 80.9557 235.959C81.4307 236.095 81.8969 236.26 82.3519 236.453L81.686 238.042C81.192 237.849 80.7624 237.741 80.3972 237.612C80.0809 237.533 79.7567 237.49 79.4306 237.483C79.272 237.464 79.111 237.483 78.9613 237.539C78.8116 237.595 78.6778 237.686 78.5713 237.806C78.335 237.913 78.2706 238.171 78.2706 238.471C78.2507 238.646 78.2967 238.822 78.3995 238.965C78.4859 239.118 78.6121 239.244 78.7647 239.331C79.1697 239.591 79.5933 239.82 80.0321 240.018C80.7379 240.29 81.3652 240.733 81.8579 241.306C82.2082 241.76 82.3836 242.324 82.3519 242.896V242.853ZM83.8771 236.216C83.8771 235.593 84.2423 235.228 84.9726 235.228C85.1082 235.212 85.2457 235.226 85.3753 235.269C85.5048 235.313 85.6232 235.384 85.7218 235.479C85.8204 235.573 85.8969 235.688 85.9456 235.816C85.9943 235.943 86.0142 236.08 86.0037 236.216C86.0204 236.348 86.008 236.482 85.9671 236.608C85.9263 236.734 85.858 236.85 85.7674 236.947C85.5458 237.132 85.2609 237.224 84.9726 237.204C84.2423 237.204 83.8771 236.882 83.8771 236.216ZM86.0251 245.559H84.0274V238.192H86.0251V245.559ZM93.1567 245.559H87.4214V244.399L90.7724 239.717H87.4644V238.192H92.8775V239.481L89.6124 244.034H93.0279L93.1567 245.559ZM97.6033 239.481C97.4221 239.469 97.2405 239.495 97.0702 239.558C96.8999 239.621 96.7449 239.719 96.6152 239.846C96.369 240.185 96.2271 240.588 96.207 241.006H98.9995C99.0175 240.588 98.8883 240.178 98.6344 239.846C98.4974 239.717 98.3349 239.617 98.1573 239.555C97.9798 239.492 97.7911 239.467 97.6033 239.481ZM97.904 245.688C97.4014 245.732 96.8952 245.667 96.4205 245.496C95.9457 245.326 95.5137 245.054 95.1544 244.7C94.801 244.334 94.527 243.899 94.3496 243.422C94.1722 242.945 94.0952 242.437 94.1234 241.929C94.0537 240.887 94.384 239.858 95.0471 239.051C95.3693 238.698 95.7655 238.421 96.2074 238.239C96.6493 238.057 97.126 237.975 97.6033 237.999C98.0411 237.967 98.4805 238.033 98.8894 238.193C99.2982 238.353 99.6661 238.602 99.9662 238.922C100.273 239.252 100.508 239.642 100.656 240.067C100.804 240.492 100.861 240.944 100.825 241.392V242.359H96.0566C96.0547 242.862 96.2471 243.347 96.5937 243.712C96.7611 243.881 96.9626 244.013 97.1848 244.098C97.4071 244.183 97.6449 244.22 97.8825 244.206C98.3078 244.197 98.7316 244.154 99.1499 244.077C99.5743 243.965 99.985 243.807 100.374 243.604V245.194C100.012 245.383 99.6194 245.506 99.2143 245.559C98.7584 245.674 98.2874 245.717 97.8181 245.688H97.904Z" fill="#71A1FA"/>
<path d="M243.586 14.0569V14.3575C243.586 14.3575 243.586 14.3575 243.586 14.4864C243.049 15.6278 242.278 16.6438 241.323 17.4688C240.369 18.2938 239.252 18.9094 238.044 19.2758C234.75 20.6054 231.243 21.3329 227.691 21.4235V122.216C227.694 122.271 227.685 122.326 227.666 122.378C227.647 122.43 227.617 122.478 227.579 122.518C227.541 122.558 227.495 122.59 227.444 122.612C227.393 122.634 227.338 122.645 227.283 122.645C226.917 122.645 226.552 122.645 226.23 122.645H224.082C223.781 122.645 223.416 122.645 223.051 122.645C222.937 122.645 222.828 122.6 222.747 122.519C222.666 122.439 222.621 122.33 222.621 122.216V21.4235C219.07 21.3278 215.564 20.6006 212.268 19.2758C211.062 18.9057 209.947 18.2888 208.992 17.4643C208.038 16.6397 207.266 15.6255 206.725 14.4864C206.715 14.4441 206.715 14.3998 206.725 14.3575V14.0569C206.725 11.6514 208.874 9.56816 212.268 8.02181C216.363 6.38062 220.744 5.57022 225.156 5.63782C229.568 5.57136 233.948 6.38173 238.044 8.02181C241.46 9.56816 243.586 11.6514 243.586 14.0569ZM242.727 14.2931V14.0569C242.727 11.9092 240.858 10.1695 237.679 8.83795C233.675 7.22073 229.388 6.42458 225.07 6.49689C220.76 6.42746 216.479 7.22356 212.482 8.83795C209.303 10.1695 207.413 12.0166 207.413 14.0569V14.2931C208.471 16.3362 210.293 17.8796 212.482 18.5885C215.801 19.8871 219.317 20.6133 222.879 20.7362C222.936 20.7331 222.993 20.7422 223.047 20.7626C223.101 20.7831 223.149 20.8147 223.19 20.8552C223.23 20.8957 223.262 20.9443 223.282 20.9978C223.303 21.0513 223.312 21.1086 223.309 21.1658V121.893C223.529 121.926 223.754 121.926 223.974 121.893H226.123C226.351 121.925 226.582 121.925 226.81 121.893V21.1658C226.81 20.9296 226.917 20.7362 227.175 20.7362C230.759 20.6194 234.296 19.8931 237.636 18.5885C238.72 18.2424 239.725 17.6845 240.591 16.9471C241.458 16.2098 242.169 15.3076 242.684 14.2931H242.727Z" fill="#82AEFF"/>
<path d="M243.586 14.3576V129.475C243.457 131.623 241.631 133.599 238.71 135.059C235.1 136.671 231.212 137.568 227.261 137.701C227.205 137.701 227.151 137.69 227.1 137.668C227.049 137.646 227.003 137.614 226.964 137.574C226.926 137.533 226.897 137.486 226.877 137.434C226.858 137.382 226.85 137.327 226.853 137.271V21.1229C226.847 21.0181 226.881 20.9149 226.949 20.8349C227.017 20.7549 227.113 20.7042 227.218 20.6934C230.787 20.5725 234.31 19.8462 237.636 18.5456C238.72 18.1995 239.724 17.6416 240.591 16.9043C241.457 16.1669 242.169 15.2647 242.684 14.2502C242.734 14.1505 242.817 14.0706 242.918 14.0238C243.02 13.977 243.134 13.966 243.242 13.9925C243.328 14.0287 243.401 14.0881 243.455 14.1641C243.508 14.2401 243.538 14.3294 243.543 14.422L243.586 14.3576ZM242.727 129.346V15.9684C241.452 17.4569 239.818 18.5954 237.98 19.2759C234.685 20.6055 231.178 21.3329 227.626 21.4236V136.713C231.337 136.592 234.987 135.738 238.366 134.2C241.051 132.911 242.663 131.193 242.663 129.411V129.282L242.727 129.346Z" fill="#82AEFF"/>
<path d="M222.793 137.701C218.841 137.579 214.95 136.681 211.344 135.059C208.423 133.599 206.597 131.687 206.489 129.475V14.3576C206.486 14.3022 206.495 14.2469 206.514 14.1949C206.533 14.1428 206.563 14.0953 206.601 14.0551C206.639 14.0149 206.685 13.9829 206.736 13.9611C206.787 13.9392 206.842 13.928 206.897 13.9281C206.985 13.9219 207.072 13.9497 207.14 14.0056C207.208 14.0616 207.252 14.1414 207.263 14.2287C208.354 16.2701 210.194 17.8095 212.397 18.5242C215.736 19.8287 219.274 20.555 222.858 20.6719C222.962 20.6827 223.058 20.7334 223.126 20.8134C223.194 20.8934 223.229 20.9966 223.223 21.1014V137.25C223.226 137.307 223.217 137.364 223.196 137.418C223.176 137.471 223.144 137.52 223.104 137.56C223.063 137.601 223.015 137.632 222.961 137.653C222.908 137.673 222.85 137.682 222.793 137.679V137.701ZM211.709 134.264C215.087 135.808 218.738 136.662 222.449 136.777V21.488C218.898 21.3923 215.392 20.6651 212.096 19.3403C210.264 18.6483 208.632 17.5117 207.349 16.0328C207.349 52.2432 205.415 93.9948 207.349 129.475C207.349 131.322 209.067 133.04 211.645 134.329L211.709 134.264Z" fill="#82AEFF"/>
<path d="M263.069 191.093V191.522C262.284 193.63 260.757 195.379 258.773 196.441C256.11 197.994 253.206 199.09 250.181 199.684V267.508C250.176 267.621 250.129 267.727 250.049 267.806C249.97 267.886 249.864 267.933 249.751 267.938L247.603 267.573C246.937 267.465 246.186 267.337 245.455 267.272C245.355 267.253 245.264 267.2 245.197 267.121C245.131 267.043 245.093 266.945 245.09 266.843V200.607C244.188 200.736 243.264 200.8 242.362 200.865C241.46 200.929 240.214 200.865 239.14 200.865C233.711 200.937 228.31 200.065 223.18 198.288C218.884 196.548 215.812 194.164 215.017 191.458V191.093C215.017 188.065 217.767 185.358 222.213 183.404C227.595 181.266 233.35 180.222 239.14 180.333C244.931 180.211 250.688 181.255 256.067 183.404C260.513 185.358 263.241 188.065 263.241 191.093H263.069ZM262.275 191.265V191.093C262.275 188.43 259.718 185.981 255.594 184.134C250.3 182.068 244.65 181.069 238.968 181.192C233.307 181.063 227.677 182.064 222.406 184.134C218.261 185.981 215.704 188.43 215.704 191.093V191.265C216.37 193.735 219.163 195.882 223.309 197.472C228.33 199.273 233.634 200.153 238.968 200.07C240.064 200.07 241.116 200.07 242.126 199.941C243.135 199.813 244.274 199.813 245.24 199.684C245.294 199.681 245.348 199.688 245.398 199.706C245.449 199.724 245.496 199.752 245.535 199.788C245.575 199.824 245.608 199.867 245.631 199.916C245.654 199.964 245.667 200.017 245.67 200.07V266.413L247.56 266.649L249.214 266.971V199.383C249.21 199.288 249.237 199.195 249.292 199.117C249.346 199.039 249.425 198.982 249.515 198.953C252.585 198.386 255.53 197.281 258.215 195.689C260.049 194.753 261.477 193.18 262.232 191.265H262.275Z" fill="#82AEFF"/>
<path d="M245.348 286.065C244.317 286.194 243.2 286.301 242.19 286.365C241.181 286.43 240.042 286.365 238.968 286.365C233.185 286.463 227.437 285.442 222.041 283.359C217.595 281.383 214.845 278.677 214.845 275.605C215.339 247.685 214.845 219.228 214.845 191.179C214.85 191.067 214.897 190.96 214.977 190.881C215.056 190.801 215.163 190.754 215.275 190.749C215.373 190.764 215.466 190.806 215.541 190.871C215.617 190.935 215.674 191.02 215.704 191.114C216.37 193.52 219.163 195.732 223.309 197.321C228.33 199.122 233.634 200.003 238.968 199.92C240.064 199.92 241.116 199.92 242.126 199.791C243.135 199.662 244.274 199.662 245.283 199.533C245.338 199.527 245.393 199.533 245.445 199.55C245.497 199.566 245.544 199.594 245.585 199.63C245.626 199.667 245.658 199.711 245.68 199.761C245.702 199.811 245.713 199.865 245.713 199.92V285.635C245.708 285.73 245.668 285.82 245.6 285.888C245.533 285.955 245.443 285.995 245.348 286V286.065ZM242.126 285.506C243.092 285.506 244.016 285.377 244.918 285.27V200.457C244.016 200.586 243.157 200.65 242.19 200.715C241.224 200.779 240.042 200.715 238.968 200.715C233.539 200.787 228.138 199.915 223.008 198.137C220.122 197.193 217.58 195.414 215.704 193.026V275.605C215.704 278.247 218.261 280.717 222.406 282.542C227.67 284.645 233.301 285.674 238.968 285.571C240.064 285.571 241.116 285.571 242.126 285.442V285.506Z" fill="#82AEFF"/>
<path d="M263.069 191.329V275.756C262.973 276.942 262.59 278.087 261.954 279.093C261.318 280.1 260.448 280.937 259.418 281.533C256.468 283.434 253.178 284.747 249.73 285.399C249.679 285.415 249.625 285.42 249.572 285.413C249.519 285.406 249.468 285.388 249.423 285.359C249.378 285.33 249.34 285.292 249.311 285.247C249.283 285.202 249.264 285.151 249.257 285.098V199.383C249.257 199.19 249.365 198.953 249.558 198.953C252.623 198.369 255.565 197.265 258.258 195.689C260.111 194.747 261.544 193.146 262.275 191.2C262.317 191.11 262.389 191.036 262.479 190.993C262.569 190.95 262.672 190.94 262.769 190.964C262.854 190.979 262.931 191.024 262.986 191.091C263.041 191.158 263.071 191.242 263.069 191.329ZM262.275 275.691V193.176C261.316 194.499 260.095 195.61 258.687 196.441C256.024 197.994 253.12 199.09 250.095 199.684V284.475C253.266 283.849 256.281 282.601 258.967 280.803C259.896 280.301 260.688 279.578 261.272 278.698C261.857 277.817 262.216 276.807 262.318 275.756L262.275 275.691Z" fill="#82AEFF"/>
<path d="M149.93 185.423V281.533V281.726C149.93 281.726 149.93 281.726 149.93 281.834H149.801C149.801 281.834 149.801 281.834 149.694 281.834H27.4258C27.4258 281.834 27.4258 281.834 27.4258 281.726V281.597C27.4258 281.597 27.4258 281.597 27.4258 281.469V185.487C27.4258 185.487 27.4258 185.487 27.4258 185.358C27.4258 185.358 27.4258 185.358 27.4258 185.23H149.458H149.565C149.565 185.23 149.565 185.23 149.694 185.23C149.694 185.23 149.694 185.23 149.694 185.358V185.487L149.93 185.423ZM148.835 280.867V185.981H28.0917V280.867H148.835Z" fill="#82AEFF"/>
<path d="M206.575 15.9684C206.572 15.9131 206.581 15.8577 206.6 15.8057C206.619 15.7537 206.649 15.7061 206.687 15.666C206.725 15.6258 206.771 15.5937 206.822 15.5719C206.873 15.5501 206.928 15.5389 206.983 15.5389C207.041 15.5358 207.098 15.5448 207.151 15.5653C207.205 15.5858 207.254 15.6173 207.294 15.6578C207.335 15.6983 207.366 15.7469 207.387 15.8004C207.407 15.854 207.416 15.9112 207.413 15.9684V128.616C207.416 128.673 207.407 128.73 207.387 128.784C207.366 128.837 207.335 128.886 207.294 128.927C207.254 128.967 207.205 128.999 207.151 129.019C207.098 129.04 207.041 129.049 206.983 129.045C206.928 129.046 206.873 129.034 206.822 129.013C206.771 128.991 206.725 128.959 206.687 128.918C206.649 128.878 206.619 128.831 206.6 128.779C206.581 128.727 206.572 128.671 206.575 128.616V15.9684Z" fill="#82AEFF"/>
</svg>
