<svg width="356" height="357" viewBox="0 0 356 357" fill="none" xmlns="http://www.w3.org/2000/svg">
<g clip-path="url(#clip0_218_4198)">
<path fill-rule="evenodd" clip-rule="evenodd" d="M355.946 286.22C353.831 248.539 316.541 229.211 277.117 216.425C186.964 187.198 50.9297 215.882 10.0205 252.964C-8.55944 269.817 -0.113839 310.948 25.5563 326.771C106.521 376.713 360.235 362.523 355.946 286.22Z" fill="#F0F6FF"/>
<path fill-rule="evenodd" clip-rule="evenodd" d="M259.763 20.9866C259.893 20.9866 260.005 20.9866 260.116 20.9866H260.134C260.951 21.0429 261.749 21.3611 262.379 21.9989L349.024 108.292C349.766 108.948 350.249 109.904 350.249 110.992C350.249 112.923 348.69 114.516 346.759 114.516H326.639V249.459C326.639 251.39 325.08 252.965 323.149 252.965H260.134H196.729H158.845V20.9866H259.763Z" fill="#CADEFC"/>
<path fill-rule="evenodd" clip-rule="evenodd" d="M259.763 20.9866C259.893 20.9866 260.005 20.9866 260.116 20.9866H260.134C260.951 21.0429 261.749 21.3611 262.38 21.9989L349.024 108.292C349.766 108.948 350.249 109.904 350.249 110.992C350.249 112.923 348.69 114.516 346.759 114.516H326.639H145.593L105.649 20.9866H259.763Z" fill="#CADEFC"/>
<path fill-rule="evenodd" clip-rule="evenodd" d="M39.1252 249.459V114.516H19.0045V114.497C18.114 114.497 17.2038 114.141 16.5359 113.447C15.1811 112.059 15.1995 109.847 16.5732 108.479L103.385 21.9989C104.739 20.6487 106.911 20.6487 108.266 21.9989L194.91 108.292C195.653 108.948 196.135 109.904 196.135 110.992C196.135 112.923 194.576 114.516 192.646 114.516H172.525V249.459C172.525 251.39 170.966 252.965 169.035 252.965H42.6146C40.6842 252.964 39.1252 251.39 39.1252 249.459Z" fill="#E3EEFF"/>
<path fill-rule="evenodd" clip-rule="evenodd" d="M39.1252 114.516H19.0045V114.497C18.114 114.497 17.2038 114.141 16.5359 113.447C15.1811 112.059 15.1995 109.847 16.5732 108.479L103.385 21.9989C104.739 20.6487 106.911 20.6487 108.266 21.9989L194.91 108.292C195.653 108.948 196.135 109.904 196.135 110.992C196.135 112.923 194.576 114.516 192.646 114.516H172.525H39.1252V114.516Z" fill="#D6E5FC"/>
<path d="M167.03 114.46H95.4214" stroke="#FEFEFE" stroke-width="7.1576" stroke-miterlimit="10" stroke-linecap="round" stroke-linejoin="round"/>
<path d="M75.7275 114.46H85.5836" stroke="#FEFEFE" stroke-width="7.1576" stroke-miterlimit="10" stroke-linecap="round" stroke-linejoin="round"/>
<path fill-rule="evenodd" clip-rule="evenodd" d="M83.8392 252.964H127.829C128.46 252.964 128.961 252.458 128.961 251.82V161.383C128.961 160.746 128.46 160.24 127.829 160.24H83.8392C83.2086 160.24 82.707 160.746 82.707 161.383V251.82C82.707 252.458 83.208 252.964 83.8392 252.964Z" fill="#C4DCFF"/>
<path fill-rule="evenodd" clip-rule="evenodd" d="M236.247 191.042H278.566C279.66 191.042 280.533 190.161 280.533 189.055V150.791C280.533 149.685 279.66 148.804 278.566 148.804H236.247C235.169 148.804 234.278 149.685 234.278 150.791V189.055C234.278 190.161 235.169 191.042 236.247 191.042Z" fill="#B4CFF7"/>
<path fill-rule="evenodd" clip-rule="evenodd" d="M228.153 92.0939L196.097 63.2984C194.65 61.9862 193.407 59.2112 192.923 56.4558C192.794 56.0806 192.719 55.687 192.719 55.2555V54.1496V54.1312V5.25767V5.23868V3.49495C192.719 1.62026 194.241 0.0834423 196.097 0.0834423L228.153 0.0644531C230.009 0.0644531 231.531 1.60192 231.531 3.47661V28.56V55.2372V89.0006C231.531 92.3755 230.009 93.7623 228.153 92.0939Z" fill="#D6E5FC"/>
<path fill-rule="evenodd" clip-rule="evenodd" d="M235.428 9.51321H188.821C188.375 9.51321 188.004 9.13801 188.004 8.68816V0.8895C188.004 0.439653 188.375 0.0644531 188.821 0.0644531H235.428C235.874 0.0644531 236.246 0.439653 236.246 0.8895V8.68816C236.246 9.13801 235.874 9.51321 235.428 9.51321Z" fill="#E3EEFF"/>
<path fill-rule="evenodd" clip-rule="evenodd" d="M114.466 69.2977C112.832 71.8475 111.18 80.7521 106.67 83.8454C101.826 87.1633 97.1293 89.8257 97.2779 100.53C97.3709 107.392 99.5055 110.092 91.1156 115.303C84.9533 119.146 81.7605 127.339 84.749 134.332C88.0531 142.149 71.7931 152.385 93.3616 159.959C105.055 164.084 113.018 157.148 121.965 151.505C127.162 148.224 133.194 154.373 139.672 157.091C159.625 165.509 178.15 143.837 178.15 135.569C178.15 123.665 171.597 124.134 168.775 117.703C164.358 107.636 166.511 104.092 165.62 99.1435C164.822 94.7 163.114 95.1878 158.659 89.2822C154.465 83.6954 155.56 69.485 146.947 62.6803C142.919 59.4934 139.319 60.3748 139.319 60.3748C122.948 59.0809 130.595 68.4923 119.941 75.166C111.477 80.4522 114.707 68.9225 114.466 69.2977Z" fill="#BC653E"/>
<path fill-rule="evenodd" clip-rule="evenodd" d="M116.117 96.0685C115.913 104.13 110.493 100.68 110.976 107.41C111.124 109.398 112.293 113.091 104.238 119.24C97.4259 124.47 97.1849 147.079 104.591 153.472C114.911 162.377 129.11 163.577 142.418 157.634C144.906 156.509 140.711 154.728 149.305 155.029C153.964 155.179 160.887 145.599 158.678 140.162C154.576 130.076 167.124 123.421 153.89 110.054C148.302 104.411 149.602 94.0072 142.141 91.4201C126.753 86.0959 121.612 94.9632 120.331 94.8506C119.755 94.7936 116.136 95.0189 116.117 96.0685Z" fill="#AB5730"/>
<path fill-rule="evenodd" clip-rule="evenodd" d="M138.112 262.581L141.454 318.541V324.484H152.126V319.047L156.544 262.787C156.526 249.683 149.677 246.008 144.628 246.889C140.08 247.677 137.444 251.371 138.112 262.581Z" fill="#F39176"/>
<path fill-rule="evenodd" clip-rule="evenodd" d="M126.14 262.581L122.799 318.541V324.484H112.145V319.047L107.727 262.787C107.727 249.683 114.576 246.008 119.625 246.889C124.191 247.677 126.809 251.371 126.14 262.581Z" fill="#F39176"/>
<path fill-rule="evenodd" clip-rule="evenodd" d="M124.916 283.033L124.396 291.845L110.048 292.371L109.361 283.596L124.916 283.033Z" fill="#E8866A"/>
<path fill-rule="evenodd" clip-rule="evenodd" d="M139.876 291.901L154.316 290.983L155.022 282.134L139.337 283.128L139.876 291.901Z" fill="#E8866A"/>
<path fill-rule="evenodd" clip-rule="evenodd" d="M150.251 139.412C155.188 148.111 166.102 181.799 176.329 176.1C184.961 171.282 167.902 138.568 164.692 131.145C162.966 127.058 156.952 124.096 153.351 125.727C149.175 127.62 147.634 134.8 150.251 139.412Z" fill="#F39176"/>
<path fill-rule="evenodd" clip-rule="evenodd" d="M159.588 126.026L148.358 120.927C140.229 117.103 139.542 113.69 138.576 107.11L132.136 107.148L125.676 107.11C124.729 113.69 124.024 117.103 115.913 120.927L104.665 126.026L111.886 177.581C109.955 194.791 103.96 205.307 106.039 226.342H132.136H158.215C160.312 205.307 154.298 194.791 152.368 177.581L159.588 126.026Z" fill="#E8866A"/>
<path fill-rule="evenodd" clip-rule="evenodd" d="M159.829 125.483L148.599 120.383C147.56 119.877 146.539 119.352 145.555 118.752C141.23 128.913 127.588 131.538 118.697 118.808L118.715 118.752L118.529 118.846C117.713 119.352 116.766 119.858 115.652 120.383L104.423 125.483C104.181 125.595 104.033 125.876 104.089 126.139C107.133 147.961 111.402 165.639 108.71 186.074C108.376 188.53 108.896 191.155 108.321 193.704C106.168 203.283 104.071 212.582 105.444 226.398C105.481 226.699 105.741 226.943 106.038 226.943H158.213C158.547 226.943 158.807 226.68 158.807 226.342C160.181 212.563 158.084 203.283 155.93 193.704C155.225 190.591 155.652 187.779 155.318 184.798C153.09 165.039 157.211 147.36 160.181 126.12C160.219 125.839 160.07 125.595 159.829 125.483Z" fill="#FFBA42"/>
<path fill-rule="evenodd" clip-rule="evenodd" d="M148.525 120.346C147.504 119.858 146.52 119.334 145.555 118.752C141.231 128.913 127.588 131.538 118.697 118.808L118.715 118.752L118.529 118.846C117.824 119.277 117.008 119.727 116.079 120.177C117.62 125.726 124.302 129.907 132.32 129.907C140.247 129.907 146.892 125.802 148.525 120.346Z" fill="#FFC766"/>
<path fill-rule="evenodd" clip-rule="evenodd" d="M136.962 126.777C133.973 127.714 130.595 127.602 127.291 126.195V155.722H136.962V126.777Z" fill="#FFC766"/>
<path fill-rule="evenodd" clip-rule="evenodd" d="M179.652 173.157L197.545 149.198C197.657 147.454 194 143.274 189.304 142.561L168.59 163.183C163.467 167.814 166.753 172.857 169.908 175.219C172.748 177.356 176.145 177.862 179.652 173.157Z" fill="#F39176"/>
<path fill-rule="evenodd" clip-rule="evenodd" d="M133.509 212.282C134.715 219.706 135.94 243.927 138.019 258.681C139.578 269.761 140.655 273.342 147.801 272.573C153.517 271.973 155.058 270.867 156.413 259.994C158.418 244.021 158.492 215.806 158.232 209.527C158.01 203.697 150.418 197.117 144.756 197.284C138.149 197.472 132.377 205.402 133.509 212.282Z" fill="#F39176"/>
<path fill-rule="evenodd" clip-rule="evenodd" d="M130.762 212.282C129.537 219.706 128.312 243.927 126.233 258.681C124.692 269.761 123.598 273.342 116.451 272.573C110.753 271.973 109.194 270.867 107.839 259.994C105.834 244.021 105.76 215.806 106.038 209.527C106.261 203.697 113.853 197.117 119.514 197.284C126.103 197.472 131.875 205.402 130.762 212.282Z" fill="#F39176"/>
<path fill-rule="evenodd" clip-rule="evenodd" d="M132.135 110.092C145.128 110.316 150.92 92.8443 150.92 82.2706C150.92 71.7912 142.475 63.2238 132.135 63.1111C121.778 63.2238 113.351 71.7912 113.351 82.2706C113.351 92.8443 119.124 110.316 132.135 110.092Z" fill="#F39176"/>
<path fill-rule="evenodd" clip-rule="evenodd" d="M131.913 235.416C132.47 252.832 133.082 274.823 134.344 283.858C145.945 284.252 154.947 283.671 166.511 282.714C167.105 273.96 165.286 231.085 159.996 205.589C159.124 201.371 157.954 197.247 157.026 193.048C156.432 190.366 155.838 187.648 155.319 184.798C147.393 187.254 138.762 188.604 129.741 188.604C122.409 188.604 115.337 187.723 108.711 186.074C101.305 223.231 97.8337 245.672 99.931 284.497L128.886 284.59C128.385 282.923 129.499 265.619 129.648 264.569C130.707 257.126 131.355 245.784 131.913 235.416Z" fill="#D9788C"/>
<path fill-rule="evenodd" clip-rule="evenodd" d="M161.574 214.289C161.072 211.233 160.553 208.308 159.996 205.59C159.124 201.372 157.954 197.247 157.026 193.049L156.803 191.999C153.777 192.655 150.288 193.179 146.464 193.516C147.189 197.247 150.493 210.145 161.574 214.289Z" fill="#C96A7D"/>
<path fill-rule="evenodd" clip-rule="evenodd" d="M131.616 137.93C132.543 137.949 132.97 136.993 132.97 136.393C132.97 135.793 132.357 135.306 131.616 135.287C130.873 135.306 130.261 135.793 130.261 136.393C130.261 136.993 130.669 137.949 131.616 137.93Z" fill="white"/>
<path fill-rule="evenodd" clip-rule="evenodd" d="M131.95 144.867C132.878 144.886 133.305 143.949 133.305 143.33C133.305 142.73 132.692 142.242 131.95 142.242C131.208 142.242 130.595 142.73 130.595 143.33C130.595 143.949 131.003 144.886 131.95 144.867Z" fill="white"/>
<path fill-rule="evenodd" clip-rule="evenodd" d="M132.414 193.873V226.249C132.414 226.774 131.95 226.774 131.95 226.305L131.932 215C129.37 216.013 126.215 215.581 126.085 212.263C125.956 208.663 126.382 204.408 126.327 200.602C126.289 198.446 126.253 195.897 126.327 193.721H126.494H126.791C126.735 195.878 126.773 198.428 126.809 200.583C126.865 204.37 126.42 208.646 126.568 212.225C126.698 215.355 129.668 215.299 131.933 214.494V193.909L132.414 193.873Z" fill="#C96A7D"/>
<path fill-rule="evenodd" clip-rule="evenodd" d="M153.946 186.861C154.057 186.843 154.131 186.73 154.113 186.617C154.094 186.523 153.964 186.448 153.853 186.467C143.978 188.305 137.779 189.262 131.542 189.28C125.306 189.299 119.013 188.362 108.99 186.467C108.861 186.449 108.749 186.524 108.73 186.617C108.712 186.73 108.786 186.843 108.897 186.861C118.958 188.773 125.268 189.692 131.542 189.673C137.815 189.673 144.052 188.717 153.946 186.861ZM153.946 191.247C154.057 191.23 154.131 191.117 154.113 191.022C154.094 190.91 153.964 190.836 153.853 190.853C143.978 192.71 137.779 193.648 131.542 193.666C125.306 193.685 119.013 192.767 108.99 190.853C108.861 190.836 108.749 190.91 108.73 191.022C108.712 191.117 108.786 191.229 108.897 191.247C118.958 193.161 125.268 194.079 131.542 194.079C137.815 194.06 144.052 193.104 153.946 191.247Z" fill="#C96A7D"/>
<path d="M144.275 193.179C145.388 200.265 147.578 205.814 151.217 209.882C153.927 212.92 157.435 215.133 161.908 216.538L161.834 215.994C157.546 214.626 154.168 212.47 151.57 209.564C147.987 205.571 145.853 200.097 144.758 193.105L144.275 193.179ZM103.792 212.957C103.792 213.162 103.774 213.351 103.755 213.557C105.37 212.506 106.799 211.289 108.043 209.882C111.681 205.814 113.871 200.265 114.966 193.179L114.502 193.105C113.407 200.097 111.272 205.571 107.69 209.564C106.54 210.839 105.259 211.982 103.792 212.957Z" fill="#C96A7D"/>
<path d="M104.962 212.208L99.9316 284.496L100.414 284.534L105.444 212.245L104.962 212.208ZM134.493 234.686L129.295 234.253C128.497 234.179 128.479 234.667 129.184 234.723L131.504 234.911L134.102 283.858L134.585 283.841L131.968 234.966L134.474 235.173C134.808 235.191 134.864 234.723 134.493 234.686ZM158.975 215.282L164.339 282.883L164.803 282.846L159.439 215.245L158.975 215.282Z" fill="#C96A7D"/>
<path fill-rule="evenodd" clip-rule="evenodd" d="M107.319 192.41L113.055 193.423C113.073 193.497 111.532 204.728 103.904 211.496V211.477V211.458C103.922 211.271 103.922 211.083 103.959 210.897C104.572 204.146 105.964 198.372 107.319 192.41Z" fill="#C96A7D"/>
<path fill-rule="evenodd" clip-rule="evenodd" d="M135.086 287.983L167.903 286.727C168.051 286.727 168.2 286.597 168.2 286.446C168.349 284.328 169.462 281.29 167.235 281.385L133.787 282.658C132.061 282.714 132.729 285.715 132.581 287.739C132.599 288.19 134.752 288.002 135.086 287.983Z" fill="#C96A7D"/>
<path fill-rule="evenodd" clip-rule="evenodd" d="M97.4072 288.377L129.036 287.664C129.185 287.683 129.314 287.551 129.314 287.402C129.463 285.265 130.52 282.265 128.386 282.303L96.1454 283.016C94.4933 283.053 95.1245 286.053 94.9759 288.077C94.9942 288.545 97.0732 288.377 97.4072 288.377Z" fill="#C96A7D"/>
<path fill-rule="evenodd" clip-rule="evenodd" d="M153.982 85.4948C153.796 86.957 151.383 89.0759 150.53 87.2386C146.576 76.7591 140.433 79.2146 135.699 74.8092C133.787 73.0281 131.616 68.6226 130.873 65.642C127.626 61.4427 137.11 63.0175 140.136 63.4864C145.796 64.3671 155.225 75.3526 153.982 85.4948Z" fill="#BC653E"/>
<path fill-rule="evenodd" clip-rule="evenodd" d="M113.723 87.2386C113.723 87.2386 115.412 80.3396 119.774 78.4459C130.595 73.7215 133.546 70.1031 132.971 66.1291C132.674 64.2171 136.479 64.9289 138.15 64.9852C141.881 65.0788 142.084 59.7737 136.052 58.1799C130.8 56.8113 119.83 58.4045 114.985 66.7846C114.354 67.8722 113.798 69.1654 113.333 70.5713C112.332 73.6829 111.7 78.9704 107.932 82.7571C107.189 83.5082 113.593 86.1889 113.723 87.2386Z" fill="#BC653E"/>
<path fill-rule="evenodd" clip-rule="evenodd" d="M153.035 87.1639C155.151 87.9516 156.098 90.7823 155.114 93.5004C154.131 96.2185 151.625 97.7743 149.49 97.0062C147.374 96.2191 146.427 93.3885 147.411 90.6697C148.394 87.951 150.901 86.3952 153.035 87.1639Z" fill="#F39176"/>
<path fill-rule="evenodd" clip-rule="evenodd" d="M111.235 87.1639C109.101 87.9516 108.173 90.7823 109.138 93.5004C110.122 96.2185 112.628 97.7743 114.762 97.0062C116.897 96.2191 117.825 93.3885 116.841 90.6697C115.876 87.951 113.351 86.3952 111.235 87.1639Z" fill="#F39176"/>
<path fill-rule="evenodd" clip-rule="evenodd" d="M128.052 98.7872C128.35 101.637 130.057 103.83 132.136 103.83C134.196 103.83 135.903 101.637 136.201 98.7872H128.052Z" fill="#AD5B49"/>
<path fill-rule="evenodd" clip-rule="evenodd" d="M128.052 98.7872L128.071 98.8992C129.129 99.368 130.576 99.6496 132.173 99.6496C133.75 99.6306 135.161 99.3307 136.201 98.8619V98.7872H128.052Z" fill="#FEFEFE"/>
<path fill-rule="evenodd" clip-rule="evenodd" d="M129.147 101.993C129.89 103.136 130.948 103.83 132.135 103.83C133.305 103.83 134.381 103.117 135.123 101.974C134.493 101.243 133.36 100.756 132.098 100.774C130.855 100.793 129.778 101.261 129.147 101.993Z" fill="#DE6A50"/>
<path fill-rule="evenodd" clip-rule="evenodd" d="M117.936 95.4497C117.75 96.9119 119.31 98.2804 121.407 98.5057C123.504 98.7309 125.342 97.718 125.528 96.2558C125.695 94.7936 124.136 93.4061 122.038 93.1998C119.941 92.9752 118.103 93.9876 117.936 95.4497Z" fill="#DE6A50"/>
<path fill-rule="evenodd" clip-rule="evenodd" d="M205.119 143.724C203.281 145.73 199.067 147.642 197.953 148.636L191.495 156.641C188.339 154.073 186.688 152.498 183.533 149.929C187.968 144.399 191.421 139.843 195.542 134.069C195.579 134.013 195.634 133.957 195.671 133.919C195.708 133.881 195.745 133.825 195.782 133.788L201.054 127.151C201.073 127.114 201.11 127.077 201.128 127.058C201.165 127.02 201.184 127.001 201.221 126.964L205.601 121.64C205.843 121.321 206.214 121.152 206.585 121.115C206.956 121.077 207.346 121.19 207.642 121.452H207.661C207.958 121.714 208.126 122.052 208.163 122.427C208.2 122.802 208.089 123.196 207.847 123.533L203.003 130.169L208.868 123.177C209.128 122.858 209.5 122.67 209.89 122.632C210.279 122.576 210.669 122.689 210.985 122.951C211.319 123.214 211.504 123.589 211.542 123.964C211.579 124.357 211.487 124.77 211.226 125.089L205.491 132.587L205.064 133.187L206.457 131.537L206.512 131.462L206.569 131.406L210.727 126.513C210.986 126.194 211.376 126.007 211.747 125.969C212.138 125.931 212.546 126.044 212.88 126.306C213.195 126.569 213.363 126.925 213.4 127.3C213.437 127.694 213.325 128.088 213.065 128.425L207.59 135.624L207.032 136.392L208.202 135.174L208.24 135.117C208.257 135.099 208.277 135.061 208.295 135.043L211.728 131.481C211.989 131.218 212.323 131.05 212.657 131.012C212.991 130.975 213.325 131.05 213.623 131.293C213.9 131.518 214.068 131.856 214.105 132.193C214.142 132.549 214.05 132.906 213.826 133.205L210.893 136.88C210.856 136.917 210.838 136.955 210.801 136.993C208.664 139.674 206.938 141.718 205.119 143.724Z" fill="#F39176"/>
<path fill-rule="evenodd" clip-rule="evenodd" d="M194.482 139.806L191.475 144.886C191.42 144.999 190.845 136.582 191.272 135.194L192.979 129.645C193.219 128.839 193.888 128.22 194.723 128.351C195.54 128.482 195.689 129.157 196.003 129.926C196.841 132.045 195.058 138.85 194.482 139.806Z" fill="#F39176"/>
<path fill-rule="evenodd" clip-rule="evenodd" d="M195.764 130.282C197.508 128.388 197.006 124.47 195.764 123.983L195.559 123.908C194.928 123.664 194.724 124.226 194.501 124.864L193.016 129.438L195.764 130.282Z" fill="#F39176"/>
<path fill-rule="evenodd" clip-rule="evenodd" d="M198.027 138.812C197.804 140.743 196.877 142.487 195.578 143.686C196.673 142.411 197.453 140.706 197.656 138.831C197.879 136.956 197.471 135.288 196.654 134.087C197.713 135.194 198.251 136.881 198.027 138.812Z" fill="#DE6A50"/>
<path d="M199.514 133.45L204.766 139.468C204.08 137.912 201.276 133.431 199.514 133.45Z" fill="#DE6A50"/>
<path fill-rule="evenodd" clip-rule="evenodd" d="M92.9527 173.231L93.1937 181.93L96.1822 208.627C97.2214 210.032 99.616 205.346 103.606 202.796L107.764 173.494C108.655 166.614 102.901 164.964 98.9847 165.245C95.4586 165.489 92.5631 167.345 92.9527 173.231Z" fill="#F39176"/>
<path fill-rule="evenodd" clip-rule="evenodd" d="M122.076 85.3455C121.129 85.2892 120.219 85.1393 119.366 84.8204C119.087 84.7261 118.827 84.5951 118.605 84.4079C118.122 83.9574 118.215 83.3955 118.864 82.964C119.161 82.7951 119.458 82.6825 119.755 82.5888C120.758 82.2889 121.76 82.1953 122.725 82.1763C124.284 82.158 125.825 82.2136 127.236 82.7761C127.477 82.8514 127.699 82.9824 127.904 83.1323C128.108 83.2823 128.294 83.4885 128.256 83.8637C128.201 84.2389 127.941 84.4262 127.681 84.5762C127.347 84.8008 126.994 84.9134 126.623 85.007C125.082 85.4202 123.56 85.4575 122.076 85.3455Z" fill="#664738"/>
<path fill-rule="evenodd" clip-rule="evenodd" d="M123.913 86.826C121.686 86.6944 119.477 87.5947 117.937 89.2815C117.992 89.3751 118.085 89.5061 118.252 89.6377C119.83 91.1189 121.686 91.7933 123.728 91.8496H123.746C123.672 91.737 123.597 91.606 123.505 91.3991C122.781 89.8053 122.967 88.3058 123.858 86.9C123.876 86.8823 123.894 86.864 123.913 86.826Z" fill="#FEFEFE"/>
<path fill-rule="evenodd" clip-rule="evenodd" d="M123.745 91.8503C123.671 91.7377 123.597 91.6067 123.504 91.3998C122.781 89.806 122.966 88.3066 123.857 86.9007C123.876 86.8824 123.895 86.8634 123.913 86.826C124.692 86.8824 125.472 87.0696 126.233 87.3885C127.328 87.8384 128.256 88.5698 129.017 89.5441C129.054 89.6004 129.091 89.6567 129.11 89.6941C129.11 89.7124 129.092 89.7504 129.054 89.7687C128.071 90.7064 126.939 91.3808 125.583 91.6997C124.971 91.832 124.377 91.8693 123.745 91.8503Z" fill="#664738"/>
<path fill-rule="evenodd" clip-rule="evenodd" d="M139.096 84.7451C138.168 84.7077 137.258 84.5578 136.386 84.2389C136.126 84.1453 135.866 84.0137 135.643 83.8074C135.141 83.3765 135.253 82.7951 135.903 82.3826C136.181 82.1953 136.497 82.1016 136.793 82.0074C137.796 81.7075 138.78 81.5948 139.764 81.5948C141.304 81.5765 142.845 81.6328 144.274 82.1763C144.497 82.2699 144.719 82.4015 144.942 82.5325C145.147 82.6825 145.332 82.8887 145.276 83.2639C145.221 83.6574 144.961 83.8454 144.719 83.9953C144.366 84.2199 144.014 84.3325 143.661 84.4262C142.103 84.8204 140.599 84.8577 139.096 84.7451Z" fill="#664738"/>
<path fill-rule="evenodd" clip-rule="evenodd" d="M140.952 86.826C138.725 86.6944 136.516 87.5947 134.976 89.2815C135.013 89.3751 135.125 89.5061 135.273 89.6377C136.851 91.1189 138.707 91.7933 140.749 91.8496H140.786C140.711 91.737 140.637 91.606 140.544 91.3991C139.821 89.8053 139.987 88.3058 140.897 86.9C140.915 86.8823 140.933 86.864 140.952 86.826Z" fill="#FEFEFE"/>
<path fill-rule="evenodd" clip-rule="evenodd" d="M140.785 91.8503C140.71 91.7377 140.636 91.6067 140.543 91.3998C139.82 89.806 139.986 88.3066 140.896 86.9007C140.915 86.8824 140.934 86.8634 140.952 86.826C141.731 86.8824 142.511 87.0696 143.272 87.3885C144.367 87.8384 145.295 88.5698 146.038 89.5441C146.093 89.6004 146.131 89.6567 146.149 89.6941C146.131 89.7124 146.112 89.7504 146.093 89.7687C145.11 90.7064 143.959 91.3808 142.604 91.6997C142.009 91.832 141.397 91.8693 140.785 91.8503Z" fill="#664738"/>
<path fill-rule="evenodd" clip-rule="evenodd" d="M115.894 139.843C112.757 149.348 108.098 183.768 97.1474 179.662C86.6228 175.707 98.4282 142.543 100.099 134.632C101.008 130.282 106.317 126.176 110.159 127.058C114.632 128.07 117.546 134.8 115.894 139.843Z" fill="#F39176"/>
<path fill-rule="evenodd" clip-rule="evenodd" d="M103.161 207.801C103.848 209.657 104.98 213.107 104.943 213.951L104.794 217.662L104.701 221.468V221.487L104.738 223.7C104.757 224.374 104.738 224.974 104.051 224.993H103.829C102.938 224.993 101.861 223.512 101.509 221.825V221.806C101.435 221.412 101.379 221.019 101.398 220.607V220.588C101.398 219.726 101.491 218.769 101.286 218.47C101.1 218.208 100.915 217.87 100.729 217.513C99.8385 216.126 99.6525 218.414 100.302 221.694L101.917 225.613L103.458 227.057C105.463 229.043 105.147 229.25 104.979 230.298C104.905 230.805 104.292 231.292 103.439 231.086C100.32 230.374 98.0928 228.856 97.6659 228.499C96.9607 227.899 95.1043 223.775 94.5477 223.062C92.6364 220.531 93.007 220.793 93.3972 217.719C93.9728 212.039 94.4737 211.421 94.1954 206.284L93.6762 186.224L105.332 186.805C105.129 189.299 102.995 207.221 103.161 207.801Z" fill="#F39176"/>
<path fill-rule="evenodd" clip-rule="evenodd" d="M121.741 141.493C120.331 144.848 115.282 161.084 111.403 172.575C109.936 176.962 108.73 188.004 107.616 196.816C106.743 203.658 106.224 207.033 105.611 208.12C104.832 209.508 103.347 207.614 94.8826 208.421C81.4258 209.733 88.7759 173.195 93.2678 153.716C96.2747 140.725 99.3745 131.014 102.827 126.402C103.866 124.996 107.467 123.009 110.697 121.809C112.943 120.984 115.763 120.234 115.875 120.271C116.377 120.44 123.82 136.6 121.741 141.493Z" fill="#FFBA42"/>
<path fill-rule="evenodd" clip-rule="evenodd" d="M146.892 139.993C149.323 144.268 159.031 176.475 171.912 178.144C173.008 178.294 174.122 178.219 175.272 177.882C178.538 176.494 188.897 169.876 194.65 162.059C199.03 156.098 200.98 149.498 192.683 143.65C188.414 140.632 189.176 140.95 185.426 144.344C181.787 147.624 176.646 152.349 175.996 150.905C172.173 142.6 164.433 127.415 159.83 125.484C157.417 124.472 155.301 124.846 153.352 125.728C149.175 127.62 144.275 135.381 146.892 139.993Z" fill="#FFBA42"/>
<path d="M104.517 127.47C104.331 127.301 104.312 127.001 104.479 126.814C104.665 126.608 104.943 126.608 105.129 126.777C109.231 130.582 109.769 131.857 111.421 135.738C111.736 136.506 112.108 137.388 112.553 138.362C112.646 138.606 112.553 138.868 112.312 138.981C112.089 139.093 111.81 138.981 111.699 138.737C111.235 137.706 110.882 136.844 110.567 136.094C108.99 132.363 108.451 131.126 104.517 127.47ZM155.857 159.359L155.894 159.546L162.446 170.757C162.576 170.982 162.502 171.282 162.279 171.413C162.056 171.526 161.777 171.451 161.648 171.245L155.077 159.959C155.059 159.921 155.04 159.884 155.021 159.847L154.984 159.715L151.309 155.347C151.142 155.141 151.16 154.86 151.346 154.691C151.55 154.522 151.847 154.541 151.995 154.728L154.464 157.634L152.441 149.779C152.367 149.535 152.515 149.273 152.756 149.217C153.016 149.141 153.258 149.291 153.332 149.554L155.857 159.359ZM166.789 134.369C166.659 134.144 166.734 133.844 166.956 133.713C167.179 133.581 167.458 133.657 167.588 133.881C170.427 138.643 172.321 141.905 173.768 144.979C175.216 148.073 176.199 150.979 177.203 155.009C177.332 155.515 177.462 156.04 177.573 156.584C177.685 157.072 177.814 157.634 177.963 158.289C178.018 158.552 177.87 158.796 177.611 158.852C177.369 158.908 177.127 158.739 177.072 158.496C176.942 157.971 176.813 157.408 176.682 156.808C176.553 156.246 176.423 155.721 176.292 155.234C175.308 151.26 174.343 148.41 172.933 145.391C171.504 142.337 169.611 139.093 166.789 134.369ZM109.361 186.917C109.323 187.179 109.101 187.348 108.842 187.33C108.6 187.292 108.415 187.067 108.433 186.805L112.034 155.366C112.053 155.103 112.294 154.916 112.535 154.953C112.795 154.972 112.981 155.197 112.944 155.459L109.361 186.917Z" fill="#DBA13D"/>
<path d="M117.936 119.259C117.658 118.828 117.769 118.247 118.195 117.965C118.622 117.684 119.198 117.796 119.476 118.247C121.37 121.19 124.58 123.664 128.144 125.052C130.242 125.877 132.469 126.327 134.604 126.252C136.719 126.196 138.743 125.652 140.506 124.508C142.399 123.271 143.996 121.321 145.072 118.509C145.258 118.04 145.796 117.797 146.279 117.984C146.742 118.171 146.984 118.696 146.798 119.184C145.573 122.39 143.717 124.621 141.508 126.064C139.448 127.414 137.09 128.052 134.659 128.126C132.264 128.201 129.796 127.714 127.476 126.795C123.56 125.276 120.033 122.539 117.936 119.259Z" fill="#FEFEFE"/>
<path fill-rule="evenodd" clip-rule="evenodd" d="M153.444 316.629H141.472C141.212 316.629 141.026 316.835 141.026 317.08V330.184C141.026 330.428 141.212 330.634 141.472 330.634H174.901C175.143 330.634 175.346 330.428 175.346 330.184C175.346 329.246 175.253 328.122 174.919 327.297C174.641 326.566 174.177 326.059 173.472 326.059C169.518 326.059 165.936 325.234 162.743 323.716C159.31 322.103 156.34 319.741 153.797 316.818C153.722 316.704 153.593 316.629 153.444 316.629Z" fill="#D9788C"/>
<path fill-rule="evenodd" clip-rule="evenodd" d="M150.659 316.441C153.388 319.535 156.989 323.04 160.441 324.672C163.689 326.19 167.42 327.465 171.355 327.634V325.984C168.2 325.739 165.304 324.952 162.668 323.715C159.364 322.158 155.708 319.047 154.557 315.147C154.019 313.33 149.583 315.241 150.659 316.441Z" fill="#C96A7D"/>
<path fill-rule="evenodd" clip-rule="evenodd" d="M164.877 330.633H174.9C175.142 330.633 175.345 330.427 175.345 330.182C175.345 329.245 175.252 328.121 174.918 327.296C174.64 326.564 174.176 326.058 173.471 326.058C170.371 326.058 167.513 325.553 164.876 324.615V330.633H164.877Z" fill="#FFD6DE"/>
<path fill-rule="evenodd" clip-rule="evenodd" d="M146.966 325.047C148.339 325.047 149.453 323.903 149.453 322.534C149.453 321.147 148.339 320.004 146.966 320.004C145.592 320.004 144.479 321.147 144.479 322.534C144.479 323.903 145.593 325.047 146.966 325.047Z" fill="white"/>
<path fill-rule="evenodd" clip-rule="evenodd" d="M153.351 321.691C153.778 321.691 154.149 321.316 154.149 320.884C154.149 320.435 153.778 320.079 153.351 320.079C152.906 320.079 152.553 320.435 152.553 320.884C152.553 321.316 152.906 321.691 153.351 321.691Z" fill="#B04C60"/>
<path fill-rule="evenodd" clip-rule="evenodd" d="M156.358 324.222C156.785 324.222 157.156 323.865 157.156 323.415C157.156 322.966 156.785 322.609 156.358 322.609C155.912 322.609 155.56 322.966 155.56 323.415C155.559 323.865 155.912 324.222 156.358 324.222Z" fill="#B04C60"/>
<path fill-rule="evenodd" clip-rule="evenodd" d="M159.904 326.714C160.349 326.714 160.702 326.359 160.702 325.909C160.702 325.459 160.349 325.104 159.904 325.104C159.477 325.104 159.105 325.459 159.105 325.909C159.105 326.359 159.477 326.714 159.904 326.714Z" fill="#B04C60"/>
<path d="M156.655 318.972C156.822 318.972 156.952 318.842 156.952 318.673C156.952 318.504 156.823 318.372 156.655 318.372C155.653 318.372 154.744 318.634 154.075 319.067C153.37 319.516 152.943 320.154 152.943 320.884C152.943 321.035 153.073 321.166 153.24 321.166C153.389 321.166 153.518 321.035 153.518 320.884C153.518 320.379 153.852 319.91 154.391 319.572C154.966 319.197 155.764 318.972 156.655 318.972Z" fill="#B04C60"/>
<path d="M159.792 321.691C159.94 321.691 160.07 321.559 160.07 321.409C160.07 321.24 159.94 321.109 159.792 321.109C158.79 321.109 157.88 321.372 157.212 321.803C156.507 322.254 156.08 322.89 156.08 323.622C156.08 323.772 156.209 323.903 156.358 323.903C156.525 323.903 156.655 323.772 156.655 323.622C156.655 323.116 156.988 322.646 157.527 322.291C158.103 321.934 158.901 321.691 159.792 321.691Z" fill="#B04C60"/>
<path d="M163.262 323.997C163.429 323.997 163.56 323.865 163.56 323.715C163.56 323.546 163.43 323.415 163.262 323.415C162.261 323.415 161.351 323.678 160.682 324.11C159.977 324.56 159.55 325.197 159.55 325.928C159.55 326.078 159.68 326.21 159.848 326.21C159.996 326.21 160.126 326.078 160.126 325.928C160.126 325.422 160.46 324.952 160.998 324.597C161.574 324.24 162.372 323.997 163.262 323.997Z" fill="#B04C60"/>
<path d="M175.717 329.02H140.599V332.189H175.717V329.02Z" fill="#C96A7D"/>
<path fill-rule="evenodd" clip-rule="evenodd" d="M111.569 316.629H123.56C123.802 316.629 123.987 316.835 123.987 317.08V330.184C123.987 330.428 123.802 330.634 123.56 330.634H90.1123C89.8713 330.634 89.667 330.428 89.667 330.184C89.667 329.246 89.7783 328.122 90.0939 327.297C90.3722 326.566 90.8365 326.059 91.5417 326.059C95.5137 326.059 99.0771 325.234 102.289 323.716C105.704 322.103 108.692 319.741 111.216 316.818C111.31 316.704 111.421 316.629 111.569 316.629Z" fill="#D9788C"/>
<path fill-rule="evenodd" clip-rule="evenodd" d="M114.354 316.441C111.625 319.535 108.024 323.04 104.572 324.672C101.324 326.19 97.5934 327.465 93.6587 327.634V325.984C96.8142 325.739 99.7097 324.952 102.345 323.715C105.649 322.158 109.306 319.047 110.456 315.147C110.995 313.33 115.43 315.241 114.354 316.441Z" fill="#C96A7D"/>
<path fill-rule="evenodd" clip-rule="evenodd" d="M100.136 330.633H90.1127C89.8718 330.633 89.6675 330.427 89.6675 330.182C89.6675 329.245 89.7788 328.121 90.0944 327.296C90.3727 326.564 90.837 326.058 91.5422 326.058C94.642 326.058 97.5002 325.553 100.136 324.615V330.633Z" fill="#FFD6DE"/>
<path fill-rule="evenodd" clip-rule="evenodd" d="M118.047 325.047C119.421 325.047 120.534 323.903 120.534 322.534C120.534 321.147 119.421 320.004 118.047 320.004C116.674 320.004 115.561 321.147 115.561 322.534C115.561 323.903 116.674 325.047 118.047 325.047Z" fill="white"/>
<path fill-rule="evenodd" clip-rule="evenodd" d="M111.681 321.691C112.108 321.691 112.461 321.316 112.461 320.884C112.461 320.435 112.108 320.079 111.681 320.079C111.236 320.079 110.883 320.435 110.883 320.884C110.883 321.316 111.236 321.691 111.681 321.691Z" fill="#B04C60"/>
<path fill-rule="evenodd" clip-rule="evenodd" d="M108.656 324.222C109.101 324.222 109.454 323.865 109.454 323.415C109.454 322.966 109.101 322.609 108.656 322.609C108.229 322.609 107.857 322.966 107.857 323.415C107.857 323.865 108.229 324.222 108.656 324.222Z" fill="#B04C60"/>
<path fill-rule="evenodd" clip-rule="evenodd" d="M105.111 326.714C105.556 326.714 105.909 326.359 105.909 325.909C105.909 325.459 105.556 325.104 105.111 325.104C104.665 325.104 104.312 325.459 104.312 325.909C104.312 326.359 104.665 326.714 105.111 326.714Z" fill="#B04C60"/>
<path d="M108.358 318.972C108.191 318.972 108.061 318.842 108.061 318.673C108.061 318.504 108.191 318.372 108.358 318.372C109.361 318.372 110.27 318.634 110.938 319.067C111.643 319.516 112.07 320.154 112.07 320.884C112.07 321.035 111.94 321.166 111.773 321.166C111.624 321.166 111.495 321.035 111.495 320.884C111.495 320.379 111.161 319.91 110.623 319.572C110.048 319.197 109.249 318.972 108.358 318.972Z" fill="#B04C60"/>
<path d="M105.24 321.691C105.073 321.691 104.943 321.559 104.943 321.409C104.943 321.24 105.073 321.109 105.24 321.109C106.224 321.109 107.134 321.372 107.802 321.803C108.508 322.254 108.953 322.89 108.953 323.622C108.953 323.772 108.804 323.903 108.656 323.903C108.489 323.903 108.358 323.772 108.358 323.622C108.358 323.116 108.024 322.646 107.486 322.291C106.911 321.934 106.113 321.691 105.24 321.691Z" fill="#B04C60"/>
<path d="M101.751 323.997C101.584 323.997 101.454 323.865 101.454 323.715C101.454 323.546 101.584 323.415 101.751 323.415C102.753 323.415 103.663 323.678 104.331 324.11C105.037 324.56 105.463 325.197 105.463 325.928C105.463 326.078 105.333 326.21 105.166 326.21C105.017 326.21 104.887 326.078 104.887 325.928C104.887 325.422 104.553 324.952 104.015 324.597C103.44 324.24 102.642 323.997 101.751 323.997Z" fill="#B04C60"/>
<path d="M124.414 329.02H89.2964V332.189H124.414V329.02Z" fill="#C96A7D"/>
<path d="M139.003 60.0362C139.189 59.849 139.485 59.8679 139.671 60.0552C139.838 60.2425 139.82 60.543 139.634 60.7113C138.279 62.0052 137.017 63.3358 135.904 64.7796C134.79 66.2234 133.806 67.7792 132.989 69.5413C132.878 69.7665 132.599 69.8602 132.358 69.7476C132.135 69.6349 132.042 69.3724 132.154 69.1288C133.007 67.3104 134.028 65.6983 135.179 64.1981C136.331 62.7176 137.611 61.3491 139.003 60.0362Z" fill="#AB5730"/>
<path d="M153.964 76.3649C153.945 76.1024 154.112 75.8778 154.372 75.8404C154.632 75.8215 154.855 75.9904 154.892 76.253C155.801 83.789 157.898 87.2012 159.773 90.2572C161.778 93.5187 163.523 96.3874 163.375 103.136C163.356 103.399 163.152 103.605 162.892 103.605C162.633 103.586 162.428 103.38 162.447 103.117C162.595 96.631 160.906 93.8939 158.976 90.7443C157.064 87.6137 154.892 84.1079 153.964 76.3649Z" fill="#AB5730"/>
<path d="M139.69 62.8113C139.449 62.755 139.281 62.493 139.337 62.2488C139.393 62.0052 139.652 61.8363 139.894 61.8926C143.922 62.8303 146.762 64.7043 148.692 67.442C150.604 70.1601 151.588 73.7412 151.903 78.1094C151.921 78.3719 151.717 78.5972 151.457 78.6155C151.216 78.6338 150.994 78.4276 150.975 78.165C150.677 73.9658 149.75 70.5536 147.949 67.9855C146.149 65.4357 143.477 63.692 139.69 62.8113Z" fill="#AB5730"/>
<path d="M132.934 71.7912C132.878 71.5476 133.027 71.285 133.267 71.2287C133.509 71.1541 133.768 71.304 133.843 71.5476C134.567 74.3973 137.035 75.4286 139.912 76.6472C143.81 78.2973 148.414 80.2466 150.975 87.0703C151.049 87.3139 150.938 87.5764 150.697 87.6701C150.456 87.7637 150.196 87.6328 150.103 87.4075C147.69 80.9584 143.272 79.0837 139.56 77.5279C136.46 76.1967 133.787 75.0717 132.934 71.7912Z" fill="#AB5730"/>
<path d="M154.167 97.0618C154.186 96.8182 154.409 96.612 154.669 96.631C154.928 96.6683 155.114 96.8935 155.096 97.1371C154.762 101.224 157.249 103.53 160.015 106.117C161.927 107.898 163.987 109.81 165.434 112.51C166.437 114.385 166.733 116.484 167.031 118.621C167.495 121.94 167.978 125.351 171.282 127.807C171.486 127.957 171.69 128.126 171.876 128.294C173.973 130.113 174.511 132.137 174.288 134.012C174.084 135.831 173.156 137.48 172.321 138.624C172.117 138.924 171.913 139.167 171.728 139.393C171.561 139.58 171.264 139.618 171.078 139.449C170.874 139.28 170.855 138.98 171.022 138.774C171.189 138.587 171.394 138.342 171.579 138.08C172.34 137.03 173.194 135.531 173.38 133.9C173.565 132.306 173.101 130.582 171.264 129.006C171.097 128.856 170.93 128.706 170.726 128.556C167.125 125.876 166.605 122.276 166.104 118.751C165.826 116.708 165.529 114.683 164.619 112.958C163.245 110.39 161.241 108.534 159.385 106.809C156.432 104.055 153.815 101.599 154.167 97.0618Z" fill="#AB5730"/>
<path d="M132.86 67.7229C133.008 67.5167 133.287 67.4414 133.509 67.573C133.713 67.7229 133.787 68.0038 133.639 68.2291C130.112 73.9095 126.492 75.5026 123.189 76.9654C119.755 78.4839 116.674 79.8334 114.428 85.8327C114.335 86.0763 114.057 86.1889 113.834 86.0953C113.593 86.0016 113.463 85.7391 113.556 85.4948C115.932 79.1394 119.198 77.6962 122.818 76.1024C125.992 74.6972 129.481 73.1597 132.86 67.7229Z" fill="#AB5730"/>
<path d="M134.288 59.8863C134.548 59.9053 134.734 60.1305 134.715 60.3925C134.697 60.655 134.474 60.843 134.214 60.824C131.708 60.6367 129.24 60.9739 126.901 61.9862C124.711 62.9239 122.632 64.4607 120.721 66.6543C119.997 67.4983 119.31 68.51 118.642 69.6166C117.955 70.7416 117.305 71.9601 116.674 73.1597C116.618 73.2907 116.507 73.5159 116.377 73.8158C116.024 74.5656 115.449 75.8215 114.651 77.2837C114.521 77.5089 114.242 77.6025 114.02 77.4716C113.797 77.359 113.723 77.0591 113.834 76.8338C114.613 75.39 115.189 74.1721 115.542 73.4223C115.672 73.1034 115.784 72.8782 115.858 72.7282C116.507 71.4907 117.157 70.2727 117.844 69.1288C118.53 67.9855 119.273 66.9352 120.034 66.0355C122.039 63.7293 124.229 62.1172 126.53 61.1239C129.017 60.0552 131.634 59.68 134.288 59.8863ZM105.667 86.6761C105.89 86.5262 106.169 86.5825 106.317 86.7887C106.465 87.014 106.41 87.2949 106.205 87.4448L105.816 87.7264C103.05 89.6764 100.674 91.3448 100.99 96.1065C101.008 96.3501 100.823 96.5754 100.563 96.5937C100.303 96.6127 100.08 96.4254 100.061 96.1628C99.7083 90.876 102.289 89.0766 105.277 86.9577L105.667 86.6761Z" fill="#AB5730"/>
<path d="M111.254 98.8619C111.254 98.5993 111.458 98.393 111.7 98.3747C111.959 98.3747 112.182 98.581 112.182 98.8245C112.219 99.7805 111.273 100.437 110.103 101.262C108.897 102.124 107.393 103.193 106.725 104.805C106.558 105.161 106.502 105.949 106.521 106.848C106.539 108.123 106.688 109.567 106.818 110.448C107.69 115.847 103.588 118.209 100.767 119.821L100.377 120.065C94.8273 123.308 94.5117 127.151 94.0664 132.794L94.0108 133.357C93.9925 133.581 93.8995 134.069 93.7881 134.5C93.6768 134.856 93.5465 135.175 93.4169 135.344C93.2499 135.55 92.9716 135.588 92.7673 135.419C92.563 135.25 92.5447 134.969 92.6933 134.763C92.749 134.706 92.823 134.482 92.8976 134.237C92.9906 133.881 93.0829 133.469 93.1019 133.281L93.1392 132.719C93.6218 126.776 93.9374 122.746 99.9145 119.258L99.9518 119.221L100.305 119.015C102.903 117.533 106.671 115.34 105.91 110.597C105.762 109.697 105.613 108.179 105.595 106.866C105.577 105.854 105.65 104.935 105.873 104.429C106.652 102.573 108.268 101.429 109.585 100.511C110.511 99.8369 111.273 99.2934 111.254 98.8619Z" fill="#AB5730"/>
<path d="M132.024 89.6384C132.061 89.5258 132.21 89.4694 132.321 89.5068C132.432 89.5631 132.488 89.6947 132.451 89.8257C131.616 91.7567 132.618 92.8443 133.435 93.725C134.066 94.4191 134.586 94.9809 134.289 95.7686C134.14 96.1065 133.695 96.3874 132.934 96.5C132.34 96.5753 131.56 96.5563 130.539 96.3691C130.428 96.3501 130.335 96.2375 130.354 96.1065C130.373 95.9755 130.503 95.9002 130.632 95.9192C131.579 96.0875 132.322 96.1065 132.878 96.0312C133.453 95.9565 133.769 95.7876 133.843 95.5813C134.048 95.0942 133.621 94.6064 133.101 94.0439C132.191 93.0689 131.078 91.8693 132.024 89.6384Z" fill="#DE6A50"/>
<path d="M110.902 89.5068C110.846 89.5068 110.79 89.4694 110.753 89.4131C110.716 89.3568 110.697 89.3012 110.716 89.2259C110.716 89.1506 110.753 89.0942 110.809 89.0569C110.864 89.0379 110.92 89.0196 110.995 89.0196C111.644 89.1322 112.201 89.3385 112.684 89.6011C113.185 89.882 113.594 90.2192 113.89 90.6317C114.206 91.0442 114.428 91.5321 114.54 92.0566C114.669 92.581 114.669 93.1442 114.595 93.7623C114.577 93.8376 114.54 93.8939 114.484 93.9312C114.447 93.9692 114.373 93.9876 114.317 93.9876C114.243 93.9692 114.187 93.9312 114.15 93.8749C114.113 93.8376 114.094 93.7623 114.113 93.7066C114.15 93.3878 114.168 93.0879 114.15 92.8063C114.132 92.5437 114.094 92.2812 114.039 92.0376C113.853 91.9249 113.63 91.8503 113.408 91.794C113.186 91.7187 112.944 91.6814 112.703 91.6814C112.48 91.6814 112.276 91.7187 112.072 91.775C111.886 91.8313 111.738 91.9249 111.589 92.0376C111.552 92.0749 111.478 92.0939 111.422 92.0939C111.348 92.0939 111.293 92.0566 111.255 92.0192C111.2 91.9629 111.181 91.8876 111.2 91.8313C111.2 91.775 111.218 91.7003 111.274 91.663C111.46 91.4941 111.682 91.3815 111.905 91.3068C112.165 91.2322 112.425 91.1948 112.703 91.1948C112.926 91.1948 113.148 91.2132 113.372 91.2695C113.52 91.2885 113.65 91.3448 113.798 91.3821L113.724 91.2512C113.65 91.1385 113.594 91.0449 113.502 90.9323C113.242 90.5761 112.871 90.2762 112.444 90.0319C111.997 89.7883 111.496 89.6194 110.902 89.5068Z" fill="#DE6A50"/>
<path d="M152.999 89.5068C153.073 89.5068 153.128 89.4694 153.166 89.4131C153.203 89.3568 153.203 89.3012 153.203 89.2259C153.184 89.1506 153.147 89.0942 153.092 89.0569C153.054 89.0379 152.98 89.0196 152.906 89.0196C152.275 89.1322 151.7 89.3385 151.217 89.6011C150.734 89.882 150.326 90.2192 150.01 90.6317C149.695 91.0442 149.472 91.5321 149.361 92.0566C149.249 92.581 149.231 93.1442 149.323 93.7623C149.323 93.8376 149.361 93.8939 149.416 93.9312C149.472 93.9692 149.528 93.9876 149.602 93.9876C149.657 93.9692 149.731 93.9312 149.769 93.8749C149.806 93.8376 149.824 93.7623 149.806 93.7066C149.769 93.3878 149.75 93.0879 149.75 92.8063C149.769 92.5437 149.806 92.2812 149.88 92.0376C150.065 91.9249 150.269 91.8503 150.493 91.794C150.734 91.7187 150.975 91.6814 151.198 91.6814C151.421 91.6814 151.643 91.7187 151.829 91.775C152.015 91.8313 152.181 91.9249 152.312 92.0376C152.367 92.0749 152.423 92.0939 152.497 92.0939C152.553 92.0939 152.608 92.0566 152.664 92.0192C152.701 91.9629 152.72 91.8876 152.72 91.8313C152.72 91.775 152.682 91.7003 152.627 91.663C152.441 91.4941 152.237 91.3815 151.996 91.3068C151.754 91.2322 151.476 91.1948 151.197 91.1948C150.993 91.1948 150.751 91.2132 150.548 91.2695C150.399 91.2885 150.25 91.3448 150.121 91.3821L150.195 91.2512C150.25 91.1385 150.324 91.0449 150.399 90.9323C150.677 90.5761 151.03 90.2762 151.476 90.0319C151.903 89.7883 152.423 89.6194 152.999 89.5068Z" fill="#DE6A50"/>
<path fill-rule="evenodd" clip-rule="evenodd" d="M146.39 95.4497C146.575 96.9119 145.016 98.2804 142.919 98.5057C140.822 98.7309 138.984 97.718 138.798 96.2558C138.631 94.7936 140.19 93.4061 142.288 93.1998C144.386 92.9752 146.223 93.9876 146.39 95.4497Z" fill="#DE6A50"/>
<path fill-rule="evenodd" clip-rule="evenodd" d="M209.981 95.8996C208.218 96.9119 207.772 99.7989 208.998 102.311C210.24 104.842 212.673 106.061 214.436 105.029C216.219 103.998 216.644 101.13 215.42 98.5993C214.195 96.0685 211.763 94.8689 209.981 95.8996Z" fill="#E8866A"/>
<path d="M210.13 98.581C210.056 98.581 210.001 98.543 209.981 98.4867C209.944 98.431 209.926 98.3747 209.926 98.2994C209.944 98.2248 209.981 98.1685 210.038 98.1495C210.093 98.1121 210.149 98.0931 210.223 98.0931C210.853 98.2248 211.429 98.412 211.911 98.6746C212.394 98.9555 212.802 99.2934 213.118 99.7059C213.435 100.118 213.657 100.606 213.768 101.131C213.879 101.656 213.897 102.218 213.805 102.837C213.805 102.911 213.768 102.967 213.712 103.005C213.657 103.043 213.6 103.062 213.526 103.062C213.471 103.043 213.415 103.005 213.378 102.949C213.34 102.911 213.321 102.837 213.321 102.78C213.378 102.461 213.378 102.161 213.378 101.881C213.36 101.618 213.321 101.355 213.266 101.112C213.061 100.999 212.858 100.924 212.635 100.868C212.394 100.793 212.153 100.755 211.93 100.755C211.707 100.755 211.485 100.793 211.299 100.849C211.113 100.905 210.946 100.998 210.816 101.111C210.761 101.148 210.705 101.167 210.631 101.167C210.576 101.167 210.52 101.129 210.463 101.092C210.426 101.036 210.408 100.961 210.408 100.904C210.426 100.848 210.446 100.773 210.501 100.736C210.687 100.586 210.891 100.454 211.132 100.38C211.374 100.304 211.652 100.267 211.931 100.267C212.153 100.267 212.376 100.286 212.599 100.342C212.729 100.38 212.877 100.417 213.008 100.454L212.934 100.323C212.877 100.211 212.803 100.117 212.729 100.005C212.45 99.6483 212.098 99.3484 211.671 99.1048C211.225 98.8619 210.724 98.6936 210.13 98.581Z" fill="#DE6A50"/>
<path fill-rule="evenodd" clip-rule="evenodd" d="M209.109 283.559L212.097 300.263C214.212 314.605 212.598 315.523 201.665 323.884L224.756 319.591C224.477 307.611 226.557 294.807 228.059 282.978L209.109 283.559Z" fill="#F39176"/>
<path fill-rule="evenodd" clip-rule="evenodd" d="M211.374 314.773H224.737C225.016 314.773 225.22 314.999 225.22 315.28V329.901C225.22 330.164 225.015 330.388 224.737 330.388H187.448C187.169 330.388 186.947 330.164 186.947 329.901C186.947 328.851 187.058 327.577 187.411 326.677C187.727 325.852 188.246 325.29 189.044 325.29C193.461 325.29 197.453 324.352 201.016 322.684C204.821 320.883 208.162 318.241 210.984 314.978C211.076 314.847 211.225 314.773 211.374 314.773Z" fill="#9CBFFF"/>
<path fill-rule="evenodd" clip-rule="evenodd" d="M214.492 314.566C211.429 318.017 207.42 321.916 203.578 323.734C199.959 325.44 195.782 326.846 191.401 327.052V325.196C194.909 324.934 198.158 324.053 201.09 322.684C204.766 320.94 208.516 316.628 211.318 313.404C211.708 312.954 212.543 311.848 214.102 312.148C214.584 312.242 215.179 313.779 214.492 314.566Z" fill="#BDD4FF"/>
<path fill-rule="evenodd" clip-rule="evenodd" d="M198.622 330.388H187.449C187.17 330.388 186.947 330.165 186.947 329.901C186.947 328.851 187.059 327.577 187.412 326.677C187.727 325.852 188.246 325.29 189.045 325.29C192.496 325.29 195.69 324.728 198.622 323.678V330.388Z" fill="#EBF2FF"/>
<path fill-rule="evenodd" clip-rule="evenodd" d="M218.594 324.146C220.135 324.146 221.378 322.89 221.378 321.353C221.378 319.796 220.135 318.541 218.594 318.541C217.072 318.541 215.829 319.796 215.829 321.353C215.829 322.89 217.071 324.146 218.594 324.146Z" fill="#7BA6F7"/>
<path fill-rule="evenodd" clip-rule="evenodd" d="M211.485 320.416C211.987 320.416 212.375 320.004 212.375 319.515C212.375 319.011 211.986 318.616 211.485 318.616C211.002 318.616 210.594 319.011 210.594 319.515C210.594 320.004 211.002 320.416 211.485 320.416Z" fill="#7BA6F7"/>
<path fill-rule="evenodd" clip-rule="evenodd" d="M208.126 323.246C208.627 323.246 209.015 322.834 209.015 322.347C209.015 321.841 208.626 321.447 208.126 321.447C207.642 321.447 207.234 321.841 207.234 322.347C207.234 322.834 207.642 323.246 208.126 323.246Z" fill="#7BA6F7"/>
<path fill-rule="evenodd" clip-rule="evenodd" d="M204.171 326.021C204.654 326.021 205.062 325.608 205.062 325.121C205.062 324.633 204.654 324.222 204.171 324.222C203.671 324.222 203.281 324.633 203.281 325.121C203.281 325.608 203.671 326.021 204.171 326.021Z" fill="#7BA6F7"/>
<path d="M207.792 317.378C207.624 317.378 207.476 317.228 207.476 317.04C207.476 316.873 207.625 316.722 207.792 316.722C208.904 316.722 209.926 317.023 210.668 317.491C211.448 317.997 211.931 318.709 211.931 319.516C211.931 319.684 211.782 319.835 211.615 319.835C211.43 319.835 211.281 319.684 211.281 319.516C211.281 318.954 210.91 318.429 210.315 318.054C209.685 317.623 208.794 317.378 207.792 317.378Z" fill="#7BA6F7"/>
<path d="M204.301 320.416C204.116 320.416 203.986 320.284 203.986 320.098C203.986 319.91 204.116 319.76 204.301 319.76C205.415 319.76 206.436 320.059 207.179 320.547C207.958 321.052 208.44 321.765 208.44 322.553C208.44 322.741 208.292 322.891 208.126 322.891C207.941 322.891 207.792 322.741 207.792 322.553C207.792 321.991 207.42 321.485 206.826 321.092C206.194 320.678 205.305 320.416 204.301 320.416Z" fill="#7BA6F7"/>
<path d="M200.423 323.003C200.238 323.003 200.107 322.853 200.107 322.665C200.107 322.477 200.238 322.347 200.423 322.347C201.536 322.347 202.558 322.628 203.3 323.116C204.079 323.622 204.562 324.334 204.562 325.14C204.562 325.309 204.413 325.458 204.246 325.458C204.061 325.458 203.912 325.309 203.912 325.14C203.912 324.578 203.542 324.053 202.948 323.659C202.298 323.246 201.406 323.003 200.423 323.003Z" fill="#7BA6F7"/>
<path d="M225.683 328.589H186.539V332.133H225.683V328.589Z" fill="#7BA6F7"/>
<path fill-rule="evenodd" clip-rule="evenodd" d="M211.596 297.47L226.167 297.526C226.352 296.007 226.538 294.508 226.743 293.008L210.779 292.933L211.596 297.47Z" fill="#E8866A"/>
<path fill-rule="evenodd" clip-rule="evenodd" d="M187.392 217.175L191.048 214.101C191.122 214.044 193.108 219.537 193.072 220.569L192.96 223.85L192.905 227.187C192.886 227.806 192.533 225.968 191.903 226.1C191.272 226.231 190.66 227.713 190.084 227.505C190.084 227.505 189.991 226.944 189.991 226.437C189.991 225.668 190.047 224.824 189.879 224.562C188.562 222.574 186.854 217.644 187.392 217.175Z" fill="#F39176"/>
<path fill-rule="evenodd" clip-rule="evenodd" d="M190.25 225.143C189.34 227.261 190.956 230.298 192.144 230.28H192.348C192.961 230.28 192.961 229.737 192.942 229.155L192.849 224.937L190.25 225.143Z" fill="#F39176"/>
<path fill-rule="evenodd" clip-rule="evenodd" d="M192.256 210.014L194.056 202.384L181.193 202.777L183.587 213.875C183.846 218.394 183.402 218.937 182.937 223.943C182.603 226.643 182.269 226.417 183.977 228.63C184.459 229.267 186.129 232.885 186.742 233.411C187.133 233.71 189.081 235.041 191.848 235.661C192.59 235.83 193.109 235.399 193.183 234.948C193.333 234.03 193.61 233.842 191.829 232.099L190.475 230.86L189.026 227.411C188.376 224.224 188.637 222.106 189.657 224.187L191.049 219.837L192.219 217.269C191.866 216.462 191.624 215.656 191.476 215.169C190.9 213.332 191.55 213.276 192.256 210.014Z" fill="#F39176"/>
<path fill-rule="evenodd" clip-rule="evenodd" d="M277.266 211.364L272.979 209.264C272.903 209.226 272.273 215.038 272.552 216.032L273.442 219.182L274.296 222.425C274.464 223.006 274.37 221.131 275.001 221.113C275.65 221.094 276.598 222.369 277.098 222.051C277.098 222.051 277.061 221.468 276.949 220.981C276.764 220.232 276.504 219.444 276.598 219.145C277.396 216.893 277.898 211.682 277.266 211.364Z" fill="#F39176"/>
<path fill-rule="evenodd" clip-rule="evenodd" d="M276.374 219.781C277.785 221.637 276.932 224.974 275.763 225.237L275.576 225.293C274.983 225.423 274.853 224.917 274.723 224.337L273.813 220.212L276.374 219.781Z" fill="#F39176"/>
<path fill-rule="evenodd" clip-rule="evenodd" d="M270.825 205.59L267.28 198.616L279.845 195.879L280.18 207.24C280.979 211.682 281.554 212.096 283.205 216.839C284.152 219.388 284.43 219.089 283.299 221.656C282.983 222.369 282.241 226.305 281.757 226.943C281.461 227.336 279.864 229.117 277.34 230.373C276.653 230.711 276.041 230.448 275.875 230.018C275.522 229.154 275.206 229.042 276.505 226.924L277.526 225.386L278.12 221.692C277.972 218.449 277.229 216.444 276.747 218.711L274.353 214.831L272.607 212.618C272.737 211.756 272.775 210.912 272.812 210.407C272.923 208.477 272.292 208.57 270.825 205.59Z" fill="#F39176"/>
<path fill-rule="evenodd" clip-rule="evenodd" d="M250.315 277.317L262.342 289.165C272.31 299.607 271.53 301.294 267.448 314.529L283.78 297.488C276.653 287.909 270.993 276.248 265.424 265.73L250.315 277.317Z" fill="#F39176"/>
<path fill-rule="evenodd" clip-rule="evenodd" d="M270.119 301.406L280.996 293.57C281.219 293.42 281.517 293.475 281.683 293.701L290.073 305.606C290.241 305.832 290.184 306.131 289.962 306.28L259.595 328.158C259.373 328.308 259.076 328.271 258.908 328.046C258.315 327.184 257.666 326.096 257.443 325.14C257.22 324.296 257.313 323.527 257.962 323.078C261.564 320.472 264.274 317.378 266.223 313.929C268.283 310.217 269.47 306.111 269.916 301.8C269.916 301.651 269.99 301.499 270.119 301.406Z" fill="#9CBFFF"/>
<path fill-rule="evenodd" clip-rule="evenodd" d="M272.514 299.418C272.013 304.012 270.993 309.542 268.895 313.273C266.927 316.778 264.348 320.379 260.894 323.115L259.837 321.615C262.547 319.328 264.681 316.721 266.278 313.872C268.283 310.311 268.839 304.593 269.266 300.319C269.321 299.737 269.377 298.331 270.825 297.675C271.27 297.47 272.643 298.369 272.514 299.418Z" fill="#BDD4FF"/>
<path fill-rule="evenodd" clip-rule="evenodd" d="M268.69 321.598L259.594 328.159C259.372 328.309 259.075 328.271 258.908 328.046C258.314 327.184 257.665 326.097 257.442 325.14C257.219 324.296 257.312 323.527 257.961 323.079C260.783 321.053 263.048 318.71 264.829 316.142L268.69 321.598Z" fill="#EBF2FF"/>
<path fill-rule="evenodd" clip-rule="evenodd" d="M278.157 300.243C279.4 299.344 281.145 299.644 282.036 300.9C282.927 302.155 282.629 303.9 281.386 304.799C280.143 305.699 278.398 305.418 277.507 304.143C276.616 302.887 276.913 301.144 278.157 300.243Z" fill="#7BA6F7"/>
<path fill-rule="evenodd" clip-rule="evenodd" d="M272.403 304.462C272.811 304.181 273.368 304.275 273.646 304.687C273.925 305.081 273.832 305.644 273.441 305.925C273.033 306.224 272.477 306.131 272.198 305.72C271.92 305.325 272.014 304.762 272.403 304.462Z" fill="#7BA6F7"/>
<path fill-rule="evenodd" clip-rule="evenodd" d="M271.307 308.737C271.697 308.455 272.253 308.549 272.532 308.942C272.829 309.354 272.737 309.917 272.328 310.198C271.938 310.499 271.381 310.404 271.084 309.993C270.806 309.599 270.899 309.036 271.307 308.737Z" fill="#7BA6F7"/>
<path fill-rule="evenodd" clip-rule="evenodd" d="M269.674 313.33C270.064 313.048 270.62 313.142 270.918 313.535C271.196 313.948 271.104 314.511 270.694 314.791C270.305 315.092 269.748 314.998 269.452 314.586C269.173 314.174 269.266 313.611 269.674 313.33Z" fill="#7BA6F7"/>
<path d="M268.69 305.624C268.542 305.737 268.337 305.699 268.226 305.55C268.134 305.399 268.171 305.193 268.3 305.099C269.209 304.443 270.212 304.087 271.084 304.03C272.013 303.993 272.829 304.292 273.293 304.931C273.386 305.081 273.349 305.286 273.219 305.399C273.07 305.511 272.866 305.474 272.755 305.325C272.44 304.855 271.827 304.65 271.122 304.686C270.361 304.725 269.488 305.043 268.69 305.624Z" fill="#7BA6F7"/>
<path d="M267.596 310.162C267.447 310.255 267.243 310.218 267.149 310.086C267.038 309.936 267.075 309.731 267.223 309.618C268.134 308.962 269.117 308.605 270.007 308.568C270.936 308.512 271.734 308.811 272.198 309.467C272.31 309.618 272.272 309.824 272.124 309.936C271.976 310.03 271.771 309.993 271.66 309.841C271.344 309.392 270.751 309.185 270.027 309.224C269.284 309.261 268.412 309.58 267.596 310.162Z" fill="#7BA6F7"/>
<path d="M265.925 314.529C265.776 314.623 265.573 314.605 265.462 314.455C265.35 314.305 265.388 314.098 265.536 313.986C266.445 313.33 267.448 312.973 268.32 312.935C269.247 312.898 270.064 313.18 270.51 313.836C270.621 313.986 270.583 314.191 270.436 314.304C270.287 314.399 270.083 314.36 269.99 314.23C269.656 313.76 269.062 313.555 268.357 313.592C267.596 313.63 266.723 313.948 265.925 314.529Z" fill="#7BA6F7"/>
<path fill-rule="evenodd" clip-rule="evenodd" d="M257.813 327.24L289.721 304.274L291.744 307.143L259.856 330.109L257.813 327.24Z" fill="#7BA6F7"/>
<path fill-rule="evenodd" clip-rule="evenodd" d="M254.288 96.0495C252.821 103.117 248.644 107.897 242 110.504C228.171 115.902 213.155 110.86 210.167 94.6247C208.682 86.5634 208.143 80.8267 210.947 75.4653C215.754 66.2417 228.134 61.9672 234.946 65.8292C235.298 66.0355 235.67 66.2044 236.004 66.448C243.112 70.1784 240.05 67.1414 243.799 68.8852C249.108 71.3786 257.925 78.3529 254.288 96.0495Z" fill="#BC653E"/>
<path fill-rule="evenodd" clip-rule="evenodd" d="M230.009 114.778C216.57 115.003 209.331 98.6556 208.924 88.2319C208.348 74.0967 218.148 64.8916 229.897 64.1981C233.386 63.9919 240.31 66.8415 240.31 66.8415C248.904 66.9725 255.289 76.3276 254.974 88.1009C254.695 98.543 243.428 115.003 230.009 114.778Z" fill="#BC653E"/>
<path fill-rule="evenodd" clip-rule="evenodd" d="M226.222 214.981C224.125 227.768 226.854 273.229 210.464 271.486C196.599 270.023 202.483 222.667 202.928 212.264C203.151 206.527 209.573 200.059 215.141 200.209C221.637 200.397 227.336 208.196 226.222 214.981Z" fill="#F39176"/>
<path fill-rule="evenodd" clip-rule="evenodd" d="M256.272 213.52C255.679 226.474 263.697 271.298 247.215 271.504C233.275 271.692 233.61 223.98 232.83 213.595C232.384 207.877 238.008 200.678 243.558 200.172C250.036 199.59 256.588 206.658 256.272 213.52Z" fill="#F39176"/>
<path fill-rule="evenodd" clip-rule="evenodd" d="M202.241 129.382L213.304 125.051C221.285 121.302 221.972 121.265 222.919 114.796L229.286 114.834L235.652 114.796C236.581 121.264 237.268 121.302 245.249 125.051L256.311 129.382L252.822 180.581L256.497 213.238L256.441 228.799H202.112L202.057 213.238L205.732 180.581L202.241 129.382Z" fill="#E8866A"/>
<path fill-rule="evenodd" clip-rule="evenodd" d="M211.225 142.449C205.75 150.622 192.627 182.887 182.994 176.55C174.864 171.188 193.963 140.331 197.639 133.263C199.625 129.383 205.732 126.927 209.146 128.783C213.118 130.939 214.121 138.099 211.225 142.449Z" fill="#F39176"/>
<path fill-rule="evenodd" clip-rule="evenodd" d="M261.563 135.325C264.682 144.68 282.148 174.769 271.327 178.668C262.176 181.949 249.443 147.904 246.102 140.687C244.264 136.712 246.028 130.319 249.554 128.707C253.655 126.832 259.911 130.357 261.563 135.325Z" fill="#F39176"/>
<path fill-rule="evenodd" clip-rule="evenodd" d="M229.285 116.728C216.478 116.953 210.799 100.812 210.799 90.4071C210.799 80.096 219.095 71.6602 229.285 71.5666C239.456 71.6602 247.771 80.0967 247.771 90.4071C247.771 100.811 242.074 116.953 229.285 116.728Z" fill="#F39176"/>
<path fill-rule="evenodd" clip-rule="evenodd" d="M250.427 95.8996C252.208 96.9119 252.635 99.7989 251.41 102.311C250.185 104.842 247.754 106.061 245.972 105.029C244.209 103.998 243.762 101.13 244.987 98.5993C246.232 96.0685 248.663 94.8689 250.427 95.8996Z" fill="#F39176"/>
<path fill-rule="evenodd" clip-rule="evenodd" d="M275.633 171.714L282.464 205.159C281.665 206.696 276.45 208.27 272.162 206.415L262.103 174.657C260.191 168.114 264.682 165.227 268.543 164.89C272.014 164.589 274.482 166.033 275.633 171.714Z" fill="#F39176"/>
<path fill-rule="evenodd" clip-rule="evenodd" d="M183.365 179.962L183.773 214.12C184.868 215.432 190.287 215.863 194.094 213.126L197.212 179.924C197.713 173.119 192.701 171.263 188.859 171.769C185.406 172.22 183.309 174.169 183.365 179.962Z" fill="#F39176"/>
<path fill-rule="evenodd" clip-rule="evenodd" d="M258.278 241.978L277.693 277.897L253.804 290.851L239.92 266.574C233.331 256.301 238.51 251.689 243.039 250.02C247.122 248.521 255.197 236.26 258.278 241.978Z" fill="#38B6CC"/>
<path fill-rule="evenodd" clip-rule="evenodd" d="M203.373 292.07C202.668 279.679 203.15 267.024 201.851 254.707C200.626 242.896 200.403 230.579 201.258 218.843C202.036 207.914 203.819 197.584 205.045 186.673H253.508C255.827 207.258 259.633 234.196 257.813 254.07C256.867 264.211 254.101 271.43 247.215 271.504C238.993 271.616 232.31 252.926 228.579 236.053C227.78 242.895 228.282 250.863 227.373 256.638C227.373 256.638 227.466 275.16 229.766 291.808L203.373 292.07Z" fill="#38B6CC"/>
<path d="M233.164 249.72C233.201 249.833 233.146 249.982 233.015 250.02C232.904 250.058 232.756 250.002 232.718 249.87C231.011 244.976 229.211 238.866 227.707 232.192C226.427 226.51 225.332 220.418 224.682 214.307C224.663 214.175 224.756 214.063 224.886 214.063C225.016 214.044 225.127 214.138 225.146 214.268C225.795 220.343 226.872 226.417 228.171 232.078C229.675 238.735 231.457 244.827 233.164 249.72Z" fill="#467BBD"/>
<path fill-rule="evenodd" clip-rule="evenodd" d="M224.347 191.567L225.295 216.444C225.312 216.949 224.848 216.949 224.83 216.482L224.663 212.151C222.158 213.126 219.057 212.714 218.798 209.471C218.538 205.983 218.798 201.841 218.593 198.128C218.482 196.028 218.37 193.967 218.353 191.847H218.538H218.834C218.834 193.947 218.946 196.01 219.076 198.109C219.28 201.803 219.002 205.946 219.261 209.433C219.502 212.489 222.436 212.433 224.645 211.645L223.884 191.605L224.347 191.567Z" fill="#467BBD"/>
<path fill-rule="evenodd" clip-rule="evenodd" d="M245.155 202.14H255.308C255.958 207.839 256.608 213.745 257.127 219.632C256.272 219.857 255.326 220.025 254.25 220.137C246.454 220.924 244.394 213.875 244.394 202.74C244.394 202.422 244.728 202.14 245.155 202.14ZM201.555 215.113C202.056 209.713 202.761 204.427 203.467 199.121H204.784C205.527 199.121 206.14 199.383 206.14 199.702C206.14 204.989 209.814 211.738 201.555 215.113Z" fill="#467EC2"/>
<path fill-rule="evenodd" clip-rule="evenodd" d="M204.543 186.674L253.507 186.617C254.194 186.617 256.57 192.373 254.156 192.373H204.542C202.947 192.373 203.318 186.674 204.543 186.674Z" fill="#467BBD"/>
<path d="M255.79 267.212C253.248 266.78 250.407 266.03 247.605 264.961C245.173 264.043 242.798 262.862 240.7 261.418C240.365 261.193 240.7 260.856 241.015 261.081C243.094 262.524 245.488 263.705 247.92 264.642C250.649 265.674 253.414 266.404 255.883 266.836C256.348 266.912 256.366 267.305 255.79 267.212Z" fill="#467BBD"/>
<path d="M222.733 267.53C220.728 264.436 218.613 260.706 216.738 256.769C215.179 253.451 213.786 250.001 212.803 246.626C212.58 245.914 213.062 245.989 213.248 246.646C214.233 250.019 215.643 253.507 217.22 256.843C219.058 260.725 221.137 264.38 223.104 267.454C223.568 268.167 223.086 268.092 222.733 267.53Z" fill="#467BBD"/>
<path fill-rule="evenodd" clip-rule="evenodd" d="M205.675 127.039L213.304 125.089L214.845 124.32C218.872 127.189 223.865 128.894 229.286 128.894C234.686 128.894 239.698 127.189 243.707 124.32L245.249 125.089L255.995 128.989L255.976 175.294C257.128 182.399 265.388 211.251 254.844 211.946L206.77 207.558C195.986 206.584 198.474 205.328 199.142 191.942C200.144 171.62 206.918 146.217 205.675 127.039Z" fill="#6C6F9C"/>
<path fill-rule="evenodd" clip-rule="evenodd" d="M282.332 201.183L283.224 204.896C282.648 206.002 274.073 210.258 271.084 208.177L269.191 202.403L267.65 196.179C271.325 197.135 278.806 193.723 280.291 192.28L282.332 201.183Z" fill="#5F628C"/>
<path fill-rule="evenodd" clip-rule="evenodd" d="M181.917 205.852L182.009 213.069C182.864 213.894 192.422 216.031 194.818 213.875L194.929 206.77C191.55 208.12 183.754 206.789 181.917 205.852Z" fill="#5F628C"/>
<path fill-rule="evenodd" clip-rule="evenodd" d="M181.88 162.358C184.701 146.63 194.576 135.194 198.455 131.238C200.961 128.67 205.231 126.739 208.887 125.989C211.281 125.483 214.846 124.32 214.846 124.32C216.107 128.538 220.34 139.862 217.443 144.211C213.137 150.641 200.405 179.418 192.052 185.136C191.57 185.623 190.92 185.923 190.159 186.054L181.88 162.358Z" fill="#6C6F9C"/>
<path fill-rule="evenodd" clip-rule="evenodd" d="M181.379 208.12C184.943 209.246 191.624 210.352 195.225 209.226C197.804 208.421 198.362 199.347 198.269 196.61C198.064 190.667 200.887 161.308 204.394 160.915L189.137 143.424C182.196 155.01 167.068 203.621 181.379 208.12Z" fill="#6C6F9C"/>
<path fill-rule="evenodd" clip-rule="evenodd" d="M264.607 135.888C278.027 154.578 287.995 178.575 282.147 200.358C281.349 201.896 273.145 204.521 268.876 202.684C267.057 201.802 264.439 199.384 262.732 196.366C260.782 192.898 259.261 188.942 258.054 183.805C257.59 181.743 257.145 180.037 256.495 177.975C255.325 170.138 244.337 152.366 244.282 151.616C237.489 142.018 248.346 145.543 246.1 140.687C244.262 136.713 246.027 130.32 249.553 128.708C250.778 128.145 249.181 126.927 250.778 127.208C257.944 128.52 262.472 132.907 264.607 135.888Z" fill="#6C6F9C"/>
<path fill-rule="evenodd" clip-rule="evenodd" d="M234.483 103.474C234.649 104.917 236.338 105.892 238.268 105.667C240.199 105.442 241.628 104.092 241.461 102.649C241.294 101.205 239.587 100.212 237.656 100.437C235.745 100.661 234.315 102.03 234.483 103.474Z" fill="#DE6A50"/>
<path fill-rule="evenodd" clip-rule="evenodd" d="M223.773 106.267C224.014 108.498 225.444 110.223 227.169 110.223C228.896 110.223 230.306 108.498 230.566 106.267H223.773Z" fill="#AD5B49"/>
<path fill-rule="evenodd" clip-rule="evenodd" d="M224.589 108.648C225.221 109.623 226.148 110.223 227.168 110.223C228.19 110.223 229.099 109.623 229.73 108.667C229.043 108.311 228.171 108.104 227.206 108.104C226.222 108.085 225.312 108.292 224.589 108.648Z" fill="#DE6A50"/>
<path fill-rule="evenodd" clip-rule="evenodd" d="M214.232 105.629C214.64 105.705 215.085 105.724 215.531 105.667C217.461 105.442 218.891 104.092 218.723 102.649C218.556 101.205 216.868 100.212 214.937 100.437C213.99 100.549 213.173 100.924 212.598 101.469C213.044 102.893 213.601 104.299 214.232 105.629Z" fill="#DE6A50"/>
<path fill-rule="evenodd" clip-rule="evenodd" d="M210.965 93.7813C211.187 95.9369 209.053 86.9577 209.388 83.5455C209.813 79.1217 212.803 76.3656 215.772 73.6659C216.905 72.6346 217.703 73.2907 218.539 74.341C221.36 69.7292 225.128 66.2981 227.986 68.7732C228.171 67.6856 228.915 67.0295 230.417 67.0675C231.588 67.1055 232.961 68.2861 234.298 70.0298C234.575 69.542 234.873 69.1294 235.188 68.8295C237.749 66.505 243.987 74.3037 245.007 79.8341C245.749 79.0837 246.398 78.6718 246.956 80.0024C249.481 86.0953 247.698 101.581 244.988 98.5993C244.524 98.0932 246.603 90.2382 241.852 88.1383C236.84 85.9264 236.358 78.0151 235.931 77.2653C226.872 81.5772 209.48 78.315 210.965 93.7813Z" fill="#BC653E"/>
<path d="M253.247 220.193C253.823 233.842 254.063 239.241 256.366 245.84C258.76 252.626 263.196 260.312 270.138 272.291C271.492 274.634 272.94 277.128 274.407 279.659L273.999 279.902C272.421 277.185 271.03 274.786 269.73 272.536C262.788 260.517 258.333 252.831 255.938 245.989C253.6 239.334 253.359 233.897 252.783 220.193C252.932 220.193 253.099 220.193 253.247 220.193Z" fill="#467BBD"/>
<path fill-rule="evenodd" clip-rule="evenodd" d="M215.179 123.59C217.202 124.658 218.482 125.333 220.765 126.027C223.141 126.739 225.666 127.115 228.302 127.115C230.938 127.115 233.462 126.739 235.819 126.027C237.99 125.371 240.014 124.452 241.852 123.309C243.001 122.596 245.953 123.29 243.614 124.977C242.575 125.727 240.812 126.646 236.839 127.771C234.073 128.558 231.085 129.326 228.041 129.326C225.033 129.326 222.138 128.558 219.391 127.789C216.551 127.001 214.956 126.458 212.56 124.958C212.06 124.658 212.282 123.833 213.043 123.458C213.583 123.196 214.473 123.215 215.179 123.59Z" fill="#5F628C"/>
<path fill-rule="evenodd" clip-rule="evenodd" d="M234.464 92.769C235.243 92.7317 236.005 92.6191 236.729 92.3938C236.97 92.3192 237.174 92.2249 237.359 92.0749C237.786 91.7377 237.694 91.3062 237.155 91.0063C236.914 90.8753 236.654 90.8 236.395 90.7254C235.56 90.5001 234.723 90.4255 233.907 90.4065C232.588 90.4065 231.289 90.4438 230.102 90.8563C229.897 90.9127 229.712 91.0063 229.544 91.1189C229.359 91.2315 229.21 91.3815 229.247 91.6631C229.304 91.944 229.507 92.0939 229.729 92.2065C230.008 92.3755 230.305 92.4501 230.621 92.5254C231.921 92.8253 233.201 92.8443 234.464 92.769Z" fill="#664738"/>
<path fill-rule="evenodd" clip-rule="evenodd" d="M232.181 94.6253C233.962 94.4754 235.763 95.394 236.988 97.0998C236.951 97.2118 236.877 97.3244 236.747 97.4743C235.466 98.9555 233.981 99.6489 232.329 99.7052H232.312C232.367 99.5926 232.423 99.4427 232.497 99.2364C233.09 97.6243 232.942 96.1241 232.218 94.6993C232.2 94.6816 232.181 94.6436 232.181 94.6253Z" fill="#FEFEFE"/>
<path fill-rule="evenodd" clip-rule="evenodd" d="M232.311 99.7053C232.366 99.5927 232.423 99.4427 232.497 99.2364C233.09 97.6243 232.942 96.1242 232.218 94.6993C232.2 94.681 232.18 94.643 232.18 94.6247C231.531 94.681 230.9 94.8493 230.287 95.1872C229.415 95.656 228.654 96.3684 228.06 97.3618C228.022 97.4181 227.986 97.4744 227.967 97.5307C227.985 97.5497 227.985 97.5687 228.005 97.587C228.803 98.543 229.73 99.2181 230.826 99.5553C231.308 99.6869 231.81 99.7243 232.311 99.7053Z" fill="#664738"/>
<path fill-rule="evenodd" clip-rule="evenodd" d="M220.115 92.3375C220.895 92.3002 221.676 92.1875 222.399 91.9439C222.622 91.8686 222.845 91.775 223.03 91.6251C223.438 91.3062 223.364 90.8753 222.807 90.5754C222.566 90.4255 222.306 90.3502 222.064 90.2938C221.211 90.0692 220.376 89.975 219.559 89.975C218.26 89.9566 216.96 89.9939 215.754 90.4065C215.569 90.4818 215.382 90.5754 215.196 90.6874C215.03 90.8 214.862 90.95 214.918 91.2315C214.956 91.5124 215.178 91.644 215.381 91.775C215.679 91.925 215.976 92.0192 216.272 92.0939C217.592 92.3938 218.853 92.4128 220.115 92.3375Z" fill="#664738"/>
<path fill-rule="evenodd" clip-rule="evenodd" d="M218.408 94.0255C220.208 93.8939 221.99 94.7943 223.234 96.5C223.197 96.6126 223.123 96.7253 222.993 96.8752C221.712 98.3564 220.226 99.0498 218.556 99.1061H218.539C218.613 98.9935 218.668 98.8435 218.742 98.6373C219.318 97.0435 219.189 95.525 218.465 94.1002C218.445 94.0812 218.427 94.0439 218.408 94.0255Z" fill="#FEFEFE"/>
<path fill-rule="evenodd" clip-rule="evenodd" d="M218.539 99.1055C218.613 98.9929 218.668 98.8429 218.742 98.6367C219.318 97.0429 219.189 95.5244 218.465 94.0995C218.446 94.0806 218.427 94.0432 218.408 94.0249C217.778 94.0806 217.146 94.2685 216.534 94.5867C215.644 95.0556 214.901 95.787 214.288 96.7613C214.27 96.8176 214.233 96.8739 214.214 96.9303C214.214 96.9486 214.233 96.9676 214.251 96.9866C215.049 97.9426 215.978 98.6177 217.073 98.9549C217.555 99.0872 218.055 99.1245 218.539 99.1055Z" fill="#664738"/>
<path fill-rule="evenodd" clip-rule="evenodd" d="M254.528 291.057L278.955 277.934C279.066 277.878 279.121 277.748 279.084 277.616C278.416 275.947 278.157 273.249 276.505 274.13L251.595 287.515C250.315 288.19 251.892 290.215 252.524 291.808C252.709 292.146 254.268 291.208 254.528 291.057Z" fill="#467EC2"/>
<path fill-rule="evenodd" clip-rule="evenodd" d="M203.096 293.214L230.77 293.326C230.901 293.326 231.012 293.233 231.03 293.101C231.235 291.321 232.255 288.807 230.38 288.79L202.185 288.677C200.737 288.677 201.184 291.226 200.979 292.914C200.979 293.307 202.817 293.214 203.096 293.214Z" fill="#467EC2"/>
<path d="M212.839 264.249C211.263 263.818 209.48 263.088 207.753 262.018C206.231 261.081 204.746 259.901 203.447 258.476C203.243 258.251 203.429 257.913 203.634 258.119C204.931 259.563 206.418 260.743 207.94 261.68C209.647 262.711 211.373 263.442 212.913 263.874C213.192 263.949 213.211 264.343 212.839 264.249Z" fill="#467BBD"/>
<path fill-rule="evenodd" clip-rule="evenodd" d="M211.597 181.068C211.337 180.674 211.281 180.224 211.244 179.774C211.095 178.106 211.3 176.456 211.763 174.844C212.116 173.606 212.561 172.406 212.951 171.188C213.526 169.369 214.139 167.569 214.678 165.732C215.438 163.145 215.68 160.482 215.606 157.783C215.569 155.515 215.364 153.265 214.993 151.016C214.882 150.341 214.678 149.666 214.455 149.01C214.25 148.373 213.879 147.81 213.378 147.342C213.155 147.155 212.896 146.967 212.617 146.836C212.135 146.63 211.726 146.836 211.54 147.342C211.411 147.698 211.391 148.092 211.428 148.486C211.502 149.555 211.781 150.604 212.041 151.654C212.338 152.854 212.654 154.054 212.876 155.272C213.21 157.128 213.284 159.022 213.192 160.915C213.043 164.083 212.357 167.139 211.428 170.158C210.779 172.276 210.296 174.432 209.888 176.607C209.702 177.732 209.628 178.857 209.721 180.001C209.758 180.563 209.85 181.126 210.091 181.651C210.37 182.288 210.797 182.794 211.465 183.094C211.502 183.112 211.559 183.15 211.595 183.15C212.06 183.15 212.3 183.488 212.56 183.806C213.284 184.669 214.287 185.062 215.344 185.307C216.18 185.512 217.034 185.531 217.888 185.531C219.168 185.55 220.431 185.55 221.712 185.569C223.345 185.607 224.978 185.682 226.611 185.719C227.076 185.738 227.521 185.682 227.948 185.475C228.412 185.27 228.728 184.95 228.709 184.426C228.691 183.882 228.467 183.432 227.948 183.226C227.632 183.095 227.28 183.057 226.945 183C226.853 182.982 226.76 182.982 226.631 182.963C226.668 182.85 226.686 182.776 226.723 182.7C227.094 181.839 227.002 181.744 227.094 180.919C227.8 180.038 229.712 178.332 230.602 177.489C230.639 177.471 230.677 177.452 230.732 177.414C230.751 177.527 230.751 177.621 230.751 177.714C230.732 179.252 230.714 180.807 230.714 182.344C230.714 183.132 230.751 183.919 230.769 184.706C230.788 184.931 230.825 185.175 230.88 185.4C230.954 185.756 231.196 185.963 231.567 186C232.216 186.075 232.792 185.869 233.311 185.513C233.794 185.195 233.813 184.65 233.349 184.257C233.237 184.163 233.108 184.107 232.978 184.051C232.662 183.901 232.625 183.863 232.644 183.489C232.662 182.907 232.681 182.345 232.699 181.763C232.774 180.282 232.829 178.821 232.923 177.358C232.96 176.589 233.034 175.82 233.108 175.052C233.126 174.902 233.201 174.752 233.275 174.64C233.887 173.871 234.519 173.121 235.149 172.372C235.28 172.203 235.446 172.034 235.651 171.809C235.67 172.24 235.707 172.578 235.707 172.915C235.762 175.578 235.818 178.258 235.873 180.92C235.892 181.951 235.873 182.982 236.059 183.994C236.115 184.332 236.207 184.669 236.338 185.007C236.449 185.326 236.708 185.513 237.044 185.588C237.693 185.738 238.361 185.701 238.993 185.475C239.048 185.457 239.085 185.438 239.142 185.419C239.549 185.232 239.754 184.932 239.698 184.632C239.661 184.276 239.271 183.938 238.863 183.92C238.622 183.901 238.399 183.92 238.14 183.92C238.121 183.732 238.102 183.582 238.102 183.433C238.14 181.127 238.157 178.821 238.176 176.515C238.194 175.033 238.194 173.534 238.214 172.034C238.231 169.466 238.231 166.917 238.288 164.348C238.325 162.754 238.418 161.18 238.493 159.586C238.51 158.892 238.53 158.18 238.585 157.468C238.622 156.999 238.659 156.53 238.734 156.062C239.049 154.018 238.882 152.032 238.4 150.044C238.232 149.369 238.121 148.676 237.973 148.001C237.918 147.72 237.824 147.457 237.732 147.176C237.676 147.045 237.582 146.895 237.417 146.895C237.212 146.876 237.157 147.026 237.101 147.176C236.748 147.945 236.378 148.714 236.044 149.482C235.858 149.894 235.598 150.063 235.189 150.044C234.447 150.044 233.704 150.044 232.963 150.025C232.313 150.025 231.664 149.969 231.014 149.969C230.623 149.969 230.382 149.856 230.215 149.482C229.917 148.826 229.583 148.207 229.249 147.588C229.119 147.344 228.953 147.138 228.785 146.932C228.58 146.688 228.358 146.688 228.192 146.951C228.043 147.195 227.933 147.438 227.876 147.701C227.671 148.488 227.506 149.295 227.338 150.101C227.209 150.738 227.097 151.375 227.004 152.013C226.948 152.369 226.763 152.669 226.577 152.95C225.5 154.488 224.35 155.968 223.348 157.544C221.565 160.299 219.746 163.018 218.244 165.942C217.742 166.898 217.185 167.817 216.647 168.754C215.236 171.191 213.936 173.666 212.898 176.272C212.377 177.584 211.988 178.934 211.747 180.321C211.69 180.546 211.673 180.79 211.635 181.033C211.634 181.049 211.614 181.049 211.597 181.068Z" fill="#5F628C"/>
<path fill-rule="evenodd" clip-rule="evenodd" d="M227.094 180.918C227.355 180.731 227.558 180.581 227.744 180.413C228.227 179.962 230.752 177.469 230.752 177.469C230.696 176.813 230.715 175.819 230.678 175.164C230.603 174.001 230.362 170.983 230.288 169.783C230.269 169.783 223.976 176.401 223.976 176.401C225.535 177.132 226.705 178.819 227.02 180.394C227.039 180.544 227.077 180.693 227.094 180.918Z" fill="#5F628C"/>
<path fill-rule="evenodd" clip-rule="evenodd" d="M233.796 174.15C234.315 173.531 235.132 172.538 235.651 171.956C235.634 171.994 235.819 167.832 235.67 166.932C235.614 166.67 235.54 166.426 235.429 166.201C235.224 165.807 234.927 165.695 234.5 165.807C234.186 165.882 233.943 166.07 233.776 166.332C233.462 166.876 233.201 167.438 233.109 168.094C232.849 169.631 233.09 172.425 233.126 174.055C233.145 174.318 233.126 174.73 233.126 174.993C233.183 174.9 233.739 174.206 233.796 174.15Z" fill="#5F628C"/>
<path fill-rule="evenodd" clip-rule="evenodd" d="M237.396 147.698C237.173 148.073 236.617 150.098 236.469 150.735C236.395 151.054 236.45 151.167 236.746 151.317C236.988 151.429 237.507 151.597 237.731 151.71C237.99 151.86 238.12 151.785 238.102 151.485C238.102 150.735 237.953 150.173 237.86 149.611C237.786 149.01 237.62 148.504 237.396 147.698Z" fill="#5F628C"/>
<path fill-rule="evenodd" clip-rule="evenodd" d="M232.181 170.27C232.126 170.063 231.976 169.895 231.736 169.895C231.531 169.876 231.402 170.026 231.289 170.194C230.9 170.795 231.066 171.619 231.308 172.238C231.382 172.426 231.513 172.557 231.753 172.538C231.958 172.52 232.069 172.37 232.106 172.201C232.311 171.413 232.422 171.057 232.181 170.27ZM231.995 177.225C232.032 177.563 232.348 177.975 232.477 177.544C232.792 176.532 232.775 176.006 232.756 174.957C232.756 174.826 232.718 174.676 232.662 174.563C232.551 174.339 232.328 174.32 232.18 174.507C232.106 174.62 232.013 174.769 231.995 174.919C231.847 175.837 231.884 176.306 231.995 177.225ZM236.208 181.555C236.338 181.873 236.654 181.949 236.914 181.742C237.025 181.668 237.136 181.555 237.193 181.424C237.359 181.03 237.304 180.636 237.081 180.262C236.933 180.037 236.783 180.018 236.561 180.131C236.022 180.393 235.985 181.068 236.208 181.555ZM231.049 179.55C231.123 179.718 231.271 179.793 231.457 179.775C231.624 179.756 231.736 179.662 231.791 179.493C231.884 179.193 231.81 178.893 231.679 178.612C231.587 178.425 231.345 178.425 231.197 178.612C230.992 178.893 230.863 179.231 231.049 179.55ZM237.284 166.97C237.267 166.82 237.247 166.577 237.192 166.332C237.155 166.145 237.043 166.014 236.839 165.976C236.634 165.958 236.486 166.07 236.431 166.258C236.32 166.52 236.226 166.82 236.226 167.101C236.207 167.42 236.263 167.757 236.337 168.095C236.375 168.282 236.486 168.508 236.728 168.489C236.969 168.489 237.062 168.282 237.118 168.095C237.173 167.926 237.21 167.758 237.247 167.608C237.267 167.42 237.267 167.252 237.284 166.97ZM237.025 162.358C236.988 162.171 236.876 162.04 236.672 162.002C236.487 161.946 236.301 161.983 236.153 162.133C235.8 162.527 235.782 163.427 236.115 163.821C236.412 164.158 236.765 164.12 236.914 163.69C237.062 163.221 237.119 162.846 237.025 162.358ZM237.731 159.284C237.601 159.059 237.396 159.078 237.229 159.265C237.007 159.546 237.081 160.071 237.378 160.277C237.563 160.39 237.768 160.353 237.86 160.147C237.991 159.865 237.897 159.546 237.731 159.284ZM233.369 160.99C233.238 160.671 232.961 160.596 232.7 160.821C232.255 161.177 231.976 162.096 232.181 162.621C232.218 162.733 232.274 162.827 232.366 162.902C232.589 163.145 232.849 163.127 233.035 162.865C233.369 162.452 233.554 161.514 233.369 160.99ZM221.489 169.651C221.619 169.97 221.86 170.063 222.157 169.913C222.362 169.801 222.565 169.669 222.676 169.482C222.936 169.069 223.995 167.138 223.197 166.67C222.918 166.501 222.565 166.558 222.286 166.727C222.12 166.839 221.972 166.989 221.86 167.157C221.397 167.908 221.137 168.808 221.489 169.651ZM225.554 158.44C225.387 158.496 225.22 158.628 225.09 158.759C224.645 159.209 224.384 159.753 224.292 160.39C224.273 160.522 224.273 160.672 224.309 160.803C224.886 163.764 228.023 157.465 225.554 158.44ZM230.863 166.951C230.844 166.501 230.528 166.182 230.065 166.22C229.433 166.276 228.84 167.195 229.08 167.776C229.248 168.188 229.619 168.376 230.009 168.207C230.528 167.982 230.881 167.589 230.863 166.951ZM221.879 162.621C221.508 162.602 221.229 162.884 221.211 163.258C221.192 163.577 221.415 163.821 221.73 163.821C222.138 163.821 222.51 163.483 222.491 163.108C222.492 162.846 222.232 162.621 221.879 162.621ZM213.509 152.179C213.731 152.404 213.971 152.591 214.307 152.479C214.677 152.366 214.826 152.047 214.826 151.691C214.826 150.829 214.641 150.023 213.971 149.404C213.657 149.104 213.173 149.104 212.914 149.591C212.524 150.342 212.933 151.616 213.509 152.179ZM216.886 183.787C216.905 184.292 217.202 184.574 217.684 184.537C218.353 184.499 218.816 184.106 219.114 183.524C219.355 183.037 218.892 182.325 218.371 182.381C217.778 182.437 217.314 182.737 217.035 183.281C216.942 183.431 216.923 183.618 216.886 183.787ZM214.195 180.056C214.418 180.412 214.808 180.487 215.16 180.261C215.866 179.774 215.866 178.256 214.715 178.011C214.436 177.955 214.121 178.18 214.028 178.499C213.842 179.043 213.879 179.588 214.195 180.056ZM215.179 160.784C215.216 160.727 215.271 160.672 215.271 160.615C215.402 160.147 215.458 159.659 215.309 159.172C215.254 158.984 215.16 158.815 214.92 158.796C214.715 158.777 214.548 158.89 214.455 159.059C214.009 160.109 214.584 161.627 215.179 160.784ZM212.486 167.007C212.486 167.289 212.598 167.514 212.784 167.589C213.007 167.645 213.173 167.552 213.321 167.383C213.582 167.101 213.637 166.708 213.471 166.389C213.321 166.089 213.136 166.07 212.858 166.276C212.617 166.464 212.524 166.745 212.486 167.007ZM214.213 154.841C214.139 154.653 214.008 154.56 213.805 154.578C213.583 154.597 213.471 154.71 213.397 154.878C213.267 155.216 213.322 155.516 213.509 155.816C213.601 155.966 213.731 156.097 213.934 156.059C214.158 156.041 214.25 155.872 214.306 155.666C214.381 155.385 214.324 155.122 214.213 154.841ZM211.095 175.781C211.021 175.538 210.816 175.519 210.668 175.725C210.426 176.044 210.483 176.7 210.5 177.093C210.5 177.262 210.576 177.45 210.779 177.45C210.984 177.45 211.058 177.281 211.076 177.112C211.17 176.682 211.263 176.213 211.095 175.781ZM216.422 176.437C216.663 176.437 216.905 176.175 216.905 175.949C216.905 175.687 216.718 175.519 216.458 175.537C215.735 175.557 215.976 176.456 216.422 176.437ZM211.745 171.788C211.763 172.032 211.894 172.182 212.079 172.182C212.302 172.182 212.506 171.957 212.487 171.695C212.487 171.488 212.338 171.338 212.173 171.338C211.948 171.357 211.745 171.564 211.745 171.788ZM217.071 172.013C217.202 172.332 217.462 172.426 217.758 172.257C217.963 172.144 218.166 172.013 218.279 171.826C218.798 171.038 219.744 169.82 219.188 168.864C219.021 168.582 218.742 168.508 218.465 168.639C218.334 168.677 218.242 168.751 218.129 168.845C217.388 169.501 216.701 171 217.071 172.013ZM225.239 180.618C224.997 180.037 224.44 179.98 224.013 180.431C223.976 180.469 223.939 180.525 223.902 180.581C223.532 181.105 223.68 182.268 224.161 182.698C224.44 182.961 224.756 182.943 225.034 182.661C225.573 182.099 225.554 181.293 225.239 180.618ZM224.144 171.695C224.125 172.182 224.534 172.444 224.922 172.182C225.757 171.638 226.036 171.095 225.962 170.138C225.944 169.951 225.795 169.838 225.609 169.838C225.517 169.838 225.424 169.857 225.35 169.895C224.757 170.138 224.144 171.057 224.144 171.695ZM220.859 181.405C221.193 181.555 221.508 181.462 221.805 181.255C222.324 180.881 222.418 180.018 221.972 179.55C221.842 179.419 221.713 179.362 221.526 179.419C220.394 179.662 220.208 181.087 220.859 181.405ZM219.317 175.631C219.317 175.969 219.391 176.269 219.559 176.55C219.856 177.056 220.45 177.169 220.839 176.738C221.397 176.156 221.694 175.463 221.508 174.62C221.47 174.432 221.434 174.244 221.359 174.076C221.154 173.514 220.616 173.364 220.171 173.72C219.707 174.095 219.465 174.601 219.354 175.164C219.336 175.312 219.336 175.481 219.317 175.631ZM227.41 165.845C227.689 165.695 227.911 165.507 228.042 165.226C228.282 164.682 229.545 162.059 227.707 162.527C227.373 162.62 227.113 162.789 226.872 163.033C226.501 163.445 226.222 163.895 226.018 164.401C225.592 165.414 226.538 166.37 227.41 165.845ZM236.709 175.088C236.747 175.275 236.821 175.481 237.081 175.5C237.341 175.519 237.47 175.35 237.563 175.144C237.637 174.994 237.694 174.844 237.712 174.694C237.786 174.206 237.823 173.7 237.712 173.213C237.675 173.025 237.601 172.838 237.507 172.688C237.358 172.425 237.118 172.425 236.95 172.669C236.857 172.782 236.765 172.95 236.745 173.1C236.58 173.869 236.506 174.319 236.709 175.088ZM229.006 148.673C229.155 148.748 229.266 148.692 229.304 148.542C229.359 148.317 229.174 147.754 228.989 147.642C228.877 147.567 228.729 147.474 228.618 147.586C228.543 147.661 228.524 147.83 228.543 147.942C228.598 148.298 228.729 148.486 229.006 148.673ZM230.454 152.047C230.807 152.104 231.067 151.86 230.975 151.504C230.918 151.241 230.789 151.017 230.548 150.885C229.786 150.473 229.545 151.86 230.454 152.047ZM235.893 151.86C236.022 151.823 236.17 151.71 236.227 151.579C236.283 151.448 236.283 151.26 236.264 151.091C236.246 150.848 236.005 150.679 235.782 150.717C235.187 150.791 235.447 152.01 235.893 151.86ZM237.657 155.029C237.861 155.066 238.065 154.897 238.157 154.56C238.231 154.335 238.251 154.109 238.268 153.866C238.268 153.697 238.194 153.509 238.009 153.491C237.88 153.453 237.713 153.509 237.601 153.603C237.136 153.941 237.21 154.953 237.657 155.029ZM227.094 155.628C227.355 155.722 227.578 155.535 227.744 155.328C228.004 155.029 228.19 154.672 228.19 154.26C228.208 154.054 228.171 153.828 228.079 153.641C227.93 153.304 227.596 153.248 227.336 153.529C226.946 153.922 226.407 155.403 227.094 155.628Z" fill="#5F628C"/>
<path fill-rule="evenodd" clip-rule="evenodd" d="M228.45 147.792C228.282 148.336 227.912 149.892 227.837 150.754C227.818 150.979 227.781 151.673 227.8 151.898C227.8 152.16 228.134 151.916 228.393 151.823C228.635 151.71 228.876 151.579 229.099 151.466C229.265 151.373 229.304 151.26 229.247 151.073C228.989 150.135 228.673 148.767 228.45 147.792Z" fill="#5F628C"/>
<path fill-rule="evenodd" clip-rule="evenodd" d="M233.016 155.741C232.812 155.591 232.255 155.179 232.311 155.835C232.366 156.322 232.682 156.491 233.035 156.772C233.035 156.772 232.923 157.84 233.127 157.672C233.183 157.616 233.146 156.847 233.164 156.753C233.424 156.584 234.019 155.854 233.74 155.572C233.611 155.422 233.462 155.46 233.313 155.535C233.22 155.59 233.109 155.666 233.016 155.741Z" fill="#5F628C"/>
<path fill-rule="evenodd" clip-rule="evenodd" d="M231.698 153.847C231.587 153.959 231.493 154.091 231.364 154.166C231.085 154.316 230.9 154.26 230.696 153.997C230.547 153.809 230.473 153.585 230.454 153.322C230.437 153.172 230.417 153.116 230.362 153.116C230.306 153.097 230.232 153.116 230.251 153.341C230.288 153.735 230.38 154.091 230.733 154.353C230.937 154.503 231.159 154.503 231.382 154.409C231.679 154.297 231.864 154.071 231.975 153.79C232.032 153.621 231.975 153.621 231.958 153.602C231.921 153.547 231.736 153.809 231.698 153.847Z" fill="#5F628C"/>
<path fill-rule="evenodd" clip-rule="evenodd" d="M234.13 153.997C234.167 154.185 234.297 154.316 234.483 154.409C234.742 154.522 235.132 154.447 235.355 154.222C235.54 154.035 235.634 153.866 235.651 153.697C235.651 153.585 235.614 153.566 235.596 153.547C235.559 153.528 235.54 153.491 235.447 153.64C235.373 153.772 235.318 153.922 235.224 154.035C234.927 154.372 234.537 154.316 234.314 153.922C234.222 153.753 234.166 153.659 234.129 153.659C234.073 153.659 234.073 153.753 234.13 153.997Z" fill="#5F628C"/>
<path fill-rule="evenodd" clip-rule="evenodd" d="M233.089 158.253C232.608 158.253 232.329 158.159 232.291 158.197C232.236 158.271 232.812 158.496 233.146 158.477C233.665 158.44 234.055 158.253 234.055 158.197C234.073 158.14 233.665 158.253 233.089 158.253Z" fill="#5F628C"/>
<path fill-rule="evenodd" clip-rule="evenodd" d="M264.088 291.02L275.633 284.834C274.889 283.522 274.147 282.21 273.424 280.896L260.82 287.664L262.342 289.164C262.974 289.82 263.55 290.44 264.088 291.02Z" fill="#E8866A"/>
<path d="M250.13 97.9805C250.204 97.9622 250.259 97.9249 250.297 97.8686C250.334 97.8306 250.353 97.7559 250.334 97.6996C250.316 97.6243 250.279 97.5687 250.223 97.5307C250.185 97.4934 250.111 97.4744 250.055 97.4934C249.407 97.606 248.831 97.7933 248.348 98.0748C247.866 98.3374 247.458 98.6936 247.142 99.1061C246.826 99.5187 246.623 99.9868 246.492 100.512C246.381 101.037 246.362 101.618 246.455 102.237C246.455 102.311 246.492 102.368 246.547 102.405C246.604 102.442 246.66 102.461 246.734 102.442C246.808 102.442 246.863 102.405 246.9 102.349C246.938 102.293 246.956 102.237 246.937 102.161C246.9 101.862 246.883 101.562 246.9 101.28C246.9 100.999 246.937 100.737 247.011 100.511C247.197 100.399 247.421 100.305 247.624 100.249C247.866 100.192 248.108 100.155 248.33 100.155C248.553 100.155 248.776 100.174 248.98 100.249C249.146 100.305 249.314 100.38 249.444 100.511C249.499 100.549 249.555 100.568 249.629 100.568C249.684 100.549 249.741 100.53 249.796 100.474C249.833 100.418 249.852 100.361 249.852 100.287C249.852 100.23 249.815 100.174 249.758 100.118C249.592 99.9678 249.368 99.8552 249.128 99.7799C248.886 99.6863 248.607 99.649 248.33 99.6673C248.125 99.6673 247.903 99.6863 247.68 99.7236C247.531 99.7616 247.383 99.7989 247.253 99.8552L247.327 99.7236C247.383 99.6116 247.457 99.499 247.532 99.4054C247.81 99.0492 248.163 98.7303 248.608 98.505C249.034 98.2621 249.555 98.0748 250.13 97.9805Z" fill="#DE6A50"/>
<path d="M236.227 76.1777C236.116 76.4029 235.837 76.4966 235.614 76.3839C235.372 76.253 235.298 75.9714 235.409 75.7462L239.363 67.9665C239.492 67.7412 239.771 67.6476 239.994 67.7602C240.217 67.8912 240.31 68.1728 240.199 68.398L236.227 76.1777Z" fill="#AB5730"/>
<path d="M231.252 78.3339C231.494 78.2593 231.754 78.3902 231.828 78.6338C231.921 78.8774 231.79 79.14 231.55 79.2336C229.47 79.946 227.039 80.4149 224.589 80.8837C218.242 82.1023 211.725 83.3582 211.281 89.0949C211.263 89.3391 211.039 89.5454 210.779 89.5264C210.519 89.5074 210.334 89.2828 210.352 89.0202C210.854 82.5711 217.74 81.2399 224.404 79.965C226.834 79.4962 229.229 79.0463 231.252 78.3339Z" fill="#AB5730"/>
<path d="M236.004 64.9858C236.246 65.0795 236.357 65.361 236.264 65.6046C236.17 65.8292 235.911 65.9608 235.67 65.8672C231.92 64.386 227.614 64.517 223.549 65.8855C219.373 67.2914 215.457 70.0101 212.654 73.6659C212.505 73.8721 212.208 73.9094 212.004 73.7595C211.799 73.5906 211.762 73.3096 211.93 73.1034C214.845 69.2977 218.909 66.467 223.252 65.0042C227.504 63.561 232.032 63.43 236.004 64.9858Z" fill="#AB5730"/>
<path d="M241.091 70.16C240.849 70.2354 240.589 70.0854 240.533 69.8228C240.459 69.5792 240.607 69.3167 240.848 69.2604C241.09 69.1851 241.313 69.1477 241.553 69.1287C244.022 68.8288 246.621 70.3663 248.793 72.8971C250.945 75.3526 252.709 78.7464 253.637 82.2332C253.878 83.2082 254.063 84.1642 254.174 85.1202C254.212 85.3828 254.026 85.6074 253.766 85.6454C253.525 85.6827 253.284 85.4954 253.265 85.2329C253.153 84.3142 252.968 83.3955 252.726 82.4768C251.854 79.121 250.147 75.8594 248.106 73.4969C246.1 71.2097 243.798 69.8038 241.664 70.0474C241.48 70.0664 241.276 70.1037 241.091 70.16Z" fill="#AB5730"/>
<path d="M235.355 75.9904C235.336 75.7462 235.522 75.5216 235.782 75.5026C236.041 75.4842 236.264 75.6715 236.283 75.9341C237.062 85.6827 241.48 87.1822 245.155 88.4198C247.902 89.3568 250.259 90.1635 250.686 93.744C250.704 93.9876 250.519 94.2312 250.278 94.2501C250.018 94.2875 249.795 94.1002 249.758 93.8566C249.406 90.857 247.309 90.1446 244.859 89.3012C240.923 87.97 236.171 86.3578 235.355 75.9904Z" fill="#AB5730"/>
<path d="M242.371 76.7212C242.129 76.6465 241.98 76.384 242.055 76.1404C242.13 75.8968 242.389 75.7462 242.65 75.8215C243.577 76.1214 244.375 76.4776 245.062 76.8338C245.749 77.209 246.306 77.6215 246.789 78.0151C246.974 78.184 246.994 78.4839 246.826 78.6712C246.66 78.8774 246.381 78.8964 246.176 78.7275C245.749 78.3713 245.249 77.9961 244.617 77.6589C243.986 77.3216 243.243 77.0028 242.371 76.7212Z" fill="#AB5730"/>
<path d="M251.336 86.3388C251.205 86.1142 251.279 85.8137 251.503 85.6827C251.726 85.5511 252.004 85.6264 252.134 85.8517C253.638 88.3825 254.417 90.2945 254.658 92.2635C254.881 94.2318 254.565 96.2374 253.878 98.9562C253.804 99.2004 253.564 99.3504 253.303 99.2941C253.062 99.2187 252.914 98.9752 252.988 98.7126C253.656 96.1071 253.953 94.2135 253.73 92.3761C253.508 90.5571 252.764 88.757 251.336 86.3388Z" fill="#AB5730"/>
<path d="M235.596 71.6222C235.836 71.7158 235.967 71.9784 235.874 72.222C235.781 72.4656 235.503 72.5782 235.261 72.4846C233.052 71.6222 230.194 71.4343 227.168 71.8848C224.106 72.3346 220.895 73.4033 218.037 75.0344C217.814 75.147 217.535 75.0723 217.405 74.8471C217.294 74.6218 217.368 74.3409 217.592 74.2093C220.542 72.5409 223.865 71.4159 227.039 70.9478C230.214 70.4973 233.22 70.6852 235.596 71.6222ZM210.13 81.2582C210.26 81.033 210.538 80.9583 210.762 81.0893C210.984 81.2209 211.076 81.5018 210.947 81.7271C210.13 83.1519 209.462 84.914 209.276 87.0329C209.109 89.1512 209.425 91.6257 210.594 94.438C210.688 94.6823 210.576 94.9632 210.335 95.0568C210.112 95.1511 209.833 95.0385 209.74 94.8132C208.497 91.8326 208.163 89.2075 208.366 86.9583C208.553 84.6704 209.276 82.7767 210.13 81.2582Z" fill="#AB5730"/>
<path d="M225.238 93.4814C226.909 98.3374 222.454 99.5553 223.178 101.786C223.401 102.461 224.664 102.967 227.094 102.442" stroke="#DE6A50" stroke-width="0.7158" stroke-miterlimit="10" stroke-linecap="round" stroke-linejoin="round"/>
<path d="M252.134 156.753C252.134 156.49 252.339 156.284 252.598 156.284C252.839 156.303 253.044 156.509 253.044 156.771L252.932 165.507L255.847 172.912C256.551 175.2 257.146 177.693 257.74 180.224C259.707 188.604 261.86 197.734 268.469 202.027C268.691 202.177 268.746 202.458 268.598 202.684C268.469 202.889 268.19 202.965 267.967 202.815C261.043 198.316 258.854 188.98 256.83 180.449C256.236 177.899 255.661 175.425 254.975 173.213L248.738 157.39C248.644 157.146 248.775 156.884 248.997 156.79C249.238 156.696 249.517 156.809 249.61 157.053L252.041 163.239L252.134 156.753ZM201.461 129.682C201.295 129.495 201.312 129.194 201.498 129.026C201.703 128.857 201.982 128.876 202.148 129.063C203.114 130.132 203.894 131.257 204.487 132.625C205.081 133.975 205.489 135.587 205.675 137.631C205.712 137.874 205.526 138.099 205.267 138.137C205.006 138.155 204.783 137.968 204.765 137.705C204.58 135.774 204.207 134.275 203.651 133C203.096 131.726 202.353 130.694 201.461 129.682ZM198.027 188.286C197.99 188.53 197.731 188.699 197.49 188.643C197.249 188.604 197.081 188.361 197.137 188.099C198.195 182.831 199.067 177.882 199.848 172.95C200.609 168.02 201.276 163.034 201.908 157.672C201.925 157.409 202.167 157.222 202.409 157.259C202.668 157.297 202.854 157.522 202.817 157.785C202.185 163.109 201.536 168.096 200.757 173.082C199.977 178.049 199.104 182.999 198.027 188.286ZM252.672 128.745C252.858 128.558 253.154 128.558 253.322 128.745C253.507 128.933 253.507 129.214 253.322 129.401C250.167 132.625 248.588 136.713 247.419 139.768L247.067 140.668C246.973 140.912 246.714 141.024 246.472 140.931C246.232 140.837 246.12 140.575 246.213 140.331L246.566 139.431C247.772 136.3 249.368 132.119 252.672 128.745Z" fill="#5F628C"/>
<path fill-rule="evenodd" clip-rule="evenodd" d="M320.978 234.535C308.096 234.535 297.646 225.968 297.646 215.395C297.646 211.401 299.149 207.709 301.693 204.634V204.615C304.959 201.128 307.02 196.048 307.02 190.386C307.02 184.425 303.067 184.2 303.067 177.788C303.067 174.714 304.218 171.882 306.165 169.521V169.502C306.241 169.446 306.296 169.371 306.352 169.296C307.113 167.29 308.151 165.471 309.414 163.916C309.952 162.266 310.249 160.466 310.249 158.573C310.249 157.167 310.082 155.799 309.767 154.505C309.062 152.649 308.672 150.586 308.672 148.412C308.672 140.294 314.166 133.733 320.978 133.733C327.771 133.733 333.285 140.295 333.285 148.412C333.285 150.586 332.894 152.649 332.171 154.505C331.855 155.799 331.688 157.167 331.688 158.573C331.688 160.467 331.985 162.266 332.522 163.916C333.785 165.471 334.825 167.29 335.586 169.296C335.66 169.371 335.716 169.446 335.771 169.502V169.521C337.739 171.882 338.89 174.714 338.89 177.788C338.89 184.2 334.936 184.425 334.936 190.386C334.936 196.048 336.996 201.128 340.244 204.615V204.634C342.806 207.709 344.291 211.401 344.291 215.395C344.29 225.968 333.859 234.535 320.978 234.535Z" fill="#E3EEFF"/>
<path fill-rule="evenodd" clip-rule="evenodd" d="M320.978 133.731C327.771 133.731 333.285 140.293 333.285 148.41C333.285 150.584 332.894 152.647 332.171 154.503C331.855 155.797 331.687 157.165 331.687 158.571C331.687 160.465 331.985 162.264 332.522 163.914C333.785 165.469 334.825 167.288 335.585 169.294C335.659 169.369 335.716 169.425 335.771 169.5V169.519C337.739 171.881 338.89 174.712 338.89 177.786C338.89 184.198 334.936 184.423 334.936 190.384C334.936 196.046 336.996 201.108 340.244 204.613V204.632C342.806 207.707 344.291 211.418 344.291 215.393C344.291 225.966 333.859 234.533 320.978 234.533V133.731Z" fill="#D6E5FC"/>
<path d="M321.405 133.731H320.551V252.964H321.405V133.731Z" fill="#99B8F7"/>
<path d="M308.635 164.946L321.274 177.281L320.681 177.9L308.151 165.677C308.3 165.433 308.467 165.189 308.635 164.946ZM305.108 199.459C305.238 199.178 305.35 198.877 305.461 198.598L321.274 214.027L320.681 214.644L305.108 199.459ZM310.992 139.824C311.141 139.562 311.308 139.318 311.474 139.074L321.274 148.654L320.681 149.272L310.992 139.824ZM333.172 146.461C333.209 146.836 333.247 147.211 333.266 147.586L321.274 159.284L320.681 158.665L333.172 146.461ZM338.611 175.219C338.685 175.557 338.74 175.913 338.779 176.25L321.275 193.347L320.682 192.729L338.611 175.219ZM340.745 205.271C340.931 205.496 341.098 205.74 341.265 205.983L321.274 225.499L320.681 224.881L340.745 205.271Z" fill="#99B8F7"/>
<path d="M320.978 176.981L321.274 177.281L320.978 177.6V176.981ZM333.172 146.461C333.209 146.836 333.247 147.211 333.266 147.586L321.274 159.284L320.978 158.984V158.365L333.172 146.461ZM338.611 175.219C338.685 175.557 338.74 175.913 338.779 176.25L321.275 193.347L320.978 193.048V192.447L338.611 175.219ZM340.745 205.271C340.931 205.496 341.098 205.74 341.265 205.983L321.274 225.499L320.978 225.181V224.581L340.745 205.271ZM320.978 214.345V213.745L321.274 214.027L320.978 214.345ZM320.978 148.954V148.354L321.274 148.654L320.978 148.954Z" fill="#99B8F7"/>
<path fill-rule="evenodd" clip-rule="evenodd" d="M323.65 239.897C331.948 239.897 338.982 245.39 341.376 252.964H305.905C308.319 245.39 315.335 239.897 323.65 239.897Z" fill="#D6E5FC"/>
<path fill-rule="evenodd" clip-rule="evenodd" d="M38.6424 194.529C27.1532 194.529 17.8354 187.517 17.8354 178.875C17.8354 175.594 19.1719 172.557 21.4545 170.045C24.369 167.177 26.1881 163.015 26.1881 158.384C26.1881 156.884 26.0021 155.423 25.6308 154.035C24.8143 152.067 24.35 149.854 24.35 147.549C24.35 138.888 30.7533 131.876 38.6424 131.876C46.5497 131.876 52.953 138.888 52.953 147.549C52.953 149.854 52.4894 152.067 51.6722 154.035C51.3009 155.423 51.115 156.885 51.115 158.384C51.115 163.015 52.934 167.177 55.8485 170.045C58.1311 172.557 59.4676 175.595 59.4676 178.875C59.4682 187.517 50.1505 194.529 38.6424 194.529Z" fill="#E3EEFF"/>
<path fill-rule="evenodd" clip-rule="evenodd" d="M38.6423 131.876C46.5496 131.876 52.9529 138.887 52.9529 147.548C52.9529 149.854 52.4893 152.066 51.6721 154.035C51.3008 155.422 51.1149 156.884 51.1149 158.384C51.1149 163.015 52.9339 167.176 55.8484 170.044C58.131 172.556 59.4675 175.594 59.4675 178.874C59.4675 187.516 50.1497 194.529 38.6416 194.529V131.876H38.6423Z" fill="#D6E5FC"/>
<path d="M39.1249 131.895V241.134H38.1787V131.895C38.3274 131.895 38.4943 131.876 38.6423 131.876C38.8093 131.876 38.9763 131.895 39.1249 131.895Z" fill="#99B8F7"/>
<path d="M26.0212 140.199L38.977 152.854L38.3275 153.547L25.5942 141.137C25.7239 140.818 25.8725 140.499 26.0212 140.199Z" fill="#99B8F7"/>
<path d="M22.6986 168.658L38.9769 184.555L38.3274 185.25L22.0674 169.389C22.29 169.145 22.4943 168.901 22.6986 168.658Z" fill="#99B8F7"/>
<path d="M52.3407 152.104L38.9762 165.133L38.3267 164.439L52.7119 150.397C52.619 150.979 52.4893 151.541 52.3407 152.104Z" fill="#99B8F7"/>
<path d="M57.7231 172.576L38.9762 190.873L38.3267 190.18L57.1849 171.75C57.3708 172.032 57.5562 172.294 57.7231 172.576Z" fill="#99B8F7"/>
<path d="M38.6426 152.535L38.9765 152.853L38.6426 153.21V152.535Z" fill="#99B8F7"/>
<path d="M38.6426 184.236L38.9765 184.555L38.6426 184.892V184.236Z" fill="#99B8F7"/>
<path d="M52.341 152.104L38.9765 165.133L38.6426 164.795V164.121L52.7123 150.397C52.6193 150.979 52.4896 151.541 52.341 152.104Z" fill="#99B8F7"/>
<path d="M57.7234 172.576L38.9765 190.873L38.6426 190.517V189.861L57.1852 171.751C57.3711 172.032 57.5565 172.294 57.7234 172.576Z" fill="#99B8F7"/>
<path fill-rule="evenodd" clip-rule="evenodd" d="M27.7471 239.897C36.0624 239.897 43.0969 245.39 45.4915 252.964H10.021C12.4149 245.39 19.4501 239.897 27.7471 239.897Z" fill="#D6E5FC"/>
<path fill-rule="evenodd" clip-rule="evenodd" d="M44.4708 229.548C53.8442 229.548 61.7699 239.39 64.4801 252.964H24.4614C27.1533 239.391 35.0973 229.548 44.4708 229.548Z" fill="#D6E5FC"/>
<path fill-rule="evenodd" clip-rule="evenodd" d="M46.1227 31.5033C50.9669 29.8349 54.679 31.0908 58.0204 33.9778C58.8926 30.1911 61.2316 26.3291 66.0574 24.679C68.2104 23.9476 70.438 23.9666 72.4614 24.5664C71.4222 24.698 72.6657 24.1538 69.3615 25.2788C66.0574 26.4037 60.2847 32.7776 59.5055 38.2897C55.4222 34.2587 49.2415 32.1404 43.8401 33.9961C42.8193 34.334 41.8541 34.8022 40.9629 35.3273C42.2064 33.6033 43.9691 32.2347 46.1227 31.5033Z" fill="#C0D7FF"/>
</g>
<defs>
<clipPath id="clip0_218_4198">
<rect width="356" height="355.995" fill="white" transform="translate(0 0.0644531)"/>
</clipPath>
</defs>
</svg>
