<svg width="288" height="309" viewBox="0 0 288 309" fill="none" xmlns="http://www.w3.org/2000/svg">
<path fill-rule="evenodd" clip-rule="evenodd" d="M147.315 105.016C146.651 108.916 146.449 112.881 146.713 116.828C148.781 117.289 150.756 118.095 152.556 119.212L146.885 120.458C147.179 124.728 147.745 128.975 148.582 133.172C152.312 133.221 155.983 134.109 159.323 135.771L149.828 138.413C151.2 143.722 153.373 148.791 156.272 153.447C165.402 167.6 178.977 176.083 190.362 175.89C195.539 165.688 194.315 149.752 186.066 135.191C184.559 135.769 182.973 136.116 181.362 136.222L184.541 132.614C174.853 117.902 154.21 106.648 147.272 104.994L147.315 105.016Z" fill="#C0D7FF"/>
<path fill-rule="evenodd" clip-rule="evenodd" d="M190.297 175.912C195.474 165.71 194.25 149.774 186.001 135.212C184.494 135.79 182.908 136.138 181.297 136.243L184.476 132.635C174.788 117.923 154.145 106.669 147.207 105.016L190.297 175.912Z" fill="#AFCAFA"/>
<path d="M179.471 159.052L187.505 172.346L189.825 176.148L197.494 189.378L198.46 188.755L190.297 175.912L179.901 158.751L179.471 159.052Z" fill="#C0D7FF"/>
<path fill-rule="evenodd" clip-rule="evenodd" d="M279.313 115.045C274.967 116.208 270.766 117.858 266.79 119.964C267.277 122.454 267.357 125.007 267.026 127.524L263.074 121.875C258.756 124.26 254.601 126.929 250.637 129.865C252.374 133.931 253.189 138.332 253.021 142.751L245.782 133.709C240.881 137.706 236.628 142.437 233.173 147.734C222.755 164.4 220.435 183.085 226.041 195.262C239.145 196.057 255.083 187.144 266.361 171.401C265.044 170.04 263.936 168.491 263.074 166.805L268.294 168.523C279.034 151.063 280.903 123.314 279.313 115.088V115.045Z" fill="#C0D7FF"/>
<path fill-rule="evenodd" clip-rule="evenodd" d="M226.042 195.22C239.145 196.014 255.083 187.101 266.361 171.358C265.044 169.997 263.937 168.448 263.074 166.762L268.294 168.48C279.034 151.02 280.903 123.271 279.314 115.045L226.042 195.22Z" fill="#AFCAFA"/>
<path d="M238.415 175.525L228.426 190.538L225.569 194.854L215.452 209.416L216.547 210.211L226.042 195.284L238.887 175.847L238.415 175.525Z" fill="#C0D7FF"/>
<path fill-rule="evenodd" clip-rule="evenodd" d="M135.565 151.256C134.34 155.68 134.039 168.051 136.789 179.606C137.6 179.547 138.416 179.59 139.216 179.734L137.068 180.765C138.069 185.038 139.69 189.141 141.88 192.943C142.675 194.232 143.512 195.52 144.436 196.766C146.378 196.347 148.379 196.282 150.343 196.573L145.897 198.72C153.071 207.59 162.33 212.874 170.428 213.003C174.874 204.927 174.509 192.385 169.032 180.336L163.361 183.3C163.861 180.647 165.037 178.169 166.776 176.105C162.089 168.98 155.983 162.897 148.84 158.236L144.93 162.982C144.811 160.732 145.125 158.479 145.854 156.346C142.649 154.222 139.193 152.505 135.565 151.234V151.256Z" fill="#C0D7FF"/>
<path fill-rule="evenodd" clip-rule="evenodd" d="M135.565 151.256C134.34 155.68 134.039 168.051 136.789 179.606C137.6 179.547 138.416 179.591 139.216 179.735L137.068 180.765C138.069 185.038 139.69 189.141 141.88 192.943C142.675 194.232 143.512 195.52 144.436 196.766C146.378 196.347 148.379 196.282 150.343 196.573L145.897 198.72C153.071 207.59 162.33 212.874 170.428 213.003L135.565 151.256Z" fill="#AFCAFA"/>
<path d="M166.927 205.486C171.846 214.291 176.851 222.904 182.092 231.559L180.868 232.311L166.304 205.808L166.927 205.486Z" fill="#C0D7FF"/>
<path fill-rule="evenodd" clip-rule="evenodd" d="M135.737 287.829V298.718C135.737 302.519 105.492 308.297 68.1584 308.297C30.8249 308.297 0.623047 302.519 0.623047 298.718V287.829V276.94H12.9959V280.441C31.3051 278.328 49.7288 277.367 68.1584 277.563C86.588 277.365 105.012 278.327 123.321 280.441V276.94H135.737V287.829Z" fill="#5F628C"/>
<path fill-rule="evenodd" clip-rule="evenodd" d="M286.939 276.768V288.258C286.939 292.318 254.912 298.396 215.452 298.396C175.992 298.396 143.964 292.318 143.964 288.258V276.768V265.256H157.067V269.015C176.439 266.691 195.942 265.644 215.452 265.879C234.997 265.642 254.536 266.689 273.944 269.015V265.256H287.047V276.768H286.939Z" fill="#5F628C"/>
<path fill-rule="evenodd" clip-rule="evenodd" d="M2.70652 142.772C2.40362 146.236 2.48287 149.722 2.94281 153.167C4.81473 153.413 6.62678 153.995 8.29151 154.886L3.2865 156.303C3.8529 160.039 4.66374 163.734 5.71382 167.364C8.99376 167.088 12.2924 167.596 15.3372 168.846L7.17451 171.852C8.75829 176.389 11.0177 180.661 13.8765 184.524C22.8984 196.272 35.3572 202.672 45.3028 201.706C49.1263 192.363 46.8709 178.51 38.7297 166.354C37.4535 166.959 36.1028 167.393 34.7128 167.643L37.2045 164.185C27.7101 152.072 8.76409 143.717 2.6206 142.708L2.70652 142.772Z" fill="#C0D7FF"/>
<path fill-rule="evenodd" clip-rule="evenodd" d="M45.3887 201.684C49.2123 192.342 46.9568 178.489 38.8156 166.333C37.5395 166.938 36.1887 167.371 34.7987 167.621L37.2905 164.164C27.796 151.986 8.85002 143.696 2.70654 142.687L45.3887 201.684Z" fill="#AFCAFA"/>
<path d="M34.7344 187.703L42.7037 198.72L45.0236 201.92L52.6922 212.917L53.487 212.315L45.4532 201.663L35.0995 187.402L34.7344 187.703Z" fill="#C0D7FF"/>
<path fill-rule="evenodd" clip-rule="evenodd" d="M68.1584 275.716C86.5902 275.501 105.016 276.484 123.321 278.658V275.093H135.737V285.982C135.737 289.848 105.492 295.582 68.1584 295.582C30.8249 295.582 0.623047 289.848 0.623047 285.982V275.093H12.9959V278.658C31.3004 276.485 49.7266 275.502 68.1584 275.716Z" fill="#5F628C"/>
<path fill-rule="evenodd" clip-rule="evenodd" d="M68.1584 284.629C105.363 284.629 135.737 280.333 135.737 274.964C135.737 269.595 105.363 265.321 68.1584 265.321C30.9538 265.321 0.623047 269.616 0.623047 274.964C0.623047 280.312 30.9538 284.629 68.1584 284.629Z" fill="#6C6F9C"/>
<path fill-rule="evenodd" clip-rule="evenodd" d="M9.58057 273.504V234.029C9.58057 211.95 46.0978 180.765 60.361 171.616C63.5186 169.576 63.8408 168.416 60.361 166.075C45.9904 156.668 9.64501 125.806 9.64501 103.791V63.2642C21.3305 66.1636 43.1979 68.7408 68.2229 68.7408C93.2479 68.7408 115.158 66.1636 126.801 63.2642V103.791C126.801 125.806 90.4554 156.668 76.0848 166.075C72.5405 168.416 72.9057 169.576 76.0848 171.616C90.3265 180.765 126.865 211.95 126.865 234.029V273.504H9.58057Z" fill="#E6EBFA"/>
<path fill-rule="evenodd" clip-rule="evenodd" d="M44.4652 183.794C28.5265 197.496 9.58057 218.157 9.58057 234.029V273.504H15.724V234.029C15.724 218.093 32.1138 197.518 44.4652 183.794Z" fill="#D2E1FA"/>
<path fill-rule="evenodd" clip-rule="evenodd" d="M9.58057 63.2642V103.791C9.58057 119.706 28.5265 140.195 44.4652 153.898C32.1138 140.195 17.3136 119.706 17.3136 103.791V64.8749C14.3922 64.381 11.836 63.8226 9.58057 63.2642Z" fill="#D2E1FA"/>
<path fill-rule="evenodd" clip-rule="evenodd" d="M126.736 273.504V234.029C126.736 211.95 90.928 180.765 76.8582 171.616C73.8294 169.576 73.5072 168.416 76.9871 166.075C91.1214 156.668 126.736 125.806 126.736 103.791V63.2642C120.817 64.6431 114.82 65.6687 108.779 66.3354V103.791C108.779 125.806 84.1187 156.668 73.142 166.075C70.414 168.416 70.6503 169.576 73.142 171.616C83.9898 180.765 121.431 215.387 121.431 237.465V273.504H126.736Z" fill="#D2E1FA"/>
<path fill-rule="evenodd" clip-rule="evenodd" d="M68.1584 63.7366C86.5907 63.5269 105.017 64.5169 123.321 66.7004V63.1782H135.737V70.6952C135.737 74.4966 105.492 80.274 68.1584 80.274C30.8249 80.274 0.623047 74.4752 0.623047 70.5878V63.0708H12.9959V66.593C31.3021 64.4468 49.7284 63.4927 68.1584 63.7366Z" fill="#ED7E23"/>
<path fill-rule="evenodd" clip-rule="evenodd" d="M68.1584 63.7366C86.5907 63.5269 105.017 64.5169 123.321 66.7005V63.1782H135.737V74.0671C135.737 77.89 105.492 83.603 68.1584 83.603C30.8249 83.603 0.623047 77.89 0.623047 74.0671V63.1782H12.9959V66.7005C31.2998 64.5184 49.7261 63.5283 68.1584 63.7366Z" fill="#5F628C"/>
<path fill-rule="evenodd" clip-rule="evenodd" d="M51.4675 149.645C36.7962 136.179 21.3945 118.16 21.3945 103.834V88.0272C25.9055 88.693 30.9534 89.3159 36.431 89.8098V119.384C36.431 128.662 42.8752 139.486 51.4675 149.645Z" fill="#FEFEFE"/>
<path fill-rule="evenodd" clip-rule="evenodd" d="M68.1585 280.935C100.38 280.935 126.736 277.627 126.736 273.504C126.736 269.38 100.422 266.051 68.1585 266.051C35.8944 266.051 9.58057 269.38 9.58057 273.504C9.58057 277.627 35.8944 280.935 68.1585 280.935Z" fill="#A5B0C9"/>
<path fill-rule="evenodd" clip-rule="evenodd" d="M15.7241 254.131V248.655C15.7241 237.594 37.2048 216.997 52.7568 203.553C69.0177 189.464 69.1251 189.099 85.2571 203.359C100.423 216.761 121.774 237.723 121.774 248.805V258.319V276.468C112.645 279.109 92.0665 280.892 68.0726 280.892C45.1741 280.892 25.3904 279.238 15.7026 276.768C15.6642 276.628 15.6642 276.479 15.7026 276.339L15.7241 254.131Z" fill="#FFC00C"/>
<path fill-rule="evenodd" clip-rule="evenodd" d="M108.349 225.975C116.018 234.566 121.796 243.156 121.796 248.848V258.362V276.51C112.667 279.152 92.088 280.935 68.094 280.935C45.1956 280.935 25.4119 279.281 15.7241 276.811C15.6857 276.67 15.6857 276.522 15.7241 276.382V268.027C17.8722 246.55 39.3529 266.867 48.9118 259.114C55.6782 253.637 55.356 252.22 59.1366 248.719C62.8204 245.347 67.5756 243.382 72.5655 243.17C77.5554 242.958 82.4602 244.512 86.4171 247.559C92.0235 251.855 104.504 255.785 110.046 245.648C111.682 242.552 112.392 239.05 112.091 235.562C111.79 232.073 110.491 228.745 108.349 225.975Z" fill="#FFA629"/>
<path fill-rule="evenodd" clip-rule="evenodd" d="M21.459 243.178V235.124C21.459 227.006 26.4425 217.599 33.4452 208.557H42.4027C37.1614 218.286 33.703 228.122 33.703 236.799V243.242L21.459 243.178ZM38.6435 202.178C45.6926 194.346 53.3727 187.105 61.6064 180.529C55.878 187.349 50.6653 194.585 46.0114 202.178H38.6435Z" fill="#FEFEFE"/>
<path fill-rule="evenodd" clip-rule="evenodd" d="M21.459 277.992V254.883H33.703V279.474C29.0632 279.045 24.9174 278.551 21.459 277.949V277.992Z" fill="#FFC675"/>
<path fill-rule="evenodd" clip-rule="evenodd" d="M21.459 258.255V254.883H33.703V259.372C29.2565 258.276 24.81 257.095 21.459 258.212V258.255ZM32.9512 281.622C32.543 281.622 32.1134 281.622 31.6838 281.493H31.0823H31.6408M29.815 281.257H29.4498H29.815ZM28.118 280.999H27.624H28.118ZM24.9389 280.505H24.5737C24.7146 280.469 24.8624 280.469 25.0033 280.505H24.9389ZM23.3063 280.205H23.1774H23.3063ZM21.459 235.554C26.6107 228.687 32.3615 222.29 38.6435 216.439C35.708 222.82 34.0584 229.716 33.7889 236.735V243.178H21.5449L21.459 235.554Z" fill="#FCE2BD"/>
<path d="M34.9062 223.333C34.9437 223.187 35.0096 223.051 35.1003 222.931C35.1909 222.811 35.3044 222.71 35.4342 222.634C35.564 222.558 35.7076 222.509 35.8566 222.489C36.0056 222.469 36.1572 222.478 36.3025 222.517C36.4485 222.557 36.5852 222.625 36.7045 222.718C36.8239 222.811 36.9234 222.927 36.9974 223.059C37.0714 223.191 37.1184 223.336 37.1355 223.487C37.1527 223.637 37.1396 223.789 37.0973 223.934C36.0355 227.509 35.3162 231.177 34.9492 234.888C34.6485 238.625 34.584 242.512 34.584 247.001C34.5733 247.305 34.4477 247.594 34.2324 247.809C34.0172 248.024 33.7283 248.15 33.424 248.161C33.1277 248.144 32.849 248.015 32.6452 247.799C32.4414 247.583 32.3281 247.298 32.3285 247.001C32.2243 242.895 32.3462 238.787 32.6937 234.694C33.0179 230.844 33.7377 227.036 34.8418 223.333H34.9062ZM32.5433 254.883C32.554 254.579 32.6797 254.29 32.8949 254.075C33.1102 253.859 33.3991 253.734 33.7033 253.723C34.0037 253.739 34.2873 253.867 34.4981 254.082C34.7088 254.296 34.8314 254.582 34.8418 254.883V264.655C34.8448 264.804 34.8173 264.953 34.7609 265.091C34.7045 265.229 34.6204 265.355 34.5137 265.459C34.4071 265.564 34.2802 265.645 34.1408 265.699C34.0014 265.753 33.8526 265.778 33.7033 265.772C33.407 265.772 33.1229 265.654 32.9135 265.445C32.704 265.235 32.5863 264.951 32.5863 264.655V258.577C32.5863 256.966 32.5863 255.57 32.5863 254.883H32.5433Z" fill="#FEFEFE"/>
<path d="M14.027 279.281C14.3327 279.353 14.5981 279.541 14.7667 279.806C14.9353 280.071 14.9936 280.391 14.9292 280.698C14.8668 280.993 14.6942 281.253 14.4467 281.424C14.1991 281.596 13.8953 281.667 13.5974 281.622C13.0389 281.493 12.5663 281.364 11.9434 281.257L10.4397 280.87C10.2879 280.838 10.1443 280.775 10.0177 280.685C9.89119 280.595 9.78439 280.48 9.70391 280.347C9.62343 280.214 9.57097 280.066 9.54975 279.913C9.52852 279.759 9.53899 279.602 9.5805 279.453C9.66989 279.165 9.86064 278.919 10.1174 278.761C10.3741 278.603 10.6795 278.544 10.9768 278.594L12.4374 278.98C12.9315 279.088 13.4685 279.152 14.027 279.281ZM69.3613 283.276C69.6689 283.276 69.964 283.398 70.1815 283.615C70.3991 283.833 70.5213 284.128 70.5213 284.435C70.516 284.743 70.3927 285.038 70.1769 285.257C69.9611 285.477 69.6692 285.606 69.3613 285.617C69.1895 285.617 68.0295 285.617 66.8051 285.617C65.5807 285.617 64.0771 285.617 63.9482 285.617C63.7977 285.614 63.6493 285.581 63.512 285.52C63.3746 285.458 63.251 285.37 63.1487 285.259C63.0464 285.149 62.9674 285.019 62.9166 284.878C62.8657 284.736 62.8439 284.586 62.8526 284.435C62.8468 284.137 62.9583 283.848 63.1632 283.632C63.3681 283.415 63.65 283.287 63.9482 283.276C64.3133 283.276 65.5377 283.276 66.7621 283.276C67.9865 283.276 69.125 283.276 69.3613 283.276ZM48.3961 282.803C48.7019 282.83 48.9864 282.971 49.1933 283.198C49.4002 283.424 49.5143 283.72 49.5131 284.027C49.502 284.327 49.3749 284.612 49.1586 284.82C48.9422 285.028 48.6535 285.144 48.3532 285.144C43.1119 284.886 38.2358 284.579 33.7248 284.221C29.1065 283.791 24.8962 283.362 21.0727 282.803C20.7643 282.75 20.4887 282.58 20.3042 282.327C20.1198 282.074 20.041 281.76 20.0846 281.45C20.1324 281.152 20.2926 280.883 20.5323 280.7C20.772 280.516 21.073 280.431 21.3734 280.462C25.0896 281.021 29.3427 281.515 33.9181 281.88C38.4935 282.245 43.3482 282.567 48.3961 282.803Z" fill="#FEFEFE"/>
<path fill-rule="evenodd" clip-rule="evenodd" d="M207.847 142.901C207.853 143.614 207.691 144.318 207.374 144.956C207.056 145.594 206.593 146.148 206.021 146.574C205.931 146.679 205.821 146.766 205.699 146.832C190.776 157.423 176.803 169.295 163.941 182.312C157.183 189.479 153.432 198.965 153.458 208.815V261.82H277.445V208.815C277.454 198.968 273.705 189.489 266.962 182.312C254.078 169.31 240.1 157.44 225.182 146.832C225.059 146.777 224.954 146.687 224.882 146.574C224.31 146.148 223.847 145.594 223.529 144.956C223.212 144.318 223.05 143.614 223.056 142.901C223.048 142.185 223.209 141.478 223.527 140.836C223.844 140.194 224.308 139.636 224.882 139.207C224.972 139.111 225.073 139.024 225.182 138.949C240.1 128.341 254.078 116.471 266.962 103.469C273.7 96.2976 277.448 86.8272 277.445 76.988V23.9824H153.458V76.988C153.428 86.8322 157.181 96.3119 163.941 103.469C176.805 116.471 190.777 128.328 205.699 138.907C205.828 138.907 205.893 139.1 206.021 139.164C206.595 139.593 207.059 140.151 207.376 140.793C207.694 141.435 207.855 142.142 207.847 142.858V142.901Z" fill="#E6EBFA"/>
<path fill-rule="evenodd" clip-rule="evenodd" d="M186.152 161.887C178.376 168.279 170.961 175.098 163.941 182.312C157.183 189.479 153.432 198.965 153.458 208.815V261.691C153.587 260.274 154.854 258.985 159.902 257.89V211.929C159.902 195.134 177.087 173.27 190.341 158.794C188.98 159.934 187.545 160.982 186.044 161.93L186.152 161.887Z" fill="#D2E1FA"/>
<path fill-rule="evenodd" clip-rule="evenodd" d="M161.685 24.0254H153.458V76.9879C153.428 86.8321 157.181 96.3118 163.941 103.469C171.644 111.375 179.814 118.813 188.407 125.741C189.138 126.235 189.825 126.665 190.426 127.159C177.28 112.64 161.685 90.9266 161.685 74.153V24.0254Z" fill="#D2E1FA"/>
<path fill-rule="evenodd" clip-rule="evenodd" d="M277.445 24.0254H258.434V74.153C258.434 97.3912 232.314 129.993 220.693 140.002C217.814 142.472 218.136 143.696 220.693 145.844C232.206 155.616 271.838 192.213 271.838 215.515V259.715C274.695 260.037 276.457 260.209 277.509 260.274V208.729C277.518 198.882 273.769 189.403 267.026 182.226C254.142 169.224 240.164 157.354 225.247 146.746C225.123 146.691 225.019 146.601 224.946 146.488C224.374 146.062 223.911 145.508 223.594 144.87C223.276 144.232 223.114 143.528 223.12 142.815C223.112 142.099 223.274 141.392 223.591 140.75C223.908 140.108 224.372 139.55 224.946 139.121C225.037 139.025 225.137 138.939 225.247 138.864C240.164 128.255 254.142 116.385 267.026 103.383C273.764 96.2117 277.513 86.7413 277.509 76.9021L277.445 24.0254ZM277.445 261.391V261.691V261.391Z" fill="#D2E1FA"/>
<path fill-rule="evenodd" clip-rule="evenodd" d="M215.452 265.085C234.994 264.865 254.531 265.89 273.944 268.156V264.397H287.047V275.952C287.047 279.947 255.019 286.046 215.559 286.046C176.099 286.046 144.071 279.947 144.071 275.952V264.397H157.175V268.156C176.551 265.892 196.052 264.866 215.559 265.085H215.452Z" fill="#5F628C"/>
<path fill-rule="evenodd" clip-rule="evenodd" d="M215.452 274.492C254.783 274.492 286.939 269.874 286.939 264.269C286.939 258.663 254.718 254.067 215.452 254.067C176.185 254.067 143.964 258.62 143.964 264.269C143.964 269.917 176.056 274.492 215.452 274.492Z" fill="#6C6F9C"/>
<path fill-rule="evenodd" clip-rule="evenodd" d="M258.37 256.107C264.784 256.744 271.154 257.77 277.445 259.178V261.691C277.187 259.543 269.948 257.503 258.37 256.107ZM153.458 259.178C155.778 258.62 158.57 258.062 161.685 257.503V257.89C156.573 258.985 153.587 260.274 153.458 261.691V259.178Z" fill="#9D9FB8"/>
<path fill-rule="evenodd" clip-rule="evenodd" d="M215.451 269.681C249.541 269.681 277.445 266.116 277.445 261.82C277.445 257.525 249.52 253.938 215.451 253.938C181.383 253.938 153.458 257.46 153.458 261.82C153.458 266.18 181.383 269.681 215.451 269.681Z" fill="#A5B0C9"/>
<path fill-rule="evenodd" clip-rule="evenodd" d="M160.096 234.458V228.681C160.096 216.933 182.801 195.155 199.234 181.023C216.418 166.14 216.59 165.71 233.603 180.765C249.67 195.048 272.268 217.062 272.268 228.853V238.947V258.126C272.268 267.597 160.117 267.791 160.117 258.126V234.501L160.096 234.458Z" fill="#FFC00C"/>
<path fill-rule="evenodd" clip-rule="evenodd" d="M257.962 204.691C266.06 213.797 272.139 222.71 272.139 228.853V238.947V258.126C272.139 267.597 159.988 267.791 159.988 258.126V249.277C162.136 226.469 184.949 247.989 195.109 239.806C202.241 234.029 201.811 232.547 205.85 228.788C209.753 225.23 214.784 223.157 220.062 222.934C225.34 222.71 230.529 224.349 234.72 227.564C240.605 232.182 253.837 236.305 259.68 225.61C261.42 222.331 262.179 218.622 261.867 214.924C261.554 211.225 260.184 207.696 257.919 204.755L257.962 204.691Z" fill="#FFA629"/>
<path fill-rule="evenodd" clip-rule="evenodd" d="M197.794 122.605C182.264 108.345 166.003 89.2729 166.003 74.153V46.5549C170.75 47.2422 176.12 47.908 181.963 48.4664V90.583C181.963 100.42 188.772 111.867 197.794 122.627V122.605Z" fill="#FEFEFE"/>
<path fill-rule="evenodd" clip-rule="evenodd" d="M166.003 222.882V214.291C166.003 205.7 171.309 195.778 178.741 186.178H188.171C182.629 196.508 178.977 206.903 178.977 216.074V222.818L166.003 222.882ZM184.283 179.541C191.716 171.243 199.82 163.571 208.513 156.604C202.466 163.84 196.952 171.506 192.016 179.541H184.283Z" fill="#FEFEFE"/>
<path fill-rule="evenodd" clip-rule="evenodd" d="M166.003 261.562V235.317H178.891V263.667C174.55 263.253 170.244 262.535 166.003 261.519V261.562Z" fill="#FFC675"/>
<path fill-rule="evenodd" clip-rule="evenodd" d="M166.003 238.818V235.317H178.891V240.042C174.144 238.882 169.504 237.658 166.003 238.818ZM178.182 263.603L176.851 263.409H176.249H176.808M174.917 263.173H174.552H174.917ZM173.092 262.915H172.598H173.092ZM169.805 262.378H169.44C169.569 262.378 169.676 262.378 169.869 262.378H169.805ZM168.044 262.056H167.915H168.044ZM166.024 214.807C171.448 207.545 177.5 200.775 184.111 194.575C181.009 201.328 179.271 208.626 178.999 216.052V222.796H166.11L166.024 214.807Z" fill="#FCE2BD"/>
<path d="M179.772 202.479C179.794 202.33 179.847 202.188 179.928 202.062C180.01 201.936 180.117 201.828 180.243 201.747C180.369 201.666 180.511 201.612 180.66 201.59C180.808 201.568 180.96 201.578 181.104 201.62C181.252 201.647 181.392 201.705 181.517 201.789C181.641 201.873 181.747 201.982 181.828 202.109C181.909 202.236 181.962 202.378 181.985 202.527C182.009 202.676 182.001 202.827 181.963 202.973C181.126 206.776 180.594 210.64 180.374 214.527C180.073 218.522 180.073 222.71 180.073 227.414C180.073 227.71 179.96 227.996 179.756 228.212C179.552 228.428 179.274 228.557 178.977 228.573C178.67 228.573 178.375 228.451 178.157 228.234C177.94 228.016 177.817 227.721 177.817 227.414C177.817 222.667 177.817 218.415 178.054 214.377C178.322 210.38 178.896 206.409 179.772 202.5V202.479ZM178.011 237.229C178.016 236.924 178.136 236.633 178.347 236.414C178.559 236.195 178.845 236.064 179.149 236.048C179.453 236.059 179.74 236.189 179.949 236.41C180.158 236.631 180.272 236.925 180.266 237.229V238.947V241.954C180.261 242.26 180.137 242.551 179.92 242.768C179.704 242.984 179.412 243.108 179.106 243.114C178.804 243.103 178.518 242.976 178.306 242.76C178.094 242.545 177.973 242.256 177.968 241.954V237.229H178.011Z" fill="#FEFEFE"/>
<path d="M222.39 273.182C222.539 273.179 222.688 273.205 222.827 273.26C222.967 273.314 223.094 273.396 223.201 273.5C223.309 273.603 223.395 273.727 223.455 273.864C223.515 274.001 223.547 274.149 223.55 274.298C223.553 274.451 223.525 274.604 223.468 274.746C223.41 274.888 223.325 275.017 223.217 275.125C223.108 275.233 222.979 275.318 222.837 275.376C222.695 275.433 222.543 275.461 222.39 275.458C221.23 275.458 220.027 275.458 218.803 275.458H215.215C215.061 275.464 214.908 275.438 214.764 275.382C214.621 275.326 214.491 275.241 214.382 275.132C214.273 275.023 214.188 274.893 214.131 274.749C214.075 274.606 214.049 274.452 214.055 274.298C214.053 274.144 214.08 273.991 214.138 273.848C214.195 273.705 214.279 273.574 214.387 273.464C214.495 273.354 214.624 273.267 214.766 273.207C214.909 273.148 215.061 273.117 215.215 273.117H222.39V273.182ZM189.202 272.516C189.358 272.515 189.511 272.547 189.654 272.61C189.796 272.672 189.923 272.765 190.026 272.881C190.13 272.996 190.208 273.133 190.255 273.281C190.301 273.429 190.316 273.586 190.298 273.74C190.292 273.892 190.257 274.042 190.193 274.181C190.13 274.319 190.04 274.444 189.928 274.548C189.816 274.651 189.685 274.732 189.542 274.785C189.399 274.838 189.247 274.862 189.095 274.857C185.679 274.663 182.457 274.427 179.407 274.169C176.357 273.912 173.307 273.633 170.514 273.31C170.21 273.268 169.934 273.11 169.743 272.871C169.551 272.631 169.458 272.327 169.483 272.022C169.521 271.718 169.673 271.44 169.908 271.245C170.144 271.049 170.445 270.951 170.75 270.969C173.5 271.292 176.486 271.592 179.579 271.828C182.672 272.065 186.023 272.322 189.202 272.516ZM152.921 267.963C153.073 267.995 153.216 268.058 153.342 268.148C153.468 268.238 153.573 268.354 153.652 268.487C153.731 268.62 153.781 268.769 153.799 268.922C153.818 269.076 153.804 269.232 153.759 269.38C153.736 269.534 153.679 269.682 153.593 269.812C153.507 269.942 153.393 270.051 153.26 270.133C153.127 270.215 152.978 270.267 152.823 270.285C152.668 270.303 152.511 270.288 152.363 270.239C151.396 270.003 150.473 269.681 149.57 269.444C148.757 269.187 147.961 268.878 147.186 268.521C146.911 268.403 146.694 268.181 146.581 267.903C146.469 267.626 146.47 267.316 146.585 267.039C146.636 266.9 146.716 266.773 146.819 266.666C146.922 266.559 147.046 266.475 147.183 266.418C147.32 266.362 147.468 266.334 147.616 266.338C147.765 266.341 147.911 266.375 148.045 266.438C148.647 266.674 149.377 266.91 150.193 267.168C150.988 267.404 151.89 267.662 152.878 267.898L152.921 267.963Z" fill="#FEFEFE"/>
<path d="M10.375 262.121C10.3696 262.33 10.2841 262.529 10.1362 262.677C9.98831 262.824 9.7893 262.91 9.58022 262.915C9.47959 262.913 9.38053 262.89 9.28891 262.848C9.19729 262.806 9.11498 262.747 9.04687 262.673C8.97875 262.598 8.92622 262.511 8.89238 262.417C8.85854 262.322 8.84409 262.221 8.84988 262.121V234.029C8.86846 231.548 9.23727 229.082 9.94539 226.705C10.8149 223.924 11.9366 221.228 13.2964 218.651C13.3351 218.555 13.3938 218.469 13.4685 218.397C13.5432 218.326 13.6322 218.271 13.7297 218.236C13.8272 218.202 13.9308 218.188 14.0339 218.197C14.1369 218.205 14.237 218.236 14.3275 218.286C14.5014 218.385 14.6299 218.548 14.686 218.741C14.7421 218.933 14.7214 219.14 14.6282 219.317C13.2983 221.81 12.219 224.429 11.4061 227.135C10.7517 229.375 10.4048 231.695 10.375 234.029V262.121ZM23.7575 205.915C23.6872 205.99 23.6023 206.049 23.5081 206.09C23.4139 206.131 23.3124 206.152 23.2097 206.152C23.1071 206.152 23.0056 206.131 22.9113 206.09C22.8171 206.049 22.7323 205.99 22.662 205.915C22.5137 205.786 22.42 205.606 22.4001 205.41C22.3801 205.215 22.4354 205.019 22.5546 204.863C26.2901 200.312 30.2699 195.967 34.4764 191.848C39.4169 187.037 44.4004 182.612 48.9758 178.961C51.1239 177.308 52.9927 175.761 54.8186 174.408C56.6445 173.055 58.4703 171.831 59.9954 170.843C60.0792 170.789 60.1731 170.753 60.2714 170.737C60.3696 170.721 60.47 170.725 60.5666 170.749C60.6632 170.774 60.7538 170.817 60.8328 170.878C60.9119 170.938 60.9778 171.014 61.0265 171.101C61.0843 171.182 61.1242 171.275 61.1436 171.373C61.1631 171.471 61.1616 171.572 61.1393 171.669C61.117 171.766 61.0743 171.858 61.0142 171.938C60.954 172.017 60.8777 172.083 60.7902 172.132C59.3295 173.12 57.5681 174.279 55.6778 175.697C53.7875 177.114 51.9617 178.532 49.8995 180.143C45.453 183.751 40.448 188.132 35.5719 192.921C31.3905 196.987 27.4459 201.29 23.7575 205.808V205.915ZM45.9256 154.155C46.0722 154.294 46.1655 154.479 46.189 154.68C46.2126 154.88 46.165 155.082 46.0545 155.251C45.9826 155.323 45.8973 155.38 45.8033 155.419C45.7093 155.458 45.6085 155.478 45.5067 155.478C45.4049 155.478 45.3041 155.458 45.2102 155.419C45.1162 155.38 45.0308 155.323 44.9589 155.251C42.8109 153.532 40.6628 151.621 38.6221 149.645C36.5815 147.669 34.6052 145.844 32.6505 143.868C32.5803 143.801 32.5243 143.722 32.4861 143.633C32.4479 143.544 32.4282 143.449 32.4282 143.352C32.4282 143.256 32.4479 143.16 32.4861 143.072C32.5243 142.983 32.5803 142.903 32.6505 142.837C32.791 142.699 32.98 142.622 33.1768 142.622C33.3736 142.622 33.5625 142.699 33.7031 142.837C35.6363 144.856 37.6555 146.767 39.5888 148.55C41.522 150.332 43.8849 152.416 46.033 154.155H45.9256ZM20.4709 127.459C20.583 127.631 20.6315 127.837 20.6079 128.041C20.5844 128.245 20.4904 128.434 20.3421 128.576C20.1705 128.694 19.9596 128.739 19.7548 128.703C19.55 128.667 19.3675 128.552 19.2465 128.383C17.143 125.581 15.2339 122.639 13.5327 119.577C12.0969 117 10.9376 114.279 10.0743 111.459C10.0403 111.363 10.0255 111.261 10.0309 111.16C10.0362 111.058 10.0616 110.958 10.1055 110.867C10.1494 110.775 10.211 110.693 10.2867 110.625C10.3624 110.557 10.4509 110.504 10.5469 110.471C10.6439 110.434 10.7475 110.418 10.8512 110.423C10.9548 110.428 11.0562 110.455 11.149 110.502C11.2419 110.548 11.3241 110.613 11.3905 110.693C11.4569 110.772 11.5061 110.865 11.535 110.965C12.3514 113.683 13.4757 116.298 14.886 118.761C16.4852 121.763 18.3166 124.635 20.3635 127.352L20.4709 127.459ZM126.006 82.2069C126.005 82.0069 126.08 81.8139 126.215 81.6666C126.351 81.5193 126.537 81.4285 126.736 81.4122C126.945 81.4177 127.144 81.5031 127.292 81.651C127.44 81.7989 127.525 81.9979 127.531 82.2069V94.5563C127.528 94.6578 127.505 94.7578 127.464 94.8505C127.422 94.9433 127.363 95.0269 127.289 95.0968C127.215 95.1666 127.129 95.2212 127.034 95.2574C126.939 95.2936 126.838 95.3108 126.736 95.3079C126.54 95.3023 126.355 95.2207 126.218 95.0803C126.082 94.94 126.006 94.7519 126.006 94.5563V82.2069ZM120.098 121.252C120.147 121.165 120.213 121.09 120.292 121.029C120.371 120.969 120.462 120.925 120.558 120.901C120.655 120.877 120.755 120.873 120.854 120.889C120.952 120.905 121.046 120.941 121.13 120.995C121.305 121.098 121.434 121.265 121.49 121.461C121.546 121.657 121.525 121.866 121.43 122.047C117.31 128.67 112.492 134.833 107.06 140.431C100.55 147.391 93.528 153.852 86.0515 159.761C84.2901 161.178 82.5931 162.467 81.0036 163.648C79.414 164.829 77.7815 165.968 76.4282 166.848C76.3444 166.902 76.2505 166.938 76.1523 166.954C76.054 166.97 75.9536 166.966 75.857 166.942C75.7605 166.918 75.6699 166.874 75.5908 166.814C75.5117 166.753 75.4458 166.677 75.3971 166.59C75.342 166.502 75.3049 166.403 75.288 166.3C75.2711 166.197 75.2747 166.091 75.2987 165.989C75.3226 165.888 75.3664 165.792 75.4275 165.707C75.4887 165.622 75.5659 165.55 75.6549 165.495C76.9867 164.615 78.4474 163.584 80.1014 162.402L85.1493 158.537C92.5328 152.683 99.4888 146.309 105.964 139.465C111.294 133.931 116.031 127.856 120.098 121.338V121.252ZM84.1612 178.489C84.0141 178.35 83.9221 178.163 83.9023 177.961C83.8826 177.76 83.9364 177.558 84.0538 177.393C84.1061 177.309 84.1768 177.236 84.2607 177.182C84.3445 177.128 84.4395 177.094 84.5384 177.082C84.6374 177.069 84.7379 177.079 84.8325 177.111C84.9271 177.143 85.0133 177.195 85.0849 177.265C89.0374 180.271 93.4194 184.03 97.9733 188.003C101.754 191.568 105.642 195.434 109.251 199.451C114.521 205.127 119.113 211.397 122.934 218.136C125.757 222.947 127.372 228.371 127.638 233.943V273.418C127.633 273.627 127.547 273.826 127.399 273.974C127.251 274.121 127.052 274.207 126.843 274.212C126.644 274.196 126.458 274.105 126.323 273.958C126.187 273.811 126.112 273.618 126.113 273.418V233.943C125.846 228.641 124.298 223.482 121.602 218.909C117.85 212.259 113.338 206.068 108.155 200.46C104.546 196.465 100.723 192.664 96.9422 189.141C92.4957 185.082 88.1781 181.41 84.2686 178.403L84.1612 178.489Z" fill="#B1CCFA"/>
<path d="M190.856 157.162C190.925 157.089 191.011 157.032 191.106 156.998C191.202 156.964 191.304 156.953 191.404 156.965C191.504 156.978 191.601 157.014 191.684 157.07C191.768 157.127 191.838 157.203 191.887 157.291C192.011 157.455 192.068 157.66 192.044 157.865C192.019 158.069 191.917 158.256 191.758 158.386C188.772 160.727 185.786 163.24 182.822 165.839C179.858 168.438 177.022 170.821 174.359 173.27C172.468 175.052 170.578 176.771 168.86 178.446C167.141 180.121 165.766 181.517 164.564 182.935C164.492 183.007 164.406 183.064 164.312 183.103C164.218 183.142 164.118 183.162 164.016 183.162C163.914 183.162 163.813 183.142 163.719 183.103C163.625 183.064 163.54 183.007 163.468 182.935C163.321 182.786 163.239 182.585 163.239 182.376C163.239 182.167 163.321 181.967 163.468 181.818C164.757 180.4 166.282 178.918 167.915 177.329C169.547 175.74 171.459 173.957 173.457 172.11C176.142 169.705 178.999 167.127 181.92 164.593C184.841 162.059 187.956 159.567 190.942 157.162H190.856ZM152.663 208.879C152.679 208.678 152.769 208.489 152.916 208.35C153.063 208.211 153.256 208.132 153.458 208.127C153.654 208.133 153.839 208.215 153.976 208.355C154.112 208.495 154.188 208.683 154.188 208.879V246.808C154.194 246.906 154.18 247.005 154.145 247.097C154.111 247.19 154.058 247.274 153.989 247.345C153.921 247.415 153.838 247.471 153.746 247.508C153.655 247.545 153.557 247.562 153.458 247.559C153.356 247.562 153.255 247.545 153.16 247.509C153.065 247.472 152.979 247.418 152.905 247.348C152.831 247.278 152.772 247.195 152.73 247.102C152.689 247.009 152.666 246.909 152.663 246.808V208.879ZM278.239 253.831C278.242 253.927 278.226 254.024 278.19 254.114C278.154 254.203 278.101 254.285 278.032 254.354C277.964 254.422 277.882 254.476 277.792 254.511C277.702 254.547 277.606 254.564 277.509 254.561C277.409 254.567 277.308 254.552 277.213 254.518C277.118 254.484 277.031 254.432 276.957 254.364C276.883 254.296 276.823 254.213 276.782 254.122C276.74 254.03 276.717 253.931 276.714 253.831V238.023C276.72 237.814 276.805 237.615 276.953 237.468C277.101 237.32 277.3 237.234 277.509 237.229C277.71 237.24 277.899 237.329 278.036 237.478C278.172 237.626 278.245 237.822 278.239 238.023V253.831ZM278.239 208.879C278.248 208.98 278.236 209.082 278.203 209.178C278.171 209.274 278.118 209.363 278.05 209.437C277.981 209.512 277.897 209.572 277.804 209.613C277.711 209.653 277.611 209.674 277.509 209.674C277.404 209.677 277.299 209.658 277.201 209.619C277.104 209.58 277.015 209.522 276.94 209.447C276.866 209.373 276.808 209.284 276.769 209.187C276.73 209.089 276.711 208.984 276.714 208.879C276.725 204.102 275.836 199.367 274.094 194.919C272.341 190.479 269.76 186.412 266.489 182.935C262.945 179.112 257.897 174.494 252.527 169.705C246.813 164.593 240.541 159.374 234.827 154.95C234.675 154.81 234.578 154.621 234.554 154.415C234.531 154.21 234.582 154.004 234.698 153.833C234.758 153.753 234.836 153.688 234.925 153.643C235.015 153.599 235.114 153.575 235.214 153.575C235.314 153.575 235.412 153.599 235.502 153.643C235.591 153.688 235.669 153.753 235.729 153.833C241.443 158.257 247.78 163.541 253.58 168.652C258.907 173.27 263.912 177.995 267.499 181.861C270.895 185.486 273.577 189.72 275.404 194.339C277.214 198.988 278.146 203.933 278.153 208.922L278.239 208.879ZM225.375 146.037C225.545 146.158 225.66 146.34 225.696 146.545C225.732 146.75 225.686 146.961 225.569 147.132C225.513 147.215 225.441 147.285 225.358 147.339C225.274 147.394 225.181 147.431 225.083 147.449C224.985 147.467 224.884 147.465 224.787 147.444C224.69 147.423 224.598 147.383 224.516 147.326C223.852 146.802 223.297 146.152 222.884 145.414C222.535 144.644 222.345 143.811 222.325 142.966C222.35 142.135 222.54 141.317 222.884 140.56C223.297 139.822 223.852 139.173 224.516 138.649L224.838 138.413C228.447 135.943 232.829 132.635 237.448 128.877C242.066 125.118 247.372 120.758 252.119 116.57C252.199 116.506 252.291 116.458 252.39 116.43C252.488 116.402 252.592 116.393 252.694 116.405C252.796 116.417 252.894 116.449 252.984 116.5C253.073 116.55 253.151 116.618 253.214 116.699C253.288 116.766 253.347 116.847 253.387 116.937C253.428 117.028 253.448 117.126 253.448 117.225C253.448 117.325 253.428 117.423 253.387 117.513C253.347 117.604 253.288 117.685 253.214 117.752C248.403 121.918 243.333 126.235 238.479 130.101C233.624 133.967 229.328 137.167 225.59 139.637L225.418 139.766H225.289C224.833 140.134 224.46 140.596 224.194 141.119C223.904 141.652 223.756 142.251 223.764 142.858C223.751 143.459 223.899 144.053 224.194 144.576C224.442 145.111 224.819 145.575 225.289 145.93L225.375 146.037ZM267.499 104.092C267.427 104.164 267.342 104.221 267.248 104.26C267.154 104.299 267.053 104.319 266.951 104.319C266.85 104.319 266.749 104.299 266.655 104.26C266.561 104.221 266.475 104.164 266.404 104.092C266.327 104.028 266.265 103.947 266.223 103.856C266.18 103.765 266.158 103.666 266.158 103.566C266.158 103.466 266.18 103.367 266.223 103.276C266.265 103.185 266.327 103.104 266.404 103.04C269.674 99.5624 272.255 95.4956 274.008 91.0555C275.744 86.5837 276.633 81.8278 276.628 77.0309V42.7964C276.628 42.5836 276.711 42.3792 276.86 42.2267C277.008 42.0743 277.21 41.9858 277.423 41.9802C277.626 41.9967 277.815 42.0905 277.951 42.2424C278.087 42.3943 278.16 42.5926 278.153 42.7964V77.0309C278.159 82.0212 277.226 86.9679 275.404 91.6139C273.582 96.2356 270.899 100.47 267.499 104.092ZM152.663 51.0221C152.669 50.8131 152.754 50.6141 152.902 50.4662C153.05 50.3183 153.249 50.2329 153.458 50.2275C153.559 50.2302 153.658 50.253 153.749 50.2947C153.841 50.3365 153.923 50.3962 153.991 50.4703C154.059 50.5444 154.112 50.6314 154.146 50.7262C154.18 50.821 154.194 50.9216 154.188 51.0221V77.0309C154.191 80.0173 154.537 82.9935 155.219 85.901C155.911 88.7734 156.934 91.5555 158.27 94.1911C159.086 95.788 160.004 97.3305 161.019 98.8087C162.086 100.308 163.241 101.742 164.478 103.104C168.194 107.056 173.564 112.082 179.342 117.193C185.486 122.541 192.231 128.082 197.966 132.571C198.048 132.627 198.119 132.698 198.173 132.782C198.227 132.865 198.265 132.959 198.283 133.057C198.301 133.154 198.299 133.255 198.278 133.352C198.257 133.449 198.216 133.542 198.159 133.623C198.1 133.707 198.024 133.779 197.936 133.834C197.848 133.888 197.75 133.924 197.648 133.94C197.546 133.956 197.441 133.952 197.341 133.927C197.241 133.902 197.147 133.857 197.064 133.795C191.157 129.242 184.455 123.722 178.376 118.353C172.297 112.984 167.163 108.216 163.339 104.157C162.035 102.819 160.836 101.383 159.752 99.8611C158.721 98.3147 157.754 96.7254 156.83 95.0072C155.477 92.2679 154.432 89.3866 153.716 86.4164C152.98 83.4151 152.613 80.3356 152.62 77.2457L152.663 51.0221Z" fill="#B1CCFA"/>
<path fill-rule="evenodd" clip-rule="evenodd" d="M286.939 22.5649V34.0552C286.939 38.1144 254.912 44.2139 215.452 44.2139C175.992 44.2139 143.964 38.1144 143.964 34.0552V22.5649V11.0532H157.067V14.8117C176.439 12.4879 195.942 11.4404 215.452 11.6761C234.997 11.4384 254.536 12.4859 273.944 14.8117V11.0532H287.047V22.5649H286.939Z" fill="#5F628C"/>
<path fill-rule="evenodd" clip-rule="evenodd" d="M215.452 21.0831C254.783 21.0831 286.939 16.53 286.939 10.8815C286.939 5.233 254.718 0.722778 215.452 0.722778C176.185 0.722778 143.964 5.27595 143.964 10.8815C143.964 16.487 176.056 21.0831 215.452 21.0831Z" fill="#6D71A3"/>
<path d="M155.348 15.4775C155.643 15.5702 155.896 15.7622 156.064 16.0207C156.233 16.2793 156.306 16.5883 156.272 16.895C156.191 17.1965 156.001 17.4575 155.74 17.628C155.478 17.7984 155.163 17.8662 154.854 17.8185C153.522 17.4534 152.191 17.1527 151.031 16.8306C149.871 16.5084 148.883 16.1648 147.852 15.7997C147.601 15.6585 147.402 15.4399 147.286 15.1767C147.17 14.9134 147.142 14.6196 147.207 14.3392C147.338 14.0629 147.565 13.8433 147.845 13.721C148.125 13.5986 148.44 13.5817 148.732 13.6734C149.687 14.0577 150.662 14.3876 151.654 14.6614C152.749 14.962 154.038 15.3272 155.37 15.5634L155.348 15.4775ZM241.013 19.4937C241.166 19.485 241.318 19.5065 241.462 19.5568C241.606 19.6072 241.739 19.6855 241.853 19.7873C241.967 19.889 242.059 20.0123 242.125 20.1499C242.191 20.2875 242.23 20.4367 242.238 20.5891C242.239 20.8926 242.128 21.186 241.926 21.4122C241.723 21.6384 241.444 21.7813 241.142 21.8133C239.617 21.8133 238.049 21.9421 236.459 22.071L231.648 22.2428C231.332 22.2486 231.027 22.1304 230.798 21.9134C230.569 21.6965 230.435 21.3983 230.423 21.0831C230.418 20.7848 230.529 20.4961 230.734 20.2792C230.939 20.0623 231.221 19.9345 231.519 19.9233L236.331 19.73C237.92 19.73 239.445 19.5367 241.013 19.4937ZM206.644 20.0951C206.944 20.1117 207.226 20.2441 207.431 20.4645C207.635 20.6848 207.746 20.9759 207.74 21.2764C207.74 21.4287 207.71 21.5794 207.651 21.7202C207.593 21.8609 207.508 21.9887 207.4 22.0964C207.292 22.2041 207.164 22.2895 207.024 22.3478C206.883 22.4061 206.732 22.4361 206.58 22.4361L202.026 22.3072C200.501 22.3072 198.976 22.3072 197.579 22.3072C197.424 22.3021 197.271 22.2651 197.131 22.1987C196.99 22.1324 196.865 22.0379 196.762 21.9212C196.66 21.8045 196.582 21.668 196.534 21.5202C196.486 21.3723 196.469 21.2163 196.484 21.0616C196.495 20.7634 196.623 20.4816 196.84 20.2768C197.057 20.0719 197.345 19.9604 197.644 19.9662C199.147 19.9662 200.608 20.0736 202.069 20.0736C203.53 20.0736 205.119 20.0736 206.644 20.2025V20.0951ZM187.312 19.3649C187.465 19.3702 187.616 19.4065 187.755 19.4716C187.894 19.5366 188.018 19.6291 188.12 19.7434C188.223 19.8578 188.301 19.9916 188.35 20.137C188.399 20.2823 188.419 20.4361 188.407 20.5891C188.39 20.8948 188.256 21.1821 188.031 21.3905C187.807 21.5988 187.51 21.7119 187.204 21.7059L184.519 21.5126L181.834 21.3193C178.483 21.083 175.39 20.7824 172.275 20.4602C169.16 20.1381 166.368 19.7944 163.683 19.3649C163.531 19.3528 163.383 19.3086 163.25 19.2351C163.116 19.1616 163 19.0606 162.909 18.9387C162.817 18.8168 162.753 18.6769 162.72 18.5282C162.686 18.3795 162.685 18.2254 162.716 18.0762C162.729 17.9259 162.773 17.7799 162.845 17.6473C162.917 17.5147 163.015 17.3984 163.134 17.3056C163.253 17.2129 163.39 17.1457 163.536 17.1083C163.682 17.0709 163.835 17.0641 163.984 17.0883C166.604 17.4534 169.483 17.8185 172.576 18.1407C175.669 18.4628 178.655 18.7421 182.006 18.9998L184.691 19.1716L187.355 19.3649H187.312Z" fill="#FEFEFE"/>
<path fill-rule="evenodd" clip-rule="evenodd" d="M135.737 63.0708V73.9597C135.737 77.7826 105.492 83.4955 68.1584 83.4955C30.8249 83.4955 0.623047 77.7826 0.623047 73.9597V63.0708V52.2034H12.9959V55.7685C31.2969 53.5537 49.7254 52.5636 68.1584 52.8047C86.5914 52.5622 105.02 53.5524 123.321 55.7685V52.2034H135.737V63.0708Z" fill="#5F628C"/>
<path fill-rule="evenodd" clip-rule="evenodd" d="M68.1584 61.8466C105.363 61.8466 135.737 57.5512 135.737 52.2034C135.737 46.8556 105.363 42.5387 68.1584 42.5387C30.9538 42.5387 0.623047 46.8341 0.623047 52.2034C0.623047 57.5727 30.9538 61.8466 68.1584 61.8466Z" fill="#6D71A3"/>
<path d="M16.2826 56.4344C16.4328 56.4598 16.5762 56.5156 16.7041 56.5984C16.8319 56.6813 16.9415 56.7894 17.026 56.9161C17.1105 57.0429 17.1681 57.1855 17.1955 57.3354C17.2228 57.4852 17.2191 57.6391 17.1848 57.7875C17.1589 57.936 17.1038 58.0779 17.0227 58.205C16.9415 58.332 16.8359 58.4417 16.712 58.5276C16.5881 58.6135 16.4483 58.674 16.3009 58.7055C16.1534 58.7369 16.0012 58.7388 15.853 58.711C13.7049 58.3459 11.9005 57.9163 10.1391 57.4868C8.63211 57.148 7.14719 56.7177 5.69261 56.1982C5.40569 56.0918 5.17244 55.8763 5.04369 55.5987C4.91494 55.3211 4.90111 55.004 5.00522 54.7162C5.04912 54.5744 5.12086 54.4427 5.21625 54.329C5.31164 54.2152 5.42876 54.1215 5.56077 54.0535C5.69277 53.9856 5.83702 53.9446 5.98506 53.933C6.1331 53.9214 6.28196 53.9394 6.42295 53.986C7.62587 54.4156 9.02211 54.8451 10.7191 55.2746C12.4161 55.7042 14.199 56.0693 16.3256 56.4344H16.2826ZM107.726 58.1096C108.025 58.0858 108.321 58.1806 108.55 58.3736C108.779 58.5666 108.923 58.8422 108.95 59.1405C108.975 59.2939 108.967 59.4507 108.927 59.6008C108.887 59.7509 108.816 59.8911 108.719 60.0123C108.622 60.1336 108.501 60.2333 108.363 60.3051C108.225 60.3769 108.074 60.4191 107.919 60.4292C107.253 60.4292 106.523 60.558 105.771 60.6869L103.451 60.8587C103.147 60.8888 102.843 60.7973 102.605 60.6042C102.368 60.4111 102.216 60.132 102.184 59.8278C102.169 59.6731 102.186 59.517 102.234 59.3692C102.282 59.2213 102.36 59.0848 102.462 58.9681C102.565 58.8514 102.69 58.757 102.831 58.6906C102.971 58.6242 103.124 58.5873 103.279 58.5821L105.599 58.3459L107.747 58.1096H107.726ZM69.4259 59.9996C69.5754 59.9968 69.724 60.0234 69.8632 60.078C70.0024 60.1326 70.1295 60.214 70.2372 60.3177C70.345 60.4215 70.4312 60.5454 70.491 60.6824C70.5508 60.8195 70.583 60.9669 70.5858 61.1164C70.5858 61.424 70.4636 61.719 70.2461 61.9365C70.0285 62.154 69.7335 62.2762 69.4259 62.2762H68.1585C67.8617 62.2767 67.576 62.1634 67.3603 61.9596C67.1445 61.7558 67.015 61.4771 66.9985 61.1808C66.9985 60.8713 67.12 60.574 67.337 60.3531C67.5539 60.1322 67.8489 60.0052 68.1585 59.9996H69.4259ZM51.1028 59.6345C51.2552 59.6427 51.4045 59.6809 51.5421 59.747C51.6797 59.813 51.8029 59.9055 51.9047 60.0193C52.0065 60.133 52.0848 60.2657 52.1352 60.4097C52.1856 60.5538 52.207 60.7064 52.1983 60.8587C52.2016 61.0099 52.1734 61.1602 52.1157 61.3C52.058 61.4398 51.9719 61.5662 51.863 61.6711C51.754 61.776 51.6245 61.8572 51.4826 61.9096C51.3406 61.962 51.1894 61.9844 51.0384 61.9755C45.3245 61.7822 39.9114 61.4815 34.9708 61.052C30.0302 60.6224 25.2186 60.1285 21.0943 59.5056C20.943 59.49 20.7966 59.4437 20.6639 59.3695C20.5311 59.2954 20.415 59.1949 20.3225 59.0742C20.23 58.9536 20.1631 58.8153 20.1259 58.6679C20.0887 58.5205 20.082 58.3671 20.1062 58.217C20.1587 57.9211 20.3201 57.6556 20.5587 57.4728C20.7972 57.2899 21.0956 57.203 21.395 57.2291C25.4763 57.7875 29.9873 58.2815 35.1641 58.711C40.341 59.1405 45.4964 59.4627 51.1028 59.6345Z" fill="#FEFEFE"/>
<path d="M47.3221 73.8523L46.0547 73.7234L45.9258 75.7423H44.4651L44.6584 73.5946L40.3623 73.3583V72.1771L44.9807 66.2709H46.3984L46.248 72.4993H47.4509L47.3221 73.8523ZM44.7229 72.3274L44.8947 69.9864C44.8947 69.1274 45.0236 68.4401 45.0881 67.9676C44.912 68.309 44.7034 68.6327 44.4651 68.934L41.9519 72.1771L44.7229 72.3274ZM57.6113 76.2578H56.0862L56.2795 71.9623C56.304 71.5334 56.1992 71.1069 55.9788 70.7381C55.8819 70.5858 55.7435 70.4644 55.5798 70.3883C55.4161 70.3122 55.234 70.2845 55.0551 70.3086C54.821 70.2693 54.5806 70.2922 54.3582 70.3752C54.1357 70.4581 53.939 70.5981 53.7877 70.7811C53.4621 71.3631 53.3128 72.0272 53.3581 72.6925L53.2293 76.2578H51.7041L51.9619 69.1273H53.1219L53.2937 70.0509C53.5217 69.7293 53.8338 69.4767 54.1959 69.3207C54.5748 69.1302 54.9967 69.0414 55.4203 69.0629C55.8561 69.0172 56.2955 69.1059 56.6794 69.3171C57.0634 69.5282 57.3736 69.8517 57.5684 70.2442H57.6758C57.8831 69.9049 58.1805 69.6298 58.535 69.4495C58.9322 69.2679 59.3657 69.1797 59.8024 69.1918C60.14 69.1857 60.4754 69.2472 60.789 69.3726C61.1025 69.498 61.3879 69.6848 61.6282 69.922C62.0419 70.4922 62.2189 71.2002 62.1223 71.8979L61.9934 76.5155H60.5327L60.6616 72.0912C60.7042 71.654 60.5983 71.2151 60.3608 70.8455C60.2497 70.7084 60.1088 70.5984 59.9487 70.5239C59.7886 70.4495 59.6137 70.4126 59.4372 70.416C59.1973 70.4058 58.9582 70.4509 58.7385 70.5477C58.5188 70.6445 58.3242 70.7905 58.1698 70.9744C57.8532 71.4654 57.7026 72.0451 57.7402 72.6281L57.6113 76.2578ZM65.5377 76.3866H64.077V69.3207H65.5807L65.5377 76.3866ZM64.0126 67.4092C63.9959 67.2939 64.0089 67.1762 64.0502 67.0672C64.0915 66.9583 64.1599 66.8616 64.2489 66.7863C64.3276 66.7017 64.4247 66.6364 64.5327 66.5954C64.6408 66.5545 64.7568 66.539 64.8718 66.5501C65.0946 66.5519 65.3088 66.636 65.4733 66.7863C65.6268 66.9573 65.711 67.1794 65.7095 67.4092C65.7279 67.6249 65.6831 67.8413 65.5807 68.032C65.5054 68.1132 65.4106 68.1736 65.3052 68.2074C65.1999 68.2413 65.0876 68.2474 64.9792 68.2253C64.8677 68.2364 64.7551 68.225 64.6481 68.1918C64.5411 68.1586 64.4419 68.1042 64.3563 68.032C64.2769 67.9539 64.2149 67.86 64.1742 67.7564C64.1335 67.6528 64.115 67.5418 64.12 67.4307L64.0126 67.4092ZM73.8078 76.3866H72.3041V72.0912C72.3222 71.66 72.2099 71.2334 71.9819 70.867C71.8369 70.7264 71.6653 70.6161 71.4773 70.5423C71.2892 70.4686 71.0884 70.4329 70.8864 70.4374C70.6338 70.4458 70.3856 70.5054 70.1567 70.6124C69.9277 70.7195 69.7229 70.8718 69.5546 71.0603C69.205 71.6329 69.054 72.3047 69.125 72.9718V76.4725H67.6643V69.3421H68.8242L69.0605 70.2442C69.2852 69.8957 69.606 69.6197 69.9842 69.4495C70.3794 69.2573 70.8121 69.1546 71.2516 69.1488C72.97 69.1488 73.7648 70.0079 73.7648 71.7261L73.8078 76.3866ZM80.7675 76.1933L80.5097 75.2698C80.3027 75.6016 80.0143 75.8752 79.672 76.0645C79.2755 76.2764 78.8328 76.3871 78.3832 76.3866C78.0464 76.4427 77.7012 76.4215 77.3738 76.3248C77.0463 76.2281 76.7451 76.0583 76.4929 75.8282C76.2472 75.563 76.0562 75.252 75.9309 74.913C75.8056 74.5739 75.7484 74.2135 75.7625 73.8523L75.6551 69.2562H77.1158L77.2876 73.5517C77.2497 73.9913 77.3802 74.4288 77.6528 74.7758C77.7846 74.9124 77.9464 75.0166 78.1253 75.0799C78.3042 75.1433 78.4955 75.1642 78.6839 75.1409C78.9407 75.1527 79.1967 75.1045 79.4316 75.0001C79.6665 74.8958 79.8739 74.7381 80.0372 74.5396C80.3517 73.9548 80.4792 73.2876 80.4024 72.6281L80.2735 69.0629H81.7986L81.9704 76.1933H80.7675ZM86.6103 74.8403C86.9597 74.7891 87.3045 74.7101 87.6413 74.604V75.6994C87.4579 75.8349 87.244 75.9233 87.0184 75.9571C86.7548 75.9944 86.4872 75.9944 86.2236 75.9571C84.8274 75.9571 84.0756 75.2913 84.0756 73.8094L83.9896 70.1797H83.023V69.5569L84.0541 68.934L84.4837 67.4092H85.3859V68.9985H87.3406V70.1583H85.3859L85.5577 73.9812C85.5526 74.1288 85.5787 74.2759 85.6342 74.4128C85.6897 74.5497 85.7734 74.6734 85.8799 74.7758C85.9791 74.863 86.095 74.9289 86.2206 74.9695C86.3462 75.0102 86.4789 75.0247 86.6103 75.0121V74.8403ZM92.1523 75.7638C91.6945 75.8141 91.2312 75.7695 90.7914 75.6327C90.3516 75.496 89.9447 75.2701 89.5961 74.9691C89.2516 74.6235 88.9822 74.2105 88.8048 73.7559C88.6273 73.3013 88.5457 72.815 88.565 72.3274C88.4544 71.3544 88.6902 70.3735 89.2309 69.5569C89.4766 69.2124 89.798 68.9288 90.1703 68.7278C90.5427 68.5267 90.9561 68.4136 91.379 68.3971C91.7687 68.3532 92.1634 68.3959 92.5347 68.5221C92.906 68.6484 93.2449 68.855 93.5271 69.1273C93.838 69.4196 94.0861 69.7723 94.256 70.1637C94.4259 70.5552 94.5141 70.9772 94.5152 71.4039V72.263L89.8753 72.4993C89.9112 73.0995 90.1541 73.6688 90.5627 74.11C90.7631 74.279 90.9964 74.4044 91.2479 74.4784C91.4994 74.5523 91.7635 74.5731 92.0234 74.5396C92.4113 74.5419 92.7965 74.4765 93.1619 74.3463C93.5527 74.2456 93.9232 74.0785 94.2574 73.8523L94.3863 75.098C94.0426 75.3066 93.6747 75.4725 93.2908 75.592L92.0234 75.7638H92.1523ZM91.5294 69.5569C91.3215 69.5525 91.1153 69.5945 90.9257 69.68C90.7362 69.7655 90.5681 69.8922 90.4338 70.0509C90.1271 70.4575 89.9748 70.9599 90.0042 71.4684L93.1834 71.2106C93.1469 70.7306 92.9502 70.2768 92.6249 69.922C92.4864 69.7757 92.314 69.6659 92.1229 69.6022C91.9318 69.5385 91.7279 69.523 91.5294 69.5569ZM101.024 72.8858C101.071 73.1898 101.041 73.5008 100.936 73.79C100.83 74.0791 100.654 74.3369 100.422 74.5396C99.8113 75.0222 99.0529 75.28 98.2743 75.2698C97.5143 75.3631 96.743 75.2823 96.0188 75.0335L95.8899 73.7449C96.6286 74.0297 97.4194 74.1541 98.2099 74.11C99.112 74.11 99.5417 73.6805 99.4772 73.1221C99.484 73.042 99.472 72.9615 99.4422 72.8869C99.4124 72.8124 99.3655 72.7458 99.3054 72.6925C99.155 72.5705 98.9888 72.4694 98.8113 72.3919C98.4805 72.2311 98.1353 72.1017 97.7802 72.0053C97.1598 71.8779 96.5784 71.6056 96.0833 71.2106C95.832 70.9227 95.6812 70.5609 95.6537 70.1797C95.6375 69.9016 95.6852 69.6234 95.7932 69.3665C95.9012 69.1097 96.0665 68.8809 96.2766 68.6978C96.8404 68.2885 97.5135 68.0567 98.2099 68.032C98.9961 67.9158 99.7992 68.0198 100.53 68.3327L100.165 69.4924C99.5396 69.2627 98.875 69.1604 98.2099 69.1918C97.4795 69.1918 97.1143 69.4925 97.1143 69.9864C97.137 70.0898 97.1812 70.1873 97.2442 70.2724C97.3071 70.3575 97.3873 70.4284 97.4795 70.4804C97.9335 70.6939 98.3997 70.8804 98.8758 71.0388C99.3248 71.1476 99.7579 71.3136 100.165 71.5328C100.429 71.6808 100.656 71.8863 100.831 72.1342C100.965 72.4097 101.045 72.7087 101.067 73.0147L101.024 72.8858Z" fill="#FEFEFE"/>
<path d="M186.044 36.6325L190.126 28.8362L185.314 28.5785V27.2255L191.758 27.612V28.643L187.677 36.7613L186.044 36.6325ZM202.047 37.3197H200.587L200.716 33.0243C200.736 32.5889 200.631 32.1569 200.415 31.7786C200.314 31.6299 200.175 31.5113 200.013 31.4356C199.85 31.36 199.67 31.33 199.491 31.3491C199.249 31.3092 199 31.3407 198.775 31.4399C198.549 31.539 198.358 31.7015 198.224 31.9075C197.882 32.4595 197.731 33.1084 197.794 33.7545L197.665 37.3197H196.205L196.398 30.2537H197.558L197.73 31.1772C197.943 30.8538 198.24 30.5941 198.589 30.4256C198.968 30.2587 199.378 30.178 199.792 30.1893C200.225 30.1418 200.663 30.2273 201.047 30.4344C201.431 30.6416 201.742 30.9606 201.94 31.3491C202.178 31.0124 202.495 30.7395 202.864 30.5544C203.252 30.3478 203.694 30.2653 204.131 30.3182C204.466 30.2876 204.803 30.3314 205.119 30.4465C205.434 30.5616 205.721 30.7452 205.957 30.984C206.166 31.2642 206.317 31.5832 206.402 31.9224C206.487 32.2616 206.504 32.6142 206.451 32.9599V37.5775H204.926L205.055 33.1317C205.094 32.7015 204.988 32.2705 204.754 31.9075C204.639 31.7795 204.495 31.68 204.335 31.6166C204.175 31.5533 204.002 31.5279 203.83 31.5424C203.594 31.5055 203.353 31.5318 203.13 31.6186C202.907 31.7053 202.712 31.8495 202.563 32.0364C202.256 32.5314 202.106 33.108 202.133 33.6901L202.047 37.3197ZM210.038 37.4486H208.578V30.2967H210.081L210.038 37.4486ZM208.513 28.4711C208.492 28.2494 208.553 28.0276 208.685 27.8483C208.77 27.7602 208.875 27.6931 208.99 27.6521C209.106 27.6111 209.229 27.5974 209.351 27.612C209.466 27.6025 209.581 27.6188 209.689 27.6597C209.797 27.7005 209.894 27.765 209.974 27.8483C210.106 28.0276 210.167 28.2494 210.146 28.4711C210.151 28.5823 210.132 28.6933 210.091 28.7969C210.051 28.9005 209.989 28.9944 209.909 29.0725C209.828 29.1452 209.733 29.2 209.629 29.2333C209.526 29.2666 209.416 29.2777 209.308 29.2658C209.085 29.2704 208.866 29.2026 208.685 29.0725C208.57 28.893 208.511 28.684 208.513 28.4711ZM218.244 37.3841H216.783V33.0887C216.826 32.6487 216.695 32.2094 216.418 31.8645C216.285 31.7293 216.123 31.626 215.945 31.5628C215.766 31.4995 215.575 31.4778 215.387 31.4994C215.137 31.4825 214.886 31.5241 214.655 31.621C214.424 31.718 214.218 31.8675 214.055 32.0578C213.711 32.6327 213.561 33.3026 213.626 33.9693V37.5345H212.165L212.036 30.447H213.196L213.432 31.435C213.634 31.0524 213.96 30.7495 214.356 30.5759C214.756 30.4051 215.189 30.3245 215.623 30.3396C217.277 30.3396 218.115 31.1343 218.115 32.8525L218.244 37.3841ZM225.247 37.1264L225.01 36.2029C224.813 36.566 224.514 36.8643 224.151 37.062C223.762 37.2739 223.326 37.3846 222.884 37.3841C222.175 37.4434 221.472 37.2194 220.929 36.7613C220.689 36.5078 220.506 36.2064 220.391 35.8769C220.276 35.5474 220.233 35.1974 220.263 34.8498L220.091 30.2537H221.595L221.724 34.5492C221.758 34.9783 221.883 35.3954 222.089 35.7733C222.236 35.9077 222.409 36.0096 222.598 36.0725C222.787 36.1354 222.986 36.1579 223.184 36.1385C223.436 36.138 223.685 36.0842 223.915 35.9805C224.144 35.8768 224.349 35.7257 224.516 35.5371C224.809 34.9218 224.935 34.2405 224.881 33.5612V30.0605H226.342L226.578 37.1908L225.247 37.1264ZM230.982 35.8163C231.358 35.7996 231.728 35.7197 232.077 35.5801V36.7398L231.476 36.9331C231.216 37.0041 230.95 37.0473 230.681 37.062C230.392 37.0924 230.099 37.0577 229.825 36.9605C229.55 36.8633 229.301 36.7061 229.095 36.5002C228.889 36.2944 228.732 36.0452 228.635 35.7708C228.537 35.4964 228.503 35.2038 228.533 34.9143L228.361 31.1128H227.395V30.4256L228.361 29.8242L228.791 28.2779H229.693V29.8886L231.712 29.7597V30.9195L229.715 31.0484L229.951 34.8069C229.94 34.9532 229.962 35.1002 230.014 35.2374C230.065 35.3746 230.147 35.4989 230.252 35.6015C230.442 35.7647 230.688 35.8492 230.939 35.8378L230.982 35.8163ZM236.567 36.7398C235.623 36.8271 234.683 36.542 233.946 35.9452C233.288 35.2225 232.92 34.2813 232.915 33.3035C232.789 32.3295 233.026 31.3432 233.581 30.5329C233.833 30.1951 234.156 29.9163 234.527 29.716C234.898 29.5157 235.308 29.3987 235.729 29.3732C236.136 29.319 236.549 29.3564 236.94 29.4827C237.33 29.6091 237.687 29.8212 237.985 30.1034C238.57 30.7179 238.9 31.5315 238.908 32.38V33.2391L234.268 33.4753C234.283 34.0762 234.521 34.6501 234.934 35.0861C235.128 35.2665 235.36 35.3993 235.614 35.4739C235.867 35.5484 236.135 35.5627 236.395 35.5156C236.79 35.5196 237.183 35.4542 237.555 35.3223C237.93 35.2057 238.296 35.0622 238.651 34.8928V36.1385C238.315 36.2998 237.971 36.4432 237.619 36.568L236.331 36.7398H236.567ZM235.965 30.5329C235.748 30.5305 235.533 30.5732 235.334 30.6582C235.134 30.7433 234.954 30.8688 234.806 31.0269C234.549 31.4573 234.401 31.9439 234.376 32.4444L237.555 32.1867C237.537 31.7145 237.363 31.2616 237.061 30.8981C236.749 30.6537 236.362 30.5246 235.965 30.5329ZM245.46 33.8619C245.493 34.1652 245.455 34.4719 245.351 34.7585C245.247 35.0452 245.078 35.3042 244.859 35.5156C244.221 35.9471 243.479 36.1993 242.71 36.2458C241.929 36.3345 241.138 36.2539 240.391 36.0096L240.262 34.721C241.022 35.0103 241.834 35.1348 242.646 35.0861C243.548 34.9572 243.978 34.6565 243.913 34.0981C243.911 33.9386 243.85 33.7856 243.741 33.6686C243.576 33.5337 243.387 33.4317 243.183 33.3679C242.878 33.2047 242.553 33.0819 242.216 33.0028C241.587 32.8691 240.999 32.5896 240.498 32.1867C240.19 31.8742 240 31.4641 239.961 31.0269C239.917 30.7486 239.949 30.4634 240.055 30.2022C240.161 29.941 240.337 29.7137 240.562 29.545C241.11 29.1355 241.769 28.9031 242.453 28.8792C243.26 28.7902 244.077 28.8933 244.837 29.1799L244.472 30.3396C243.847 30.1099 243.182 30.0076 242.517 30.039C241.722 30.039 241.357 30.3397 241.422 30.7907C241.422 30.9064 241.457 31.0193 241.522 31.115C241.587 31.2107 241.679 31.2847 241.787 31.3276C242.212 31.5544 242.658 31.7413 243.119 31.886C243.596 31.9673 244.054 32.1347 244.472 32.38C244.728 32.5251 244.937 32.7415 245.073 33.0028C245.264 33.2491 245.369 33.5505 245.374 33.8619H245.46Z" fill="#FEFEFE"/>
<path fill-rule="evenodd" clip-rule="evenodd" d="M21.7597 17.9475C20.3982 17.7364 19.0046 17.9267 17.7494 18.4951C16.4943 19.0634 15.4321 19.9852 14.6926 21.1476C14.1406 19.8939 13.2723 18.8052 12.1727 17.9882C11.0731 17.1711 9.78002 16.6538 8.42022 16.487C7.04879 16.3163 5.65935 16.6032 4.46777 17.3032C5.13368 17.3032 4.27445 17.0455 6.46548 17.3032C8.18064 17.8027 9.7693 18.6628 11.1252 19.8259C12.481 20.9889 13.5728 22.428 14.3274 24.047C15.2753 22.495 16.6225 21.2259 18.2284 20.3722C19.8342 19.5184 21.6398 19.1112 23.4567 19.1932C24.1412 19.307 24.8162 19.472 25.4759 19.6871C24.436 18.757 23.142 18.1588 21.7597 17.969V17.9475Z" fill="#C0D7FF"/>
<path fill-rule="evenodd" clip-rule="evenodd" d="M49.5775 32.9599C49.4676 32.5171 49.4099 32.063 49.4057 31.6068C49.3767 30.4349 49.8118 29.2989 50.6164 28.4462C51.421 27.5934 52.5299 27.093 53.7018 27.0537C54.3985 27.0488 55.0854 27.2186 55.6995 27.5476C56.3271 26.838 57.0971 26.2685 57.9594 25.8763C58.8218 25.484 59.7571 25.2778 60.7045 25.2711C61.6029 25.2938 62.4902 25.4756 63.3252 25.808V25.5073C63.3167 24.5399 63.4988 23.5803 63.8613 22.6833C64.2237 21.7863 64.7593 20.9694 65.4375 20.2794C66.1157 19.5893 66.9232 19.0396 67.8139 18.6616C68.7046 18.2836 69.661 18.0846 70.6286 18.0762C71.7691 18.0895 72.8908 18.3682 73.905 18.8901C74.9191 19.412 75.7977 20.1628 76.4713 21.0831C77.5963 20.1953 78.9907 19.7179 80.4238 19.73C81.55 19.7309 82.6562 20.0267 83.6324 20.5882C84.6085 21.1497 85.4205 21.9571 85.9873 22.9301C85.9758 20.2774 87.0159 17.7282 88.8798 15.8404C90.7438 13.9526 93.2798 12.88 95.9329 12.8573C97.4879 12.8681 99.0176 13.2522 100.393 13.9773C101.769 14.7024 102.95 15.7472 103.838 17.0239C105.367 15.8338 107.248 15.1843 109.186 15.1769C110.352 15.1796 111.506 15.4136 112.58 15.8655C113.655 16.3173 114.629 16.9779 115.446 17.8089C116.263 18.64 116.907 19.6251 117.341 20.7069C117.775 21.7888 117.989 22.9459 117.972 24.1113V24.7126C119.137 24.1179 120.424 23.8017 121.731 23.7891C122.842 23.803 123.938 24.037 124.957 24.4773C125.977 24.9177 126.899 25.5559 127.67 26.3548C128.441 27.1537 129.046 28.0976 129.45 29.1318C129.854 30.166 130.048 31.27 130.023 32.38C130.055 32.6511 130.055 32.925 130.023 33.1961H49.5775V32.9599Z" fill="#DDE9FC"/>
<path fill-rule="evenodd" clip-rule="evenodd" d="M111.034 166.075C109.847 166.798 108.882 167.834 108.245 169.069C107.609 170.304 107.325 171.691 107.425 173.077C106.234 172.413 104.885 172.086 103.523 172.131C102.16 172.176 100.836 172.592 99.6919 173.334C98.5233 174.093 97.6101 175.185 97.0713 176.47C97.5653 176.041 96.7706 176.47 98.6609 175.246C100.291 174.532 102.06 174.188 103.839 174.24C105.619 174.292 107.364 174.738 108.95 175.547C108.752 173.709 109.046 171.853 109.8 170.166C110.555 168.479 111.744 167.023 113.246 165.946C113.818 165.586 114.431 165.298 115.072 165.087C113.684 164.997 112.302 165.342 111.12 166.075H111.034Z" fill="#C0D7FF"/>
</svg>
