<svg width="32" height="33" viewBox="0 0 32 33" fill="none" xmlns="http://www.w3.org/2000/svg">
<path d="M13.3596 22.7858C13.9865 23.0908 14.6602 23.2903 15.3531 23.3759V22.4041C14.7757 22.2933 14.2125 22.1188 13.6743 21.8836L13.3596 22.7858ZM18.5356 22.7858C19.2003 22.4779 19.8328 22.1059 20.4242 21.6752L19.7247 20.9118C19.2277 21.2958 18.6879 21.622 18.1159 21.8836L18.5356 22.7858ZM22.2077 19.1071C22.4647 18.438 22.6294 17.7377 22.6974 17.0249H21.6831C21.6634 17.6443 21.5332 18.2554 21.2985 18.8296L22.2077 19.1071ZM22.2077 13.8321C21.8981 13.189 21.4978 12.593 21.0186 12.0621L20.3192 12.7563C20.7128 13.207 21.0423 13.709 21.2985 14.2486L22.2077 13.8321ZM18.4307 10.3616C17.7601 10.1099 17.0492 9.9804 16.3323 9.97974V10.9516C16.9182 10.9476 17.4996 11.0535 18.0459 11.2638L18.4307 10.3616ZM13.1848 10.5699C12.5367 10.8771 11.9361 11.2743 11.4011 11.7497L12.0656 12.5481C12.5211 12.1303 13.0261 11.7691 13.5694 11.4722L13.1848 10.5699ZM9.68749 14.4568C9.51263 15.255 9.40765 15.7408 9.30273 16.539H10.282C10.327 15.8944 10.4324 15.2554 10.5968 14.6303L9.68749 14.4568ZM10.0022 19.6972C10.3298 20.3349 10.7678 20.9105 11.2962 21.3977L11.9957 20.7036C11.5413 20.2717 11.1629 19.7673 10.8766 19.2113L10.0022 19.6972Z" fill="#FEFEFE"/>
<path d="M29.2371 21.8835C28.1567 20.8227 26.7001 20.2244 25.1802 20.2175C23.6839 20.2388 22.2544 20.8362 21.1934 21.8835C20.6425 22.4131 20.2087 23.0505 19.9197 23.7556C19.6307 24.4606 19.4927 25.2178 19.5147 25.9786C19.4997 26.7334 19.641 27.4831 19.9297 28.1816C20.2185 28.88 20.6486 29.5122 21.1934 30.039C21.7179 30.5544 22.3406 30.9609 23.0251 31.235C23.7096 31.509 24.4422 31.6453 25.1802 31.6355C25.9297 31.6527 26.6751 31.52 27.372 31.2458C28.0689 30.9715 28.7031 30.5612 29.2371 30.039C30.2959 28.9462 30.8962 27.4945 30.9158 25.9786C30.9086 24.45 30.3073 22.9831 29.2371 21.8835ZM25.1802 19.2112C26.0656 19.2117 26.942 19.3867 27.7586 19.7263C28.5751 20.0659 29.3154 20.5633 29.9366 21.1894C31.1864 22.4761 31.8879 24.1916 31.895 25.9786C31.855 27.7488 31.1576 29.442 29.9366 30.7332C29.312 31.3498 28.5694 31.8362 27.7526 32.164C26.9358 32.4918 26.0612 32.6543 25.1802 32.6419C24.3107 32.647 23.4488 32.4811 22.6444 32.1534C21.8399 31.8258 21.109 31.343 20.4939 30.7332C19.2336 29.4674 18.5294 27.758 18.5354 25.9786C18.522 25.0909 18.6884 24.2095 19.0249 23.3868C19.3613 22.5641 19.8609 21.8168 20.4939 21.1894C21.1056 20.57 21.8343 20.0766 22.6385 19.7371C23.4426 19.3977 24.3064 19.2189 25.1802 19.2112Z" fill="#FEFEFE"/>
<path d="M10.8066 3.31652C10.2774 2.77125 9.64131 2.33909 8.93765 2.04666C8.23399 1.75422 7.47754 1.60772 6.71471 1.61602C5.95624 1.60201 5.20329 1.7461 4.50447 2.03903C3.80565 2.33196 3.17651 2.76716 2.65786 3.31652C1.60248 4.3694 1.00065 5.78801 0.979233 7.2729C0.986403 8.80155 1.58767 10.2685 2.65786 11.368C3.73472 12.4385 5.19062 13.0487 6.71471 13.0685C8.24642 13.0362 9.70879 12.4285 10.8066 11.368C11.8479 10.258 12.4124 8.78911 12.3803 7.2729C12.398 5.8005 11.833 4.37989 10.8066 3.31652ZM6.71471 0.644192C7.60301 0.6242 8.48565 0.790136 9.30511 1.13096C10.1246 1.47178 10.8626 1.97987 11.4711 2.62238C12.0793 3.23566 12.5593 3.96238 12.8834 4.7605C13.2075 5.55862 13.3693 6.41247 13.3595 7.2729C13.3821 8.15578 13.2267 9.03425 12.9024 9.85669C12.5781 10.6791 12.0915 11.429 11.4711 12.0622C10.8488 12.6867 10.1081 13.183 9.29188 13.5225C8.47562 13.8619 7.59976 14.0379 6.71471 14.0404C4.93324 14.0062 3.23212 13.2986 1.95847 12.0622C0.708674 10.7755 0.0071717 9.05998 0 7.2729C0.0425588 5.534 0.741498 3.87425 1.95847 2.62238C2.57094 1.985 3.30962 1.48028 4.12815 1.13985C4.94668 0.799422 5.8273 0.630616 6.71471 0.644192Z" fill="#FEFEFE"/>
<path d="M22.2427 9.63294C22.9016 7.28974 24.2393 5.19008 26.0897 3.59436C26.8224 2.8843 27.6936 2.33013 28.6498 1.9661C29.606 1.60207 30.6271 1.4359 31.6504 1.47743V2.48379C30.7595 2.44554 29.87 2.58553 29.0349 2.89557C28.1997 3.20561 27.4359 3.67941 26.7891 4.2885C25.1202 5.77616 23.9081 7.70067 23.2918 9.84116L22.2427 9.63294Z" fill="#FEFEFE"/>
<path d="M26.0547 0.748291H32.0001V6.82161H31.0209V1.7547H26.0547V0.748291Z" fill="#FEFEFE"/>
</svg>
