<svg width="42" height="26" viewBox="0 0 42 26" fill="none" xmlns="http://www.w3.org/2000/svg">
<path d="M29.2386 0.836426C31.0247 0.86387 32.7293 1.58918 33.9878 2.85726C34.6037 3.48971 35.087 4.23884 35.4096 5.06072C35.7321 5.88261 35.8873 6.7606 35.866 7.6433C35.8763 8.50333 35.7156 9.35693 35.3931 10.1542C35.0707 10.9516 34.593 11.6767 33.9878 12.2876C33.3708 12.9267 32.6336 13.4375 31.8186 13.7904C31.0035 14.1433 30.1267 14.3314 29.2386 14.3439C28.356 14.3306 27.4847 14.1421 26.6756 13.7891C25.8664 13.4361 25.1353 12.9256 24.525 12.2876C23.915 11.6784 23.4319 10.9545 23.1034 10.1573C22.7749 9.3601 22.6076 8.50554 22.6113 7.6433C22.5966 6.75838 22.7584 5.87943 23.0869 5.05769C23.4155 4.23595 23.9043 3.48796 24.525 2.85726C25.7704 1.59132 27.4633 0.86555 29.2386 0.836426ZM33.1725 3.56636C32.1342 2.50613 30.722 1.89505 29.2386 1.86448C27.7314 1.88031 26.2917 2.49224 25.2338 3.56636C24.1883 4.66354 23.6154 6.12763 23.639 7.6433C23.6298 9.11433 24.2033 10.5291 25.2338 11.5785C25.7511 12.1215 26.3722 12.5553 27.0602 12.8537C27.7481 13.1521 28.4888 13.3093 29.2386 13.3159C29.9768 13.3019 30.7047 13.1409 31.3801 12.8426C32.0555 12.5444 32.6648 12.1147 33.1725 11.5785C33.717 11.0793 34.1502 10.4708 34.4433 9.79266C34.7365 9.11451 34.8832 8.38208 34.8738 7.6433C34.8898 6.88266 34.7467 6.12701 34.4537 5.4249C34.1608 4.7228 33.7244 4.08986 33.1725 3.56636Z" fill="#FEFEFE"/>
<path fill-rule="evenodd" clip-rule="evenodd" d="M23.1076 24.4833C23.9174 24.4787 24.7183 24.3147 25.4647 24.0004C26.2111 23.6861 26.8883 23.2277 27.4576 22.6516C28.0269 22.0755 28.4773 21.3927 28.7829 20.6425C29.0885 19.8923 29.2434 19.0892 29.2387 18.2791C29.2205 16.6548 28.5699 15.1018 27.4249 13.9499C26.28 12.7979 24.7312 12.1379 23.1076 12.1104C21.4844 12.129 19.934 12.7872 18.7928 13.9421C17.6516 15.0969 17.0116 16.6552 17.0117 18.2791C16.9975 19.0888 17.1449 19.8931 17.4449 20.6453C17.745 21.3974 18.1916 22.0823 18.759 22.6598C19.3265 23.2374 20.0034 23.6962 20.75 24.0092C21.4966 24.3223 22.298 24.4835 23.1076 24.4833Z" fill="#FEFEFE"/>
<path d="M23.1073 24.9799C21.3449 24.9905 19.6499 24.3022 18.3937 23.0655C17.7697 22.4372 17.2788 21.6895 16.95 20.8672C16.6212 20.0449 16.4613 19.1647 16.48 18.2792C16.4763 17.417 16.6436 16.5627 16.9721 15.7655C17.3006 14.9683 17.7837 14.2441 18.3937 13.6349C19.004 12.9969 19.7351 12.4866 20.5443 12.1336C21.3534 11.7806 22.2247 11.5919 23.1073 11.5786C23.9797 11.5914 24.8405 11.7801 25.6382 12.1334C26.4359 12.4867 27.1542 12.9974 27.7501 13.6349C28.3762 14.2377 28.8769 14.9583 29.2236 15.7553C29.5703 16.5524 29.7561 17.4101 29.7702 18.2792C29.7709 19.1717 29.5924 20.0552 29.2454 20.8774C28.8984 21.6995 28.3899 22.4436 27.7501 23.0655C27.1411 23.6757 26.4171 24.159 25.6202 24.4876C24.8233 24.8162 23.9693 24.9835 23.1073 24.9799ZM19.1025 22.3564C19.6251 22.8851 20.2494 23.3021 20.9377 23.5824C21.6261 23.8628 22.3642 24.0004 23.1073 23.9871C23.8389 23.9928 24.564 23.8516 25.2398 23.5714C25.9156 23.2912 26.5282 22.8781 27.0412 22.3564C27.5931 21.8329 28.0295 21.1997 28.3224 20.4976C28.6154 19.7955 28.7583 19.0399 28.7423 18.2792C28.7517 17.5405 28.605 16.808 28.3118 16.1299C28.0187 15.4517 27.5857 14.8432 27.0412 14.344C26.5483 13.7893 25.9419 13.347 25.2631 13.0472C24.5844 12.7475 23.8492 12.5974 23.1073 12.6069C22.3539 12.5895 21.6056 12.7356 20.9142 13.0355C20.2228 13.3355 19.6048 13.7819 19.1025 14.344C18.072 15.3934 17.4986 16.8082 17.5077 18.2792C17.4842 19.7949 18.057 21.2592 19.1025 22.3564Z" fill="#FEFEFE"/>
<path d="M35.3691 24.0935C36.8734 24.08 38.3169 23.4973 39.4093 22.4626C40.4549 21.3654 41.0277 19.9013 41.0042 18.3857C41.0133 16.9146 40.4399 15.4999 39.4093 14.4505C38.888 13.9032 38.2612 13.4669 37.5668 13.1684C36.8724 12.8698 36.1248 12.7149 35.3691 12.7131C34.6157 12.6957 33.8675 12.8421 33.1761 13.142C32.4847 13.4419 31.8667 13.8884 31.3645 14.4505C30.3339 15.4999 29.7605 16.9146 29.7696 18.3857C29.7461 19.9013 30.3189 21.3654 31.3645 22.4626C31.887 22.9913 32.5113 23.4086 33.1997 23.6889C33.888 23.9692 34.626 24.1068 35.3691 24.0935ZM40.0827 23.1717C38.8265 24.4084 37.1315 25.0969 35.3691 25.0863C33.6066 25.0969 31.9119 24.4084 30.6556 23.1717C30.0317 22.5434 29.5405 21.7957 29.2117 20.9734C28.8829 20.1511 28.7231 19.2711 28.7417 18.3857C28.738 17.5234 28.9053 16.6689 29.2338 15.8717C29.5623 15.0745 30.0456 14.3506 30.6556 13.7414C31.266 13.1034 31.9968 12.5929 32.806 12.2399C33.6152 11.8869 34.4864 11.6983 35.3691 11.6851C36.2517 11.6983 37.123 11.8869 37.9321 12.2399C38.7413 12.5929 39.4724 13.1034 40.0827 13.7414C40.6992 14.3457 41.1868 15.0689 41.5158 15.8672C41.8447 16.6655 42.0083 17.5223 41.9967 18.3857C42.0236 19.2722 41.8676 20.1547 41.5383 20.9782C41.209 21.8017 40.7134 22.5484 40.0827 23.1717Z" fill="#FEFEFE"/>
<path d="M5.13893 13.1032C4.54409 12.94 3.97251 12.7017 3.43785 12.3941L2.94163 13.3159C3.56266 13.6775 4.23048 13.9518 4.92629 14.1312L5.13893 13.1032ZM1.59487 10.4795C1.30035 9.9373 1.09687 9.35047 0.99244 8.74232L0 8.95503C0.118554 9.67501 0.384068 10.3629 0.779805 10.9759L1.59487 10.4795ZM1.09865 5.90615C1.30066 5.33669 1.5621 4.78999 1.87845 4.27524L1.09865 3.6726C0.665044 4.24173 0.351517 4.8932 0.17716 5.58719L1.09865 5.90615ZM4.0048 2.36087C4.53149 2.07368 5.10945 1.8929 5.70588 1.82899V0.836426C5.01616 0.928912 4.34594 1.13238 3.72122 1.43906L4.0048 2.36087ZM8.5413 2.14816C9.09468 2.35157 9.60099 2.66518 10.0297 3.06997L10.7386 2.25462C10.1612 1.80949 9.51453 1.46203 8.82467 1.22635L8.5413 2.14816ZM11.7308 5.30351C11.9227 5.8933 12.0649 6.49814 12.1561 7.11163H13.1485C13.0677 6.38547 12.9011 5.67131 12.6523 4.98434L11.7308 5.30351ZM11.7308 9.87684C11.4296 10.4036 11.0984 10.9126 10.7386 11.4013L11.4472 12.1104C11.9255 11.5495 12.3305 10.9299 12.6523 10.2668L11.7308 9.87684ZM8.43488 12.8905C7.84461 13.0572 7.23903 13.164 6.62737 13.2094V14.2375C7.34184 14.202 8.04692 14.0586 8.71846 13.812L8.43488 12.8905Z" fill="#FEFEFE"/>
<path d="M5.45798 15.2302C6.15283 16.8429 7.29724 18.2213 8.75415 19.2009C10.1374 20.0303 11.7776 20.3205 13.3614 20.0163L13.574 21.0445C11.7359 21.3644 9.84437 20.9985 8.25793 20.0163C6.70709 18.9069 5.48301 17.4008 4.71387 15.6556L5.45798 15.2302Z" fill="#FEFEFE"/>
<path d="M10.7387 16.5776L14.6726 20.5483L10.6678 24.4836L9.95898 23.7745L13.255 20.5483L10.0653 17.2867L10.7387 16.5776Z" fill="#FEFEFE"/>
</svg>
