<svg width="64" height="42" viewBox="0 0 64 42" fill="none" xmlns="http://www.w3.org/2000/svg">
<path d="M60 41.5H3.60086C3.19887 41.4926 2.80014 41.3953 2.42714 41.2114C2.05264 41.0268 1.71 40.7578 1.42115 40.4167L1.39485 40.3856L1.36387 40.3592C1.32484 40.326 1.28839 40.2798 1.26054 40.2211L1.23733 40.1722L1.2042 40.1295C0.735121 39.5237 0.479663 38.7298 0.501266 37.9065L0.501438 37.9066V37.8934V37.3937V37.3929V37.3922V37.3914V37.3906V37.3899V37.3891V37.3884V37.3876V37.3868V37.3861V37.3853V37.3845V37.3838V37.383V37.3822V37.3815V37.3807V37.3799V37.3792V37.3784V37.3777V37.3769V37.3761V37.3754V37.3746V37.3738V37.3731V37.3723V37.3715V37.3708V37.37V37.3692V37.3685V37.3677V37.367V37.3662V37.3654V37.3647V37.3639V37.3631V37.3624V37.3616V37.3608V37.3601V37.3593V37.3585V37.3578V37.357V37.3562V37.3555V37.3547V37.3539V37.3532V37.3524V37.3516V37.3509V37.3501V37.3493V37.3486V37.3478V37.347V37.3463V37.3455V37.3447V37.344V37.3432V37.3424V37.3417V37.3409V37.3401V37.3393V37.3386V37.3378V37.337V37.3363V37.3355V37.3347V37.334V37.3332V37.3324V37.3317V37.3309V37.3301V37.3293V37.3286V37.3278V37.327V37.3263V37.3255V37.3247V37.3239V37.3232V37.3224V37.3216V37.3209V37.3201V37.3193V37.3185V37.3178V37.317V37.3162V37.3154V37.3147V37.3139V37.3131V37.3123V37.3116V37.3108V37.31V37.3092V37.3085V37.3077V37.3069V37.3061V37.3054V37.3046V37.3038V37.303V37.3022V37.3015V37.3007V37.2999V37.2991V37.2984V37.2976V37.2968V37.296V37.2952V37.2945V37.2937V37.2929V37.2921V37.2913V37.2906V37.2898V37.289V37.2882V37.2874V37.2866V37.2859V37.2851V37.2843V37.2835V37.2827V37.2819V37.2812V37.2804V37.2796V37.2788V37.278V37.2772V37.2764V37.2757V37.2749V37.2741V37.2733V37.2725V37.2717V37.2709V37.2701V37.2694V37.2686V37.2678V37.267V37.2662V37.2654V37.2646V37.2638V37.263V37.2622V37.2615V37.2607V37.2599V37.2591V37.2583V37.2575V37.2567V37.2559V37.2551V37.2543V37.2535V37.2527V37.2519V37.2511V37.2503V37.2495V37.2487V37.2479V37.2471V37.2463V37.2455V37.2447V37.2439V37.2431V37.2423V37.2415V37.2407V37.2399V37.2391V37.2383V37.2375V37.2367V37.2359V37.2351V37.2343V37.2335V37.2327V37.2319V37.2311V37.2303V37.2295V37.2287V37.2279V37.227V37.2262V37.2254V37.2246V37.2238V37.223V37.2222V37.2214V37.2206V37.2198V37.2189V37.2181V37.2173V37.2165V37.2157V37.2149V37.2141V37.2132V37.2124V37.2116V37.2108V37.21V37.2092V37.2083V37.2075V37.2067V37.2059V37.2051V37.2042V37.2034V37.2026V37.2018V37.201V37.2001V37.1993V37.1985V37.1977V37.1968V37.196V37.1952V37.1944V37.1935V37.1927V37.1919V37.191V37.1902V37.1894V37.1886V37.1877V37.1869V37.1861V37.1852V37.1844V37.1836V37.1827V37.1819V37.1811V37.1802V37.1794V37.1786V37.1777V37.1769V37.176V37.1752V37.1744V37.1735V37.1727V37.1719V37.171V37.1702V37.1693V37.1685V37.1676V37.1668V37.166V37.1651V37.1643V37.1634V37.1626V37.1617V37.1609V37.16V37.1592V37.1583V37.1575V37.1566V37.1558V37.1549V37.1541V37.1532V37.1524V37.1515V37.1507V37.1498V37.1489V37.1481V37.1472V37.1464V37.1455V37.1447V37.1438V37.1429V37.1421V37.1412V37.1404V37.1395V37.1386V37.1378V37.1369V37.136V37.1352V37.1343V37.1334V37.1326V37.1317V37.1308V37.13V37.1291V37.1282V37.1274V37.1265V37.1256V37.1247V37.1239V37.123V37.1221V37.1212V37.1204V37.1195V37.1186V37.1177V37.1168V37.116V37.1151V37.1142V37.1133V37.1124V37.1116V37.1107V37.1098V37.1089V37.108V37.1071V37.1062V37.1054V37.1045V37.1036V37.1027V37.1018V37.1009V37.1V37.0991V37.0982V37.0973V37.0964V37.0955V37.0946V37.0937V37.0928V37.0919V37.0911V37.0902V37.0892V37.0883V37.0874V37.0865V37.0856V37.0847V37.0838V37.0829V37.082V37.0811V37.0802V37.0793V37.0784V37.0775V37.0766V37.0756V37.0747V37.0738V37.0729V37.072V37.0711V37.0702V37.0692V37.0683V37.0674V37.0665V37.0656V37.0646V37.0637V37.0628V37.0619V37.061V37.06V37.0591V37.0582V37.0572V37.0563V37.0554V37.0545V37.0535V37.0526V37.0517V37.0507V37.0498V37.0489V37.0479V37.047V37.0461V37.0451V37.0442V37.0432V37.0423V37.0414V37.0404V37.0395V37.0385V37.0376V37.0366V37.0357V37.0347V37.0338V37.0328V37.0319V37.0309V37.03V37.029V37.0281V37.0271V37.0262V37.0252V37.0243V37.0233V37.0223V37.0214V37.0204V37.0195V37.0185V37.0175V37.0166V37.0156V37.0146V37.0137V37.0127V37.0117V37.0108V37.0098V37.0088V37.0079V37.0069V37.0059V37.0049V37.004V37.003V37.002V37.001V37.0001V36.9991V36.9981V36.9971V36.9966L5.55193 3.50757L5.55198 3.50758L5.55289 3.50089C5.66878 2.65514 6.05052 1.89712 6.61328 1.36176L6.61333 1.36181L6.61946 1.35578C7.1826 0.801296 7.89176 0.50398 8.61537 0.5H60.2891H60.3049H60.3208H60.3365H60.3523H60.368H60.3837H60.3993H60.4149H60.4305H60.446H60.4615H60.4769H60.4923H60.5077H60.523H60.5383H60.5535H60.5687H60.5839H60.599H60.6141H60.6292H60.6442H60.6592H60.6741H60.6891H60.7039H60.7188H60.7335H60.7483H60.763H60.7777H60.7923H60.8069H60.8215H60.836H60.8505H60.865H60.8794H60.8938H60.9081H60.9224H60.9367H60.9509H60.9651H60.9792H60.9934H61.0074H61.0215H61.0355H61.0494H61.0634H61.0773H61.0911H61.1049H61.1187H61.1325H61.1462H61.1598H61.1735H61.1871H61.2006H61.2141H61.2276H61.2411H61.2545H61.2679H61.2812H61.2945H61.3078H61.321H61.3342H61.3473H61.3605H61.3735H61.3866H61.3996H61.4126H61.4255H61.4384H61.4513H61.4641H61.4769H61.4896H61.5023H61.515H61.5277H61.5403H61.5528H61.5654H61.5779H61.5903H61.6028H61.6152H61.6275H61.6398H61.6521H61.6644H61.6766H61.6888H61.7009H61.713H61.7251H61.7371H61.7491H61.7611H61.773H61.7849H61.7967H61.8085H61.8203H61.8321H61.8438H61.8555H61.8671H61.8787H61.8903H61.9018H61.9133H61.9248H61.9362H61.9476H61.959H61.9703H61.9816H61.9928H62.0041H62.0153H62.0264H62.0375H62.0486H62.0596H62.0706H62.0816H62.0926H62.1035H62.1143H62.1252H62.136H62.1467H62.1575H62.1682H62.1788H62.1895H62.2001H62.2106H62.2211H62.2316H62.2421H62.2525H62.2629H62.2733H62.2836H62.2939H62.3041H62.3143H62.3245H62.3347H62.3448H62.3548H62.3649H62.3749H62.3849H62.3948H62.4047H62.4146H62.4244H62.4343H62.444H62.4538H62.4635H62.4732H62.4828H62.4924H62.502H62.5115H62.521H62.5305H62.5399H62.5493H62.5587H62.568H62.5773H62.5866H62.5958H62.605H62.6142H62.6234H62.6325H62.6415H62.6506H62.6596H62.6685H62.6775H62.6864H62.6953H62.7041H62.7129H62.7217H62.7304H62.7391H62.7478H62.7564H62.7651H62.7736H62.7822H62.7907H62.7992H62.8076H62.816H62.8244H62.8328H62.8411H62.8493H62.8576H62.8658H62.874H62.8822H62.8903H62.8984H62.9064H62.9144H62.9224H62.9304H62.9383H62.9462H62.9541H62.9619H62.9697H62.9775H62.9852H62.9929H63.0006H63.0082H63.0158H63.0234H63.031H63.0385H63.0459H63.0534H63.0608H63.0682H63.0755H63.0829H63.0902H63.0974H63.1046H63.1118H63.119H63.1261H63.1332H63.1403H63.1473H63.1544H63.1613H63.1683H63.1752H63.1821H63.1889H63.1957H63.2025H63.2093H63.216H63.2227H63.2294H63.236H63.2426H63.2492H63.2557H63.2622H63.2687H63.2752H63.2816H63.288H63.2943H63.3006H63.3069H63.3132H63.3194H63.3256H63.3318H63.3379H63.3441H63.3501H63.3562H63.3622H63.3682H63.3741H63.3801H63.386H63.3918H63.3977H63.4035H63.4093H63.415H63.4207H63.4264H63.4321H63.4377H63.4433H63.4489H63.4544H63.4599H63.4654H63.4708H63.4763H63.4816H63.487H63.4923H63.4976H63.5V0.534787V0.612197V0.689855V0.767759V0.845909V0.924301V1.00294V1.08181V1.16092V1.24028V1.31986V1.39968V1.47974V1.56002V1.64053V1.72127V1.80224V1.88343V1.96484V2.04648V2.12833V2.21041V2.2927V2.3752V2.45792V2.54085V2.62399V2.70734V2.7909V2.87466V2.95863V3.0428V3.12717V3.21174V3.2965V3.38146V3.46662V3.55197V3.63751V3.72325V3.80917V3.89527V3.98156V4.06804V4.1547V4.24154V4.32855V4.41575V4.50311V4.59066V4.67837V4.76626V4.85432V4.94254V5.03093V5.11949V5.2082V5.29708V5.38612V5.47532V5.56468V5.65419V5.74385V5.83366V5.92363V6.01374V6.10401V6.19441V6.28497V6.37566V6.46649V6.55747V6.64858V6.73983V6.83121V6.92273V7.01438V7.10616V7.19806V7.2901V7.38226V7.47454V7.56694V7.65947V7.75211V7.84487V7.93775V8.03074V8.12384V8.21706V8.31038V8.40381V8.49735V8.59099V8.68474V8.77859V8.87254V8.96658V9.06073V9.15496V9.2493V9.34372V9.43824V9.53284V9.62753V9.72231V9.81717V9.91211V10.0071V10.1022V10.1974V10.2927V10.388V10.4834V10.5789V10.6745V10.7701V10.8658V10.9615V11.0573V11.1532V11.2491V11.3451V11.4412V11.5373V11.6334V11.7297V11.8259V11.9222V12.0186V12.115V12.2115V12.308V12.4045V12.5011V12.5977V12.6944V12.7911V12.8878V12.9845V13.0813V13.1782V13.275V13.3719V13.4688V13.5657V13.6626V13.7596V13.8566V13.9536V14.0506V14.1476V14.2446V14.3417V14.4387V14.5358V14.6328V14.7299V14.827V14.924V15.0211V15.1182V15.2152V15.3123V15.4094V15.5064V15.6034V15.7005V15.7975V15.8945V15.9914V16.0884V16.1853V16.2822V16.3791V16.476V16.5728V16.6697V16.7665V16.8632V16.9599V17.0566V17.1533V17.2499V17.3465V17.443V17.5395V17.636V17.7324V17.8287V17.925V18.0213V18.1175V18.2137V18.3098V18.4058V18.5018V18.5977V18.6936V18.7894V18.8852V18.9808V19.0765V19.172V19.2675V19.3629V19.4582V19.5535V19.6486V19.7437V19.8388V19.9337V20.0285V20.1233V20.218V20.3126V20.4071V20.5015V20.5959V20.6901V20.7842V20.8783V20.9722V21.066V21.1598V21.2534V21.3469V21.4404V21.5337V21.6269V21.72V21.813V21.9058V21.9986V22.0912V22.1837V22.2761V22.3684V22.4606V22.5526V22.6445V22.7362V22.8279V22.9194V23.0108V23.102V23.1931V23.2841V23.3749V23.4656V23.5561V23.6465V23.7368V23.8269V23.9168V24.0066V24.0963V24.1858V24.2751V24.3643V24.4533V24.5422V24.6309V24.7195V24.8078V24.8961V24.9841V25.072V25.1597V25.2472V25.3346V25.4217V25.5087V25.5956V25.6822V25.7687V25.855V25.941V26.027V26.1127V26.1982V26.2835V26.3687V26.4536V26.5384V26.6229V26.7073V26.7914V26.8754V26.9591V27.0427V27.126V27.2091V27.2921V27.3748V27.4573V27.5395V27.6216V27.7034V27.785V27.8664V27.9476V28.0286V28.1093V28.1898V28.2701V28.3501V28.4299V28.5095V28.5888V28.6679V28.7467V28.8254V28.9037V28.9819V29.0598V29.1374V29.2148V29.2919V29.3688V29.4455V29.5218V29.598V29.6738V29.7494V29.8248V29.8999V29.9747V30.0493V30.1235V30.1976V30.2713V30.3448V30.418V30.4909V30.5636V30.636V30.7081V30.7799V30.8514V30.9226V30.9936V31.0643V31.1347V31.2048V31.2746V31.3441V31.4133V31.4822V31.5508V31.6191V31.6871V31.7548V31.8222V31.8893V31.9561V32.0226V32.0888V32.1546V32.2202V32.2854V32.3503V32.4149V32.4792V32.5431V32.6067V32.67V32.733V32.7956V32.8579V32.9199V32.9816V33.0429V33.1038V33.1645V33.2248V33.2847V33.3443V33.4036V33.4625V33.5211V33.5793V33.6372V33.6947V33.7519V33.8087V33.8652V33.9213V33.977V34.0324V34.0874V34.142V34.1963V34.2502V34.3038V34.3569V34.4097V34.4622V34.5142V34.5659V34.6172V34.6681V34.7186V34.7687V34.8185V34.8679V34.9169V34.9655V35.0137V35.0615V35.1089V35.1559V35.2025V35.2487V35.2946V35.34V35.385V35.4296V35.4738V35.5176V35.561V35.6039V35.6465V35.6886V35.7303V35.7716V35.8125V35.853V35.893V35.9326V35.9718V36.0106V36.0489V36.0868V36.1243V36.1613V36.1979V36.234V36.2698V36.305V36.3399V36.3743V36.4082V36.4417V36.4748V36.5074V36.5395V36.5712V36.6025V36.6332V36.6636V36.6934V36.7229V36.7518V36.7803V36.8083V36.8358V36.8629V36.8895V36.9157V36.9413V36.9665V36.9912V37.0155V37.0392V37.0625V37.0853V37.1076V37.1294V37.1507V37.1716V37.1919V37.2118V37.2311V37.25V37.2684V37.2862V37.3036V37.3205V37.3368V37.3527V37.368V37.3829V37.3972V37.411V37.4244V37.4371V37.4494V37.4612V37.4724V37.4832V37.4934V37.503V37.5122V37.5208V37.5289V37.5364V37.5435V37.55V37.5559V37.5614V37.5662V37.5706V37.5744V37.5777V37.5804C63.5 38.3259 63.2714 39.3266 62.7147 40.1262C62.1729 40.9044 61.3192 41.5 60 41.5Z" stroke="#F53323"/>
</svg>
