<svg width="64" height="42" viewBox="0 0 64 42" fill="none" xmlns="http://www.w3.org/2000/svg">
<path fill-rule="evenodd" clip-rule="evenodd" d="M60.2891 0C63 0 64.019 0 64 0C64 12.8851 64 37.163 64 37.5804C64 39.2383 63 42 60 42H3.59643C3.11763 41.9919 2.64503 41.8762 2.2061 41.6599C1.76716 41.4436 1.37063 41.1308 1.03955 40.7398C0.944099 40.6584 0.8654 40.5546 0.808868 40.4356C0.265419 39.7338 -0.0230244 38.8256 0.00143776 37.8934V37.3937C0.00143776 37.2633 0.00143776 37.1329 0.00143776 36.9591L5.05752 3.43301C5.18769 2.48304 5.61793 1.61853 6.26865 0.999497C6.91904 0.359108 7.75148 0.00435507 8.61406 0H60.2891Z" fill="#F53323"/>
</svg>
