<svg width="435" height="437" viewBox="0 0 435 437" fill="none" xmlns="http://www.w3.org/2000/svg">
<path fill-rule="evenodd" clip-rule="evenodd" d="M169.467 415.888L229.971 399.676L211.494 330.719L135.414 351.105C137.49 350.57 139.693 350.875 141.546 351.954C143.398 353.032 144.751 354.798 145.31 356.868L159.58 410.123C160.13 412.195 161.478 413.965 163.329 415.045C165.18 416.126 167.384 416.43 169.458 415.891L169.467 415.888ZM82.7101 365.227L143.206 349.017L124.727 280.052L56.4307 298.352L72.7974 359.433C73.3453 361.505 74.6914 363.275 76.5413 364.356C78.3911 365.437 80.594 365.742 82.6677 365.203L82.7101 365.227Z" fill="#6278B1"/>
<path fill-rule="evenodd" clip-rule="evenodd" d="M298.217 381.39L358.839 365.146C360.872 364.59 362.602 363.25 363.65 361.421C364.698 359.592 364.979 357.422 364.431 355.386L350.117 301.963C349.57 299.896 349.859 297.698 350.922 295.843C351.985 293.988 353.736 292.627 355.795 292.054L408.466 277.941C410.534 277.37 412.294 276.005 413.361 274.144C414.428 272.282 414.716 270.074 414.163 268L399.897 214.761C399.345 212.683 397.993 210.908 396.136 209.824C394.279 208.74 392.068 208.435 389.987 208.976L329.558 225.168L348.037 294.133L279.74 312.433L298.217 381.39Z" fill="#6278B1"/>
<path d="M174.53 192.8L106.25 211.095L124.727 280.052L193.007 261.757L174.53 192.8Z" fill="#6278B1"/>
<path fill-rule="evenodd" clip-rule="evenodd" d="M27.2732 158.367L87.7776 142.155L106.255 211.112L37.9582 229.412L21.587 168.314C21.3073 167.287 21.2324 166.216 21.3668 165.16C21.5011 164.105 21.8421 163.086 22.3701 162.163C22.8981 161.239 23.6028 160.429 24.4441 159.777C25.2854 159.126 26.2467 158.647 27.2732 158.367ZM79.9857 144.243L156.066 123.857L137.582 54.8755L76.927 71.1279C74.8954 71.6912 73.1697 73.0364 72.1275 74.869C71.0853 76.7017 70.8115 78.8726 71.3661 80.9066L85.6696 134.288C86.23 136.362 85.9468 138.573 84.8817 140.438C83.8166 142.304 82.0563 143.671 79.9857 144.243Z" fill="#6278B1"/>
<path fill-rule="evenodd" clip-rule="evenodd" d="M266.324 20.3792L205.828 36.5891L224.312 105.571L300.392 85.1855C298.317 85.7247 296.113 85.4209 294.262 84.3402C292.411 83.2595 291.063 81.49 290.513 79.4184L276.243 26.1625C275.691 24.0842 274.339 22.309 272.482 21.2249C270.624 20.1408 268.414 19.8359 266.333 20.377L266.324 20.3792ZM300.392 85.1855L353.062 71.0724C355.143 70.5313 357.354 70.8361 359.211 71.9202C361.068 73.0044 362.421 74.7796 362.973 76.8579L377.236 130.089C377.789 132.162 377.501 134.37 376.434 136.232C375.367 138.094 373.608 139.458 371.539 140.029L311.085 156.228L292.608 87.2711" fill="#6278B1"/>
<path fill-rule="evenodd" clip-rule="evenodd" d="M205.728 36.6159L137.574 54.8778L156.057 123.86L216.537 107.654C218.608 107.116 220.809 107.416 222.66 108.49C224.512 109.565 225.865 111.326 226.425 113.392L240.733 166.79C241.273 168.832 242.601 170.576 244.424 171.641C246.248 172.706 248.42 173.005 250.463 172.471L311.085 156.228L292.608 87.271L224.312 105.571L205.862 36.7145C205.86 36.6975 205.854 36.681 205.845 36.6665C205.836 36.652 205.824 36.6397 205.809 36.6307C205.795 36.6216 205.778 36.6159 205.761 36.6142C205.744 36.6124 205.727 36.6145 205.711 36.6204L205.728 36.6159ZM124.727 280.052L193.007 261.757L209.393 322.913C209.951 324.976 211.3 326.735 213.149 327.807C214.997 328.879 217.194 329.178 219.261 328.638L348.011 294.14L329.532 225.175L268.936 241.411C266.902 241.975 265.173 243.32 264.127 245.153C263.081 246.986 262.801 249.159 263.35 251.197L277.66 304.603C278.205 306.672 277.913 308.873 276.847 310.729C275.781 312.584 274.027 313.945 271.965 314.516L279.74 312.433L298.217 381.39L230.08 399.647C230.064 399.653 230.048 399.655 230.032 399.653C230.016 399.652 230 399.647 229.986 399.639C229.972 399.63 229.959 399.619 229.95 399.606C229.941 399.593 229.934 399.577 229.931 399.561L211.486 330.722L143.206 349.017L124.727 280.052ZM124.727 280.052L56.4307 298.352L37.9538 229.395L106.25 211.095L124.727 280.052ZM163.844 121.719L87.7642 142.105L106.241 211.062L174.521 192.766L158.163 131.718C157.601 129.647 157.881 127.437 158.942 125.571C160.003 123.705 161.76 122.335 163.828 121.76L163.844 121.719Z" fill="#FFC047"/>
<path d="M180.848 356.601C180.562 356.839 180.259 357.046 179.963 357.278C179.666 357.509 179.41 357.757 179.146 358.007L178.407 357.256L178.899 356.819L179.442 356.369L179.763 356.131C179.161 355.288 178.547 354.503 177.918 353.695C177.575 353.938 177.248 354.206 176.941 354.494C176.564 354.804 176.196 355.136 175.837 355.489C175.314 356.014 174.821 356.55 174.338 357.118C175.387 357.993 176.387 358.881 177.423 359.804L176.762 360.68C176.527 360.973 176.309 361.279 176.111 361.598L175.225 361.065C175.245 361.027 175.272 360.992 175.305 360.963C175.428 360.746 175.567 360.538 175.721 360.341C175.887 360.09 176.069 359.835 176.252 359.58C175.448 358.953 174.655 358.368 173.857 357.731L173.515 358.163C173.214 358.575 172.927 359.011 172.657 359.441L172.595 359.512C172.448 359.73 172.332 359.967 172.218 360.177C171.87 360.748 171.563 361.343 171.297 361.956L172.217 362.382L174.926 363.762C174.786 364.077 174.645 364.419 174.515 364.768C174.384 365.117 174.247 365.476 174.133 365.82L173.163 365.542C173.178 365.496 173.189 365.448 173.196 365.399C173.331 365.032 173.457 364.666 173.596 364.315C173.638 364.205 173.668 364.117 173.719 364.005L173.765 363.911C172.811 363.495 171.888 363.16 170.959 362.737C170.667 363.422 170.415 364.124 170.205 364.838C169.981 365.542 169.798 366.258 169.66 366.983C169.629 367.17 169.601 367.33 169.556 367.53L173.589 368.269L173.431 369.386C173.404 369.752 173.376 370.118 173.341 370.486L172.326 370.48C172.325 370.274 172.347 370.089 172.352 369.908L172.339 369.858C172.347 369.635 172.371 369.413 172.412 369.194C172.416 369.016 172.438 368.839 172.476 368.665C171.47 368.523 170.471 368.405 169.451 368.276C169.443 368.461 169.424 368.646 169.393 368.829C169.313 369.567 169.258 370.298 169.252 371.044C169.241 371.781 169.268 372.519 169.333 373.253C170.702 373.146 172.026 373.07 173.402 372.988C173.424 373.34 173.47 373.713 173.517 374.086L173.784 375.152L172.789 375.419C172.731 375.201 172.673 374.984 172.615 374.767C172.514 374.39 172.493 374.011 172.447 373.638C171.435 373.774 170.466 373.936 169.433 374.06C169.484 374.252 169.529 374.419 169.524 374.6C169.613 374.935 169.643 375.312 169.707 375.653C169.835 376.13 169.906 376.595 170.029 377.054C170.077 377.28 170.137 377.503 170.208 377.723L170.459 378.66L174.464 377.587L175.136 380.095L173.923 380.419L173.448 378.647L170.673 379.391L170.809 379.901L171.822 383.68L171.842 383.755L175.847 382.682L176.519 385.19L175.29 385.519L174.815 383.747L172.039 384.491L172.169 384.976L173.182 388.755L173.202 388.83L179.748 387.076C180.004 387.326 180.284 387.551 180.582 387.748C180.841 387.931 181.029 388.197 181.116 388.501C181.204 388.858 181.159 389.234 180.988 389.559C180.818 389.884 180.534 390.134 180.19 390.264L178.518 390.712C178.221 390.793 177.943 390.931 177.7 391.119C177.457 391.308 177.253 391.542 177.101 391.81C176.949 392.077 176.851 392.372 176.812 392.677C176.774 392.982 176.797 393.292 176.878 393.588C176.99 394.031 177.228 394.431 177.563 394.74L174.721 395.502C174.277 395.621 173.899 395.911 173.67 396.308C173.44 396.706 173.378 397.178 173.497 397.622L173.945 399.294L175.022 403.315L175.892 403.082L174.814 399.061L177.322 398.389L177.656 399.635L175.875 400.112L176.619 402.887L177.112 402.755L180.858 401.752L180.908 401.738L179.831 397.717L182.339 397.045L182.672 398.29L180.917 398.761L181.661 401.537L182.137 401.409L185.924 400.394L184.847 396.373L187.355 395.701L187.689 396.946L185.933 397.417L186.677 400.192L187.153 400.065L190.941 399.05L191.033 399.025L189.955 395.004L192.463 394.332L192.797 395.578L191.041 396.048L191.785 398.824L192.287 398.689L195.957 397.706L196.024 397.688L194.946 393.667L197.454 392.995L197.788 394.24L196.049 394.706L196.793 397.482L197.269 397.354L200.973 396.362L201.04 396.344L199.962 392.322L202.471 391.65L202.804 392.896L201.065 393.362L201.809 396.138L202.286 396.01L205.989 395.018L206.081 394.993L205.004 390.972L207.512 390.3L207.846 391.545L206.082 392.018L206.825 394.794L207.319 394.661L211.064 393.658L211.139 393.638L209.607 387.919C209.488 387.476 209.198 387.098 208.801 386.868C208.403 386.639 207.93 386.576 207.487 386.695L205.28 387.287C205.415 386.851 205.421 386.386 205.297 385.947C205.137 385.348 204.747 384.837 204.212 384.524C203.676 384.211 203.039 384.122 202.439 384.275L200.767 384.723C200.404 384.787 200.031 384.713 199.72 384.517C199.409 384.32 199.182 384.015 199.084 383.66C198.995 383.306 199.031 382.933 199.186 382.602C199.314 382.382 199.419 382.149 199.502 381.908C199.914 380.86 199.921 379.696 199.521 378.644C199.122 377.591 198.344 376.725 197.34 376.215C197.34 376.215 197.298 376.226 197.285 376.176C194.275 374.707 190.704 373.889 188.72 369.627C188.257 369.514 187.815 369.331 187.409 369.082C186.376 368.466 185.625 367.472 185.313 366.31L185.982 366.131C186.239 367.116 186.874 367.96 187.749 368.48C188.034 368.66 188.345 368.794 188.672 368.878C189.569 369.054 190.498 368.973 191.351 368.644C192.06 368.362 192.69 367.91 193.185 367.328C194.55 367.367 195.878 367.789 197.015 368.545C198.153 369.302 199.055 370.363 199.618 371.608L202.1 370.638L203.716 366.469L194.409 356.884L194.184 356.612L189.749 355.408L186.603 348.482C185.889 348.727 185.283 349.213 184.889 349.856C184.495 350.5 184.339 351.261 184.447 352.008L184.5 354.682L184.45 354.695C183.95 354.901 183.426 355.122 182.931 355.38L182.442 354.49C182.478 354.47 182.518 354.459 182.559 354.458C182.891 354.262 183.256 354.119 183.596 353.948C183.738 353.91 183.905 353.865 184.05 353.772C183.665 352.8 183.271 351.902 182.886 350.93C182.404 351.14 181.929 351.339 181.454 351.573C180.979 351.808 180.746 351.942 180.412 352.131C179.767 352.488 179.142 352.88 178.54 353.304C179.325 354.429 180.048 355.588 180.818 356.69L180.848 356.601ZM191.281 359.989C191.13 360.027 190.97 360.005 190.836 359.927C190.701 359.849 190.602 359.722 190.56 359.573C190.52 359.422 190.541 359.261 190.619 359.126C190.697 358.991 190.825 358.892 190.976 358.852C191.127 358.811 191.288 358.833 191.423 358.911C191.558 358.989 191.657 359.117 191.697 359.268C191.735 359.419 191.713 359.578 191.635 359.713C191.557 359.847 191.43 359.946 191.281 359.989ZM184.553 355.716L184.56 356.61C181.249 358.05 178.549 360.607 176.931 363.834C175.313 367.062 174.88 370.755 175.707 374.269L175.81 374.654L176.196 376.092L178.588 385.021C178.657 385.407 178.799 385.776 179.005 386.11C179.019 386.16 179.026 386.185 179.089 386.222L173.872 387.62L173.2 385.112L174.145 384.858L174.62 386.631L177.655 385.818L176.494 381.487L172.515 382.553L171.843 380.045L172.787 379.792L173.262 381.564L176.297 380.751L175.195 376.638L175.13 376.395L171.217 377.444L171.031 376.75C170.904 376.273 170.774 375.788 170.703 375.324C170.672 375.207 170.631 375.056 170.6 374.939L171.572 374.786L171.583 374.828L171.61 374.928C171.634 375.02 171.668 375.146 171.693 375.238L171.751 375.455C171.83 375.851 171.935 376.242 172.064 376.625C173.034 376.366 174.043 376.149 175.044 375.908L174.852 375.189C174.735 374.754 174.678 374.339 174.603 373.893C174.528 373.447 174.484 372.948 174.437 372.504L174.411 371.839L170.363 372.081C170.347 371.754 170.33 371.391 170.339 371.057C170.329 370.528 170.349 370 170.399 369.473L171.366 369.572C171.374 369.624 171.37 369.678 171.354 369.728C171.354 369.728 171.374 369.803 171.381 369.828C171.36 370.219 171.333 370.585 171.337 370.969C171.332 371.15 171.32 371.305 171.323 371.484C172.33 371.465 173.385 371.522 174.415 371.551L174.395 370.741C174.402 370.3 174.43 369.836 174.476 369.438C174.521 369.041 174.574 368.668 174.645 368.264L174.823 367.392L170.844 366.585C170.898 366.32 170.982 366.064 171.042 365.788C171.071 365.708 171.091 365.624 171.101 365.539C171.246 365.044 171.421 364.558 171.592 364.028L172.508 364.401C172.5 364.472 172.475 364.54 172.435 364.599C172.328 364.969 172.194 365.336 172.093 365.695C172.032 365.86 171.981 366.029 171.942 366.201C172.905 366.454 173.889 366.782 174.866 367.084L175.035 366.475C175.167 366.013 175.323 365.558 175.503 365.113C175.647 364.715 175.807 364.341 175.983 363.962L176.322 363.253L172.714 361.424C172.829 361.187 172.952 360.975 173.066 360.766L173.48 360.036L174.086 359.157L174.854 359.749L174.467 360.31C174.254 360.653 174.039 360.989 173.855 361.37C174.751 361.873 175.645 362.431 176.523 362.967L176.905 362.318C177.113 361.957 177.378 361.608 177.609 361.233C177.84 360.857 178.19 360.459 178.496 360.099L178.9 359.632L175.848 356.938C176.209 356.542 176.59 356.165 176.988 355.808C177.228 355.564 177.492 355.314 177.763 355.089L178.377 355.875C178.332 355.899 178.288 355.925 178.246 355.955C177.965 356.209 177.675 356.466 177.392 356.748C177.252 356.893 177.118 357.027 177.003 357.166L179.123 359.393L179.687 358.857C179.995 358.568 180.301 358.307 180.633 358.039C180.964 357.771 181.286 357.533 181.605 357.286L182.303 356.848L180.032 353.424L180.951 352.873C181.421 352.622 181.888 352.389 182.365 352.163L182.755 353.053C182.17 353.344 181.608 353.62 181.068 353.944L181.338 354.382L182.602 356.66L183.311 356.264C183.738 356.051 184.138 355.836 184.596 355.642L184.553 355.716ZM177.907 400.571L178.835 400.322L178.257 398.165L178.968 397.975L179.801 401.085L177.326 401.748L177.071 400.795L177.907 400.571ZM187.981 397.872L188.884 397.63L188.306 395.473L189.034 395.278L189.867 398.388L187.359 399.06L187.104 398.107L187.981 397.872ZM182.965 399.216L183.868 398.974L183.29 396.817L184.017 396.622L184.851 399.732L182.343 400.404L182.087 399.451L182.965 399.216ZM198.014 395.183L198.942 394.935L198.364 392.778L199.066 392.59L199.9 395.7L197.391 396.372L197.136 395.419L198.014 395.183ZM192.998 396.527L193.926 396.279L193.348 394.122L194.05 393.934L194.883 397.044L192.375 397.716L192.12 396.763L192.998 396.527ZM208.097 392.482L209.016 392.235L208.438 390.078L209.099 389.901L209.932 393.011L207.499 393.663L207.244 392.71L208.097 392.482ZM203.08 393.826L203.975 393.586L203.397 391.429L204.083 391.245L204.916 394.355L202.408 395.028L202.152 394.074L203.08 393.826ZM183.692 350.562L183.717 350.654L183.692 350.562Z" fill="#FEFEFE"/>
<path d="M249.128 338.306C248.834 338.546 248.539 338.751 248.243 338.982C247.947 339.214 247.682 339.464 247.418 339.714L246.687 338.96L247.204 338.517L247.722 338.074L248.035 337.837C247.433 336.995 246.811 336.212 246.19 335.401C245.845 335.644 245.519 335.911 245.213 336.201C244.841 336.51 244.473 336.841 244.108 337.196C243.586 337.721 243.093 338.256 242.609 338.825C243.659 339.7 244.659 340.588 245.695 341.511L245.033 342.387C244.799 342.68 244.582 342.986 244.383 343.305L243.505 342.77C243.524 342.733 243.549 342.7 243.577 342.67C243.703 342.452 243.845 342.243 244.001 342.045C244.159 341.797 244.341 341.542 244.532 341.285C243.728 340.658 242.935 340.073 242.128 339.438L241.787 339.87C241.494 340.28 241.199 340.717 240.937 341.146L240.875 341.279C240.727 341.498 240.611 341.735 240.489 341.947C240.147 342.521 239.839 343.115 239.568 343.726L240.497 344.149L243.205 345.529C243.057 345.847 242.924 346.187 242.785 346.538C242.646 346.889 242.518 347.246 242.413 347.588L241.442 347.31C241.449 347.262 241.461 347.214 241.475 347.167C241.585 346.806 241.711 346.441 241.85 346.09L241.964 345.781L242.019 345.686C241.074 345.267 240.142 344.934 239.222 344.509C238.93 345.196 238.675 345.898 238.46 346.613C238.237 347.315 238.058 348.031 237.922 348.755C237.894 348.94 237.857 349.124 237.81 349.305C239.149 349.555 240.466 349.821 241.808 350.079L241.65 351.197L241.56 352.297L240.545 352.291C240.561 352.08 240.566 351.9 240.563 351.721L240.55 351.671C240.56 351.447 240.587 351.224 240.631 351.004C240.633 350.828 240.652 350.651 240.687 350.478C239.689 350.334 238.69 350.216 237.661 350.088C237.657 350.273 237.64 350.457 237.612 350.639C237.521 351.375 237.471 352.115 237.462 352.857C237.464 353.6 237.508 354.332 237.552 355.064C238.921 354.957 240.245 354.88 241.621 354.798C241.635 355.153 241.689 355.523 241.736 355.896L241.949 356.995L240.954 357.262C240.896 357.044 240.838 356.827 240.83 356.596C240.729 356.22 240.708 355.84 240.653 355.47C239.65 355.604 238.681 355.765 237.648 355.89C237.699 356.082 237.744 356.249 237.739 356.43C237.778 356.778 237.849 357.144 237.922 357.483C238.05 357.959 238.121 358.424 238.244 358.884C238.292 359.11 238.352 359.333 238.423 359.553L238.674 360.489L242.679 359.416L243.351 361.924L242.122 362.254L241.647 360.481L238.871 361.225L239.008 361.735L240.02 365.514L240.041 365.589L244.045 364.516L244.717 367.024L243.488 367.353L243.013 365.581L240.238 366.325L240.368 366.81L241.38 370.589L241.4 370.664L247.938 368.912C248.199 369.168 248.491 369.39 248.806 369.576C249.049 369.771 249.227 370.036 249.314 370.335C249.403 370.692 249.357 371.068 249.187 371.393C249.016 371.718 248.732 371.969 248.389 372.098L246.717 372.546C246.42 372.627 246.142 372.765 245.898 372.953C245.655 373.142 245.452 373.376 245.299 373.644C245.147 373.911 245.049 374.206 245.011 374.511C244.973 374.816 244.995 375.126 245.077 375.422C245.189 375.865 245.427 376.265 245.762 376.574L242.919 377.336C242.476 377.455 242.098 377.745 241.868 378.142C241.639 378.54 241.576 379.012 241.695 379.456L242.143 381.128L243.221 385.149L244.14 384.903L243.063 380.882L245.529 380.221L245.863 381.466L244.107 381.937L244.851 384.712L245.353 384.578L249.098 383.574L249.165 383.557L248.088 379.535L250.596 378.863L250.929 380.109L249.174 380.579L249.917 383.355L250.394 383.227L254.139 382.224L254.206 382.206L253.129 378.184L255.637 377.512L255.971 378.758L254.215 379.229L254.959 382.004L255.435 381.876L259.181 380.873L259.273 380.848L258.195 376.827L260.662 376.166L260.995 377.412L259.24 377.882L259.983 380.658L260.477 380.526L264.222 379.522L264.297 379.502L263.22 375.48L265.728 374.808L266.062 376.054L264.314 376.522L265.058 379.298L265.526 379.173L269.272 378.169L269.347 378.149L268.27 374.127L270.778 373.455L271.112 374.701L269.364 375.169L270.108 377.945L270.576 377.819L274.322 376.816L274.422 376.789L273.344 372.768L275.802 372.109L276.136 373.355L274.389 373.823L275.133 376.599L275.626 376.466L279.371 375.463L279.438 375.445L277.906 369.726C277.787 369.283 277.497 368.905 277.099 368.675C276.702 368.446 276.229 368.384 275.786 368.502L273.604 369.087C273.746 368.652 273.755 368.185 273.629 367.745C273.469 367.146 273.079 366.635 272.544 366.322C272.009 366.009 271.372 365.92 270.771 366.074L269.099 366.522C268.737 366.585 268.363 366.512 268.052 366.315C267.741 366.118 267.514 365.813 267.416 365.458C267.329 365.106 267.362 364.734 267.51 364.403C267.643 364.183 267.752 363.95 267.834 363.706C268.173 362.805 268.222 361.821 267.976 360.891C267.812 360.259 267.515 359.67 267.104 359.163C266.693 358.656 266.178 358.244 265.594 357.954C265.594 357.954 265.543 357.967 265.53 357.917C262.52 356.447 258.949 355.63 256.973 351.365C256.159 351.179 255.411 350.773 254.811 350.191C254.211 349.609 253.782 348.874 253.571 348.066L254.232 347.889C254.492 348.874 255.13 349.717 256.007 350.235C256.291 350.417 256.603 350.552 256.93 350.633C257.827 350.811 258.756 350.73 259.609 350.399C260.318 350.117 260.948 349.665 261.443 349.084C262.807 349.123 264.134 349.545 265.27 350.303C266.406 351.06 267.306 352.121 267.868 353.366L270.35 352.396L272.009 348.152L262.71 338.565L262.485 338.293L258.05 337.089L254.916 330.142C254.205 330.391 253.602 330.878 253.209 331.52C252.816 332.163 252.657 332.922 252.76 333.668L252.838 336.335L252.772 336.353C252.271 336.559 251.74 336.782 251.253 337.038L250.763 336.148C250.799 336.127 250.839 336.116 250.88 336.116C251.204 335.922 251.578 335.777 251.909 335.608L252.372 335.43C251.986 334.458 251.593 333.56 251.199 332.59C250.726 332.797 250.242 332.999 249.776 333.231C249.309 333.464 249.06 333.602 248.733 333.788C248.087 334.143 247.462 334.535 246.861 334.962C247.646 336.087 248.369 337.246 249.139 338.348L249.128 338.306ZM259.561 341.693C259.41 341.732 259.251 341.709 259.116 341.632C258.982 341.554 258.883 341.427 258.84 341.277C258.8 341.127 258.821 340.966 258.899 340.831C258.977 340.695 259.106 340.597 259.256 340.556C259.407 340.516 259.568 340.537 259.703 340.615C259.838 340.693 259.937 340.822 259.977 340.973C260.015 341.123 259.993 341.283 259.915 341.417C259.838 341.552 259.711 341.651 259.561 341.693ZM252.825 337.423L252.84 338.315C249.532 339.759 246.834 342.316 245.215 345.543C243.596 348.769 243.159 352.461 243.979 355.976L244.082 356.361L244.468 357.799L246.86 366.728C246.932 367.114 247.077 367.482 247.286 367.814C247.307 367.855 247.333 367.893 247.361 367.929L242.119 369.333L241.447 366.825L242.4 366.57L242.875 368.342L245.91 367.529L244.749 363.198L240.762 364.267L240.09 361.759L241.043 361.503L241.518 363.276L244.552 362.463L243.45 358.349L243.385 358.107L239.473 359.155L239.287 358.461C239.159 357.985 239.029 357.5 238.958 357.035C238.927 356.918 238.886 356.767 238.855 356.65L239.835 356.495L239.846 356.537L239.873 356.637C239.913 356.737 239.941 356.841 239.956 356.947L240.014 357.164C240.117 357.549 240.225 357.95 240.328 358.335C241.306 358.072 242.314 357.856 243.316 357.615L243.123 356.896C243.007 356.461 242.899 356.06 242.875 355.6C242.8 355.138 242.753 354.672 242.734 354.204L242.683 353.546L238.626 353.79C238.619 353.461 238.602 353.098 238.611 352.764C238.601 352.235 238.621 351.706 238.671 351.18L239.596 351.29C239.608 351.341 239.606 351.394 239.593 351.444C239.593 351.444 239.613 351.519 239.62 351.544C239.599 351.935 239.571 352.301 239.567 352.687C239.612 352.854 239.558 353.021 239.578 353.195C240.569 353.18 241.624 353.238 242.645 353.269L242.651 352.524C242.658 352.083 242.686 351.618 242.732 351.221C242.778 350.823 242.83 350.451 242.901 350.046L243.071 349.176L239.1 348.368C239.154 348.102 239.238 347.847 239.29 347.573C239.323 347.494 239.343 347.41 239.349 347.324C239.494 346.828 239.669 346.343 239.84 345.813L240.73 346.193C240.727 346.259 240.711 346.324 240.683 346.384C240.559 346.758 240.425 347.126 240.341 347.48C240.282 347.645 240.235 347.813 240.198 347.984C241.162 348.237 242.146 348.564 243.123 348.867L243.316 348.251C243.432 347.787 243.583 347.334 243.768 346.893C243.908 346.502 244.068 346.118 244.248 345.743L244.587 345.034L240.97 343.207C241.086 342.97 241.208 342.758 241.33 342.546L241.744 341.817C241.941 341.513 242.142 341.226 242.351 340.937L243.136 341.525C242.99 341.716 242.861 341.903 242.732 342.09C242.602 342.277 242.304 342.769 242.12 343.15C242.991 343.66 243.876 344.221 244.754 344.756L245.144 344.105C245.352 343.744 245.617 343.396 245.84 343.022C246.062 342.649 246.421 342.248 246.736 341.886L247.14 341.42L244.08 338.727C244.442 338.329 244.825 337.951 245.228 337.595C245.467 337.351 245.732 337.101 246.003 336.876L246.617 337.662C246.567 337.675 246.525 337.686 246.511 337.735C246.196 337.998 245.915 338.253 245.632 338.535C245.492 338.68 245.349 338.817 245.234 338.955L247.354 341.183L247.927 340.644C248.226 340.358 248.541 340.094 248.872 339.826C249.204 339.558 249.525 339.32 249.836 339.075L250.534 338.637L248.272 335.211L249.191 334.66C249.661 334.409 250.127 334.176 250.604 333.95L250.995 334.84C250.41 335.131 249.848 335.407 249.299 335.733L249.569 336.172L250.842 338.447L251.551 338.051C251.978 337.838 252.377 337.624 252.828 337.431L252.825 337.423ZM246.154 382.285L247.082 382.036L246.504 379.879L247.231 379.684L248.065 382.794L245.557 383.466L245.301 382.513L246.154 382.285ZM256.228 379.585L257.123 379.345L256.545 377.188L257.281 376.991L258.114 380.101L255.656 380.76L255.401 379.807L256.228 379.585ZM251.212 380.929L252.107 380.69L251.529 378.533L252.264 378.335L253.098 381.445L250.59 382.118L250.334 381.164L251.212 380.929ZM266.303 376.886L267.205 376.644L266.628 374.487L267.363 374.29L268.197 377.4L265.688 378.072L265.433 377.119L266.303 376.886ZM261.286 378.23L262.206 377.983L261.628 375.826L262.339 375.636L263.172 378.746L260.706 379.407L260.45 378.454L261.286 378.23ZM276.377 374.186L277.305 373.938L276.727 371.781L277.438 371.59L278.271 374.7L275.805 375.361L275.549 374.408L276.377 374.186ZM271.361 375.53L272.264 375.289L271.686 373.132L272.421 372.934L273.255 376.044L270.746 376.716L270.491 375.763L271.361 375.53ZM251.905 332.284L251.93 332.376L251.905 332.284Z" fill="#FEFEFE"/>
<path d="M317.407 320.011C317.113 320.251 316.81 320.457 316.514 320.689C316.217 320.921 315.961 321.169 315.697 321.419L314.966 320.665L315.475 320.224L315.992 319.78L316.314 319.542C315.703 318.702 315.09 317.916 314.461 317.108C314.118 317.353 313.792 317.62 313.484 317.908C313.107 318.218 312.738 318.549 312.379 318.903C311.857 319.428 311.372 319.961 310.914 320.523C311.955 321.4 312.955 322.288 313.991 323.211L313.329 324.087C313.094 324.38 312.877 324.686 312.679 325.005L311.801 324.47L311.873 324.37C311.998 324.154 312.137 323.946 312.288 323.748C312.454 323.497 312.637 323.242 312.819 322.987C312.024 322.358 311.231 321.773 310.424 321.138L310.083 321.57C309.781 321.982 309.495 322.417 309.233 322.846L309.171 322.916C309.032 323.133 308.917 323.37 308.794 323.582C308.446 324.153 308.139 324.747 307.873 325.361L308.802 325.784L311.502 327.166C311.362 327.482 311.221 327.824 311.091 328.173C310.96 328.521 310.823 328.88 310.709 329.225L309.739 328.947C309.725 328.897 309.769 328.858 309.781 328.801C309.882 328.443 310.016 328.075 310.147 327.727C310.197 327.615 310.219 327.528 310.27 327.416L310.316 327.323C309.371 326.904 308.439 326.571 307.51 326.148C307.218 326.833 306.966 327.535 306.756 328.25C306.535 328.954 306.353 329.67 306.211 330.394C306.186 330.578 306.151 330.761 306.107 330.942C307.463 331.188 308.755 331.46 310.096 331.719L309.939 332.836L309.856 333.933L308.834 333.93C308.858 333.717 308.855 333.539 308.86 333.358L308.846 333.308C308.854 333.085 308.878 332.863 308.919 332.643C308.924 332.466 308.946 332.289 308.984 332.115C307.978 331.973 306.987 331.853 305.983 331.719L305.9 332.278C305.82 333.017 305.791 333.742 305.759 334.494C305.728 335.246 305.797 335.971 305.84 336.703C307.21 336.596 308.541 336.517 309.909 336.437C309.933 336.804 309.979 337.168 310.049 337.529C310.145 337.888 310.175 338.266 310.246 338.632L309.251 338.899C309.193 338.681 309.135 338.464 309.127 338.233C309.026 337.857 308.996 337.479 308.95 337.106C307.947 337.241 306.969 337.404 305.961 337.522C306.013 337.714 306.007 337.895 306.035 338.067C306.075 338.415 306.146 338.781 306.211 339.122C306.338 339.598 306.418 340.061 306.541 340.521C306.592 340.713 306.651 340.931 306.72 341.19L306.971 342.126L310.976 341.053L311.648 343.561L310.41 343.893L309.935 342.12L307.185 342.857L307.321 343.367L308.334 347.146L308.354 347.221L312.359 346.148L313.031 348.657L311.793 348.988L311.319 347.216L308.568 347.953L308.698 348.438L309.71 352.217L309.731 352.292L316.268 350.54C316.527 350.796 316.815 351.02 317.128 351.206C317.371 351.401 317.549 351.666 317.636 351.966C317.73 352.321 317.689 352.698 317.519 353.024C317.349 353.349 317.064 353.6 316.719 353.726L315.005 354.185C314.408 354.352 313.901 354.748 313.594 355.286C313.287 355.825 313.205 356.463 313.365 357.062C313.477 357.505 313.718 357.906 314.059 358.211L311.216 358.973C310.773 359.092 310.395 359.382 310.165 359.779C309.935 360.177 309.873 360.649 309.992 361.093L310.44 362.765L311.518 366.786L312.446 366.538L311.368 362.516L313.876 361.844L314.21 363.09L312.454 363.56L313.198 366.336L313.691 366.204L317.437 365.2L317.512 365.18L316.435 361.159L318.943 360.487L319.276 361.732L317.529 362.201L318.273 364.976L318.741 364.851L322.486 363.847L322.562 363.827L321.484 359.806L323.992 359.134L324.326 360.379L322.579 360.847L323.323 363.623L323.816 363.491L327.536 362.494L327.628 362.469L326.551 358.448L329.017 357.787L329.351 359.033L327.603 359.501L328.347 362.277L328.84 362.145L332.586 361.141L332.653 361.123L331.575 357.102L334.083 356.43L334.417 357.675L332.661 358.146L333.405 360.922L333.882 360.794L337.627 359.79L337.694 359.772L336.617 355.751L339.125 355.079L339.458 356.325L337.703 356.795L338.447 359.571L338.923 359.443L342.669 358.439L342.761 358.415L341.683 354.393L344.191 353.721L344.525 354.967L342.769 355.437L343.513 358.213L344.015 358.079L347.76 357.075L347.827 357.057L346.295 351.339C346.176 350.895 345.886 350.517 345.488 350.288C345.09 350.058 344.618 349.996 344.175 350.115L341.992 350.699C342.131 350.264 342.14 349.798 342.018 349.357C341.855 348.758 341.463 348.247 340.927 347.935C340.391 347.623 339.753 347.534 339.152 347.688L337.479 348.136C337.288 348.194 337.086 348.212 336.887 348.189C336.688 348.166 336.496 348.103 336.322 348.004C336.148 347.905 335.996 347.772 335.875 347.612C335.754 347.453 335.667 347.27 335.618 347.076C335.526 346.717 335.571 346.338 335.745 346.011C335.86 345.796 335.962 345.574 336.051 345.347C336.469 344.3 336.479 343.135 336.081 342.081C335.682 341.027 334.903 340.16 333.898 339.651L333.834 339.615C330.824 338.145 327.253 337.328 325.269 333.065C324.807 332.951 324.365 332.767 323.958 332.521C323.448 332.216 323.002 331.814 322.646 331.337C322.291 330.861 322.033 330.318 321.888 329.742L322.531 329.569C322.658 330.058 322.88 330.517 323.185 330.92C323.49 331.323 323.871 331.661 324.307 331.916C324.588 332.099 324.896 332.234 325.221 332.317C326.118 332.492 327.047 332.411 327.9 332.083C328.61 331.8 329.239 331.349 329.734 330.767C331.1 330.804 332.428 331.226 333.565 331.983C334.703 332.739 335.605 333.801 336.167 335.047L338.65 334.077L340.308 329.833L331.01 320.246L330.785 319.974L326.341 318.773L323.195 311.847C322.483 312.094 321.879 312.581 321.485 313.224C321.092 313.867 320.935 314.626 321.039 315.372L321.118 318.04L321.051 318.058C320.542 318.266 320.019 318.486 319.532 318.742L319.034 317.854C319.07 317.835 319.11 317.824 319.151 317.823C319.458 317.633 319.823 317.49 320.163 317.319L320.626 317.141C320.24 316.169 319.847 315.271 319.461 314.299C318.988 314.506 318.504 314.708 318.029 314.942C317.671 315.11 317.322 315.311 316.987 315.499C316.342 315.857 315.717 316.248 315.115 316.673C315.9 317.798 316.623 318.957 317.402 320.057L317.407 320.011ZM327.84 323.398C327.689 323.436 327.528 323.415 327.392 323.337C327.256 323.26 327.156 323.134 327.111 322.984C327.079 322.906 327.065 322.821 327.068 322.737C327.072 322.653 327.093 322.57 327.131 322.494C327.168 322.419 327.222 322.352 327.287 322.299C327.353 322.245 327.429 322.206 327.51 322.184C327.592 322.162 327.677 322.158 327.761 322.172C327.844 322.185 327.924 322.216 327.994 322.263C328.065 322.309 328.124 322.37 328.17 322.442C328.215 322.513 328.244 322.593 328.256 322.677C328.294 322.828 328.272 322.987 328.194 323.122C328.117 323.256 327.99 323.355 327.84 323.398ZM321.104 319.127L321.111 320.022C317.803 321.466 315.106 324.023 313.489 327.249C311.872 330.475 311.436 334.167 312.258 337.681L312.361 338.065L312.747 339.503L315.139 348.432C315.205 348.821 315.356 349.191 315.581 349.514C315.581 349.559 315.592 349.602 315.615 349.64L310.423 351.031L309.751 348.523L310.696 348.27L311.171 350.042L314.206 349.229L313.045 344.898L309.066 345.964L308.394 343.456L309.338 343.203L309.813 344.976L312.848 344.162L311.746 340.049L311.681 339.807L307.777 340.853L307.591 340.159C307.463 339.682 307.333 339.197 307.254 338.735C307.223 338.618 307.182 338.467 307.151 338.35L308.123 338.197L308.134 338.239L308.161 338.34C308.201 338.439 308.228 338.543 308.243 338.649L308.302 338.866C308.405 339.251 308.512 339.652 308.615 340.037C309.585 339.777 310.593 339.56 311.595 339.319L311.402 338.6C311.286 338.165 311.229 337.75 311.162 337.302C311.085 336.841 311.035 336.376 311.013 335.909L310.962 335.25L306.914 335.493C306.906 335.163 306.881 334.802 306.89 334.468C306.888 333.937 306.917 333.406 306.975 332.878L307.901 332.988C307.909 333.04 307.905 333.093 307.888 333.144C307.888 333.144 307.909 333.219 307.915 333.244C307.886 333.637 307.859 334.003 307.863 334.387C307.854 334.556 307.858 334.726 307.874 334.895C308.856 334.882 309.911 334.94 310.94 334.969L310.947 334.224C310.954 333.783 310.982 333.318 311.028 332.921C311.073 332.523 311.126 332.151 311.197 331.746L311.367 330.876L307.387 330.07C307.45 329.802 307.534 329.547 307.586 329.273C307.615 329.193 307.635 329.109 307.645 329.024C307.79 328.528 307.964 328.043 308.136 327.513L309.026 327.892C309.015 327.957 308.999 328.022 308.979 328.084C308.846 328.443 308.732 328.809 308.636 329.18C308.575 329.343 308.527 329.512 308.494 329.684C309.457 329.936 310.441 330.264 311.418 330.567L311.612 329.951C311.725 329.488 311.873 329.035 312.055 328.595C312.208 328.196 312.359 327.824 312.535 327.445L312.882 326.734L309.266 324.907C309.381 324.67 309.504 324.458 309.626 324.246L310.04 323.517C310.237 323.213 310.438 322.926 310.638 322.64L311.431 323.225C311.277 323.418 311.148 323.605 311.027 323.79C310.815 324.134 310.6 324.469 310.415 324.85C311.295 325.358 312.18 325.918 313.058 326.454L313.44 325.805C313.648 325.444 313.913 325.096 314.144 324.72C314.375 324.345 314.725 323.946 315.032 323.586L315.444 323.117L312.409 320.418C312.758 320.018 313.133 319.642 313.532 319.293C313.775 319.041 314.031 318.802 314.299 318.576L314.921 319.359C314.871 319.373 314.821 319.386 314.807 319.435C314.5 319.696 314.211 319.953 313.936 320.233C313.796 320.378 313.653 320.515 313.538 320.653L315.658 322.881L316.222 322.344C316.53 322.055 316.837 321.794 317.177 321.524C317.516 321.254 317.829 321.017 318.14 320.773L318.838 320.335L316.576 316.909L317.495 316.358C317.957 316.109 318.431 315.874 318.9 315.65L319.291 316.54C318.706 316.831 318.152 317.105 317.603 317.431L317.873 317.87L319.121 320.152L319.822 319.758C320.248 319.545 320.648 319.33 321.107 319.136L321.104 319.127ZM314.433 363.989L315.353 363.743L314.775 361.586L315.51 361.388L316.344 364.498L313.836 365.171L313.58 364.217L314.433 363.989ZM324.465 361.301L325.393 361.052L324.816 358.895L325.526 358.705L326.359 361.815L323.851 362.487L323.596 361.534L324.465 361.301ZM319.449 362.645L320.352 362.403L319.774 360.246L320.51 360.049L321.343 363.159L318.835 363.831L318.58 362.878L319.449 362.645ZM334.548 358.599L335.451 358.357L334.873 356.2L335.609 356.003L336.442 359.113L333.934 359.785L333.679 358.832L334.548 358.599ZM329.532 359.943L330.46 359.695L329.882 357.538L330.593 357.347L331.426 360.457L328.96 361.118L328.704 360.165L329.532 359.943ZM344.631 355.897L345.55 355.651L344.972 353.494L345.692 353.301L346.525 356.411L344.059 357.072L343.803 356.119L344.631 355.897ZM339.615 357.242L340.517 357L339.94 354.843L340.675 354.645L341.509 357.756L339 358.428L338.745 357.475L339.615 357.242Z" fill="#FEFEFE"/>
<path d="M245.362 43.6755C245.724 43.7063 246.085 43.7563 246.442 43.8253C246.814 43.8778 247.168 43.9622 247.539 44.042L247.778 43.0281L247.131 42.8878L246.436 42.7693L246.072 42.7146L246.005 42.7325C246.131 41.6953 246.278 40.7061 246.38 39.684L247.652 39.8809C248.136 39.9841 248.602 40.0833 249.085 40.2137C249.8 40.4075 250.522 40.6263 251.198 40.8752C250.726 42.1576 250.329 43.4198 249.896 44.7456C250.243 44.8587 250.58 44.9991 250.905 45.1653C251.247 45.3065 251.594 45.4644 251.927 45.6352L252.428 44.7303C252.38 44.7225 252.336 44.6997 252.303 44.6652C252.079 44.564 251.867 44.4416 251.636 44.351C251.406 44.2604 251.082 44.0874 250.773 43.9729C251.154 43.0196 251.573 42.1098 251.956 41.1648C252.123 41.2187 252.299 41.306 252.466 41.3599C252.925 41.5684 253.365 41.8088 253.835 42.0234L253.947 42.074C254.159 42.1964 254.396 42.3121 254.607 42.4618C255.179 42.7923 255.761 43.1563 256.29 43.5253L255.71 44.3706L254.029 46.9268C254.332 47.1232 254.628 47.3576 254.913 47.5858C255.199 47.8141 255.484 48.078 255.744 48.313L256.446 47.5873L256.348 47.4882C256.074 47.2244 255.786 46.9755 255.485 46.7427C255.393 46.6762 255.304 46.6041 255.221 46.5267L255.153 46.4732C255.748 45.6507 256.386 44.8883 256.995 44.053C257.576 44.5156 258.141 44.9827 258.699 45.4961C259.243 45.9994 259.759 46.531 260.246 47.0888C260.378 47.2181 260.502 47.3556 260.616 47.5004C259.577 48.3703 258.592 49.2434 257.566 50.1635C257.798 50.4598 258.03 50.7562 258.237 51.0592C258.468 51.3492 258.679 51.6551 258.867 51.9745L259.733 51.4288C259.647 51.2677 259.546 51.1148 259.432 50.9719L259.418 50.9218L259.035 50.3613C258.93 50.2371 258.835 50.0834 258.722 49.9614C259.515 49.3098 260.328 48.7334 261.128 48.1069L261.472 48.5526C261.878 49.1336 262.307 49.7625 262.677 50.4072C263.056 51.0427 263.402 51.6977 263.713 52.3696C262.497 52.9464 261.333 53.5182 260.073 54.1335C260.219 54.4796 260.358 54.8279 260.504 55.1739C260.651 55.52 260.764 55.875 260.885 56.2278L261.855 55.9679C261.797 55.7506 261.741 55.5416 261.682 55.3242C261.529 54.953 261.408 54.6003 261.261 54.2542C262.201 53.85 263.101 53.5283 264.058 53.1196L264.274 53.6262C264.364 53.9606 264.52 54.2771 264.641 54.6298C264.763 54.9826 264.943 55.5528 265.063 56.0042C265.115 56.1965 265.173 56.4139 265.243 56.6731L265.494 57.6094L261.514 58.6758L262.186 61.1839L263.39 60.8613L262.915 59.0889L265.691 58.3452L265.825 58.8468L266.838 62.6257L266.858 62.7009L262.878 63.7673L263.55 66.2754L264.754 65.9528L264.279 64.1804L267.055 63.4367L267.183 63.9132L268.195 67.6921L268.215 67.7674L261.694 69.5147C261.585 69.8608 261.447 70.1973 261.283 70.521C261.16 70.8095 261.139 71.1311 261.223 71.4332C261.317 71.7852 261.539 72.0896 261.846 72.2873C262.152 72.485 262.521 72.562 262.88 72.5034L264.611 72.0396C265.212 71.8858 265.848 71.975 266.384 72.288C266.919 72.6009 267.309 73.1123 267.469 73.7111C267.581 74.1515 267.575 74.6135 267.452 75.0509L270.294 74.2892C270.738 74.1704 271.21 74.2326 271.608 74.4621C272.006 74.6917 272.296 75.0698 272.415 75.5133L272.863 77.1853L273.94 81.2067L273.046 81.4464L271.968 77.425L269.46 78.0971L269.787 79.3177L271.543 78.8473L272.293 81.648L271.817 81.7757L268.071 82.7793L267.979 82.8039L266.902 78.7826L264.394 79.4546L264.721 80.6752L266.476 80.2048L267.227 83.0056L266.725 83.14L262.846 84.1794L262.779 84.1973L261.701 80.176L259.235 80.8368L259.562 82.0574L261.318 81.587L262.068 84.3877L261.567 84.5222L257.821 85.5258L257.754 85.5437L256.677 81.5223L254.169 82.1944L254.496 83.415L256.251 82.9445L257.002 85.7453L256.525 85.873L252.78 86.8766L252.713 86.8945L251.636 82.8731L249.127 83.5452L249.454 84.7658L251.21 84.2954L251.961 87.0961L251.467 87.2283L247.739 88.2274L247.647 88.252L246.569 84.2307L244.103 84.8915L244.43 86.1121L246.186 85.6417L246.936 88.4425L246.443 88.5746L242.697 89.5782L242.622 89.5984L241.544 85.577L239.036 86.2491L239.363 87.4697L241.111 87.0015L241.861 89.8022L241.393 89.9277L237.648 90.9313L237.572 90.9514L236.038 85.2245C235.919 84.7811 235.981 84.3086 236.211 83.911C236.44 83.5134 236.818 83.2232 237.262 83.1044L239.436 82.522C239.092 82.2177 238.846 81.8197 238.726 81.3771C238.566 80.7741 238.652 80.1326 238.964 79.5924C239.276 79.0523 239.788 78.6574 240.39 78.4937L242.062 78.0457C242.403 77.9166 242.684 77.6655 242.851 77.3412C243.017 77.0168 243.057 76.6422 242.963 76.29C242.864 75.943 242.65 75.64 242.356 75.431C242.142 75.2957 241.94 75.1432 241.75 74.9751C240.868 74.275 240.278 73.2704 240.098 72.1583C239.918 71.0462 240.16 69.9069 240.776 68.9638C240.776 68.9638 240.776 68.9638 240.804 68.9024C242.651 66.0958 245.361 63.6042 244.92 58.9465C245.276 58.6202 245.576 58.237 245.808 57.8125C246.38 56.7661 246.526 55.5393 246.216 54.3876L245.556 54.5646C245.697 55.0482 245.74 55.5553 245.681 56.0558C245.623 56.5563 245.465 57.0399 245.216 57.4781C245.053 57.7718 244.851 58.0427 244.617 58.284C243.931 58.8906 243.085 59.2855 242.179 59.4209C241.417 59.5323 240.64 59.4612 239.911 59.2134C238.753 59.9319 237.821 60.961 237.22 62.1834C236.619 63.4059 236.374 64.7726 236.512 66.1277L233.863 66.5061L230.392 63.6188L233.68 50.6766L233.74 50.3292L236.956 47.0838L236.249 39.4954C236.987 39.3534 237.751 39.4738 238.409 39.8358C239.067 40.1978 239.578 40.7786 239.854 41.4776L241.136 43.8222L241.186 43.8087C241.75 43.7384 242.286 43.6664 242.846 43.6506L242.823 42.6265C242.823 42.6265 242.756 42.6444 242.692 42.6077L241.52 42.7156C241.364 42.7264 241.208 42.7501 241.056 42.7864L241.005 42.7998C240.86 41.7903 240.752 40.8158 240.625 39.7745C241.144 39.707 241.658 39.65 242.184 39.6076C242.581 39.582 242.965 39.5777 243.368 39.5772C244.096 39.5665 244.823 39.5929 245.548 39.656C245.456 41.0159 245.384 42.3881 245.296 43.7291L245.362 43.6755ZM238.021 51.8255C238.17 51.7808 238.297 51.6799 238.374 51.5441C238.451 51.4082 238.473 51.2478 238.434 51.0963C238.415 51.0206 238.381 50.9496 238.335 50.8871C238.288 50.8247 238.229 50.7722 238.162 50.7327C238.095 50.6932 238.02 50.6675 237.943 50.657C237.865 50.6465 237.787 50.6516 237.711 50.6718C237.635 50.6897 237.563 50.7234 237.5 50.7706C237.437 50.8177 237.384 50.8774 237.345 50.9459C237.306 51.0144 237.282 51.0901 237.274 51.1685C237.266 51.2468 237.274 51.3259 237.297 51.401C237.317 51.4766 237.35 51.5477 237.397 51.6101C237.444 51.6726 237.503 51.725 237.57 51.7646C237.637 51.8041 237.712 51.8298 237.789 51.8403C237.867 51.8507 237.945 51.8457 238.021 51.8255ZM241.708 44.7531L242.149 45.5309C245.739 45.1367 249.353 46.0114 252.364 48.0033C255.376 49.9951 257.596 52.9785 258.638 56.4357L258.741 56.8203L259.124 58.2499L261.516 67.1788C261.642 67.5544 261.696 67.9501 261.677 68.3456C261.685 68.3852 261.695 68.4243 261.708 68.4626L266.866 67.0804L266.194 64.5723L265.25 64.8254L265.725 66.5978L262.665 67.4177L261.498 63.0619L265.502 61.9889L264.83 59.4808L263.885 59.7339L264.358 61.498L261.298 62.3179L260.196 58.2045L260.131 57.9621L264.044 56.9137L264.006 56.7716C263.961 56.6044 263.916 56.4371 263.858 56.2198C263.73 55.7432 263.602 55.2667 263.429 54.8203C263.391 54.6782 263.36 54.5611 263.271 54.4324L262.383 54.7959L262.421 54.9381C262.462 55.0372 262.49 55.1412 262.504 55.2474C262.535 55.3162 262.555 55.3896 262.562 55.4647C262.665 55.8493 262.768 56.2339 262.876 56.6352C261.906 56.8951 260.925 57.2118 259.93 57.4784L259.737 56.7594C259.617 56.3389 259.474 55.9257 259.307 55.5216C259.145 55.081 258.96 54.649 258.754 54.2271L258.478 53.6649L262.102 51.8424C261.953 51.551 261.763 51.2435 261.588 50.9588L261.574 50.9086C261.298 50.4451 261.003 50.0133 260.706 49.5732L259.959 50.1316C259.973 50.1818 259.986 50.232 260.05 50.2687C260.114 50.3054 260.068 50.3356 260.125 50.3472C260.338 50.6753 260.52 50.9851 260.733 51.3133C260.809 51.4654 260.894 51.6133 260.986 51.7562C260.098 52.254 259.236 52.8165 258.368 53.3539L257.964 52.7182C257.74 52.3483 257.481 51.9516 257.243 51.6302C257.004 51.3088 256.772 51.0125 256.534 50.6911L255.946 50.0333L258.964 47.3518C258.791 47.1409 258.603 46.9426 258.402 46.7587C258.35 46.6902 258.292 46.6278 258.226 46.5727C257.835 46.1846 257.437 45.8343 257.043 45.5009L256.438 46.2543C256.49 46.3022 256.544 46.3476 256.6 46.3901C256.892 46.6434 257.167 46.9013 257.445 47.1674C257.575 47.2849 257.68 47.4091 257.818 47.5243C257.11 48.2249 256.422 49.0007 255.67 49.7398L255.226 49.3211C254.876 48.9847 254.514 48.6696 254.158 48.3795C253.803 48.0895 253.49 47.8596 253.165 47.6152L252.494 47.1856L254.728 43.7825L254.093 43.388L253.347 42.9785C253.048 42.7988 252.723 42.6531 252.401 42.4884L252.004 43.3832C252.215 43.5011 252.432 43.6075 252.654 43.7019C253.008 43.8849 253.339 44.083 253.714 44.3139C253.189 45.1983 252.72 46.1216 252.227 47.0243L251.574 46.6615C251.187 46.4518 250.801 46.2504 250.406 46.0786C250.01 45.9068 249.547 45.7172 249.086 45.536L248.503 45.3338L249.782 41.4785C249.28 41.3085 248.757 41.162 248.229 40.9987C247.882 40.9394 247.527 40.8551 247.18 40.7959L247.041 41.7829C247.093 41.7747 247.147 41.7788 247.197 41.795C247.576 41.8726 247.972 41.9457 248.358 42.0484C248.537 42.1032 248.719 42.1471 248.904 42.1798L248.163 45.2009L247.398 45.0206C246.992 44.911 246.579 44.824 246.163 44.7601L244.954 44.6272L244.155 44.5545L244.385 40.4965L243.336 40.4637C242.803 40.4811 242.279 40.4962 241.732 40.5621L241.841 41.5365C242.491 41.4878 243.116 41.4458 243.754 41.454L243.767 41.9702L243.828 44.5705L242.99 44.5888C242.522 44.5904 242.054 44.62 241.589 44.6775L241.708 44.7531ZM269.9 80.2732L268.997 80.5151L268.421 78.3665L267.685 78.5636L268.519 81.6737L271.027 81.0017L270.769 80.0402L269.9 80.2732ZM259.867 82.9614L258.939 83.2101L258.363 81.0614L257.636 81.2563L258.469 84.3664L260.978 83.6943L260.72 82.7329L259.867 82.9614ZM264.883 81.6173L263.955 81.866L263.38 79.7173L262.669 79.9077L263.502 83.0178L266.01 82.3458L265.753 81.3843L264.883 81.6173ZM249.784 85.663L248.865 85.9095L248.289 83.7608L247.578 83.9512L248.412 87.0613L250.87 86.4027L250.612 85.4413L249.784 85.663ZM254.801 84.3189L253.906 84.5586L253.33 82.41L252.595 82.6071L253.428 85.7172L255.936 85.0452L255.679 84.0837L254.801 84.3189ZM239.71 88.3624L238.765 88.6156L238.19 86.467L237.454 86.6641L238.287 89.7742L240.795 89.1021L240.538 88.1407L239.71 88.3624ZM244.726 87.0183L243.807 87.2648L243.231 85.1161L242.52 85.3065L243.354 88.4166L245.82 87.7558L245.562 86.7943L244.726 87.0183Z" fill="black"/>
<path d="M177.04 61.9823C177.403 62.0097 177.764 62.0597 178.12 62.1321C178.492 62.1846 178.847 62.2689 179.226 62.3466L179.456 61.3349L178.81 61.1946L178.123 61.0739L177.751 61.0214L177.7 61.0348C177.834 59.9954 177.973 59.0084 178.075 57.9863L179.355 58.181C179.84 58.2841 180.305 58.3834 180.788 58.5138C181.495 58.7098 182.217 58.9286 182.893 59.1776C182.421 60.4599 182.024 61.7221 181.591 63.0479C181.937 63.1638 182.274 63.304 182.6 63.4676C182.942 63.6088 183.289 63.7668 183.622 63.9375L184.115 63.0348C184.069 63.0266 184.028 63.0028 183.998 62.9675C183.765 62.8685 183.553 62.7461 183.331 62.6533C183.109 62.5605 182.777 62.3897 182.46 62.2775C182.841 61.3242 183.26 60.4143 183.643 59.4694C183.81 59.5233 183.986 59.6106 184.127 59.6712C184.611 59.873 185.061 60.1111 185.522 60.328L185.634 60.3786C185.846 60.501 186.083 60.6167 186.302 60.7641C186.874 61.0946 187.456 61.4586 187.985 61.8276L187.396 62.6752L185.728 65.2458C186.04 65.44 186.328 65.6766 186.621 65.9026C186.915 66.1286 187.184 66.397 187.452 66.6298L188.154 65.9041C188.141 65.854 188.084 65.8423 188.047 65.8072C187.775 65.5368 187.481 65.289 187.168 65.0662C187.091 64.9793 186.998 64.9326 186.929 64.8435L186.861 64.79C187.473 63.963 188.111 63.2007 188.72 62.3653C189.309 62.8165 189.872 63.2998 190.407 63.8129C190.961 64.3109 191.486 64.8404 191.979 65.3989C192.108 65.529 192.229 65.6672 192.341 65.8127C191.302 66.6826 190.292 67.5625 189.299 68.4736C189.531 68.7699 189.763 69.0662 189.97 69.3693C190.198 69.6602 190.406 69.9668 190.592 70.2868L191.466 69.7388C191.372 69.5851 191.277 69.4313 191.165 69.282L190.782 68.7216C190.677 68.5974 190.582 68.4436 190.477 68.3194C191.27 67.6678 192.075 67.0937 192.875 66.4672C192.987 66.6164 193.107 66.7635 193.202 66.9173C193.616 67.4961 194.036 68.1272 194.415 68.7696C194.793 69.412 195.138 70.0634 195.451 70.732C194.227 71.3111 193.071 71.8806 191.803 72.4982C191.949 72.8443 192.096 73.1904 192.234 73.5387C192.38 73.8826 192.501 74.2362 192.598 74.597L193.593 74.3304C193.535 74.1131 193.479 73.904 193.42 73.6867C193.267 73.3155 193.154 72.9605 193.008 72.6144C193.939 72.2124 194.847 71.8885 195.804 71.4798C195.849 71.647 195.942 71.8281 196.012 71.9886C196.102 72.323 196.266 72.6373 196.388 72.9901C196.509 73.3429 196.639 73.9265 196.76 74.3779L196.946 75.0718L197.197 76.0082L193.217 77.0745L193.889 79.5826L195.101 79.2578L194.626 77.4854L197.394 76.7439L197.528 77.2455L198.541 81.0244L198.561 81.0997L194.581 82.166L195.253 84.6741L196.466 84.3493L195.991 82.5769L198.758 81.8354L198.886 82.312L199.898 86.0909L199.918 86.1661L193.247 87.9538C193.153 88.3015 193.021 88.6375 192.852 88.9556C192.733 89.245 192.712 89.5653 192.792 89.8678C192.887 90.2198 193.109 90.5242 193.415 90.7219C193.721 90.9196 194.09 90.9966 194.45 90.9379L196.18 90.4742C196.782 90.3202 197.419 90.4089 197.956 90.7213C198.492 91.0336 198.884 91.5444 199.047 92.1434C199.166 92.5879 199.148 93.0579 198.996 93.4922L201.864 92.7238C202.307 92.605 202.78 92.6672 203.177 92.8968C203.575 93.1263 203.865 93.5044 203.984 93.9479L204.432 95.62L205.509 99.6413L204.598 99.8855L203.521 95.8641L201.012 96.5362L201.339 97.7568L203.095 97.2864L203.846 100.087L203.369 100.215L199.624 101.218L199.532 101.243L198.454 97.2217L195.988 97.8825L196.315 99.1031L198.071 98.6327L198.821 101.433L198.328 101.566L194.582 102.569L194.507 102.589L193.43 98.568L190.921 99.2401L191.248 100.461L193.004 99.9902L193.755 102.791L193.261 102.923L189.516 103.927L189.441 103.947L188.363 99.9256L185.855 100.598L186.182 101.818L187.929 101.35L188.68 104.151L188.212 104.276L184.466 105.28L184.391 105.3L183.313 101.279L180.805 101.951L181.132 103.171L182.88 102.703L183.63 105.504L183.137 105.636L179.391 106.64L179.325 106.658L178.247 102.636L175.781 103.297L176.108 104.518L177.855 104.049L178.606 106.85L178.112 106.982L174.367 107.986L174.3 108.004L173.222 103.983L170.714 104.655L171.041 105.875L172.797 105.405L173.547 108.205L173.071 108.333L169.325 109.337L169.259 109.355L167.724 103.628C167.605 103.184 167.667 102.712 167.897 102.314C168.127 101.917 168.505 101.627 168.948 101.508L171.13 100.923C170.782 100.623 170.531 100.225 170.412 99.7803C170.253 99.1802 170.337 98.5418 170.646 98.0031C170.954 97.4644 171.462 97.0687 172.06 96.9015L173.79 96.4377C174.131 96.3087 174.412 96.0576 174.579 95.7332C174.745 95.4089 174.785 95.0343 174.691 94.6821C174.592 94.3334 174.375 94.0302 174.076 93.8253C173.862 93.69 173.659 93.5375 173.47 93.3694C172.587 92.6693 171.998 91.6647 171.818 90.5526C171.638 89.4405 171.879 88.3012 172.496 87.3581C172.496 87.3581 172.496 87.3581 172.532 87.2945C174.37 84.4901 177.081 81.9985 176.648 77.3385C177.002 77.0105 177.302 76.6276 177.536 76.2046C178.105 75.1579 178.249 73.9317 177.936 72.7819L177.275 72.9589C177.421 73.442 177.465 73.9497 177.407 74.4508C177.349 74.9518 177.188 75.4357 176.936 75.8724C176.775 76.1676 176.573 76.4388 176.336 76.6782C175.65 77.2836 174.804 77.6784 173.899 77.8152C173.14 77.9242 172.365 77.8524 171.639 77.6055C170.48 78.3238 169.547 79.3529 168.944 80.5756C168.342 81.7984 168.095 83.1657 168.232 84.5219L165.591 84.8981L162.112 81.9144L165.401 68.9722L165.46 68.6248L168.685 65.3771L167.969 57.791C168.707 57.6489 169.471 57.7694 170.129 58.1314C170.788 58.4934 171.299 59.0741 171.574 59.7732L172.864 62.1155C173.415 62.0345 173.969 61.9817 174.525 61.9574L174.51 60.931C174.51 60.931 174.434 60.9512 174.371 60.9145L173.235 61.0218C173.078 61.0326 172.922 61.0563 172.77 61.0926L172.719 61.106C172.583 60.0942 172.474 59.1198 172.347 58.0784C172.858 58.0132 173.38 57.954 173.898 57.9138C174.416 57.8736 174.679 57.8839 175.082 57.8834C175.81 57.8714 176.537 57.8977 177.262 57.9622C177.17 59.3221 177.098 60.6943 177.01 62.0353L177.04 61.9823ZM169.699 70.1323C169.849 70.0876 169.975 69.9867 170.052 69.8509C170.13 69.715 170.151 69.5546 170.113 69.4031C170.094 69.3274 170.06 69.2563 170.013 69.1939C169.966 69.1315 169.907 69.079 169.84 69.0395C169.773 69 169.698 68.9743 169.621 68.9638C169.544 68.9533 169.465 68.9584 169.39 68.9786C169.313 68.9965 169.241 69.0302 169.178 69.0774C169.115 69.1245 169.062 69.1842 169.023 69.2527C168.985 69.3212 168.96 69.3969 168.952 69.4753C168.944 69.5536 168.952 69.6327 168.976 69.7078C168.995 69.7834 169.029 69.8545 169.076 69.9169C169.122 69.9794 169.181 70.0318 169.249 70.0713C169.316 70.1108 169.39 70.1366 169.468 70.147C169.545 70.1575 169.624 70.1525 169.699 70.1323ZM173.395 63.0577L173.828 63.8377C177.419 63.4371 181.037 64.307 184.053 66.2963C187.069 68.2856 189.293 71.2687 190.339 74.7274L190.442 75.112L190.825 76.5416L193.218 85.4705C193.33 85.849 193.384 86.2424 193.378 86.6373C193.386 86.6769 193.396 86.716 193.409 86.7543L198.601 85.3632L197.929 82.855L196.976 83.1104L197.451 84.8828L194.399 85.7005L193.232 81.3447L197.237 80.2717L196.565 77.7635L195.612 78.0189L196.084 79.783L193.033 80.6006L191.931 76.4873L191.866 76.2448L195.77 75.1987L195.732 75.0566C195.687 74.8893 195.642 74.7221 195.584 74.5048C195.456 74.0282 195.329 73.5517 195.155 73.1053C195.117 72.9632 195.086 72.8461 195.048 72.704L194.151 73.0697L194.189 73.2118C194.23 73.311 194.258 73.415 194.272 73.5212C194.292 73.5964 194.312 73.6717 194.33 73.7385C194.433 74.1231 194.536 74.5077 194.644 74.909C193.674 75.1689 192.668 75.4923 191.689 75.7544L191.497 75.0354C191.374 74.6156 191.228 74.2031 191.058 73.7999C190.899 73.3586 190.717 72.9258 190.514 72.5031L190.229 71.9431L193.862 70.1184C193.679 69.836 193.522 69.5195 193.339 69.237L193.326 69.1869C193.049 68.7233 192.763 68.2893 192.466 67.8492L191.719 68.4077C191.733 68.4578 191.746 68.508 191.81 68.5447C191.873 68.5814 191.828 68.6116 191.834 68.6367C192.048 68.9648 192.238 69.2723 192.451 69.6005C192.524 69.7533 192.606 69.902 192.696 70.0457C191.816 70.5413 190.946 71.106 190.077 71.6434L189.674 71.0077C189.449 70.6378 189.191 70.2411 188.952 69.9197C188.714 69.5983 188.482 69.3019 188.218 68.9872L187.663 68.3205L190.682 65.6391C190.503 65.4312 190.313 65.2339 190.111 65.0482C190.063 64.9773 190.004 64.9146 189.936 64.8622C189.553 64.4718 189.155 64.1216 188.753 63.7903L188.14 64.546C188.203 64.5827 188.238 64.6451 188.301 64.6818C188.602 64.9329 188.868 65.193 189.146 65.4591C189.27 65.5723 189.386 65.6938 189.494 65.8228C188.786 66.5234 188.098 67.2992 187.396 68.0248L186.952 67.6061C186.614 67.2727 186.258 66.9583 185.885 66.6645C185.561 66.3928 185.217 66.1446 184.9 65.898L184.221 65.4706L186.462 62.0653L185.82 61.673L185.074 61.2635C184.775 61.0838 184.457 60.9358 184.135 60.7712L183.739 61.666C183.947 61.7845 184.161 61.8916 184.38 61.9869C184.734 62.1699 185.065 62.368 185.44 62.5989C184.916 63.4833 184.455 64.4043 183.962 65.307L183.301 64.9465C182.913 64.7368 182.536 64.5332 182.132 64.3636C181.728 64.194 181.273 64.0022 180.821 63.8188L180.23 63.6188L181.509 59.7635C181.006 59.5935 180.525 59.4357 179.955 59.2837C179.608 59.2244 179.262 59.1379 178.915 59.0786L178.768 60.0679C178.82 60.0583 178.873 60.0624 178.923 60.08C179.302 60.1576 179.707 60.2284 180.084 60.3334C180.263 60.3882 180.446 60.4321 180.63 60.4648L179.889 63.4859L179.133 63.3034C178.723 63.1946 178.308 63.1083 177.89 63.0451L176.689 62.9099L175.881 62.8395L176.111 58.7815C175.783 58.7618 175.424 58.7594 175.038 58.7554C174.513 58.7587 173.988 58.7886 173.467 58.8448L173.575 59.8193C174.217 59.7728 174.842 59.7308 175.48 59.739L175.493 60.2552L175.554 62.8555L174.725 62.8716C174.256 62.8731 173.789 62.9028 173.324 62.9602L173.395 63.0577ZM201.578 98.58L200.683 98.8197L200.108 96.6711L199.372 96.8682L200.205 99.9783L202.713 99.3062L202.456 98.3448L201.578 98.58ZM191.545 101.268L190.626 101.515L190.05 99.366L189.314 99.5631L190.148 102.673L192.656 102.001L192.398 101.04L191.545 101.268ZM196.562 99.9241L195.642 100.171L195.066 98.0219L194.356 98.2123L195.189 101.322L197.697 100.65L197.44 99.6889L196.562 99.9241ZM181.471 103.968L180.543 104.216L179.967 102.068L179.257 102.258L180.09 105.368L182.598 104.696L182.341 103.735L181.471 103.968ZM186.487 102.623L185.584 102.865L185.009 100.717L184.273 100.914L185.106 104.024L187.615 103.352L187.357 102.391L186.487 102.623ZM171.388 106.669L170.486 106.911L169.91 104.763L169.174 104.96L170.007 108.07L172.516 107.398L172.258 106.436L171.388 106.669ZM176.405 105.325L175.477 105.574L174.901 103.425L174.19 103.616L175.024 106.726L177.49 106.065L177.232 105.103L176.405 105.325Z" fill="black"/>
<path d="M108.769 80.2755C109.132 80.3063 109.492 80.3563 109.849 80.4253C110.213 80.4801 110.567 80.5644 110.947 80.642L111.186 79.6281L110.539 79.4878L109.844 79.3693L109.471 79.3168C109.597 78.2796 109.735 77.2926 109.846 76.2683L111.118 76.4653C111.602 76.5684 112.068 76.6676 112.551 76.7981C113.266 76.9918 113.963 77.2173 114.664 77.4596C114.192 78.7419 113.795 80.0041 113.362 81.3299C113.709 81.443 114.046 81.5834 114.371 81.7496C114.713 81.8908 115.06 82.0488 115.393 82.2195L115.885 81.3168C115.841 81.3054 115.801 81.2822 115.769 81.2495C115.536 81.1505 115.333 81.0259 115.102 80.9353C114.872 80.8447 114.548 80.6717 114.239 80.5572C114.62 79.6039 115.031 78.6963 115.414 77.7514C115.581 77.8053 115.756 77.8926 115.898 77.9532C116.391 78.1528 116.831 78.3931 117.276 78.6145L117.388 78.6651L118.048 79.0529C118.62 79.3834 119.135 79.7652 119.731 80.1163L119.142 80.9639L117.47 83.5178C117.773 83.7142 118.069 83.9486 118.354 84.1769C118.64 84.4051 118.917 84.6713 119.185 84.904L119.887 84.1784C119.874 84.1282 119.817 84.1166 119.789 84.0793C119.486 83.8198 119.211 83.562 118.901 83.3405C118.82 83.2605 118.731 83.1881 118.637 83.1244L118.577 83.0687C119.197 82.2395 119.827 81.4794 120.445 80.6418C121.026 81.1044 121.59 81.5715 122.124 82.0916C122.68 82.5813 123.197 83.1138 123.67 83.6843C123.8 83.8145 123.921 83.9527 124.032 84.0981C123.001 84.9658 121.992 85.8457 120.966 86.7657C121.216 87.047 121.448 87.344 121.661 87.6547C121.889 87.9472 122.099 88.2528 122.291 88.57L123.158 88.0243C123.068 87.8654 122.967 87.7128 122.856 87.5675C122.733 87.3764 122.606 87.2042 122.481 87.0048C122.368 86.8828 122.281 86.7268 122.168 86.6048C122.961 85.9532 123.775 85.3769 124.566 84.7526C124.685 84.8954 124.794 85.0457 124.893 85.2027C125.34 85.793 125.751 86.4102 126.123 87.0506C126.502 87.6861 126.848 88.3411 127.159 89.013C125.943 89.5899 124.779 90.1616 123.519 90.777L123.95 91.8174C124.089 92.1638 124.208 92.5179 124.306 92.8779L125.301 92.6114C125.243 92.394 125.187 92.185 125.128 91.9676C125.025 91.583 124.862 91.2415 124.716 90.8954C125.647 90.4934 126.555 90.1695 127.512 89.7608L127.728 90.2674C127.818 90.6018 127.974 90.9183 128.096 91.271C128.217 91.6238 128.347 92.2074 128.468 92.6589L128.654 93.3528L128.905 94.2892L124.808 95.3868L125.48 97.895L126.684 97.5724L126.209 95.8L128.985 95.0562L129.119 95.5579L130.132 99.3368L130.152 99.412L126.172 100.478L126.844 102.986L128.048 102.664L127.573 100.891L130.349 100.148L130.477 100.624L131.489 104.403L131.509 104.478L124.963 106.232C124.872 106.579 124.743 106.915 124.577 107.232C124.454 107.521 124.433 107.842 124.517 108.144C124.611 108.496 124.833 108.801 125.139 108.998C125.446 109.196 125.814 109.273 126.174 109.214L127.905 108.751C128.505 108.597 129.142 108.686 129.678 108.999C130.213 109.312 130.603 109.823 130.763 110.422C130.88 110.866 130.866 111.334 130.721 111.769L133.588 111C134.032 110.881 134.504 110.944 134.902 111.173C135.3 111.403 135.59 111.781 135.708 112.224L136.156 113.896L137.234 117.918L136.289 118.171L135.212 114.15L132.704 114.822L133.031 116.042L134.778 115.574L135.528 118.375L135.06 118.5L131.365 119.49L131.273 119.515L130.196 115.494L127.687 116.166L128.014 117.386L129.762 116.918L130.512 119.719L130.019 119.851L126.315 120.843L126.257 120.859L125.179 116.838L122.671 117.51L122.998 118.73L124.754 118.26L125.504 121.061L125.003 121.195L121.291 122.19L121.241 122.203L120.163 118.182L117.655 118.854L117.982 120.075L119.738 119.604L120.488 122.405L120.012 122.533L116.266 123.536L116.224 123.547L115.147 119.526L112.639 120.198L112.966 121.419L114.721 120.948L115.472 123.749L114.97 123.883L111.208 124.891L111.141 124.909L110.064 120.888L107.622 121.542L107.949 122.763L109.705 122.292L110.456 125.093L109.954 125.227L106.192 126.236L106.125 126.253L105.047 122.232L102.539 122.904L102.866 124.125L104.605 123.659L105.356 126.46L104.879 126.587L101.176 127.58L101.1 127.6L99.5658 121.873C99.4469 121.429 99.5091 120.957 99.7387 120.559C99.9682 120.162 100.346 119.872 100.79 119.753L102.972 119.168C102.629 118.864 102.382 118.466 102.262 118.023C102.101 117.424 102.184 116.787 102.491 116.248C102.798 115.709 103.305 115.314 103.901 115.147L105.632 114.683C105.973 114.554 106.254 114.303 106.42 113.978C106.587 113.654 106.627 113.279 106.533 112.927C106.434 112.578 106.217 112.275 105.918 112.07C105.708 111.932 105.509 111.778 105.32 111.612C104.566 111.015 104.029 110.186 103.792 109.253C103.622 108.641 103.584 108 103.682 107.373C103.78 106.746 104.01 106.146 104.358 105.615C104.358 105.615 104.358 105.615 104.395 105.552C106.233 102.747 108.944 100.256 108.511 95.5959C108.862 95.2643 109.161 94.8821 109.399 94.4619C109.971 93.4155 110.117 92.1887 109.807 91.037L109.138 91.2162C109.406 92.1932 109.287 93.2355 108.807 94.1276C108.643 94.4212 108.442 94.6921 108.208 94.9334C107.521 95.5375 106.675 95.9321 105.77 96.0703C105.008 96.1818 104.231 96.1106 103.502 95.8628C102.343 96.5843 101.408 97.6142 100.802 98.837C100.196 100.06 99.9425 101.427 100.07 102.786L97.4788 103.149L93.8412 100.208L97.1297 87.2654L97.1889 86.918L100.405 83.6726L99.6899 76.0864C100.428 75.9444 101.192 76.0648 101.85 76.4268C102.508 76.7888 103.019 77.3696 103.295 78.0686L104.585 80.411L104.661 80.3908C105.224 80.3205 105.76 80.2484 106.321 80.2327L106.297 79.2086C106.297 79.2086 106.222 79.2287 106.167 79.1898L104.995 79.2976C104.841 79.3077 104.688 79.3307 104.538 79.3662L104.488 79.3797C104.343 78.3701 104.234 77.3957 104.083 76.3611C104.627 76.2868 105.141 76.2299 105.667 76.1874C106.193 76.145 106.447 76.1575 106.85 76.157C107.581 76.1405 108.3 76.1809 109.031 76.2358C108.939 77.5958 108.867 78.968 108.778 80.309L108.769 80.2755ZM101.436 88.4233C101.586 88.3785 101.713 88.2777 101.79 88.1418C101.867 88.0059 101.889 87.8455 101.85 87.6941C101.795 87.5565 101.692 87.444 101.559 87.3777C101.427 87.3114 101.274 87.296 101.131 87.3343C100.988 87.3727 100.864 87.4622 100.782 87.5858C100.701 87.7095 100.667 87.8588 100.688 88.0054C100.71 88.082 100.746 88.1536 100.796 88.216C100.845 88.2784 100.906 88.3305 100.976 88.3693C101.045 88.4081 101.122 88.4329 101.201 88.4421C101.28 88.4514 101.36 88.445 101.436 88.4233ZM105.124 81.3509L105.565 82.1287C109.155 81.7302 112.771 82.6014 115.786 84.591C118.8 86.5806 121.023 89.5631 122.068 93.0206L122.171 93.4052L122.554 94.8348L124.947 103.764C125.059 104.142 125.113 104.536 125.107 104.93C125.115 104.97 125.125 105.009 125.138 105.048L130.33 103.656L129.658 101.148L128.705 101.404L129.18 103.176L126.12 103.996L124.953 99.6402L128.958 98.5671L128.286 96.059L127.341 96.3121L127.813 98.0762L124.754 98.8961L123.651 94.7827L123.586 94.5403L127.499 93.4919L127.313 92.798C127.185 92.3214 127.058 91.8449 126.935 91.3851C126.897 91.2429 126.865 91.1259 126.777 90.9972L125.889 91.3607L125.927 91.5028C125.963 91.6034 125.991 91.7068 126.01 91.8121C126.03 91.8874 126.05 91.9626 126.068 92.0295C126.171 92.4141 126.274 92.7987 126.381 93.2C125.412 93.4598 124.405 93.7833 123.435 94.0431L123.243 93.3241C123.135 92.9228 122.968 92.5015 122.812 92.0864C122.656 91.6712 122.475 91.227 122.259 90.7919L121.983 90.2296L125.608 88.4071C125.433 88.1224 125.268 87.8082 125.093 87.5235L125.08 87.4734C124.803 87.0098 124.509 86.5781 124.211 86.138L123.423 86.7076C123.437 86.7578 123.45 86.8079 123.514 86.8446C123.577 86.8814 123.532 86.9115 123.588 86.9232C123.802 87.2513 123.983 87.5611 124.172 87.8959C124.26 88.0246 124.355 88.1784 124.442 88.3344C123.562 88.83 122.7 89.3925 121.823 89.9321L121.428 89.2942C121.203 88.9243 120.945 88.5276 120.706 88.2062C120.468 87.8848 120.236 87.5884 119.973 87.2737L119.409 86.6093L122.427 83.9278C122.255 83.7168 122.067 83.5186 121.865 83.3347C121.814 83.2645 121.752 83.2026 121.682 83.1509C121.299 82.7605 120.901 82.4103 120.498 82.079L119.885 82.8347C119.942 82.8772 119.996 82.9226 120.047 82.9705C120.348 83.2216 120.623 83.4794 120.892 83.7479C121.005 83.8698 121.135 83.9873 121.248 84.1093C120.54 84.8098 119.852 85.5856 119.15 86.3113L118.715 85.8903C118.365 85.554 118.003 85.2388 117.647 84.9488C117.292 84.6587 116.971 84.4311 116.654 84.1845L115.983 83.7549L118.217 80.3517L117.582 79.9572C117.341 79.8248 117.072 79.6908 116.836 79.5477C116.601 79.4047 116.211 79.2223 115.889 79.0577L115.493 79.9524C115.707 80.0832 115.938 80.1738 116.135 80.2734C116.488 80.4564 116.827 80.6523 117.195 80.8854C116.67 81.7698 116.2 82.693 115.708 83.5957L115.055 83.233C114.667 83.0233 114.282 82.8219 113.878 82.6523C113.474 82.4828 113.019 82.2909 112.567 82.1075L111.976 81.9075L113.254 78.0522C112.752 77.8822 112.271 77.7245 111.709 77.5701C111.362 77.5109 111.008 77.4266 110.66 77.3674L110.522 78.3544C110.574 78.3476 110.627 78.3517 110.677 78.3664C111.048 78.4463 111.452 78.5172 111.838 78.6199C112.014 78.6774 112.194 78.7221 112.376 78.7536L111.635 81.7747L110.879 81.5921C110.472 81.4844 110.06 81.3974 109.644 81.3316L108.489 81.3006L107.681 81.2302L107.919 77.1699L106.846 77.1439C106.338 77.1545 105.805 77.1719 105.267 77.2355L105.375 78.21C106.025 78.1613 106.65 78.1193 107.289 78.1274L107.293 78.6459L107.354 81.2462L106.525 81.2623C106.057 81.2638 105.589 81.2934 105.124 81.3509ZM133.307 116.873L132.421 117.111L131.845 114.962L131.093 115.164L131.926 118.274L134.434 117.602L134.177 116.64L133.307 116.873ZM123.275 119.561L122.33 119.815L121.754 117.666L121.018 117.863L121.852 120.973L124.36 120.301L124.102 119.34L123.275 119.561ZM128.291 118.217L127.355 118.468L126.779 116.32L126.068 116.51L126.901 119.62L129.41 118.948L129.152 117.987L128.291 118.217ZM113.192 122.263L112.272 122.509L111.697 120.361L110.944 120.562L111.777 123.673L114.286 123L114.028 122.039L113.192 122.263ZM118.208 120.919L117.305 121.161L116.73 119.012L115.96 119.218L116.794 122.328L119.302 121.656L119.044 120.695L118.208 120.919ZM103.109 124.965L102.215 125.204L101.639 123.056L100.912 123.251L101.745 126.361L104.253 125.689L103.995 124.727L103.109 124.965ZM108.126 123.621L107.206 123.867L106.63 121.718L105.928 121.907L106.761 125.017L109.269 124.345L109.012 123.383L108.126 123.621Z" fill="black"/>
</svg>
