<svg width="347" height="468" viewBox="0 0 347 468" fill="none" xmlns="http://www.w3.org/2000/svg">
<path fill-rule="evenodd" clip-rule="evenodd" d="M168.378 19.8836L230.041 3.36113C232.424 2.74469 234.954 3.09595 237.079 4.33825C239.204 5.58053 240.751 7.61297 241.383 9.99194L279.626 152.718C280.274 155.135 279.94 157.71 278.697 159.882C277.453 162.054 275.402 163.646 272.99 164.312L211.278 180.848L211.025 180.916L210.81 180.973L210.586 181.033L210.361 181.093L210.117 181.159L209.893 181.219L209.685 181.337L209.486 181.453L209.277 181.572L209.095 181.673L208.886 181.792L208.695 181.937L208.5 181.989L208.299 182.137L208.125 182.268L207.934 182.413L207.768 182.572L207.596 182.712L207.432 182.882L207.266 183.041L207.11 183.198L206.946 183.368L206.817 183.549L206.653 183.718L206.524 183.899L206.395 184.08L206.26 184.241L206.139 184.452L206.009 184.632L205.883 184.823L205.762 185.033L205.662 185.207L205.54 185.417L205.438 185.622L205.349 185.834L205.257 186.036L205.165 186.239L205.109 186.463L205.008 186.668L204.953 186.891L204.868 187.123L204.813 187.347L204.77 187.536L204.715 187.76L204.658 188.016L204.632 188.232L204.597 188.45L204.579 188.696L204.543 188.914L204.525 189.159L204.519 189.37L204.501 189.615L204.503 189.856L204.504 190.096L204.565 190.32L204.625 190.544L204.685 190.769L204.745 190.993L204.805 191.217L204.87 191.461L204.93 191.685L204.991 191.91L205.058 192.163L221.699 254.265L221.759 254.489L221.866 254.889L221.926 255.114L221.986 255.338L222.046 255.562L222.112 255.806L222.172 256.03L222.232 256.255L222.292 256.479L222.41 256.688L222.521 256.867L222.659 257.071L222.778 257.279L222.908 257.453L223.056 257.654L223.186 257.828L223.334 258.029L223.465 258.203L223.634 258.367L223.794 258.533L223.934 258.705L224.093 258.871L224.274 259L224.434 259.167L224.632 259.323L224.784 259.46L224.968 259.599L225.149 259.728L225.33 259.857L225.52 259.984L225.731 260.105L225.914 260.244L226.117 260.336L226.327 260.458L226.529 260.55L226.734 260.652L226.937 260.744L227.139 260.836L227.336 260.909L227.568 260.993L227.765 261.065L227.997 261.15L228.211 261.207L228.429 261.243L228.653 261.298L228.88 261.363L229.096 261.388L229.334 261.419L229.552 261.454L229.797 261.472L230.016 261.508L230.231 261.45L230.479 261.478L230.689 261.484L230.929 261.482L231.144 261.425L231.368 261.365L231.593 261.305L231.852 261.298L232.076 261.238L232.301 261.178L232.515 261.12L294.481 244.517C296.908 243.888 299.484 244.246 301.649 245.511C303.813 246.776 305.389 248.846 306.033 251.269L344.341 394.238C344.975 396.612 344.645 399.139 343.425 401.271C342.206 403.402 340.193 404.966 337.826 405.623L276.164 422.145C274.966 422.459 273.717 422.534 272.49 422.366C271.263 422.198 270.081 421.79 269.012 421.165C267.943 420.54 267.007 419.71 266.258 418.724C265.51 417.737 264.962 416.612 264.648 415.414L248.008 353.313C247.364 350.888 245.786 348.817 243.62 347.552C241.453 346.287 238.874 345.932 236.446 346.563L174.998 363.028C172.584 363.697 170.533 365.295 169.294 367.473C168.056 369.65 167.73 372.23 168.389 374.647L185.073 436.914C185.707 439.289 185.377 441.818 184.155 443.951C182.933 446.083 180.918 447.647 178.549 448.301L116.857 464.831C114.436 465.466 111.863 465.114 109.702 463.852C107.541 462.591 105.969 460.523 105.332 458.103L67.1329 315.543C66.4741 313.126 66.7997 310.547 68.0383 308.369C69.2769 306.192 71.3277 304.594 73.7419 303.925L135.19 287.46C137.605 286.796 139.659 285.204 140.904 283.031C142.149 280.859 142.484 278.282 141.836 275.863L125.196 213.761C124.552 211.336 122.974 209.265 120.808 208.001C118.641 206.736 116.062 206.38 113.634 207.011L52.1858 223.476C49.7656 224.106 47.1947 223.751 45.0351 222.49C42.8755 221.23 41.3028 219.165 40.6608 216.748L2.462 74.1883C1.80322 71.7714 2.1288 69.1919 3.36743 67.0144C4.60606 64.8369 6.65684 63.2388 9.071 62.5698L70.7143 46.0525C73.0982 45.4358 75.6292 45.7865 77.7557 47.0281C79.8821 48.2697 81.4315 50.3016 82.0661 52.6807L98.7533 114.958C99.3953 117.375 100.968 119.439 103.128 120.7C105.287 121.961 107.858 122.315 110.278 121.686L171.727 105.221C174.14 104.555 176.192 102.963 177.437 100.791C178.682 98.6188 179.018 96.0429 178.373 93.6241L161.73 31.5126C161.069 29.0972 161.392 26.5183 162.629 24.341C163.866 22.1636 165.916 20.5654 168.329 19.8967L168.378 19.8836Z" fill="#AFB734"/>
<path fill-rule="evenodd" clip-rule="evenodd" d="M276.165 422.145L337.827 405.622C340.194 404.966 342.206 403.402 343.426 401.27C344.646 399.139 344.976 396.611 344.342 394.238L325.196 322.783L245.547 344.124L223.989 263.666L144.33 285.011L165.889 365.469L86.2307 386.813L105.333 458.103C105.97 460.523 107.542 462.591 109.703 463.852C111.864 465.114 114.437 465.466 116.858 464.831L178.501 448.314C180.87 447.66 182.885 446.096 184.107 443.963C185.329 441.831 185.659 439.302 185.026 436.927L168.325 374.601C167.692 372.195 168.028 369.637 169.261 367.476C170.495 365.316 172.527 363.726 174.921 363.049L236.467 346.558C238.886 345.945 241.45 346.307 243.605 347.565C245.76 348.823 247.336 350.878 247.992 353.286L264.64 415.417C265.279 417.833 266.849 419.898 269.007 421.16C271.166 422.421 273.736 422.776 276.155 422.148L276.165 422.145Z" fill="#AFB734"/>
<path fill-rule="evenodd" clip-rule="evenodd" d="M168.378 19.8833L230.04 3.36083C232.423 2.74439 234.954 3.09565 237.079 4.33794C239.204 5.58023 240.751 7.61266 241.383 9.99164L260.529 81.4472L180.88 102.789L161.778 31.4993C161.123 29.0841 161.449 26.5076 162.685 24.3317C163.921 22.1558 165.967 20.5567 168.378 19.8833Z" fill="#AFB734"/>
<path fill-rule="evenodd" clip-rule="evenodd" d="M272.99 164.312L211.278 180.848C211.19 180.871 211.112 180.892 211.025 180.916L210.81 180.973C210.722 180.997 210.644 181.017 210.586 181.033C210.527 181.049 210.42 181.078 210.361 181.093L210.118 181.159C210.059 181.174 209.971 181.198 209.893 181.219C209.815 181.24 209.757 181.255 209.685 181.337C209.613 181.367 209.546 181.406 209.486 181.453C209.41 181.482 209.34 181.522 209.277 181.572C209.21 181.592 209.148 181.627 209.095 181.673C209.018 181.697 208.947 181.738 208.886 181.792L208.695 181.937C208.627 181.941 208.561 181.959 208.5 181.989L208.299 182.137L208.125 182.267L207.934 182.413L207.768 182.572L207.596 182.712C207.551 182.777 207.496 182.835 207.433 182.882L207.266 183.041L207.11 183.198C207.059 183.258 207.004 183.315 206.946 183.367L206.817 183.548C206.757 183.599 206.702 183.656 206.653 183.718C206.604 183.774 206.561 183.834 206.524 183.899C206.472 183.952 206.429 184.013 206.395 184.08C206.336 184.095 206.301 184.199 206.26 184.241L206.139 184.451C206.087 184.505 206.043 184.566 206.01 184.632C205.967 184.707 205.916 184.752 205.883 184.823L205.762 185.033L205.662 185.206L205.54 185.417C205.52 185.491 205.485 185.561 205.438 185.622L205.349 185.834C205.362 185.883 205.299 185.962 205.257 186.036C205.198 186.052 205.207 186.164 205.165 186.239L205.109 186.463L205.008 186.668C205.001 186.744 204.982 186.82 204.953 186.891L204.868 187.123C204.854 187.199 204.836 187.273 204.813 187.347L204.77 187.536C204.735 187.64 204.731 187.703 204.715 187.76C204.688 187.834 204.667 187.91 204.65 187.986C204.666 188.045 204.682 188.103 204.624 188.202C204.64 188.261 204.605 188.364 204.589 188.421L204.571 188.666C204.587 188.725 204.552 188.828 204.535 188.885L204.518 189.13C204.502 189.199 204.5 189.271 204.511 189.341C204.535 189.429 204.492 189.503 204.493 189.586C204.517 189.674 204.533 189.732 204.495 189.826C204.511 189.885 204.532 189.963 204.497 190.066C204.523 190.139 204.543 190.214 204.557 190.29C204.572 190.349 204.593 190.427 204.617 190.515C204.621 190.593 204.641 190.669 204.677 190.739C204.698 190.817 204.713 190.876 204.678 190.979C204.714 191.049 204.734 191.125 204.739 191.203L204.804 191.447C204.813 191.525 204.834 191.6 204.864 191.672L204.924 191.896L204.992 192.15L221.807 254.905C221.819 254.982 221.839 255.057 221.867 255.129L221.928 255.353C221.961 255.424 221.981 255.5 221.988 255.578C222.009 255.656 222.032 255.744 222.112 255.806C222.118 255.884 222.139 255.96 222.172 256.03C222.187 256.089 222.211 256.177 222.232 256.255C222.263 256.326 222.283 256.402 222.292 256.479C222.308 256.537 222.331 256.625 222.41 256.688C222.49 256.75 222.447 256.824 222.521 256.867C222.559 256.94 222.605 257.008 222.659 257.07C222.686 257.147 222.726 257.217 222.778 257.279C222.794 257.338 222.815 257.416 222.908 257.453C223.002 257.491 223.003 257.574 223.056 257.654C223.109 257.734 223.093 257.791 223.186 257.828C223.28 257.866 223.282 257.949 223.334 258.029C223.386 258.081 223.43 258.139 223.465 258.203L223.634 258.367C223.677 258.431 223.731 258.487 223.794 258.533L223.934 258.705C223.998 258.748 224.052 258.805 224.093 258.871C224.167 258.914 224.203 258.967 224.274 259C224.323 259.059 224.377 259.115 224.434 259.167C224.496 259.223 224.562 259.276 224.632 259.323C224.678 259.373 224.729 259.419 224.784 259.46C224.858 259.502 224.893 259.556 224.968 259.599C225.032 259.636 225.093 259.679 225.149 259.728C225.211 259.768 225.272 259.811 225.33 259.857C225.399 259.889 225.463 259.932 225.52 259.984L225.731 260.105C225.789 260.154 225.851 260.201 225.914 260.244C225.914 260.244 226.042 260.293 226.117 260.336L226.327 260.457C226.396 260.484 226.464 260.515 226.529 260.55C226.545 260.608 226.66 260.609 226.734 260.652C226.808 260.694 226.862 260.701 226.937 260.744C227.001 260.781 227.069 260.812 227.139 260.836C227.188 260.823 227.27 260.895 227.336 260.908C227.417 260.927 227.494 260.955 227.568 260.993C227.568 260.993 227.699 261.052 227.765 261.065C227.845 261.084 227.923 261.112 227.997 261.15C228.07 261.16 228.142 261.18 228.211 261.207L228.429 261.243C228.5 261.274 228.576 261.293 228.653 261.298L228.88 261.362L229.096 261.388L229.334 261.419L229.552 261.454C229.634 261.455 229.716 261.461 229.798 261.472L230.016 261.507C230.091 261.502 230.163 261.482 230.231 261.45L230.479 261.478C230.548 261.465 230.62 261.467 230.689 261.484C230.767 261.463 230.855 261.439 230.929 261.482C230.995 261.447 231.069 261.427 231.144 261.425C231.232 261.401 231.31 261.38 231.368 261.365C231.446 261.358 231.522 261.338 231.593 261.305C231.671 261.284 231.758 261.26 231.852 261.298C231.923 261.265 231.999 261.245 232.076 261.238L232.301 261.178C232.374 261.167 232.446 261.148 232.515 261.12L294.481 244.517C296.908 243.888 299.484 244.246 301.649 245.511C303.813 246.776 305.389 248.846 306.033 251.269L325.13 322.539L245.481 343.881L223.988 263.666L144.329 285.011L165.888 365.469L86.2297 386.813L67.1329 315.543C66.4741 313.126 66.7997 310.547 68.0383 308.369C69.277 306.192 71.3278 304.594 73.7419 303.925L135.707 287.321C135.781 287.313 135.854 287.294 135.922 287.264L136.175 287.196C136.242 287.161 136.315 287.141 136.39 287.138L136.599 287.02C136.676 287.014 136.753 286.994 136.823 286.959C136.901 286.939 136.959 286.923 137.047 286.899C137.114 286.867 137.187 286.847 137.262 286.842L137.47 286.723C137.531 286.67 137.602 286.63 137.679 286.605L137.87 286.459C137.938 286.455 138.004 286.438 138.065 286.407L138.266 286.259L138.44 286.129L138.631 285.984L138.803 285.844L138.977 285.713C139.035 285.66 139.09 285.604 139.141 285.544C139.208 285.505 139.265 285.45 139.307 285.384L139.469 285.247L139.635 285.087C139.685 285.022 139.738 284.959 139.794 284.898C139.852 284.883 139.877 284.782 139.928 284.737L140.087 284.548C140.145 284.532 140.17 284.432 140.221 284.387C140.277 284.326 140.33 284.264 140.379 284.198C140.419 284.135 140.462 284.075 140.509 284.017L140.635 283.826C140.672 283.761 140.715 283.701 140.765 283.645L140.886 283.435C140.907 283.371 140.941 283.312 140.986 283.262L141.105 283.042C141.131 282.973 141.162 282.905 141.197 282.839C141.241 282.779 141.273 282.71 141.289 282.637C141.333 282.574 141.367 282.505 141.391 282.432C141.426 282.367 141.456 282.299 141.483 282.23C141.52 282.162 141.55 282.091 141.572 282.017C141.631 282.002 141.622 281.889 141.665 281.815C141.707 281.741 141.716 281.655 141.72 281.591C141.762 281.518 141.794 281.439 141.814 281.357C141.801 281.308 141.863 281.229 141.876 281.162C141.888 281.086 141.906 281.011 141.931 280.939C141.916 280.88 141.983 280.778 141.996 280.712C141.997 280.634 142.016 280.558 142.051 280.488C142.065 280.417 142.073 280.345 142.077 280.272C142.078 280.193 142.101 280.114 142.142 280.046L142.16 279.801L142.195 279.582L142.213 279.337C142.197 279.278 142.177 279.2 142.219 279.126C142.23 279.045 142.236 278.963 142.237 278.881C142.222 278.822 142.201 278.744 142.236 278.641C142.252 278.572 142.254 278.5 142.242 278.43C142.254 278.35 142.253 278.27 142.24 278.19C142.23 278.111 142.226 278.032 142.229 277.953C142.208 277.875 142.185 277.787 142.227 277.713C142.192 277.643 142.172 277.566 142.167 277.488C142.146 277.41 142.123 277.322 142.102 277.244C142.081 277.166 142.063 277.098 142.042 277.02C142.008 276.95 141.987 276.874 141.982 276.796L141.856 276.328C141.82 276.248 141.797 276.162 141.788 276.074L125.088 213.748L125.02 213.494C124.985 213.424 124.965 213.348 124.96 213.27L124.9 213.046C124.864 212.969 124.842 212.886 124.835 212.802C124.819 212.743 124.795 212.656 124.775 212.578C124.751 212.49 124.735 212.431 124.714 212.353C124.682 212.282 124.662 212.206 124.654 212.129C124.631 212.041 124.61 211.963 124.536 211.92C124.512 211.832 124.491 211.754 124.427 211.709C124.404 211.631 124.363 211.56 124.308 211.5C124.281 211.425 124.241 211.354 124.19 211.292C124.169 211.214 124.153 211.155 124.071 211.083C124.058 211.034 124.034 210.946 123.941 210.909C123.92 210.831 123.904 210.772 123.822 210.7C123.822 210.7 123.737 210.577 123.692 210.526C123.671 210.448 123.597 210.405 123.544 210.325C123.531 210.276 123.507 210.189 123.413 210.151C123.352 210.102 123.295 210.047 123.244 209.987C123.208 209.924 123.164 209.866 123.114 209.813C123.043 209.778 122.986 209.719 122.954 209.647C122.954 209.647 122.838 209.563 122.793 209.512C122.743 209.454 122.69 209.398 122.633 209.346L122.474 209.18C122.402 209.135 122.335 209.083 122.275 209.024C122.259 208.965 122.168 208.937 122.123 208.887L121.935 208.728C121.881 208.676 121.82 208.633 121.754 208.599C121.7 208.547 121.639 208.504 121.573 208.47C121.515 208.415 121.45 208.369 121.379 208.333C121.327 208.281 121.265 208.237 121.198 208.204C121.133 208.168 121.073 208.125 121.017 208.075C120.952 208.041 120.884 208.01 120.815 207.983C120.75 207.947 120.689 207.903 120.634 207.854L120.429 207.752C120.365 207.714 120.297 207.683 120.227 207.66L120.016 207.538C119.958 207.554 119.885 207.479 119.819 207.466C119.745 207.43 119.667 207.402 119.587 207.381C119.522 207.347 119.454 207.316 119.385 207.289C119.317 207.248 119.239 207.226 119.159 207.224C119.084 207.182 119.03 207.175 118.956 207.132L118.73 207.068C118.657 207.044 118.582 207.026 118.506 207.013C118.438 206.982 118.366 206.962 118.292 206.955C118.214 206.941 118.139 206.919 118.065 206.89L117.847 206.855C117.771 206.841 117.697 206.822 117.623 206.8L117.404 206.764L117.169 206.744L116.95 206.708C116.873 206.714 116.797 206.735 116.726 206.768L116.507 206.733C116.431 206.722 116.354 206.721 116.277 206.732C116.198 206.722 116.118 206.725 116.04 206.743C115.96 206.729 115.879 206.729 115.8 206.745C115.724 206.73 115.646 206.729 115.569 206.744L115.329 206.745C115.242 206.769 115.193 206.782 115.105 206.805L114.881 206.865C114.803 206.886 114.715 206.91 114.666 206.923C114.617 206.936 114.5 206.967 114.413 206.991L114.198 207.048C114.11 207.072 114.032 207.093 113.974 207.108L52.2329 223.652C49.8126 224.281 47.2418 223.926 45.0822 222.666C42.9226 221.405 41.3499 219.34 40.7079 216.924L21.564 145.478L101.222 124.133L122.778 204.582L202.437 183.237L180.881 102.789L260.529 81.4473L279.631 152.737C280.279 155.154 279.945 157.73 278.702 159.901C277.459 162.073 275.407 163.666 272.995 164.331L272.99 164.312ZM211.444 180.803L202.432 183.218L211.444 180.803ZM113.732 206.985L122.773 204.562L113.732 206.985ZM135.483 287.381L135.229 287.449L135.483 287.381Z" fill="#6278B1"/>
<path d="M180.873 102.76L101.214 124.104L122.77 204.553L202.429 183.208L180.873 102.76Z" fill="#AFB734"/>
<path fill-rule="evenodd" clip-rule="evenodd" d="M9.071 62.5698L70.7143 46.0525C73.0982 45.4358 75.6292 45.7865 77.7557 47.0281C79.8821 48.2697 81.4315 50.3016 82.0661 52.6807L101.213 124.136L21.564 145.478L2.462 74.1883C1.80322 71.7714 2.1288 69.1919 3.36743 67.0144C4.60606 64.8369 6.65684 63.2388 9.071 62.5698Z" fill="#AFB734"/>
<path fill-rule="evenodd" clip-rule="evenodd" d="M171.781 105.227L180.881 102.789L178.427 93.6302C179.072 96.0491 178.736 98.625 177.491 100.797C176.246 102.969 174.194 104.561 171.781 105.227Z" fill="#AFB734"/>
<path fill-rule="evenodd" clip-rule="evenodd" d="M110.293 121.703L101.222 124.133L98.7681 114.975C99.4101 117.392 100.983 119.456 103.142 120.717C105.302 121.978 107.873 122.332 110.293 121.703Z" fill="#AFB734"/>
<path d="M43.9117 73.7969C43.5582 74.038 43.2151 74.3181 42.8791 74.5859C42.5431 74.8536 42.2169 75.1187 41.9083 75.4105L41.0715 74.5893L41.6459 74.08C41.8584 73.8976 42.0832 73.7224 42.2664 73.5478L42.6414 73.2696C41.9397 72.3286 41.2238 71.4123 40.4824 70.4402L39.342 71.373C38.8833 71.7677 38.5025 72.1415 38.0587 72.5531C37.4369 73.1485 36.8567 73.786 36.3224 74.461C37.5374 75.484 38.701 76.5104 39.9121 77.5971C39.6406 77.9103 39.3769 78.2528 39.138 78.6095C38.899 78.9663 38.6477 79.3158 38.3795 79.6804L37.355 79.0559C37.355 79.0559 37.3828 78.9648 37.4335 78.9199C37.5763 78.6725 37.7562 78.4466 37.8892 78.2019C38.0223 77.9571 38.3329 77.6335 38.5458 77.336C37.6148 76.5923 36.6552 75.8981 35.7437 75.1492C35.6171 75.34 35.48 75.4917 35.3508 75.6727C35.0014 76.1636 34.6592 76.642 34.3541 77.142L34.2872 77.2435C34.1249 77.4961 33.9821 77.7434 33.8392 77.9908C33.4349 78.7055 33.0864 79.3947 32.7672 80.0761L33.8561 80.5893L37.0081 82.17C36.846 82.5794 36.6617 82.9842 36.5184 83.3467C36.3751 83.7091 36.2013 84.1529 36.0736 84.5739L34.9336 84.2208C34.9336 84.2208 34.9713 84.1271 34.9927 84.09L35.4413 82.799C35.5081 82.6974 35.5255 82.5673 35.5924 82.4658L35.6391 82.3278L35.626 82.279C34.5308 81.8198 33.4336 81.3925 32.3604 80.9378C32.019 81.7279 31.7227 82.5368 31.4729 83.3605C31.2273 84.1999 31.004 85.0438 30.8443 85.8915C30.8107 86.0782 30.7459 86.3047 30.7201 86.5207C32.2777 86.7933 33.804 87.1056 35.3746 87.427L35.1856 88.7112C35.1614 89.1672 35.1293 89.594 35.0973 90.0207L33.894 89.9773C33.9002 89.7665 33.9259 89.5505 33.9322 89.3398C33.9501 89.0945 33.9778 88.8467 33.9879 88.5722C34.0312 88.3829 34.057 88.1669 34.0925 87.9483C32.9189 87.7819 31.7414 87.6792 30.5678 87.5128C30.5323 87.7314 30.5358 87.9395 30.4925 88.1288C30.4018 88.9999 30.3456 89.8827 30.3382 90.7523C30.3308 91.622 30.3624 92.4812 30.433 93.33C32.0277 93.1954 33.5763 93.0836 35.1718 92.9906C35.2035 93.4212 35.2574 93.8562 35.321 94.2887L35.5704 95.5705L34.4097 95.8815C34.3443 95.6376 34.2764 95.384 34.2669 95.1148C34.1467 94.6661 34.1124 94.2258 34.0585 93.7907C32.8827 93.928 31.742 94.1187 30.5421 94.2834C30.5825 94.4918 30.6375 94.6972 30.7068 94.8979C30.7528 95.3037 30.8307 95.7115 30.9138 96.1387C30.9969 96.5659 31.2039 97.2213 31.3476 97.7578L31.5646 98.5674L31.8468 99.6207L36.5188 98.3689L37.3029 101.295L35.8593 101.682L35.3053 99.614L32.0768 100.479L32.2336 101.064L33.4175 105.483L33.4384 105.561L38.1104 104.309L38.8945 107.235L37.451 107.622L36.8969 105.554L33.6684 106.419L33.8252 107.004L35.0092 111.423L35.0301 111.501L42.6574 109.457C42.9551 109.753 43.2849 110.016 43.6406 110.239C43.9375 110.456 44.1531 110.766 44.253 111.12C44.3607 111.534 44.3109 111.974 44.1132 112.353C43.9154 112.732 43.584 113.025 43.1829 113.174L41.1737 113.712C40.4679 113.907 39.8681 114.373 39.5055 115.009C39.143 115.645 39.0473 116.399 39.2393 117.105C39.3792 117.62 39.6702 118.081 40.0748 118.429L36.7293 119.325C36.2119 119.464 35.7708 119.802 35.503 120.266C35.2352 120.73 35.1626 121.281 35.3013 121.798L35.824 123.749L37.0889 128.47L38.1715 128.18L36.9066 123.459L39.784 122.688L40.1734 124.141L38.1251 124.69L39.0006 127.958L44.0335 126.609L42.7686 121.888L45.6947 121.104L46.0841 122.558L44.0456 123.104L44.9211 126.371L49.9247 125.031L48.6598 120.31L51.5859 119.526L51.9753 120.979L49.9368 121.525L50.8123 124.793L55.8452 123.444L54.5803 118.723L57.4479 117.955L57.8373 119.408L55.7987 119.955L56.6742 123.222L61.6974 121.876L60.4325 117.155L63.3586 116.371L63.748 117.825L61.6998 118.373L62.5753 121.641L67.6082 120.292L66.3432 115.572L69.2693 114.787L69.6587 116.241L67.6105 116.79L68.486 120.057L73.4897 118.716L72.2247 113.996L75.1508 113.212L75.5402 114.665L73.4919 115.214L74.3674 118.481L79.3126 117.156L77.5249 110.485C77.3863 109.967 77.0478 109.526 76.584 109.258C76.1201 108.991 75.5689 108.918 75.0515 109.057L72.5058 109.739C72.6676 109.234 72.679 108.694 72.5384 108.183C72.3548 107.477 71.8989 106.872 71.2706 106.502C70.6423 106.131 69.8928 106.025 69.1862 106.206L67.2355 106.729C66.8121 106.808 66.3744 106.724 66.0102 106.494C65.6461 106.264 65.3825 105.905 65.2722 105.488C65.1712 105.084 65.216 104.657 65.3989 104.283C65.5452 104.02 65.6708 103.745 65.7745 103.461C66.1715 102.404 66.2274 101.248 65.9345 100.157C65.7495 99.4465 65.4162 98.7834 64.9566 98.2111C64.4969 97.6387 63.9213 97.1702 63.2676 96.8363L63.1934 96.7934C59.671 95.0401 55.5083 94.0961 53.1906 89.1138C52.6441 89.0042 52.1245 88.7883 51.6613 88.4782C50.4593 87.7729 49.5863 86.6194 49.2339 85.2711L50.0044 85.0646C50.3093 86.2135 51.0533 87.1968 52.0761 87.8025C52.4102 87.9984 52.7674 88.152 53.1395 88.2598C54.0981 88.463 55.0938 88.4032 56.0212 88.0866C56.9486 87.77 57.7731 87.2085 58.4073 86.4615C60.0009 86.5053 61.55 86.9969 62.8774 87.8798C64.2047 88.7628 65.2568 90.0016 65.913 91.4545L68.801 90.2939L70.736 85.3429L59.8932 74.1772L59.6307 73.8607L54.4488 72.4685L50.7757 64.3786C49.9426 64.6661 49.2359 65.2352 48.7773 65.9878C48.3187 66.7404 48.137 67.6294 48.2635 68.5016L48.3127 71.5723C47.7065 71.8046 47.1155 72.0747 46.5431 72.381L45.9545 71.3156C46.0063 71.3201 46.0581 71.3062 46.1007 71.2764C46.4869 71.0789 46.9049 70.8832 47.3086 70.7123L47.841 70.4756C47.3987 69.371 46.9402 68.323 46.49 67.1891C45.9302 67.4019 45.3738 67.666 44.8297 67.9372C44.2856 68.2084 43.9865 68.3409 43.5958 68.5605C42.8561 68.9992 42.1243 69.4671 41.4269 69.9466C42.3333 71.2614 43.1733 72.5626 44.0875 73.9067L43.9117 73.7969ZM56.0832 77.7488C55.9021 77.7974 55.7092 77.772 55.5468 77.6782C55.3845 77.5845 55.266 77.4301 55.2175 77.249C55.169 77.0679 55.1944 76.875 55.2881 76.7127C55.3818 76.5503 55.5363 76.4318 55.7173 76.3833C55.8984 76.3348 56.0914 76.3602 56.2537 76.4539C56.4161 76.5477 56.5345 76.702 56.583 76.8831C56.6316 77.0642 56.6062 77.2572 56.5124 77.4195C56.4187 77.5819 56.2643 77.7003 56.0832 77.7488ZM48.1957 72.7745L48.2327 73.81C44.3694 75.4967 41.2204 78.4855 39.3345 82.2556C37.4486 86.0257 36.9454 90.3381 37.9126 94.4411L38.0328 94.8898L38.4238 96.5831L41.215 107C41.3216 107.445 41.4957 107.871 41.7311 108.263C41.7311 108.263 41.7546 108.35 41.8262 108.383L35.7399 110.014L34.9558 107.088L36.097 106.782L36.6511 108.85L40.1819 107.904L38.8203 102.822L34.1483 104.074L33.3642 101.148L34.5054 100.842L35.0594 102.91L38.5903 101.964L37.2835 97.0872L37.2182 96.8434L32.6632 98.0639L32.4463 97.2543C32.2947 96.6886 32.1457 96.1327 32.0534 95.5929C32.0063 95.4173 31.9698 95.2808 31.9253 95.115L33.0738 94.9536L33.0895 95.0121L33.1183 95.1194C33.1496 95.2364 33.1784 95.3437 33.2176 95.49L33.2829 95.7339C33.3761 96.1998 33.4991 96.6591 33.6514 97.1091C34.7829 96.806 35.9566 96.5437 37.1173 96.2327L36.8951 95.4037C36.7671 94.9257 36.6923 94.4126 36.6149 93.8898C36.5375 93.3669 36.4745 92.8193 36.4114 92.2717L36.389 91.525L31.6637 91.798C31.647 91.3843 31.6284 91.0025 31.6389 90.6129L31.6233 90.5543C31.642 89.9221 31.6784 89.3164 31.7166 88.679L32.8044 88.837C32.8154 88.8888 32.8077 88.9427 32.7825 88.9893C32.7981 89.0478 32.806 89.0771 32.8191 89.1258C32.7773 89.5552 32.7531 90.0112 32.7503 90.4301C32.7362 90.6115 32.7398 90.8197 32.7361 91.0402C33.9115 91.018 35.1201 91.0809 36.343 91.1192L36.3504 90.2495C36.3563 89.7415 36.3879 89.2341 36.4449 88.7292C36.4983 88.2654 36.5517 87.8016 36.6422 87.3591L36.8407 86.3442L32.198 85.4034C32.2594 85.0897 32.3368 84.7794 32.4297 84.4736C32.4062 84.3858 32.4633 84.2869 32.4983 84.1834C32.6595 83.5757 32.8552 82.9796 33.0712 82.42L34.1287 82.8161C34.0858 82.8903 34.0872 82.9736 34.0444 83.0478C33.8875 83.4767 33.7722 83.9048 33.6445 84.3258C33.6012 84.5151 33.5384 84.7097 33.5048 84.8964C34.6317 85.2007 35.777 85.5734 36.9118 85.907L37.108 85.1958C37.2609 84.674 37.443 84.1443 37.6427 83.6413C37.8425 83.1382 38.017 82.736 38.2226 82.2941L38.6275 81.4643L34.4002 79.304C34.5138 79.0645 34.6859 78.8093 34.8208 78.5327C34.9558 78.2561 35.1395 77.9665 35.3116 77.7113C35.4837 77.4561 35.7673 76.9933 36.0017 76.6586L36.8976 77.349C36.747 77.5671 36.6139 77.8118 36.4632 78.0299C36.3126 78.248 35.9646 78.8221 35.7492 79.2666C36.7952 79.854 37.7957 80.5059 38.8203 81.1304L39.278 80.3805C39.5403 79.9548 39.8097 79.5167 40.1188 79.1098C40.4279 78.7029 40.8047 78.2361 41.1547 77.7869L41.6328 77.2301L38.0626 74.0888C38.5004 73.6161 38.9142 73.1707 39.3677 72.7565C39.6763 72.4647 39.9804 72.195 40.2969 71.9325L41.0069 72.7877L40.8646 72.9199C40.5267 73.2195 40.1889 73.5191 39.8393 73.8532C39.7023 74.0049 39.5307 74.145 39.3936 74.2967L41.875 76.9248L42.5332 76.299C42.8951 75.972 43.2446 75.6379 43.641 75.3226C44.0012 75.018 44.3793 74.7352 44.7731 74.4756L45.5797 73.9354L42.9484 69.9676C43.2922 69.7291 43.6588 69.5368 44.0202 69.3249C44.5565 69.0244 45.1051 68.7311 45.6571 68.4891L46.1156 69.5371C45.4382 69.8422 44.7805 70.1895 44.1466 70.5769L44.4614 71.0884L45.9385 73.7139L46.7562 73.2543C47.2541 73.0059 47.7281 72.7848 48.2338 72.5657L48.1957 72.7745ZM40.4419 125.104L41.5148 124.817L40.8326 122.271L41.6617 122.049L42.6417 125.707L39.7156 126.491L39.4177 125.379L40.4419 125.104ZM52.1463 121.968L53.1996 121.686L52.5175 119.14L53.3758 118.91L54.3559 122.568L51.4298 123.352L51.1319 122.24L52.1463 121.968ZM46.2941 123.536L47.3474 123.254L46.6653 120.708L47.5236 120.478L48.5037 124.136L45.5776 124.92L45.2797 123.808L46.2941 123.536ZM63.8507 118.832L65.0406 118.513L64.3585 115.967L65.2168 115.737L66.1969 119.395L63.2708 120.179L62.9729 119.067L63.8507 118.832ZM57.9985 120.4L59.0811 120.11L58.399 117.564L59.2281 117.342L60.2081 121L57.3308 121.771L57.0328 120.659L57.9985 120.4ZM75.6137 115.68L76.7451 115.377L76.0629 112.831L76.892 112.609L77.872 116.267L74.9459 117.051L74.648 115.939L75.6137 115.68ZM69.7614 117.248L70.8928 116.945L70.2107 114.399L71.069 114.169L72.0491 117.827L69.123 118.611L68.8251 117.499L69.7614 117.248ZM47.1315 66.735L47.1707 66.8813L47.1315 66.735Z" fill="#FEFEFE"/>
<path d="M203.219 31.1108C202.866 31.3519 202.523 31.6319 202.187 31.8997C201.851 32.1674 201.525 32.4325 201.216 32.7243L200.379 31.9031L200.954 31.3938C201.166 31.2114 201.391 31.0362 201.584 30.859L201.949 30.5834C201.247 29.6424 200.532 28.7261 199.8 27.7513L198.65 28.6868C198.22 29.0737 197.81 29.4553 197.366 29.8669C196.747 30.4642 196.166 31.1016 195.63 31.7748C196.855 32.7952 198.018 33.8215 199.23 34.9083C198.958 35.2215 198.694 35.564 198.455 35.9207C198.216 36.2774 197.955 36.6296 197.697 36.9916L196.672 36.3671C196.672 36.3671 196.71 36.2734 196.751 36.2311C196.894 35.9837 197.074 35.7578 197.236 35.5052L197.873 34.6446C196.932 33.9035 196.002 33.2015 195.061 32.4604C194.934 32.6512 194.797 32.8029 194.668 32.9839C194.329 33.4721 193.977 33.9533 193.671 34.4532L193.614 34.5521C193.442 34.8073 193.299 35.0546 193.157 35.302C192.752 36.0166 192.404 36.7059 192.085 37.3873L193.173 37.9005L196.325 39.4812L195.836 40.6579C195.683 41.0646 195.519 41.4641 195.401 41.8825L194.261 41.5294C194.261 41.5294 194.298 41.4357 194.32 41.3986C194.467 40.9723 194.624 40.5435 194.768 40.1076C194.835 40.006 194.862 39.8733 194.92 39.7743L194.976 39.6338L194.963 39.585C193.868 39.1258 192.77 38.6984 191.707 38.2411C191.362 39.032 191.063 39.8417 190.81 40.6665C190.564 41.5058 190.341 42.3498 190.181 43.1975C190.148 43.3842 190.112 43.6028 190.057 43.8266C191.615 44.0993 193.151 44.409 194.711 44.733L194.522 46.0172C194.498 46.4732 194.466 46.9 194.434 47.3267L193.241 47.2806C193.188 47.0856 193.273 46.8539 193.269 46.6458L193.256 46.597C193.284 46.3491 193.302 46.1039 193.351 45.8189C193.306 45.6531 193.391 45.4215 193.416 45.2055C192.243 45.0391 191.095 44.9286 189.892 44.77C189.889 44.9761 189.867 45.1815 189.826 45.3834C189.725 46.2553 189.67 47.1319 189.662 48.0095C189.657 48.8473 189.686 49.7384 189.767 50.5845C191.361 50.4499 192.9 50.3408 194.505 50.2452C194.527 50.6784 194.591 51.1108 194.645 51.5459L194.894 52.8276L193.733 53.1387C193.668 52.8948 193.6 52.6412 193.591 52.372C193.471 51.9233 193.436 51.483 193.382 51.0479C192.207 51.1852 191.076 51.3733 189.866 51.5406C189.918 51.7357 189.978 51.96 189.982 52.1681C190.028 52.574 190.106 52.9817 190.189 53.4089C190.272 53.8362 190.479 54.4916 190.623 55.0281C190.675 55.2231 190.748 55.4962 190.832 55.8083L191.114 56.8618L195.786 55.6099L196.57 58.536L195.127 58.9228L194.572 56.855L191.344 57.7201L191.501 58.3053L192.685 62.7237L192.706 62.8017L197.378 61.5499L198.162 64.476L196.718 64.8628L196.164 62.795L192.936 63.6601L193.092 64.2453L194.276 68.6637L194.297 68.7417L201.925 66.698C202.225 66.9912 202.554 67.2532 202.908 67.48C203.211 67.6919 203.431 68.0025 203.53 68.3586C203.638 68.7743 203.587 69.2152 203.387 69.5953C203.188 69.9755 202.854 70.2676 202.45 70.4147L200.499 70.9374C200.15 71.0323 199.823 71.1956 199.537 71.4178C199.252 71.6399 199.013 71.9166 198.835 72.2316C198.657 72.5467 198.543 72.8941 198.5 73.2534C198.457 73.6128 198.486 73.9772 198.585 74.3253C198.718 74.838 198.998 75.3005 199.391 75.6565L196.075 76.5451C195.557 76.6837 195.116 77.0222 194.848 77.486C194.58 77.9499 194.508 78.5012 194.646 79.0185L195.169 80.9693L196.434 85.69L197.507 85.4026L196.242 80.6818L199.119 79.9108L199.509 81.3641L197.412 81.926L198.287 85.1935L203.32 83.8449L202.055 79.1241L204.981 78.3401L205.371 79.7934L203.323 80.3422L204.198 83.6097L209.202 82.269L207.937 77.5482L210.863 76.7642L211.252 78.2175L209.204 78.7663L210.08 82.0338L215.112 80.6852L213.848 75.9644L216.774 75.1804L217.163 76.6337L215.115 77.1825L215.99 80.45L221.023 79.1014L219.758 74.3806L222.626 73.6123L223.015 75.0656L221.006 75.604L221.881 78.8714L226.885 77.5307L225.62 72.8099L228.546 72.0259L228.936 73.4792L226.897 74.0254L227.773 77.2929L232.796 75.9469L231.531 71.2262L234.457 70.4421L234.846 71.8954L232.798 72.4442L233.674 75.7117L238.707 74.3632L236.919 67.6917C236.78 67.1743 236.442 66.7332 235.978 66.4653C235.514 66.1975 234.963 66.125 234.445 66.2636L231.9 66.9457C232.066 66.4421 232.078 65.9 231.932 65.3898C231.749 64.6855 231.295 64.0822 230.669 63.7114C230.043 63.3407 229.296 63.2325 228.59 63.4106L226.591 63.9463C226.168 64.0227 225.733 63.9371 225.371 63.7067C225.009 63.4763 224.747 63.1179 224.637 62.703C224.538 62.3007 224.579 61.8765 224.754 61.5009C224.9 61.237 225.026 60.9622 225.13 60.6789C225.524 59.6207 225.58 58.4658 225.289 57.3744C225.098 56.6636 224.76 56.0011 224.295 55.4303C223.83 54.8594 223.25 54.393 222.593 54.0616L222.519 54.0187C218.997 52.2654 214.834 51.3214 212.526 46.3365C211.976 46.2308 211.452 46.0155 210.987 45.7035C209.788 44.9948 208.916 43.8428 208.56 42.4964L209.33 42.2899C209.635 43.4389 210.379 44.4221 211.402 45.0278C211.739 45.2229 212.1 45.3756 212.475 45.4825C213.432 45.6875 214.427 45.6287 215.353 45.3124C216.279 44.9962 217.101 44.4343 217.733 43.6868C219.327 43.7307 220.876 44.2222 222.203 45.1052C223.531 45.9882 224.583 47.2269 225.239 48.6798L228.127 47.5192L230.062 42.5683L219.219 31.4025L218.956 31.0861L213.784 29.6912L210.101 21.6039C209.268 21.8914 208.562 22.4605 208.103 23.2131C207.644 23.9657 207.463 24.8547 207.589 25.7269L207.648 28.795L207.59 28.8107C206.983 29.043 206.392 29.3131 205.82 29.6194L205.241 28.5514C205.29 28.5552 205.338 28.5423 205.378 28.5148C205.764 28.3172 206.192 28.119 206.586 27.9507L207.118 27.714C206.676 26.6094 206.207 25.564 205.757 24.4302C205.197 24.6429 204.641 24.907 204.097 25.1782C203.553 25.4495 203.254 25.5818 202.873 25.7989C202.123 26.2402 201.392 26.7081 200.694 27.1876C201.61 28.4998 202.44 29.8036 203.355 31.1477L203.219 31.1108ZM215.391 35.0627C215.256 35.103 215.112 35.102 214.977 35.0598C214.842 35.0175 214.723 34.936 214.636 34.8256C214.548 34.7153 214.495 34.5812 214.484 34.4405C214.473 34.2999 214.504 34.1591 214.574 34.0364C214.644 33.9137 214.748 33.8147 214.875 33.7521C215.001 33.6894 215.143 33.666 215.283 33.6849C215.423 33.7038 215.554 33.7641 215.659 33.858C215.764 33.9519 215.839 34.0752 215.874 34.2119C215.921 34.3887 215.897 34.5771 215.807 34.7363C215.716 34.8955 215.567 35.0127 215.391 35.0627ZM207.533 30.0805L207.55 31.1212C203.686 32.8079 200.535 35.7967 198.648 39.567C196.76 43.3374 196.255 47.6504 197.22 51.7549L197.341 52.2035L197.79 53.8812L200.581 64.2981C200.668 64.7469 200.832 65.1769 201.068 65.5686C201.068 65.5686 201.091 65.6563 201.163 65.6894L195.106 67.3124L194.322 64.3863L195.434 64.0883L195.988 66.1561L199.529 65.2074L198.167 60.1257L193.514 61.3724L192.73 58.4463L193.842 58.1483L194.396 60.2161L197.937 59.2674L196.63 54.3906L196.565 54.1467L192 55.3698L191.783 54.5603C191.632 53.9946 191.483 53.4386 191.4 52.8963C191.353 52.7207 191.316 52.5842 191.272 52.4183L192.42 52.2569L192.436 52.3155L192.465 52.4228C192.496 52.5398 192.525 52.6471 192.564 52.7934L192.63 53.0373C192.723 53.5031 192.846 53.9625 192.998 54.4125C194.129 54.1093 195.313 53.8445 196.474 53.5335L196.252 52.7044C196.123 52.2265 195.99 51.7291 195.962 51.1931C195.933 50.6572 195.821 50.1226 195.768 49.5724L195.745 48.8257L191.01 49.1013C190.994 48.6876 190.975 48.3059 190.995 47.9136L190.98 47.8551C190.959 47.2333 191.006 46.625 191.034 45.9902L192.122 46.1482C192.145 46.1901 192.157 46.237 192.158 46.2848C192.174 46.3433 192.182 46.3726 192.195 46.4213C192.163 46.8481 192.129 47.3067 192.126 47.7256C192.112 47.9071 192.116 48.1152 192.112 48.3357C193.287 48.3135 194.525 48.3686 195.719 48.4147L195.726 47.545C195.732 47.037 195.764 46.5296 195.821 46.0247C195.874 45.5609 195.928 45.0971 196.018 44.6547L196.217 43.6397L191.584 42.6963C191.644 42.3768 191.737 42.0593 191.806 41.7691C191.841 41.6759 191.864 41.5783 191.874 41.4789C192.035 40.8712 192.231 40.2752 192.447 39.7155L193.505 40.1117C193.488 40.1927 193.46 40.2708 193.42 40.3433L193.02 41.6213C192.952 41.8103 192.895 42.0035 192.851 42.1997C193.978 42.5041 195.124 42.8768 196.258 43.2104L196.455 42.4992C196.637 41.9695 196.799 41.445 197.019 40.9368C197.238 40.4285 197.364 40.0394 197.569 39.5975L197.974 38.7677L193.747 36.6074C193.89 36.36 194.032 36.1127 194.167 35.8361C194.302 35.5595 194.486 35.2698 194.658 35.0146C194.83 34.7594 195.114 34.2966 195.348 33.962L196.244 34.6524C196.103 34.8678 195.961 35.1152 195.81 35.3332C195.659 35.5513 195.311 36.1254 195.096 36.57C196.142 37.1574 197.172 37.8014 198.196 38.4259L198.654 37.676C198.897 37.2555 199.186 36.8122 199.465 36.4132C199.745 36.0141 200.151 35.5395 200.501 35.0902L200.979 34.5335L197.409 31.3922C197.83 30.9219 198.275 30.4746 198.744 30.052C199.023 29.768 199.337 29.4958 199.644 29.2359L200.354 30.091L200.211 30.2232C199.873 30.5228 199.536 30.8225 199.215 31.1487C199.049 31.3083 198.877 31.4483 198.74 31.6L201.222 34.2282L201.89 33.5997C202.242 33.2753 202.601 32.9386 202.988 32.6259C203.348 32.3213 203.726 32.0385 204.12 31.779L204.926 31.2388L202.295 27.2709C202.639 27.0324 203.005 26.8401 203.367 26.6283C203.903 26.3278 204.452 26.0344 205.004 25.7924L205.462 26.8404C204.785 27.1456 204.127 27.4928 203.493 27.8803L203.808 28.3918L205.285 31.0172L206.113 30.555C206.601 30.3092 207.036 30.0986 207.61 29.8612L207.533 30.0805ZM199.749 82.4182L200.822 82.1307L200.14 79.585L200.969 79.3628L201.949 83.0204L199.082 83.7888L198.784 82.6769L199.749 82.4182ZM211.503 79.2689L212.546 78.9893L211.864 76.4436L212.723 76.2136L213.703 79.8712L210.776 80.6553L210.479 79.5433L211.503 79.2689ZM205.651 80.837L206.694 80.5574L206.012 78.0117L206.87 77.7817L207.85 81.4393L204.924 82.2233L204.626 81.1114L205.651 80.837ZM223.207 76.1327L224.29 75.8426L223.608 73.2969L224.466 73.0669L225.446 76.7246L222.52 77.5086L222.222 76.3967L223.207 76.1327ZM217.355 77.7008L218.428 77.4133L217.746 74.8676L218.575 74.6455L219.555 78.3031L216.677 79.0741L216.38 77.9622L217.355 77.7008ZM234.912 72.9965L235.994 72.7064L235.312 70.1607L236.141 69.9386L237.121 73.5962L234.195 74.3803L233.897 73.2684L234.912 72.9965ZM229.059 74.5646L230.113 74.2824L229.431 71.7367L230.289 71.5067L231.269 75.1643L228.343 75.9484L228.045 74.8364L229.059 74.5646ZM206.429 24.0514L206.469 24.1977L206.429 24.0514Z" fill="#FEFEFE"/>
<path d="M224.79 111.618L223.758 112.407C223.441 112.669 223.103 112.969 222.795 113.261L221.942 112.381L222.517 111.871L223.15 111.346L223.512 111.061C222.803 110.091 222.087 109.175 221.363 108.229C220.959 108.515 220.572 108.828 220.205 109.135C219.838 109.443 219.366 109.904 218.922 110.315C218.322 110.926 217.75 111.56 217.185 112.223C218.41 113.244 219.574 114.27 220.785 115.357C220.513 115.67 220.25 116.012 220.011 116.369C219.772 116.726 219.511 117.078 219.252 117.44L218.26 116.817L218.338 116.681C218.489 116.463 218.661 116.208 218.831 115.985C219.001 115.762 219.237 115.395 219.46 115.095C218.519 114.354 217.597 113.681 216.656 112.94C216.522 113.102 216.392 113.283 216.255 113.434C215.916 113.922 215.572 114.433 215.267 114.933L215.209 115.032C215.041 115.28 214.891 115.541 214.76 115.811C214.364 116.477 214.004 117.163 213.68 117.867L214.771 118.39L217.928 119.99C217.758 120.37 217.603 120.767 217.439 121.167C217.274 121.566 217.127 121.993 217.004 122.391L215.869 122.058C215.869 122.058 215.906 121.964 215.92 121.898C216.067 121.471 216.224 121.043 216.376 120.636C216.436 120.505 216.47 120.402 216.52 120.273L216.584 120.162C215.481 119.674 214.392 119.276 213.32 118.789C212.973 119.588 212.676 120.408 212.431 121.244C212.171 122.064 211.958 122.9 211.795 123.745C211.767 123.957 211.725 124.168 211.67 124.375C213.228 124.647 214.764 124.957 216.325 125.281L216.144 126.594L216.048 127.875L214.857 127.838C214.804 127.643 214.889 127.412 214.882 127.194C214.897 126.923 214.926 126.654 214.969 126.386C214.98 126.19 215.004 125.995 215.043 125.802C213.861 125.606 212.713 125.496 211.51 125.337C211.505 125.553 211.486 125.767 211.452 125.98C211.344 126.842 211.287 127.709 211.281 128.577C211.283 129.444 211.305 130.306 211.385 131.152C212.983 131.027 214.527 130.937 216.132 130.842C216.149 131.255 216.212 131.688 216.266 132.123L216.513 133.395L215.352 133.706C215.287 133.462 215.219 133.209 215.209 132.939C215.089 132.491 215.055 132.05 215.001 131.615C213.825 131.753 212.702 131.97 211.487 132.118C211.539 132.313 211.597 132.527 211.603 132.745C211.649 133.151 211.732 133.578 211.807 133.976C211.883 134.374 212.098 135.059 212.241 135.595C212.298 135.859 212.368 136.119 212.45 136.376L212.74 137.458L217.412 136.207L218.196 139.133L216.753 139.519L216.199 137.452L212.97 138.317L213.127 138.902L214.311 143.32L214.332 143.398L219.004 142.147L219.788 145.073L218.345 145.459L217.791 143.392L214.562 144.257L214.711 144.813L215.895 149.231L215.916 149.309L223.543 147.265C223.844 147.559 224.173 147.821 224.526 148.047C224.828 148.26 225.048 148.571 225.149 148.926C225.25 149.341 225.196 149.779 224.997 150.158C224.798 150.536 224.468 150.829 224.069 150.982L222.118 151.505C221.771 151.599 221.446 151.761 221.162 151.981C220.878 152.2 220.64 152.474 220.461 152.786C220.283 153.098 220.167 153.442 220.122 153.798C220.076 154.155 220.101 154.517 220.195 154.863C220.33 155.379 220.611 155.845 221.004 156.204L217.688 157.093C217.171 157.232 216.729 157.57 216.462 158.034C216.194 158.498 216.121 159.049 216.26 159.566L216.783 161.517L218.04 166.209L219.113 165.921L217.855 161.23L220.733 160.459L221.114 161.883L218.988 162.452L219.864 165.72L220.449 165.563L224.818 164.392L224.897 164.371L223.639 159.68L226.566 158.896L226.947 160.32L224.899 160.869L225.774 164.136L226.33 163.987L230.69 162.819L230.778 162.795L229.521 158.104L232.447 157.32L232.828 158.744L230.78 159.293L231.656 162.56L232.212 162.411L236.572 161.243L236.689 161.212L235.432 156.52L238.358 155.736L238.739 157.16L236.691 157.709L237.567 160.976L238.142 160.822L242.512 159.651L242.599 159.628L241.342 154.936L244.21 154.168L244.591 155.592L242.582 156.13L243.458 159.398L244.004 159.252L248.374 158.081L248.461 158.057L247.204 153.366L250.13 152.582L250.512 154.006L248.473 154.552L249.349 157.819L249.895 157.673L254.265 156.502L254.372 156.473L253.115 151.782L256.041 150.998L256.423 152.422L254.374 152.971L255.25 156.238L255.835 156.081L260.205 154.911L260.283 154.89L258.495 148.218C258.357 147.701 258.018 147.26 257.554 146.992C257.09 146.724 256.539 146.651 256.022 146.79L253.476 147.472C253.642 146.965 253.652 146.42 253.506 145.906C253.319 145.208 252.864 144.611 252.24 144.246C251.615 143.881 250.872 143.777 250.171 143.957L248.172 144.492C247.75 144.564 247.317 144.476 246.956 144.247C246.595 144.017 246.332 143.661 246.218 143.249C246.116 142.838 246.155 142.404 246.328 142.018C246.474 141.754 246.599 141.479 246.703 141.196C247.187 139.973 247.196 138.615 246.729 137.386C246.263 136.157 245.354 135.147 244.181 134.554C244.181 134.554 244.123 134.569 244.107 134.511C240.592 132.787 236.422 131.813 234.122 126.858C233.579 126.728 233.06 126.515 232.583 126.225C231.384 125.5 230.512 124.341 230.148 122.988L230.918 122.782C231.066 123.352 231.325 123.888 231.681 124.358C232.036 124.827 232.481 125.222 232.99 125.52C233.322 125.726 233.684 125.879 234.063 125.974C235.02 126.179 236.014 126.121 236.94 125.804C237.867 125.488 238.689 124.926 239.321 124.179C240.915 124.223 242.464 124.714 243.791 125.597C245.118 126.48 246.17 127.719 246.827 129.172L249.715 128.011L251.657 123.089L240.623 111.871L240.358 111.544L235.196 110.189L231.516 102.111C230.682 102.394 229.973 102.961 229.514 103.713C229.054 104.464 228.873 105.353 229.001 106.224L229.073 109.341L229.014 109.357C228.421 109.6 227.81 109.857 227.242 110.156L226.671 109.117C226.671 109.117 226.778 109.088 226.792 109.022C227.178 108.824 227.614 108.655 228 108.458C228.174 108.373 228.354 108.304 228.54 108.25C228.098 107.146 227.629 106.1 227.179 104.967C226.627 105.209 226.063 105.443 225.519 105.715C224.975 105.986 224.684 106.147 224.303 106.365C223.549 106.779 222.82 107.236 222.119 107.734C223.032 109.036 223.878 110.399 224.777 111.684L224.79 111.618ZM236.962 115.57C236.786 115.614 236.6 115.588 236.443 115.497C236.286 115.407 236.17 115.259 236.121 115.084C236.074 114.908 236.098 114.721 236.189 114.563C236.281 114.405 236.43 114.29 236.606 114.243C236.782 114.196 236.97 114.221 237.127 114.312C237.285 114.403 237.4 114.553 237.447 114.729C237.492 114.904 237.466 115.091 237.375 115.248C237.285 115.405 237.136 115.52 236.962 115.57ZM229.104 110.587L229.121 111.628C225.257 113.315 222.106 116.304 220.219 120.074C218.331 123.844 217.826 128.157 218.791 132.262L218.912 132.71L219.361 134.388L222.152 144.805C222.239 145.254 222.403 145.684 222.639 146.075C222.639 146.075 222.662 146.163 222.737 146.206L216.68 147.829L215.896 144.903L217.008 144.605L217.562 146.673L221.102 145.724L219.741 140.642L215.088 141.889L214.304 138.963L215.416 138.665L215.97 140.733L219.511 139.784L218.222 134.976L218.149 134.702L213.584 135.926L213.367 135.116C213.216 134.55 213.067 133.994 212.984 133.452C212.94 133.286 212.9 133.14 212.856 132.974L214.005 132.813L214.02 132.871L214.052 132.988C214.08 133.096 214.112 133.213 214.148 133.349L214.211 133.583C214.303 134.046 214.425 134.502 214.577 134.949C215.708 134.646 216.894 134.39 218.06 134.099L217.83 133.241C217.702 132.763 217.569 132.265 217.548 131.759C217.527 131.252 217.4 130.659 217.354 130.138L217.324 129.362L212.592 129.647C212.58 129.253 212.554 128.842 212.574 128.45L212.558 128.391C212.538 127.769 212.584 127.161 212.621 126.556L213.701 126.684C213.723 126.737 213.738 126.793 213.745 126.85C213.745 126.85 213.769 126.938 213.774 126.958C213.75 127.414 213.708 127.843 213.713 128.291C213.701 128.482 213.705 128.69 213.699 128.901C214.874 128.879 216.112 128.934 217.306 128.98L217.313 128.11C217.321 127.596 217.354 127.054 217.408 126.59C217.461 126.126 217.522 125.692 217.605 125.22L217.803 124.205L213.17 123.262C213.231 122.942 213.324 122.625 213.392 122.335C213.428 122.241 213.451 122.144 213.461 122.044C213.63 121.466 213.818 120.841 214.034 120.281L215.094 120.687L215.123 120.794C215.117 120.878 215.088 120.958 215.038 121.026C214.913 121.457 214.766 121.883 214.639 122.304C214.57 122.493 214.513 122.686 214.469 122.882C215.596 123.187 216.744 123.569 217.876 123.893L218.08 123.211C218.238 122.671 218.424 122.14 218.637 121.619C218.805 121.156 218.982 120.722 219.187 120.28L219.592 119.45L215.373 117.319C215.508 117.043 215.651 116.795 215.793 116.548L216.276 115.697C216.505 115.343 216.74 115.008 216.966 114.645L217.862 115.335C217.73 115.57 217.585 115.797 217.428 116.016C217.18 116.417 216.929 116.808 216.714 117.252C217.76 117.84 218.79 118.484 219.814 119.108L220.272 118.359C220.515 117.938 220.804 117.495 221.084 117.096C221.363 116.697 221.769 116.222 222.119 115.773L222.6 115.226L219.027 112.075C219.448 111.604 219.893 111.157 220.362 110.734L221.262 109.918L221.987 110.832C221.93 110.854 221.879 110.889 221.837 110.935C221.499 111.235 221.161 111.534 220.841 111.861L220.369 112.322L222.85 114.95L223.518 114.321C223.868 113.987 224.227 113.65 224.614 113.338L225.746 112.491L226.552 111.951L223.921 107.983L224.993 107.34C225.529 107.04 226.086 106.775 226.63 106.504L227.088 107.552C226.413 107.88 225.759 108.211 225.119 108.592L225.434 109.104L226.919 111.758L227.746 111.296C228.228 111.025 228.725 110.784 229.236 110.573L229.104 110.587ZM221.32 162.925L222.393 162.638L221.719 160.121L222.548 159.899L223.513 163.498L220.645 164.267L220.347 163.155L221.32 162.925ZM233.074 159.776L234.117 159.496L233.443 156.98L234.301 156.75L235.266 160.349L232.34 161.133L232.042 160.021L233.074 159.776ZM227.222 161.344L228.265 161.064L227.591 158.548L228.449 158.318L229.414 161.917L226.487 162.701L226.189 161.589L227.222 161.344ZM244.778 156.64L245.861 156.35L245.187 153.833L246.045 153.603L247.009 157.202L244.083 157.986L243.785 156.874L244.778 156.64ZM238.926 158.208L239.999 157.92L239.325 155.404L240.154 155.182L241.118 158.781L238.241 159.552L237.943 158.44L238.926 158.208ZM256.483 153.503L257.565 153.213L256.891 150.697L257.72 150.475L258.684 154.074L255.758 154.858L255.46 153.746L256.483 153.503ZM250.63 155.072L251.684 154.789L251.009 152.273L251.868 152.043L252.832 155.642L249.906 156.426L249.608 155.314L250.63 155.072ZM228.008 104.588L228.04 104.705L228.008 104.588Z" fill="#FEFEFE"/>
<path d="M65.4833 154.304L64.4507 155.093C64.105 155.363 63.7964 155.655 63.4877 155.947L62.6353 155.067L63.2097 154.558L63.8328 154.035L64.2052 153.748C63.4957 152.777 62.7797 151.861 62.0462 150.918C61.6517 151.201 61.2651 151.514 60.8979 151.822C60.5308 152.129 60.0584 152.59 59.6147 153.002C59.0053 153.615 58.4428 154.246 57.8783 154.91C59.0933 155.933 60.2569 156.959 61.468 158.046C61.1965 158.359 60.9328 158.701 60.6939 159.058C60.455 159.415 60.2036 159.764 59.9354 160.129L58.9109 159.505L58.9894 159.368L59.453 158.68L60.1018 157.785C59.1707 157.041 58.219 156.376 57.3074 155.627C57.173 155.789 57.0438 155.97 56.9067 156.121C56.5573 156.612 56.2229 157.12 55.9178 157.62L55.8509 157.721C55.6888 157.971 55.5419 158.231 55.4109 158.498C55.0155 159.164 54.655 159.85 54.331 160.554L55.4224 161.077L58.5797 162.677C58.4097 163.057 58.2255 163.462 58.09 163.854C57.9545 164.246 57.7781 164.68 57.6452 165.081L56.5105 164.747C56.5105 164.747 56.5481 164.654 56.5617 164.587C56.7088 164.161 56.8657 163.732 57.0181 163.326C57.0771 163.195 57.1024 163.094 57.1614 162.963L57.2159 162.854L57.2002 162.796C56.0971 162.307 55.0078 161.909 53.9268 161.425C53.5824 162.223 53.2886 163.042 53.0471 163.877C52.7866 164.698 52.5741 165.534 52.4107 166.379C52.3849 166.595 52.3123 166.792 52.2865 167.008C53.844 167.281 55.3704 167.593 56.941 167.915L56.7598 169.228L56.6637 170.508L55.463 170.475C55.4692 170.264 55.4949 170.048 55.4986 169.827C55.5086 169.553 55.5363 169.305 55.5464 169.031C55.5897 168.841 55.6155 168.625 55.6589 168.436C54.4774 168.24 53.3 168.138 52.1263 167.971C52.0908 168.19 52.0943 168.398 52.0588 168.616C51.9586 169.478 51.9045 170.344 51.8967 171.211C51.8869 172.084 51.9185 172.944 51.9915 173.788C53.5889 173.663 55.1427 173.571 56.7381 173.478C56.7646 173.889 56.8186 174.324 56.8822 174.757L57.1289 176.029L55.9682 176.34C55.9029 176.096 55.8349 175.842 55.8255 175.573C55.7053 175.124 55.6709 174.684 55.6171 174.249C54.4412 174.386 53.3084 174.606 52.1033 174.751C52.1432 174.96 52.1982 175.165 52.2679 175.366C52.3139 175.772 52.3971 176.199 52.4723 176.597C52.5476 176.995 52.7624 177.68 52.9062 178.216L53.1231 179.026L53.4132 180.108L58.0852 178.857L58.8692 181.783L57.4257 182.169L56.8717 180.102L53.6432 180.967L53.8 181.552L54.9839 185.97L55.0048 186.048L59.6768 184.797L60.4609 187.723L59.0173 188.109L58.4633 186.042L55.2348 186.907L55.3838 187.463L56.5677 191.881L56.5886 191.959L64.2159 189.915C64.5136 190.212 64.8434 190.474 65.1991 190.697C65.4891 190.919 65.6976 191.231 65.792 191.584C65.8994 191.995 65.8517 192.431 65.6579 192.809C65.464 193.186 65.1378 193.48 64.7414 193.632L62.7322 194.17C62.03 194.361 61.4318 194.822 61.068 195.452C60.7042 196.082 60.6043 196.831 60.79 197.534C60.9311 198.052 61.2228 198.516 61.6281 198.867L58.2826 199.764C57.7652 199.902 57.3241 200.241 57.0563 200.705C56.7885 201.169 56.7159 201.72 56.8546 202.237L57.3773 204.188L58.6344 208.88L59.717 208.589L58.4599 203.898L61.3373 203.127L61.7188 204.551L59.6705 205.1L60.546 208.367L61.1215 208.213L65.4912 207.042L65.579 207.019L64.3219 202.327L67.248 201.543L67.6296 202.967L65.591 203.513L66.4665 206.781L67.0127 206.635L71.3824 205.464L71.4702 205.44L70.2131 200.749L73.1392 199.965L73.5208 201.389L71.4823 201.935L72.3578 205.202L72.904 205.056L77.2736 203.885L77.3907 203.854L76.1336 199.162L79.0012 198.394L79.3827 199.818L77.3442 200.364L78.2197 203.632L78.7952 203.477L83.1648 202.307L83.2429 202.286L81.9858 197.594L84.9119 196.81L85.2935 198.234L83.2452 198.783L84.1208 202.05L84.7059 201.894L89.0756 200.723L89.1536 200.702L87.8965 196.01L90.8226 195.226L91.2042 196.65L89.156 197.199L90.0315 200.467L90.5874 200.318L94.9571 199.147L95.0351 199.126L93.778 194.434L96.7041 193.65L97.0857 195.074L95.0374 195.623L95.9129 198.891L96.4982 198.734L100.868 197.563L100.858 197.566L99.0704 190.894C98.9318 190.377 98.5933 189.936 98.1294 189.668C97.6656 189.4 97.1143 189.328 96.597 189.466L94.0513 190.148C94.2124 189.64 94.2228 189.096 94.0813 188.583C93.8913 187.884 93.434 187.288 92.8082 186.923C92.1824 186.559 91.4384 186.455 90.7369 186.635L88.7862 187.158C88.3632 187.232 87.9278 187.146 87.5648 186.917C87.2018 186.688 86.9373 186.331 86.8229 185.917C86.7192 185.504 86.7612 185.069 86.9418 184.683C87.0881 184.419 87.2137 184.145 87.3174 183.861C87.78 182.637 87.7789 181.286 87.3144 180.063C86.8499 178.839 85.9539 177.828 84.7954 177.219C84.7954 177.219 84.7369 177.235 84.7212 177.176C81.2067 175.452 77.0361 174.479 74.7263 169.526C74.1873 169.393 73.6717 169.178 73.197 168.89C71.9948 168.17 71.1211 167.009 70.7617 165.654L71.5322 165.448C71.6802 166.018 71.9394 166.553 72.295 167.023C72.6505 167.493 73.0954 167.888 73.604 168.185C73.9327 168.392 74.2914 168.546 74.6673 168.643C75.626 168.846 76.6217 168.786 77.5491 168.47C78.4765 168.153 79.3009 167.591 79.9352 166.844C81.5288 166.888 83.0779 167.38 84.4052 168.263C85.7326 169.146 86.7846 170.385 87.4409 171.837L90.3288 170.677L92.2717 165.755L81.3157 154.557L81.0505 154.231L75.8687 152.839L72.1983 144.758C71.3643 145.042 70.6559 145.608 70.1964 146.36C69.737 147.111 69.5554 148 69.6833 148.872L69.7456 151.991C69.152 152.234 68.5416 152.492 67.9734 152.79L67.3926 151.754C67.4511 151.738 67.5097 151.723 67.5233 151.656C67.9094 151.459 68.3352 151.292 68.7311 151.092C68.9049 151.008 69.0857 150.938 69.2714 150.885C68.8291 149.78 68.3705 148.732 67.9204 147.598C67.3684 147.84 66.8041 148.075 66.26 148.346C65.7159 148.618 65.4247 148.779 65.034 148.999C64.2844 149.414 63.5586 149.87 62.8599 150.365C63.7636 151.67 64.6193 153.03 65.5179 154.316L65.4833 154.304ZM77.6548 158.256C77.5677 158.281 77.4765 158.288 77.3866 158.277C77.2968 158.265 77.2101 158.236 77.1316 158.191C77.0532 158.146 76.9847 158.085 76.9301 158.013C76.8755 157.941 76.836 157.858 76.8139 157.77C76.7844 157.683 76.7738 157.59 76.7826 157.498C76.7914 157.406 76.8196 157.317 76.8651 157.237C76.9107 157.157 76.9727 157.087 77.0471 157.032C77.1215 156.978 77.2066 156.939 77.2968 156.92C77.3847 156.896 77.4765 156.89 77.5667 156.903C77.6569 156.915 77.7437 156.945 77.8222 156.991C77.9007 157.037 77.9692 157.098 78.0239 157.171C78.0785 157.244 78.1181 157.327 78.1404 157.415C78.1848 157.591 78.1589 157.777 78.0682 157.934C77.9776 158.091 77.8293 158.207 77.6548 158.256ZM69.7673 153.282L69.8043 154.317C65.941 156.004 62.792 158.993 60.9061 162.763C59.0202 166.533 58.517 170.845 59.4842 174.948L59.6044 175.397L59.9954 177.09L62.7866 187.507C62.8932 187.952 63.0673 188.378 63.3027 188.77C63.3027 188.77 63.3262 188.857 63.4004 188.9L57.3141 190.531L56.53 187.605L57.6712 187.299L58.2253 189.367L61.7561 188.421L60.3945 183.339L55.7225 184.591L54.9384 181.665L56.0796 181.359L56.6336 183.427L60.1645 182.481L58.876 177.672L58.8028 177.399L54.2479 178.62L54.031 177.81C53.8794 177.245 53.7304 176.689 53.6381 176.149C53.5936 175.983 53.5544 175.837 53.51 175.671L54.6585 175.509L54.6742 175.568L54.7056 175.685C54.7343 175.792 54.7657 175.909 54.8023 176.046L54.865 176.28C54.9571 176.743 55.0794 177.199 55.2309 177.646C56.3623 177.342 57.5386 177.09 58.7046 176.798L58.4746 175.94C58.3465 175.462 58.2717 174.949 58.2022 174.455C58.1327 173.962 58.0539 173.356 57.9987 172.837L57.9684 172.061L53.2458 172.344C53.2343 171.95 53.2078 171.539 53.2184 171.149L53.2027 171.091C53.2215 170.458 53.2578 169.853 53.3039 169.245L54.3838 169.373C54.3917 169.434 54.3869 169.496 54.3697 169.555C54.3697 169.555 54.3933 169.643 54.3985 169.662C54.3646 170.121 54.3325 170.548 54.3376 170.996C54.3261 171.187 54.3297 171.395 54.3234 171.606C55.4988 171.584 56.7074 171.647 57.9303 171.685L57.9377 170.815C57.9461 170.301 57.9787 169.759 58.0321 169.295C58.0856 168.831 58.1468 168.396 58.2295 167.925L58.428 166.91L53.7852 165.969C53.8467 165.655 53.9241 165.345 54.017 165.039C53.9935 164.951 54.0506 164.853 54.0856 164.749C54.2546 164.171 54.4425 163.545 54.6585 162.986L55.7186 163.392L55.7473 163.499C55.7304 163.58 55.702 163.658 55.663 163.731C55.5087 164.169 55.3908 164.587 55.2632 165.008C55.2198 165.198 55.157 165.392 55.1234 165.579C56.2504 165.883 57.3982 166.266 58.5304 166.59L58.7345 165.908C58.8781 165.37 59.054 164.841 59.2614 164.324C59.4592 163.853 59.6356 163.419 59.8413 162.977L60.2461 162.147L56.0267 160.016C56.148 159.749 56.2886 159.491 56.4473 159.245L56.9302 158.394C57.1594 158.04 57.3938 157.705 57.6204 157.341L58.5162 158.032C58.3734 158.279 58.2325 158.495 58.0819 158.713C57.9312 158.931 57.5833 159.505 57.3679 159.949C58.4138 160.537 59.4144 161.189 60.4389 161.813L60.8966 161.063C61.1589 160.638 61.4283 160.199 61.7374 159.793C62.0466 159.386 62.4233 158.919 62.7734 158.47L63.254 157.923L59.6812 154.772C60.1191 154.299 60.5328 153.853 60.9863 153.439C61.3028 153.177 61.6017 152.887 61.9156 152.615L62.6412 153.529C62.583 153.55 62.5313 153.585 62.4911 153.632C62.1532 153.931 61.8154 154.231 61.4658 154.565C61.3276 154.725 61.1796 154.877 61.0227 155.018L63.5041 157.647L64.1622 157.021C64.5215 156.684 64.8711 156.35 65.2675 156.035L66.3996 155.188L67.2062 154.647L64.5749 150.68L65.6467 150.037C66.183 149.736 66.7395 149.472 67.2836 149.201L67.7421 150.249C67.0666 150.576 66.4133 150.908 65.7731 151.289L66.0878 151.8L67.5728 154.455L68.3905 153.996C68.867 153.73 69.3577 153.49 69.8603 153.278L69.7673 153.282ZM62.0135 205.612L63.0864 205.324L62.4121 202.808L63.2411 202.585L64.2055 206.185L61.2794 206.969L60.9814 205.857L62.0135 205.612ZM73.7179 202.475L74.7712 202.193L74.097 199.677L74.9553 199.447L75.9197 203.046L72.9936 203.83L72.6956 202.718L73.7179 202.475ZM67.8657 204.043L68.919 203.761L68.2448 201.245L69.1031 201.015L70.0675 204.614L67.1414 205.398L66.8434 204.286L67.8657 204.043ZM85.4223 199.339L86.6122 199.02L85.938 196.504L86.7963 196.274L87.7607 199.873L84.8346 200.657L84.5366 199.545L85.4223 199.339ZM79.5701 200.907L80.6527 200.617L79.9785 198.101L80.8075 197.879L81.7719 201.478L78.8945 202.249L78.5966 201.137L79.5701 200.907ZM97.1853 196.187L98.3167 195.884L97.6424 193.368L98.4714 193.145L99.4358 196.745L96.5097 197.529L96.2117 196.417L97.1853 196.187ZM91.333 197.755L92.4644 197.452L91.7902 194.936L92.6485 194.706L93.6129 198.305L90.6868 199.089L90.3888 197.977L91.333 197.755ZM68.7109 147.271L68.7423 147.388L68.7109 147.271Z" fill="#FEFEFE"/>
<path d="M270.002 271.962C270.466 272.016 270.886 272.06 271.291 272.129C271.696 272.198 272.139 272.289 272.581 272.379L272.85 271.199L272.098 271.045L271.285 270.897C271.135 270.885 271.012 270.855 270.86 270.833L270.802 270.849C270.948 269.639 271.122 268.495 271.247 267.322C271.745 267.369 272.241 267.446 272.73 267.552C273.288 267.643 273.833 267.768 274.404 267.908C275.229 268.137 276.041 268.4 276.862 268.692C276.309 270.178 275.817 271.659 275.341 273.198C275.74 273.362 276.137 273.517 276.517 273.687C276.897 273.857 277.295 274.054 277.71 274.235L278.285 273.182C278.238 273.178 278.194 273.161 278.156 273.133C277.88 272.998 277.632 272.855 277.361 272.74C277.09 272.624 276.726 272.439 276.354 272.299C276.785 271.138 277.288 270.125 277.735 269.023C277.929 269.086 278.134 269.187 278.299 269.258C278.848 269.498 279.384 269.766 279.905 270.061L280.033 270.111L280.812 270.561C281.483 270.956 282.08 271.392 282.783 271.831L282.089 272.79L280.128 275.772C280.495 276.009 280.828 276.275 281.17 276.538C281.513 276.802 281.826 277.115 282.14 277.387L282.958 276.54C282.942 276.482 282.879 276.478 282.834 276.427C282.493 276.132 282.17 275.821 281.808 275.563C281.711 275.476 281.609 275.395 281.502 275.32L281.42 275.248C282.134 274.283 282.878 273.394 283.592 272.429C284.277 272.958 284.934 273.521 285.56 274.118C286.196 274.699 286.798 275.316 287.362 275.966C287.522 276.133 287.644 276.278 287.784 276.449L284.207 279.561C284.497 279.902 284.767 280.248 285.02 280.608C285.285 280.945 285.527 281.3 285.744 281.669L286.772 281.059C286.664 280.864 286.544 280.676 286.412 280.497C286.257 280.267 286.118 280.063 285.97 279.862C285.84 279.688 285.729 279.509 285.607 279.364C286.53 278.636 287.471 277.934 288.405 277.203C288.54 277.371 288.664 277.547 288.776 277.731C289.3 278.423 289.784 279.145 290.223 279.894C290.655 280.646 291.067 281.403 291.42 282.176C290.001 282.849 288.651 283.545 287.181 284.263C287.344 284.638 287.515 285.041 287.676 285.448C287.846 285.849 287.988 286.262 288.101 286.682L289.262 286.371C289.196 286.128 289.128 285.874 289.061 285.62C288.882 285.187 288.74 284.776 288.55 284.377C289.645 283.938 290.728 283.532 291.841 283.046C291.902 283.27 291.954 283.465 292.084 283.639C292.189 284.03 292.389 284.425 292.513 284.81C292.664 285.376 292.806 285.903 292.947 286.43L293.166 287.249L293.456 288.332L288.814 289.576L289.598 292.502L291.012 292.123L290.4 289.84L293.629 288.975L293.786 289.56L294.97 293.979L294.99 294.057L290.348 295.301L291.132 298.227L292.546 297.848L291.992 295.78L295.22 294.915L295.369 295.471L296.553 299.89L296.574 299.968L288.947 302.011C288.838 302.417 288.683 302.809 288.486 303.18C288.348 303.518 288.323 303.891 288.416 304.244C288.526 304.654 288.785 305.008 289.143 305.237C289.5 305.466 289.929 305.554 290.347 305.483L292.367 304.942C293.067 304.763 293.81 304.867 294.435 305.232C295.059 305.597 295.514 306.193 295.701 306.892C295.838 307.409 295.821 307.955 295.652 308.463L298.997 307.567C299.514 307.428 300.066 307.501 300.53 307.768C300.994 308.036 301.332 308.477 301.471 308.995L301.993 310.945L303.25 315.637L302.197 315.919L300.94 311.228L298.014 312.012L298.395 313.436L300.444 312.887L301.319 316.154L300.763 316.303L296.394 317.474L296.286 317.503L295.029 312.811L292.103 313.595L292.485 315.019L294.533 314.471L295.408 317.738L294.823 317.895L290.463 319.063L290.376 319.087L289.118 314.395L286.192 315.179L286.574 316.603L288.593 316.062L289.468 319.33L288.922 319.476L284.553 320.647L284.465 320.67L283.208 315.979L280.282 316.763L280.663 318.187L282.711 317.638L283.587 320.906L283.041 321.052L278.671 322.223L278.554 322.254L277.297 317.563L274.429 318.331L274.811 319.755L276.849 319.209L277.725 322.476L277.149 322.631L272.78 323.801L272.692 323.825L271.435 319.133L268.567 319.902L268.949 321.326L270.988 320.78L271.863 324.047L271.287 324.201L266.918 325.372L266.83 325.396L265.573 320.704L262.647 321.488L263.028 322.912L265.077 322.363L265.952 325.631L265.396 325.78L261.027 326.951L260.949 326.972L259.161 320.3C259.022 319.783 259.095 319.231 259.363 318.768C259.631 318.304 260.072 317.965 260.589 317.827L263.135 317.145C262.728 316.794 262.436 316.33 262.297 315.811C262.112 315.111 262.21 314.366 262.57 313.738C262.929 313.11 263.522 312.648 264.219 312.453L266.346 311.883C266.744 311.735 267.073 311.444 267.27 311.067C267.466 310.69 267.516 310.253 267.409 309.842C267.294 309.432 267.039 309.075 266.689 308.833C266.439 308.675 266.203 308.497 265.982 308.301C264.952 307.484 264.264 306.312 264.054 305.015C263.844 303.717 264.126 302.388 264.845 301.288C264.845 301.288 264.845 301.288 264.888 301.213C267.04 297.971 270.202 295.064 269.689 289.598C270.088 289.202 270.436 288.758 270.725 288.275C271.378 287.044 271.543 285.611 271.186 284.263L270.416 284.469C270.725 285.611 270.584 286.828 270.02 287.868C269.822 288.204 269.586 288.516 269.318 288.799C268.507 289.509 267.512 289.975 266.448 290.143C265.569 290.262 264.674 290.173 263.837 289.881C262.486 290.723 261.397 291.925 260.69 293.351C259.983 294.777 259.686 296.372 259.833 297.957L256.819 298.41L252.638 295.098L256.467 279.969L256.536 279.564L260.288 275.778L259.463 266.925C260.326 266.759 261.219 266.901 261.987 267.325C262.756 267.749 263.352 268.429 263.671 269.247L265.177 271.98C265.835 271.898 266.473 271.821 267.114 271.795L267.087 270.6C267.038 270.597 266.99 270.61 266.95 270.637C266.512 270.639 266.076 270.693 265.617 270.733C265.451 270.777 265.256 270.83 265.074 270.816L265.016 270.831C264.856 269.651 264.729 268.514 264.552 267.307C265.178 267.223 265.787 267.154 266.391 267.107C266.995 267.06 267.304 267.082 267.772 267.072C268.621 267.058 269.47 267.088 270.316 267.163L269.992 271.923L270.002 271.962ZM261.467 281.463C261.598 281.423 261.714 281.346 261.802 281.241C261.89 281.136 261.944 281.007 261.959 280.871C261.974 280.735 261.949 280.597 261.886 280.476C261.823 280.354 261.726 280.253 261.607 280.187C261.487 280.12 261.35 280.09 261.214 280.1C261.077 280.111 260.947 280.161 260.839 280.245C260.731 280.329 260.65 280.443 260.606 280.573C260.563 280.703 260.558 280.843 260.594 280.975C260.618 281.065 260.66 281.149 260.717 281.223C260.774 281.297 260.846 281.358 260.927 281.403C261.009 281.449 261.098 281.477 261.191 281.488C261.284 281.498 261.377 281.489 261.467 281.463ZM265.778 273.209L266.283 274.119C270.466 273.646 274.683 274.656 278.196 276.974C281.71 279.292 284.298 282.77 285.509 286.802L285.629 287.251L286.079 288.928L288.868 299.335C288.994 299.778 289.057 300.236 289.055 300.697C289.07 300.755 289.078 300.784 289.091 300.833L295.148 299.21L294.364 296.284L293.252 296.582L293.806 298.65L290.236 299.606L288.88 294.544L293.562 293.29L292.778 290.364L291.666 290.662L292.22 292.729L288.65 293.686L287.362 288.877L287.288 288.604L291.853 287.381L291.634 286.562C291.485 286.006 291.336 285.45 291.195 284.923C291.155 284.777 291.111 284.611 291.074 284.474L290.02 284.872L290.065 285.038C290.113 285.157 290.147 285.281 290.164 285.408C290.185 285.486 290.209 285.574 290.229 285.652C290.35 286.101 290.491 286.628 290.598 287.027C289.457 287.333 288.29 287.698 287.156 288.033L286.932 287.194C286.794 286.703 286.626 286.221 286.43 285.75C286.244 285.235 286.029 284.731 285.785 284.24L285.455 283.555L289.651 281.385C289.466 281.048 289.284 280.679 289.07 280.349L289.054 280.291C288.732 279.75 288.388 279.246 288.051 278.73L287.182 279.391C287.203 279.445 287.218 279.5 287.227 279.557C287.227 279.557 287.248 279.635 287.314 279.649C287.563 280.032 287.785 280.39 288.004 280.781C288.107 280.931 288.208 281.113 288.319 281.293C287.293 281.871 286.277 282.53 285.264 283.156L284.794 282.415C284.529 281.974 284.23 281.521 283.949 281.136C283.668 280.751 283.401 280.415 283.093 280.048L282.446 279.27L285.957 276.144C285.745 275.898 285.54 275.681 285.301 275.452C285.243 275.371 285.174 275.298 285.097 275.235C284.661 274.819 284.201 274.43 283.716 273.985L283.009 274.896C283.063 274.958 283.127 275.012 283.198 275.054C283.538 275.35 283.862 275.66 284.183 275.961C284.305 276.106 284.467 276.241 284.589 276.385C283.766 277.212 282.96 278.108 282.149 278.984L281.624 278.466C281.225 278.071 280.793 277.706 280.378 277.367C279.963 277.029 279.601 276.771 279.2 276.481L278.437 275.975L281.055 272.011C280.8 271.839 280.552 271.697 280.305 271.554L279.432 271.066C279.083 270.857 278.715 270.694 278.327 270.495L277.885 271.575C278.115 271.691 278.384 271.797 278.623 271.91C278.863 272.024 279.422 272.355 279.86 272.624C279.248 273.656 278.71 274.731 278.135 275.784L277.364 275.363C276.914 275.128 276.469 274.913 276 274.683C275.531 274.453 274.991 274.232 274.461 274.05L273.781 273.814L275.273 269.316C274.687 269.118 274.133 268.963 273.476 268.815C273.068 268.736 272.655 268.638 272.26 268.566L272.088 269.72C272.147 269.705 272.205 269.689 272.27 269.734C272.712 269.825 273.174 269.91 273.624 270.03L274.269 270.213L273.397 273.708L272.504 273.498C272.032 273.38 271.554 273.288 271.072 273.223C270.61 273.138 270.146 273.084 269.663 273.036L268.728 272.983L268.989 268.219L267.737 268.189C267.144 268.201 266.54 268.248 265.904 268.293L266.031 269.43C266.779 269.376 267.511 269.337 268.256 269.346L268.268 269.939L268.339 272.972L267.362 272.994C266.819 273 266.277 273.033 265.737 273.095L265.778 273.209ZM298.661 314.661L297.607 314.943L296.933 312.427L296.085 312.654L297.057 316.282L299.983 315.498L299.685 314.386L298.661 314.661ZM286.956 317.797L285.884 318.085L285.209 315.568L284.351 315.798L285.323 319.426L288.249 318.642L287.951 317.53L286.956 317.797ZM292.809 316.229L291.736 316.516L291.061 314L290.232 314.222L291.205 317.85L294.072 317.082L293.774 315.97L292.809 316.229ZM275.252 320.933L274.082 321.247L273.407 318.73L272.578 318.953L273.551 322.581L276.477 321.797L276.179 320.685L275.252 320.933ZM281.104 319.365L280.061 319.645L279.386 317.128L278.528 317.358L279.5 320.987L282.426 320.203L282.128 319.091L281.104 319.365ZM263.499 324.082L262.377 324.383L261.703 321.867L260.845 322.097L261.817 325.725L264.743 324.941L264.445 323.829L263.499 324.082ZM269.351 322.514L268.229 322.815L267.555 320.299L266.697 320.528L267.669 324.157L270.595 323.373L270.297 322.261L269.351 322.514Z" fill="black"/>
<path d="M110.695 314.649C111.159 314.702 111.578 314.746 111.984 314.816C112.389 314.885 112.831 314.975 113.264 315.068L113.543 313.885L112.791 313.732L111.978 313.584C111.835 313.573 111.693 313.552 111.553 313.52L111.494 313.535C111.611 312.333 111.815 311.181 111.94 310.008C112.438 310.057 112.933 310.134 113.423 310.238C113.983 310.329 114.539 310.449 115.087 310.597C115.921 310.823 116.734 311.086 117.555 311.378C117.002 312.865 116.51 314.345 116.004 315.892C116.433 316.049 116.83 316.204 117.181 316.381C117.532 316.559 117.958 316.748 118.373 316.93L118.978 315.91L118.84 315.864L118.055 315.468L117.048 315.027C117.479 313.866 117.981 312.853 118.428 311.751C118.623 311.814 118.828 311.915 118.993 311.986C119.529 312.229 120.075 312.512 120.598 312.789L120.727 312.839L121.506 313.289C122.167 313.687 122.774 314.12 123.467 314.561L122.783 315.518L120.851 318.492C121.208 318.731 121.55 318.995 121.883 319.261C122.216 319.528 122.549 319.835 122.853 320.11L123.671 319.263C123.636 319.221 123.598 319.183 123.557 319.147C123.206 318.854 122.892 318.541 122.521 318.285C122.43 318.195 122.331 318.113 122.225 318.041L122.143 317.969C122.866 317.001 123.611 316.112 124.325 315.147C125 315.677 125.658 316.222 126.293 316.836C126.929 317.414 127.527 318.032 128.085 318.687C128.239 318.837 128.383 318.998 128.517 319.167C127.312 320.211 126.137 321.247 124.93 322.282C125.224 322.612 125.496 322.962 125.743 323.328C125.994 323.679 126.235 324.033 126.476 324.387L127.495 323.779C127.435 323.555 127.246 323.396 127.135 323.217C126.979 322.987 126.841 322.783 126.693 322.583C126.563 322.408 126.423 322.237 126.32 322.087C127.253 321.356 128.194 320.654 129.127 319.923C129.263 320.091 129.387 320.267 129.499 320.451C130.02 321.144 130.5 321.867 130.936 322.617C131.377 323.355 131.78 324.116 132.143 324.896C130.695 325.577 129.315 326.281 127.904 326.983C128.067 327.358 128.228 327.764 128.399 328.168C128.57 328.572 128.702 328.986 128.814 329.405L129.985 329.092C129.912 328.842 129.825 328.596 129.725 328.356C129.605 327.908 129.404 327.512 129.243 327.105C130.338 326.666 131.412 326.263 132.525 325.776C132.585 326.001 132.696 326.18 132.778 326.367C132.882 326.758 133.073 327.156 133.177 327.546C133.369 328.072 133.534 328.607 133.669 329.15L133.889 329.969L134.179 331.052L129.507 332.304L130.291 335.23L131.725 334.845L131.103 332.524L134.341 331.656L134.498 332.242L135.682 336.66L135.703 336.738L131.031 337.99L131.815 340.916L133.249 340.532L132.695 338.464L135.933 337.596L136.082 338.152L137.266 342.571L137.287 342.649L129.659 344.693C129.546 345.097 129.392 345.488 129.199 345.861C129.056 346.198 129.032 346.573 129.128 346.926C129.223 347.334 129.464 347.693 129.807 347.935C130.149 348.177 130.569 348.284 130.985 348.237L132.936 347.714C133.639 347.531 134.386 347.632 135.016 347.995C135.645 348.359 136.106 348.955 136.3 349.656C136.437 350.173 136.419 350.719 136.25 351.227L139.596 350.33C140.113 350.192 140.664 350.264 141.128 350.532C141.592 350.8 141.931 351.241 142.069 351.759L142.592 353.709L143.849 358.401L142.805 358.68L141.548 353.989L138.622 354.773L139.004 356.197L141.12 355.63L141.996 358.897L141.411 359.054L137.07 360.217L136.963 360.246L135.706 355.554L132.828 356.325L133.21 357.749L135.268 357.198L136.144 360.465L135.558 360.622L131.189 361.793L131.111 361.814L129.854 357.122L126.927 357.907L127.309 359.331L129.357 358.782L130.233 362.049L129.677 362.198L125.307 363.369L125.229 363.39L123.972 358.698L121.046 359.482L121.428 360.906L123.476 360.358L124.351 363.625L123.795 363.774L119.426 364.945L119.318 364.974L118.061 360.282L115.135 361.066L115.517 362.49L117.565 361.941L118.441 365.209L117.865 365.363L113.496 366.534L113.408 366.557L112.151 361.866L109.225 362.65L109.606 364.074L111.654 363.525L112.53 366.793L111.954 366.947L107.585 368.118L107.497 368.141L106.24 363.45L103.314 364.234L103.695 365.658L105.734 365.112L106.609 368.379L106.063 368.525L101.694 369.696L101.606 369.72L99.8181 363.048C99.6795 362.531 99.7521 361.98 100.02 361.516C100.288 361.052 100.729 360.713 101.246 360.575L103.792 359.893C103.405 359.528 103.125 359.064 102.983 358.552C102.799 357.853 102.896 357.11 103.253 356.483C103.611 355.855 104.201 355.393 104.896 355.196L106.915 354.655C107.312 354.507 107.641 354.216 107.835 353.839C108.03 353.462 108.077 353.026 107.968 352.616C107.852 352.208 107.602 351.852 107.258 351.604C107.008 351.446 106.772 351.269 106.551 351.073C105.674 350.373 105.048 349.407 104.768 348.32C104.571 347.608 104.526 346.863 104.637 346.132C104.747 345.402 105.01 344.703 105.409 344.081C105.409 344.081 105.468 344.066 105.472 344.002C107.634 340.757 110.767 337.858 110.273 332.387C110.673 331.999 111.016 331.555 111.29 331.069C111.965 329.843 112.141 328.402 111.78 327.049L111.01 327.255C111.315 328.397 111.174 329.613 110.614 330.654C110.411 330.987 110.176 331.298 109.912 331.585C109.101 332.295 108.106 332.761 107.042 332.929C106.16 333.053 105.262 332.964 104.421 332.669C103.072 333.512 101.984 334.713 101.279 336.139C100.573 337.565 100.279 339.16 100.428 340.743L97.4126 341.196L93.2418 337.881L97.1473 322.805L97.2164 322.4L100.969 318.614L100.144 309.761C101.006 309.595 101.899 309.737 102.668 310.161C103.437 310.585 104.032 311.265 104.352 312.083L105.848 314.818L105.907 314.803C106.564 314.721 107.202 314.644 107.843 314.618L107.816 313.423C107.768 313.42 107.72 313.433 107.679 313.46C107.241 313.462 106.806 313.516 106.346 313.556C106.18 313.6 105.985 313.653 105.804 313.638L105.745 313.654C105.576 312.476 105.449 311.34 105.272 310.133C105.907 310.046 106.506 309.979 107.12 309.93C107.553 309.908 108.033 309.905 108.501 309.894C109.35 309.882 110.199 309.913 111.045 309.986C110.908 311.581 110.854 313.174 110.721 314.746L110.695 314.649ZM102.13 324.157C102.228 324.143 102.321 324.108 102.404 324.056C102.488 324.003 102.559 323.933 102.613 323.851C102.668 323.769 102.704 323.676 102.72 323.579C102.736 323.481 102.73 323.382 102.705 323.287C102.679 323.191 102.634 323.103 102.572 323.026C102.509 322.95 102.432 322.888 102.343 322.844C102.255 322.8 102.159 322.775 102.06 322.771C101.962 322.767 101.864 322.784 101.772 322.821C101.614 322.884 101.485 323.003 101.409 323.156C101.333 323.308 101.315 323.483 101.359 323.647C101.403 323.812 101.506 323.954 101.648 324.048C101.79 324.142 101.962 324.181 102.13 324.157ZM106.461 315.898L106.976 316.805C111.159 316.332 115.375 317.342 118.889 319.66C122.403 321.978 124.991 325.457 126.202 329.488L126.231 329.596L126.322 329.937L126.772 331.615L129.56 342.022C129.697 342.462 129.76 342.922 129.747 343.383C129.765 343.427 129.777 343.473 129.784 343.52L135.86 341.891L135.076 338.965L133.974 339.261L134.528 341.328L130.958 342.285L129.602 337.223L134.274 335.971L133.49 333.045L132.388 333.34L132.942 335.408L129.372 336.364L128.084 331.556L128.01 331.283L132.575 330.06L132.356 329.24C132.219 328.691 132.053 328.149 131.858 327.617C131.833 327.464 131.793 327.314 131.738 327.169L130.694 327.564L130.738 327.729C130.787 327.848 130.82 327.973 130.837 328.1C130.858 328.178 130.882 328.266 130.903 328.344C131.023 328.792 131.164 329.319 131.271 329.719C130.14 330.022 128.963 330.39 127.81 330.73L127.585 329.891C127.452 329.394 127.275 328.929 127.083 328.447C126.892 327.966 126.662 327.421 126.438 326.937L126.108 326.252L130.295 324.085C130.12 323.745 129.928 323.378 129.724 323.046L129.708 322.987C129.385 322.447 129.041 321.943 128.695 321.43L127.826 322.091C127.855 322.143 127.886 322.194 127.92 322.243C127.938 322.283 127.969 322.315 128.007 322.335C128.256 322.718 128.468 323.079 128.697 323.467L129.012 323.979C127.976 324.56 126.97 325.216 125.928 325.851L125.486 325.101C125.222 324.66 124.923 324.207 124.642 323.822C124.361 323.437 124.093 323.102 123.786 322.734L123.129 321.959L126.65 318.831C126.437 318.585 126.233 318.368 125.994 318.139C125.932 318.061 125.864 317.988 125.789 317.922C125.344 317.508 124.884 317.119 124.409 316.671L123.711 317.58C123.766 317.642 123.829 317.696 123.9 317.738C124.241 318.034 124.564 318.344 124.886 318.645C125.008 318.79 125.16 318.927 125.292 319.069C124.468 319.896 123.663 320.792 122.852 321.667L122.326 321.15C121.918 320.757 121.495 320.39 121.081 320.051C120.666 319.713 120.304 319.454 119.893 319.167L119.139 318.658L121.748 314.698C121.502 314.529 121.245 314.378 120.978 314.245L120.135 313.75L119.03 313.178L118.578 314.261C118.817 314.375 119.057 314.488 119.326 314.594C119.595 314.7 120.124 315.039 120.562 315.308C119.95 316.34 119.412 317.414 118.828 318.47L118.066 318.047C117.616 317.812 117.172 317.597 116.703 317.367C116.233 317.137 115.693 316.916 115.163 316.734L114.483 316.498L115.975 312C115.389 311.802 114.835 311.647 114.179 311.499C113.771 311.42 113.358 311.322 112.953 311.252L112.791 312.404L112.972 312.418C113.415 312.509 113.876 312.594 114.327 312.714L114.942 312.904L114.1 316.392L113.207 316.181C112.737 316.067 112.265 315.984 111.774 315.907C111.283 315.829 110.848 315.768 110.355 315.722L109.431 315.667L109.736 311.069L108.484 311.039C107.891 311.051 107.287 311.098 106.641 311.146L106.768 312.282C107.526 312.226 108.258 312.186 109.003 312.196L109.015 312.788L109.086 315.822L108.109 315.843C107.563 315.85 107.017 315.885 106.474 315.947L106.461 315.898ZM139.354 357.347L138.271 357.637L137.597 355.121L136.768 355.343L137.74 358.971L140.666 358.187L140.368 357.075L139.354 357.347ZM127.649 360.483L126.596 360.766L125.922 358.249L125.073 358.477L126.045 362.105L128.971 361.321L128.673 360.209L127.649 360.483ZM133.501 358.915L132.419 359.205L131.745 356.689L130.915 356.911L131.888 360.539L134.814 359.755L134.516 358.643L133.501 358.915ZM115.886 363.635L114.813 363.923L114.139 361.406L113.31 361.628L114.282 365.257L117.16 364.486L116.862 363.374L115.886 363.635ZM121.739 362.067L120.695 362.347L120.021 359.83L119.162 360.06L120.135 363.689L123.061 362.905L122.763 361.793L121.739 362.067ZM104.182 366.771L103.128 367.054L102.454 364.537L101.596 364.767L102.568 368.396L105.494 367.612L105.196 366.5L104.182 366.771ZM110.034 365.203L108.961 365.491L108.287 362.974L107.429 363.204L108.401 366.833L111.327 366.049L111.029 364.937L110.034 365.203ZM104.364 310.177L104.395 310.294L104.364 310.177Z" fill="black"/>
<path d="M132.252 395.097C132.718 395.16 133.135 395.195 133.541 395.264C133.946 395.333 134.388 395.424 134.821 395.517L135.1 394.334L134.348 394.18L133.537 394.042L133.112 393.978L133.054 393.994C133.171 392.791 133.372 391.629 133.497 390.457C133.995 390.506 134.49 390.582 134.98 390.686C135.542 390.776 136.099 390.899 136.647 391.055C137.481 391.281 138.291 391.534 139.112 391.827C138.561 393.323 138.069 394.803 137.561 396.34C137.987 396.498 138.38 396.664 138.74 396.84C139.137 396.995 139.515 397.196 139.933 397.388L140.517 396.332C140.467 396.322 140.42 396.303 140.377 396.276L139.594 395.89L138.584 395.439C139.031 394.336 139.521 393.275 139.965 392.163C140.162 392.235 140.364 392.327 140.532 392.408C141.068 392.651 141.611 392.924 142.135 393.201L142.258 393.231C142.506 393.374 142.761 393.546 143.037 393.681C143.695 394.069 144.303 394.502 144.996 394.944L144.314 395.911L142.383 398.885C142.741 399.121 143.085 399.378 143.415 399.654C143.728 399.925 144.078 400.218 144.384 400.502L145.203 399.656C145.167 399.611 145.128 399.569 145.085 399.53C144.735 399.237 144.424 398.934 144.05 398.668C143.959 398.577 143.86 398.495 143.754 398.423L143.672 398.351C144.393 397.374 145.14 396.494 145.851 395.52C146.529 396.059 147.187 396.604 147.819 397.209C148.453 397.789 149.052 398.407 149.611 399.06C149.768 399.212 149.913 399.376 150.046 399.549C148.839 400.584 147.663 401.62 146.458 402.664C146.75 402.993 147.021 403.339 147.269 403.701C147.52 404.052 147.761 404.406 148.002 404.76L149.024 404.162C148.964 403.937 148.775 403.779 148.664 403.6L148.648 403.541C148.492 403.311 148.354 403.108 148.206 402.907C148.076 402.733 147.936 402.561 147.833 402.411C148.766 401.68 149.707 400.978 150.643 400.257C150.778 400.425 150.903 400.601 151.015 400.785C151.532 401.476 152.011 402.196 152.449 402.941C152.896 403.688 153.302 404.458 153.664 405.25C152.21 405.911 150.828 406.605 149.42 407.317C149.583 407.692 149.744 408.098 149.915 408.502C150.086 408.906 150.218 409.32 150.33 409.739L151.5 409.426C151.426 409.173 151.339 408.924 151.238 408.68C151.12 408.242 150.92 407.846 150.759 407.439C151.851 406.99 152.925 406.587 154.041 406.11C154.101 406.335 154.212 406.514 154.293 406.701C154.398 407.092 154.588 407.49 154.693 407.88C154.886 408.406 155.05 408.941 155.185 409.484L155.402 410.293L155.695 411.386L151.023 412.637L151.807 415.564L153.241 415.179L152.687 413.112L155.925 412.244L156.084 412.839L157.266 417.248L157.289 417.335L152.617 418.587L153.401 421.513L154.835 421.129L154.281 419.061L157.519 418.194L157.671 418.759L158.852 423.168L158.876 423.256L151.248 425.3C151.132 425.703 150.978 426.094 150.788 426.468C150.643 426.804 150.618 427.18 150.717 427.533C150.828 427.943 151.087 428.298 151.444 428.529C151.801 428.76 152.232 428.849 152.651 428.781L154.602 428.258C155.306 428.073 156.054 428.173 156.684 428.536C157.314 428.9 157.775 429.498 157.966 430.201C158.101 430.718 158.084 431.263 157.917 431.771L161.262 430.875C161.779 430.736 162.331 430.809 162.795 431.077C163.258 431.345 163.597 431.786 163.735 432.303L164.258 434.254L165.515 438.945L164.472 439.225L163.214 434.533L160.288 435.317L160.678 436.771L162.716 436.225L163.584 439.463L162.999 439.62L158.658 440.783L158.551 440.811L157.294 436.12L154.417 436.891L154.806 438.344L156.864 437.793L157.732 441.031L157.147 441.188L152.777 442.359L152.699 442.379L151.442 437.688L148.516 438.472L148.905 439.925L150.953 439.376L151.821 442.615L151.265 442.764L146.895 443.934L146.817 443.955L145.56 439.264L142.634 440.048L143.024 441.501L145.072 440.952L145.94 444.191L145.384 444.34L141.014 445.51L140.907 445.539L139.65 440.848L136.724 441.632L137.113 443.085L139.161 442.536L140.029 445.774L139.453 445.929L135.084 447.099L134.996 447.123L133.739 442.431L130.813 443.215L131.202 444.669L133.25 444.12L134.118 447.358L133.543 447.512L129.173 448.683L129.085 448.707L127.828 444.015L124.902 444.799L125.291 446.252L127.33 445.706L128.198 448.945L127.651 449.091L123.282 450.262L123.194 450.285L121.406 443.614C121.268 443.096 121.34 442.545 121.608 442.081C121.876 441.617 122.317 441.279 122.834 441.14L125.38 440.458C124.994 440.093 124.715 439.629 124.571 439.117C124.384 438.419 124.48 437.674 124.838 437.046C125.196 436.418 125.788 435.956 126.484 435.761L128.503 435.22C128.901 435.07 129.229 434.777 129.423 434.398C129.617 434.02 129.664 433.583 129.554 433.172C129.437 432.765 129.187 432.409 128.844 432.16C128.59 432.013 128.354 431.838 128.139 431.638C127.261 430.935 126.634 429.965 126.354 428.876C126.159 428.164 126.115 427.419 126.226 426.689C126.336 425.959 126.598 425.26 126.995 424.637C126.995 424.637 127.054 424.621 127.057 424.558C129.222 421.322 132.353 418.414 131.862 412.952C132.264 412.566 132.607 412.122 132.878 411.635C133.554 410.408 133.729 408.968 133.369 407.614L132.598 407.821C132.905 408.963 132.763 410.179 132.202 411.22C132.003 411.557 131.769 411.873 131.503 412.16C130.688 412.863 129.693 413.325 128.63 413.494C127.748 413.623 126.849 413.534 126.01 413.235C124.66 414.077 123.572 415.279 122.867 416.705C122.161 418.131 121.867 419.725 122.016 421.309L119.001 421.761L114.883 418.411L118.715 403.293L118.784 402.887L122.534 399.091L121.711 390.248C122.577 390.082 123.473 390.226 124.243 390.654C125.013 391.082 125.608 391.767 125.925 392.59L127.407 395.277L127.466 395.261C128.121 395.169 128.767 395.121 129.4 395.067L129.375 393.881C129.327 393.878 129.279 393.891 129.239 393.918C128.798 393.911 128.365 393.974 127.903 394.004C127.737 394.049 127.542 394.101 127.361 394.087L127.302 394.103C127.125 392.896 126.998 391.759 126.821 390.552C127.459 390.475 128.055 390.399 128.672 390.359C129.103 390.327 129.583 390.324 130.05 390.314C130.9 390.3 131.751 390.334 132.597 390.415C132.46 392.01 132.406 393.603 132.27 395.165L132.252 395.097ZM123.687 404.605C123.777 404.584 123.862 404.545 123.936 404.491C124.011 404.436 124.074 404.367 124.122 404.289C124.17 404.21 124.202 404.122 124.215 404.03C124.229 403.939 124.224 403.846 124.202 403.756C124.137 403.596 124.017 403.465 123.862 403.387C123.707 403.31 123.53 403.292 123.363 403.337C123.196 403.381 123.051 403.486 122.956 403.63C122.861 403.774 122.822 403.949 122.846 404.12C122.896 404.294 123.011 404.442 123.168 404.533C123.325 404.624 123.511 404.65 123.687 404.605ZM128.021 396.356L128.536 397.264C132.719 396.79 136.935 397.8 140.449 400.118C143.963 402.436 146.551 405.915 147.762 409.947L147.793 410.064L147.882 410.395L148.331 412.073L151.122 422.49C151.259 422.927 151.321 423.384 151.307 423.841C151.324 423.889 151.337 423.938 151.346 423.987L157.423 422.359L156.639 419.433L155.536 419.729L156.09 421.796L152.521 422.753L151.167 417.7L155.839 416.449L155.055 413.522L153.953 413.818L154.507 415.886L150.937 416.842L149.651 412.043L149.575 411.76L154.14 410.537L153.923 409.728C153.786 409.175 153.619 408.63 153.423 408.095C153.397 407.942 153.357 407.792 153.303 407.646L152.261 408.051L152.305 408.217C152.352 408.333 152.385 408.454 152.402 408.578C152.426 408.665 152.447 408.743 152.47 408.831C152.59 409.28 152.716 409.748 152.836 410.197C151.705 410.5 150.53 410.877 149.378 411.218L149.153 410.379C149.017 409.871 148.843 409.416 148.648 408.925C148.454 408.433 148.227 407.898 148.006 407.424L147.673 406.729L151.875 404.621C151.7 404.281 151.505 403.905 151.301 403.572C150.976 403.022 150.632 402.518 150.288 402.014L149.417 402.666C149.444 402.719 149.475 402.77 149.511 402.819C149.53 402.861 149.561 402.896 149.6 402.92C149.849 403.303 150.061 403.664 150.291 404.052C150.343 404.247 150.495 404.384 150.605 404.564C149.567 405.135 148.564 405.801 147.521 406.436L147.08 405.686C146.815 405.245 146.516 404.792 146.238 404.417C145.96 404.042 145.689 403.696 145.382 403.329L144.722 402.544L148.243 399.416C148.034 399.179 147.829 398.962 147.587 398.724C147.524 398.647 147.456 398.575 147.383 398.507C146.938 398.093 146.478 397.704 146.005 397.266L145.308 398.174C145.36 398.239 145.424 398.293 145.496 398.333C145.84 398.638 146.161 398.939 146.482 399.24C146.604 399.385 146.758 399.531 146.891 399.674C146.064 400.491 145.261 401.396 144.451 402.272L143.925 401.754C143.514 401.352 143.079 400.936 142.677 400.646C142.297 400.334 141.901 400.043 141.491 399.772L140.736 399.253L143.344 395.293C143.098 395.123 142.841 394.972 142.574 394.84L141.731 394.345C141.355 394.153 141.004 393.975 140.634 393.802L140.174 394.856C140.414 394.97 140.653 395.083 140.922 395.189C141.191 395.294 141.721 395.633 142.159 395.903C141.546 396.934 141.009 398.009 140.424 399.065L139.66 398.632C139.21 398.397 138.768 398.191 138.296 397.952C137.824 397.712 137.287 397.501 136.757 397.319L136.077 397.083L137.569 392.585C136.981 392.392 136.383 392.231 135.778 392.103C135.364 392.005 134.951 391.907 134.546 391.837L134.384 392.989C134.444 392.986 134.504 392.987 134.563 392.993L135.918 393.289L136.536 393.489L135.693 396.977L134.8 396.766C134.331 396.652 133.859 396.569 133.368 396.492C132.877 396.414 132.442 396.353 131.946 396.297L131.025 396.252L131.282 391.478L130.033 391.458C129.44 391.47 128.833 391.507 128.19 391.565L128.314 392.692C129.075 392.645 129.804 392.596 130.549 392.605L130.562 393.198L130.632 396.231L129.655 396.253C129.129 396.279 128.62 396.29 128.024 396.366L128.021 396.356ZM160.911 437.796L159.828 438.086L159.154 435.569L158.325 435.791L159.297 439.42L162.223 438.636L161.925 437.524L160.911 437.796ZM149.206 440.932L148.153 441.214L147.478 438.698L146.63 438.925L147.602 442.553L150.528 441.769L150.23 440.657L149.206 440.932ZM155.058 439.364L153.976 439.654L153.301 437.137L152.472 437.36L153.445 440.988L156.371 440.204L156.073 439.092L155.058 439.364ZM137.443 444.084L136.37 444.371L135.696 441.855L134.867 442.077L135.839 445.705L138.717 444.934L138.419 443.822L137.443 444.084ZM143.295 442.516L142.252 442.795L141.578 440.279L140.719 440.509L141.691 444.137L144.618 443.353L144.32 442.241L143.295 442.516ZM125.739 447.22L124.685 447.502L124.011 444.986L123.153 445.216L124.125 448.844L127.051 448.06L126.753 446.948L125.739 447.22ZM131.591 445.652L130.518 445.939L129.844 443.423L128.986 443.653L129.958 447.281L132.884 446.497L132.586 445.385L131.591 445.652ZM125.923 390.635L125.952 390.743L125.923 390.635Z" fill="black"/>
<path d="M291.587 352.403C292.024 352.474 292.441 352.509 292.847 352.578C293.252 352.647 293.694 352.738 294.137 352.828L294.406 351.648L293.654 351.494L292.843 351.356C292.691 351.334 292.568 351.304 292.418 351.292L292.36 351.307C292.506 350.097 292.678 348.943 292.803 347.77C293.301 347.818 293.796 347.894 294.286 348C294.851 348.091 295.411 348.214 295.963 348.366C296.787 348.595 297.597 348.848 298.418 349.141C297.867 350.637 297.405 352.109 296.896 353.646C297.296 353.811 297.696 353.976 298.076 354.146C298.483 354.305 298.882 354.488 299.268 354.694L299.843 353.641C299.795 353.634 299.749 353.613 299.712 353.582C299.436 353.447 299.188 353.304 298.919 353.198C298.651 353.093 298.282 352.888 297.91 352.747C298.357 351.645 298.846 350.584 299.29 349.471C299.487 349.544 299.69 349.636 299.858 349.717C300.406 349.953 300.941 350.218 301.461 350.51L301.584 350.54C301.831 350.683 302.086 350.855 302.363 350.99C303.031 351.375 303.628 351.811 304.331 352.25L303.64 353.219L301.679 356.201C302.04 356.437 302.388 356.693 302.721 356.968C303.053 357.234 303.374 357.535 303.69 357.816L304.509 356.969C304.493 356.911 304.427 356.897 304.382 356.847C304.041 356.551 303.72 356.25 303.356 355.982C303.259 355.895 303.157 355.814 303.05 355.74L302.968 355.668C303.679 354.693 304.426 353.814 305.137 352.839C305.815 353.379 306.473 353.924 307.106 354.528C307.749 355.101 308.351 355.718 308.908 356.376C309.058 356.533 309.199 356.697 309.332 356.869C308.125 357.903 306.95 358.939 305.755 359.981C306.048 360.32 306.318 360.666 306.566 361.018C306.83 361.355 307.072 361.709 307.289 362.079L308.32 361.478C308.212 361.284 308.092 361.096 307.96 360.916L307.945 360.858C307.789 360.628 307.651 360.424 307.503 360.223C307.372 360.049 307.262 359.87 307.139 359.725C308.063 358.997 309.004 358.295 309.939 357.574C310.075 357.741 310.199 357.918 310.311 358.101C310.832 358.792 311.314 359.511 311.756 360.255C312.187 361.007 312.599 361.764 312.96 362.566C311.536 363.22 310.183 363.906 308.716 364.634C308.879 365.008 309.05 365.412 309.211 365.818C309.381 366.22 309.523 366.632 309.636 367.053L310.797 366.742C310.737 366.518 310.661 366.235 310.593 365.981C310.417 365.558 310.275 365.147 310.114 364.74C311.206 364.291 312.26 363.893 313.376 363.417C313.436 363.641 313.489 363.836 313.619 364.01C313.724 364.4 313.924 364.796 314.048 365.181C314.197 365.737 314.338 366.264 314.482 366.8L314.698 367.61L314.991 368.702L310.348 369.946L311.132 372.872L312.547 372.493L311.993 370.426L315.221 369.56L315.381 370.155L316.562 374.564L316.585 374.652L311.943 375.896L312.727 378.822L314.141 378.443L313.587 376.375L316.815 375.51L316.967 376.076L318.148 380.485L318.172 380.572L310.544 382.616C310.432 383.021 310.278 383.412 310.084 383.785C309.944 384.122 309.919 384.496 310.014 384.849C310.124 385.26 310.383 385.615 310.74 385.846C311.098 386.076 311.528 386.166 311.948 386.098L313.967 385.557C314.667 385.377 315.41 385.481 316.035 385.846C316.659 386.211 317.114 386.808 317.301 387.507C317.436 388.024 317.419 388.57 317.252 389.078L320.597 388.181C321.115 388.042 321.666 388.115 322.13 388.383C322.594 388.651 322.932 389.092 323.071 389.609L323.593 391.56L324.851 396.251L323.797 396.534L322.54 391.842L319.614 392.626L320.003 394.079L322.052 393.531L322.919 396.769L322.363 396.918L317.994 398.089L317.886 398.117L316.629 393.426L313.703 394.21L314.093 395.663L316.141 395.114L317.009 398.353L316.423 398.509L312.064 399.678L311.976 399.701L310.719 395.01L307.793 395.794L308.182 397.247L310.201 396.706L311.069 399.944L310.522 400.091L306.153 401.261L306.065 401.285L304.808 396.593L301.882 397.378L302.271 398.831L304.32 398.282L305.187 401.52L304.641 401.667L300.271 402.837L300.184 402.861L298.926 398.169L296 398.953L296.39 400.407L298.428 399.86L299.296 403.099L298.721 403.253L294.351 404.424L294.263 404.447L293.006 399.756L290.138 400.524L290.528 401.977L292.566 401.431L293.434 404.669L292.859 404.824L288.489 405.994L288.401 406.018L287.144 401.326L284.218 402.111L284.607 403.564L286.656 403.015L287.523 406.253L286.967 406.402L282.598 407.573L282.52 407.594L280.732 400.922C280.593 400.405 280.666 399.854 280.934 399.39C281.202 398.926 281.643 398.588 282.16 398.449L284.706 397.767C284.3 397.415 284.009 396.951 283.868 396.434C283.683 395.734 283.781 394.989 284.141 394.36C284.5 393.732 285.093 393.27 285.79 393.075L287.946 392.498C288.345 392.347 288.673 392.054 288.869 391.675C289.065 391.297 289.114 390.859 289.006 390.447C288.89 390.037 288.635 389.681 288.286 389.437C288.032 389.291 287.796 389.115 287.582 388.915C286.554 388.097 285.868 386.925 285.658 385.629C285.448 384.332 285.728 383.003 286.445 381.902C286.445 381.902 286.445 381.902 286.488 381.828C288.643 378.595 291.802 375.679 291.292 370.223C291.694 369.829 292.042 369.384 292.328 368.9C292.981 367.668 293.145 366.235 292.789 364.887L292.019 365.094C292.33 366.235 292.189 367.453 291.623 368.493C291.429 368.834 291.194 369.149 290.923 369.433C290.117 370.131 289.132 370.59 288.08 370.759C287.192 370.892 286.286 370.804 285.44 370.505C284.089 371.347 282.999 372.549 282.292 373.975C281.585 375.402 281.289 376.997 281.436 378.582L278.421 379.034L274.241 375.722L278.072 360.603L278.141 360.198L281.891 356.402L281.069 347.559C281.934 347.393 282.83 347.537 283.6 347.965C284.371 348.393 284.966 349.078 285.282 349.901L286.775 352.585C287.43 352.493 288.075 352.445 288.709 352.39L288.684 351.205C288.636 351.202 288.588 351.215 288.548 351.242C288.107 351.234 287.674 351.298 287.212 351.328C287.046 351.372 286.851 351.425 286.669 351.411L286.611 351.426C286.443 350.217 286.316 349.08 286.139 347.873C286.768 347.798 287.374 347.72 287.981 347.683C288.588 347.645 288.891 347.648 289.359 347.637C290.209 347.622 291.059 347.656 291.906 347.739C291.798 349.326 291.714 350.926 291.608 352.481L291.587 352.403ZM283.022 361.911C283.197 361.862 283.345 361.746 283.436 361.589C283.526 361.432 283.552 361.246 283.508 361.07C283.475 360.933 283.402 360.808 283.297 360.712C283.193 360.617 283.062 360.555 282.922 360.535C282.782 360.514 282.639 360.536 282.512 360.598C282.385 360.66 282.279 360.758 282.208 360.88C282.137 361.003 282.105 361.144 282.115 361.285C282.125 361.426 282.178 361.561 282.266 361.672C282.353 361.783 282.472 361.865 282.607 361.908C282.742 361.951 282.887 361.952 283.022 361.911ZM287.337 353.667L287.842 354.578C292.027 354.106 296.245 355.116 299.762 357.432C303.28 359.748 305.875 363.222 307.097 367.253L307.217 367.701L307.667 369.379L310.458 379.796C310.584 380.235 310.646 380.69 310.642 381.147C310.658 381.206 310.666 381.235 310.681 381.294L316.738 379.671L315.954 376.745L314.842 377.042L315.396 379.11L311.797 380.075L310.444 375.022L315.125 373.768L314.341 370.842L313.229 371.14L313.784 373.207L310.214 374.164L308.928 369.365L308.852 369.082L313.417 367.859L313.2 367.05C313.051 366.494 312.899 365.928 312.758 365.401C312.722 365.265 312.675 365.089 312.638 364.952L311.587 365.36L311.631 365.525C311.678 365.641 311.71 365.763 311.728 365.886C311.751 365.974 311.772 366.052 311.796 366.14C311.916 366.589 312.041 367.057 312.162 367.505C311.02 367.811 309.856 368.186 308.723 368.521L308.498 367.682C308.359 367.188 308.191 366.702 307.993 366.228C307.809 365.716 307.594 365.215 307.351 364.728L307.018 364.033L311.23 361.922C311.045 361.584 310.86 361.205 310.647 360.876C310.321 360.325 309.977 359.822 309.643 359.315L308.772 359.967C308.791 360.021 308.806 360.076 308.817 360.133C308.817 360.133 308.84 360.22 308.906 360.234C309.155 360.617 309.377 360.976 309.597 361.366L309.911 361.878C308.882 362.446 307.87 363.115 306.857 363.742L306.386 363C306.121 362.559 305.822 362.106 305.544 361.731C305.266 361.356 304.996 361.01 304.688 360.643L304.038 359.855L307.549 356.73C307.34 356.493 307.135 356.276 306.893 356.038C306.834 355.958 306.765 355.885 306.689 355.821C306.253 355.404 305.794 355.015 305.311 354.58L304.604 355.491C304.656 355.555 304.72 355.609 304.793 355.649C305.136 355.955 305.457 356.255 305.778 356.556C305.9 356.701 306.065 356.845 306.187 356.99C305.361 357.808 304.558 358.713 303.747 359.588L303.221 359.071C302.825 358.68 302.408 358.31 301.973 357.962C301.596 357.645 301.196 357.366 300.797 357.086L300.032 356.57L302.65 352.606C302.395 352.434 302.147 352.292 301.9 352.149L301.027 351.661C300.671 351.462 300.305 351.281 299.93 351.119L299.48 352.17C299.71 352.286 299.979 352.392 300.218 352.505C300.458 352.619 301.017 352.95 301.455 353.219C300.843 354.251 300.305 355.326 299.73 356.379L298.956 355.948C298.506 355.713 298.064 355.508 297.592 355.268C297.121 355.029 296.583 354.817 296.053 354.635L295.373 354.399L296.865 349.902C296.277 349.709 295.679 349.548 295.074 349.42C294.661 349.321 294.248 349.223 293.852 349.151L293.681 350.305C293.74 350.301 293.8 350.302 293.859 350.31L295.214 350.605L295.861 350.798L294.989 354.293L294.097 354.083C293.625 353.965 293.146 353.873 292.664 353.808C292.202 353.723 291.738 353.669 291.252 353.611L290.321 353.568L290.579 348.795C290.169 348.79 289.777 348.769 289.329 348.774C288.881 348.779 288.13 348.824 287.496 348.879L287.62 350.006C288.372 349.961 289.101 349.912 289.846 349.922L289.858 350.514L289.929 353.548L288.952 353.569C288.425 353.595 287.916 353.606 287.33 353.68L287.337 353.667ZM320.217 395.11L319.163 395.392L318.489 392.875L317.64 393.103L318.613 396.731L321.539 395.947L321.241 394.835L320.217 395.11ZM308.512 398.246L307.439 398.533L306.765 396.017L305.907 396.247L306.879 399.875L309.805 399.091L309.507 397.979L308.512 398.246ZM314.364 396.678L313.292 396.965L312.617 394.449L311.788 394.671L312.76 398.299L315.628 397.531L315.33 396.419L314.364 396.678ZM296.808 401.382L295.637 401.696L294.963 399.179L294.134 399.401L295.106 403.03L298.032 402.246L297.734 401.134L296.808 401.382ZM302.66 399.814L301.616 400.093L300.942 397.577L300.084 397.807L301.056 401.435L303.982 400.651L303.684 399.539L302.66 399.814ZM285.055 404.531L283.933 404.832L283.259 402.315L282.4 402.545L283.373 406.174L286.299 405.39L286.001 404.278L285.055 404.531ZM290.907 402.963L289.785 403.264L289.111 400.747L288.253 400.977L289.225 404.606L292.151 403.821L291.853 402.71L290.907 402.963Z" fill="black"/>
</svg>
