<svg width="344" height="409" viewBox="0 0 344 409" fill="none" xmlns="http://www.w3.org/2000/svg">
<path fill-rule="evenodd" clip-rule="evenodd" d="M100.791 405.735L175.418 385.739L152.621 300.659L68.3882 323.229L88.592 398.631C89.2768 401.187 90.9431 403.37 93.2286 404.704C95.5141 406.038 98.234 406.416 100.797 405.756L100.791 405.735Z" fill="#FFC1B9"/>
<path d="M168.441 22.8886L84.2388 45.4504L107.036 130.53L191.238 107.968L168.441 22.8886Z" fill="#FFC1B9"/>
<path fill-rule="evenodd" clip-rule="evenodd" d="M214.037 193.015L129.824 215.579L152.621 300.659L236.834 278.094L259.631 363.174L334.258 343.178C336.807 342.469 338.974 340.781 340.286 338.483C341.598 336.185 341.95 333.462 341.265 330.905L323.676 265.265C322.992 262.708 321.325 260.526 319.04 259.191C316.754 257.857 314.034 257.479 311.472 258.14L246.399 275.576C243.837 276.236 241.118 275.857 238.834 274.522C236.551 273.187 234.886 271.004 234.205 268.448L216.594 202.725C215.907 200.17 216.256 197.447 217.567 195.149C218.877 192.851 221.042 191.164 223.591 190.455L213.995 193.026L191.207 107.977L275.439 85.4068L295.629 160.757C296.32 163.313 295.971 166.039 294.658 168.339C293.345 170.639 291.175 172.325 288.622 173.03L214.037 193.015Z" fill="#FFC1B9"/>
<path d="M236.823 278.097L152.621 300.659L175.418 385.739L259.62 363.177L236.823 278.097Z" fill="#6C93E7"/>
<path fill-rule="evenodd" clip-rule="evenodd" d="M243.078 2.88966L168.451 22.8859L191.248 107.966L275.481 85.3956L255.277 9.99401C254.592 7.43769 252.926 5.25513 250.64 3.92087C248.355 2.58662 245.635 2.20859 243.072 2.86902L243.078 2.88966Z" fill="#6C93E7"/>
<path fill-rule="evenodd" clip-rule="evenodd" d="M55.1976 235.575L120.27 218.139C122.823 217.435 124.993 215.748 126.306 213.448C127.619 211.149 127.968 208.423 127.277 205.866L109.686 140.215C109.006 137.656 107.341 135.47 105.054 134.134C102.767 132.799 100.044 132.424 97.4815 133.09L32.4089 150.526C29.8461 151.187 27.1263 150.809 24.8408 149.474C22.5553 148.14 20.889 145.958 20.2041 143.401L2.60468 77.7193C1.91961 75.1631 2.27139 72.4397 3.58357 70.1415C4.89575 67.8432 7.0622 66.1559 9.6118 65.4465L84.2387 45.4503L107.036 130.53L191.248 107.965L214.037 193.014L129.825 215.579L152.622 300.659L68.3888 323.229L48.185 247.827C47.4999 245.271 47.8517 242.548 49.1639 240.25C50.4761 237.951 52.6425 236.264 55.1921 235.554L55.1976 235.575Z" fill="#6C93E7"/>
<path d="M46.3006 77.3917C45.9212 77.6501 45.5561 77.929 45.207 78.2271C44.8409 78.5134 44.5058 78.7914 44.1584 79.1059L43.2928 78.2308L43.9011 77.6914L44.5686 77.1251C44.6941 77.0396 44.813 76.9448 44.9244 76.8415L44.9863 76.8249C44.2536 75.8256 43.4541 74.8664 42.7103 73.8258L41.4717 74.8219C41.0168 75.2317 40.5827 75.6358 40.1437 76.0634C39.4818 76.6947 38.8639 77.3707 38.2946 78.0866C39.5915 79.1672 40.8238 80.254 42.1063 81.4049C41.8021 81.7375 41.5278 82.0963 41.2865 82.477C41.0073 82.8397 40.7674 83.225 40.4834 83.6111L39.388 82.9525C39.45 82.9359 39.4589 82.8449 39.4816 82.8057C39.6535 82.5382 39.8439 82.2989 39.9952 82.037C40.1464 81.7751 40.465 81.4351 40.6905 81.1201C39.6942 80.3353 38.678 79.6002 37.692 78.8126C37.558 79.0146 37.4025 79.1781 37.2966 79.3614C36.937 79.8785 36.5746 80.3852 36.2412 80.9174L36.1497 81.0304C35.9985 81.2924 35.8472 81.5543 35.6754 81.8218C35.2781 82.5703 34.9607 83.2864 34.5401 84.0301L35.6827 84.5763L39.0208 86.2503C38.8284 86.6893 38.6539 87.1125 38.4815 87.5019C38.3091 87.8913 38.1664 88.3502 38.0415 88.7932L36.8343 88.4193C36.8343 88.4193 36.8637 88.3228 36.8864 88.2835C37.0526 87.8294 37.1774 87.3863 37.3718 86.9136C37.41 86.7922 37.4601 86.6749 37.5215 86.5635L37.5503 86.4229L37.5364 86.3713C36.3662 85.8877 35.2147 85.4324 34.0473 84.9592C33.7087 85.8028 33.3936 86.6511 33.128 87.5193C32.8625 88.3875 32.6417 89.2991 32.4727 90.1968C32.4044 90.4149 32.357 90.6389 32.3309 90.8659C33.9803 91.1546 35.607 91.4826 37.2702 91.8229C37.1744 92.2715 37.1075 92.7257 37.07 93.1829L36.9663 94.5724L35.7023 94.5236C35.6469 94.317 35.7361 94.0717 35.7428 93.8485C35.7721 93.586 35.791 93.3263 35.812 93.0328C35.8544 92.8176 35.8811 92.5995 35.8918 92.3804C34.649 92.2042 33.4228 92.0899 32.1799 91.9137C32.1526 92.1424 32.1151 92.3739 32.1105 92.5634C32.0071 93.4859 31.9526 94.4133 31.9471 95.3416C31.9301 96.2526 31.9636 97.1639 32.0475 98.0713C33.7363 97.9287 35.3659 97.8131 37.0348 97.7202C37.0891 98.1706 37.1564 98.6286 37.2135 99.0893C37.2734 99.5467 37.3652 99.9993 37.4879 100.444L36.2587 100.773C36.1727 100.512 36.1015 100.247 36.0456 99.9779C35.9442 99.5153 35.8704 99.0471 35.8249 98.5758C34.5797 98.7212 33.382 98.9203 32.1114 99.0947C32.1667 99.3013 32.1685 99.5555 32.1928 99.7704C32.3035 100.184 32.3344 100.629 32.4534 101.073C32.5543 101.657 32.687 102.235 32.8508 102.805L33.0805 103.662L33.3794 104.777L38.327 103.452L39.1573 106.55L37.639 106.957L37.0522 104.767L33.623 105.686L33.789 106.306L35.0428 110.985L35.0649 111.068L40.0125 109.742L40.8428 112.841L39.3244 113.248L38.7377 111.058L35.3085 111.977L35.4745 112.596L36.7283 117.275L36.7504 117.358L44.8277 115.194C45.1459 115.504 45.4947 115.782 45.8688 116.022C46.1816 116.252 46.4038 116.584 46.4967 116.961C46.6154 117.396 46.5671 117.86 46.3612 118.261C46.1553 118.662 45.8068 118.972 45.3841 119.13L43.3183 119.683C42.571 119.889 41.9358 120.383 41.5518 121.057C41.1679 121.73 41.0665 122.528 41.2699 123.277C41.4194 123.819 41.7231 124.307 42.1444 124.681L38.6015 125.63C38.0536 125.777 37.5865 126.135 37.3029 126.626C37.0193 127.118 36.9425 127.701 37.0893 128.249L37.6428 130.315L38.9823 135.314L40.0875 135.018L38.748 130.019L41.8467 129.189L42.2591 130.728L40.09 131.309L41.0172 134.769L46.3469 133.341L45.0074 128.342L48.0544 127.525L48.4668 129.064L46.2977 129.646L47.2248 133.106L52.5546 131.678L51.2151 126.678L54.3138 125.848L54.7262 127.387L52.557 127.968L53.4842 131.429L58.783 130.009L57.4434 125.01L60.5421 124.179L60.9545 125.718L58.7854 126.299L59.7126 129.76L65.0423 128.332L63.7028 123.332L66.8015 122.502L67.2139 124.041L65.0448 124.622L65.972 128.082L71.3017 126.654L69.9621 121.655L73.0608 120.825L73.4732 122.364L71.3042 122.945L72.2313 126.405L77.561 124.977L76.2215 119.978L79.3202 119.148L79.7326 120.687L77.5739 121.265L78.501 124.725L83.7998 123.305L81.9067 116.24C81.7599 115.693 81.4015 115.225 80.9102 114.942C80.419 114.658 79.8353 114.581 79.2874 114.728L76.6018 115.448C76.7527 114.911 76.7611 114.344 76.6261 113.803C76.4322 113.057 75.9512 112.418 75.2881 112.026C74.6251 111.633 73.8337 111.518 73.0865 111.707L70.9484 112.28C70.5036 112.355 70.0468 112.261 69.6678 112.016C69.2888 111.771 69.0151 111.394 68.9003 110.958C68.7952 110.532 68.839 110.082 69.0242 109.685C69.1695 109.408 69.2921 109.119 69.3909 108.822C69.8245 107.705 69.884 106.477 69.5603 105.323C69.365 104.567 69.0088 103.862 68.516 103.257C68.0233 102.651 67.4056 102.16 66.7051 101.815C66.708 101.804 66.708 101.792 66.7051 101.782C66.7022 101.771 66.6965 101.761 66.6885 101.753C62.9791 99.8906 58.5708 98.8909 56.1267 93.6119C55.5449 93.497 54.9912 93.2692 54.4969 92.9416C53.2271 92.1911 52.3037 90.9711 51.9263 89.5453L52.7526 89.3239C53.077 90.531 53.846 91.5707 54.9052 92.2344C55.2728 92.4202 55.6525 92.581 56.0416 92.7159C57.161 92.9379 58.3203 92.8384 59.3855 92.4288C60.2597 92.0756 61.0366 91.5182 61.6511 90.8032C63.3348 90.8616 64.9691 91.3874 66.371 92.3217C67.773 93.256 68.8873 94.562 69.5892 96.0935L72.5855 94.881L74.6554 89.6325L63.142 77.8165L62.8641 77.4813L57.4178 75.9959L53.4869 67.4399C52.6084 67.7445 51.8643 68.3472 51.3839 69.1433C50.9035 69.9394 50.7172 70.8786 50.8573 71.7978L50.8342 74.8927L50.7722 74.9093C50.1299 75.1545 49.504 75.4406 48.8982 75.7657L48.2852 74.6347C48.3362 74.6364 48.3865 74.6229 48.4298 74.5959C48.849 74.384 49.2608 74.1851 49.709 73.9986L50.2418 73.7562L50.3038 73.7395C49.8353 72.5698 49.3498 71.46 48.873 70.2593C48.2596 70.4956 47.6589 70.7637 47.0734 71.0626C46.6617 71.2614 46.2116 71.4817 45.7772 71.7198C44.9939 72.1844 44.2395 72.6743 43.501 73.1822C44.4711 74.5717 45.3504 75.9525 46.3185 77.3758L46.3006 77.3917ZM59.159 81.585C58.9672 81.6363 58.7629 81.6094 58.591 81.5102C58.4191 81.4109 58.2936 81.2474 58.2422 81.0556C58.1909 80.8639 58.2177 80.6596 58.317 80.4876C58.4163 80.3157 58.5797 80.1903 58.7715 80.1389C58.8664 80.1135 58.9655 80.107 59.0629 80.1198C59.1604 80.1326 59.2544 80.1645 59.3395 80.2137C59.4246 80.2628 59.4993 80.3283 59.5591 80.4063C59.6189 80.4842 59.6628 80.5732 59.6883 80.6682C59.7137 80.7631 59.7202 80.8622 59.7074 80.9596C59.6945 81.0571 59.6626 81.1511 59.6135 81.2362C59.5643 81.3213 59.4989 81.3959 59.4209 81.4558C59.3429 81.5156 59.2539 81.5595 59.159 81.585ZM50.8476 76.3061L50.8558 77.411C46.7756 79.204 43.4529 82.3704 41.4656 86.3595C39.4783 90.3487 38.9522 94.9082 39.9786 99.2451L40.009 99.3588L40.1059 99.7203L40.5819 101.497L43.5378 112.528C43.6457 113.001 43.8303 113.452 44.0842 113.865C44.0842 113.865 44.1091 113.958 44.123 114.01L37.688 115.734L36.8577 112.635L38.0249 112.323L38.6116 114.512L42.392 113.499L40.9501 108.118L36.0025 109.444L35.1722 106.345L36.3394 106.032L36.9262 108.222L40.7065 107.209L39.3227 102.045L39.2535 101.786L34.3679 103.095L34.1382 102.238C33.9711 101.659 33.8356 101.07 33.7325 100.476C33.6716 100.312 33.6262 100.142 33.5968 99.9699L34.7718 99.81L34.8188 99.9856C34.8371 100.12 34.8724 100.252 34.924 100.378C34.9461 100.461 34.971 100.554 34.9932 100.636C35.1205 101.111 35.2478 101.587 35.3834 102.093C36.5816 101.772 37.8555 101.486 39.0847 101.156L38.8494 100.278C38.7138 99.7722 38.5727 99.2454 38.5424 98.6779C38.5121 98.1103 38.3936 97.5443 38.3372 96.9616L38.2825 96.1792L33.3096 96.4599C33.2815 96.0246 33.272 95.6176 33.2832 95.205L33.2666 95.143C33.2762 94.4762 33.325 93.8321 33.3655 93.157L34.5174 93.3244C34.5313 93.376 34.5479 93.438 34.4942 93.4856C34.5034 93.5404 34.4953 93.5968 34.471 93.6468C34.4371 94.0987 34.4425 94.5733 34.4292 95.0197L34.4142 95.6658C35.6692 95.6395 36.9387 95.7089 38.2338 95.7494L38.2416 94.8284C38.2479 94.2905 38.2813 93.7532 38.3416 93.2186C38.3982 92.7274 38.4548 92.2361 38.5507 91.7676L38.7402 90.6984L33.8546 89.6937C33.9117 89.3617 33.9902 89.0337 34.0896 88.7119C34.1046 88.6075 34.1289 88.5046 34.1623 88.4046C34.3434 87.7583 34.5506 87.127 34.769 86.5371L35.8785 86.9594C35.8331 87.038 35.8243 87.129 35.7789 87.2075C35.6231 87.6589 35.4907 88.1151 35.3555 88.5609C35.3199 88.7586 35.2534 88.9646 35.2075 89.1651C36.4009 89.4875 37.6137 89.8821 38.8154 90.2354L39.0232 89.4823C39.1954 88.9269 39.3883 88.3659 39.5895 87.836C39.7907 87.3061 39.9962 86.8746 40.214 86.4066L40.6324 85.5307L36.1351 83.2484L36.6012 82.4261C36.7547 82.1248 36.9283 81.8342 37.1209 81.5562C37.3608 81.1709 37.5828 80.8014 37.8311 80.4471L38.8108 81.1698C38.6512 81.4008 38.5 81.6627 38.3095 81.902C38.119 82.1412 37.8125 82.7326 37.5533 83.2116C38.661 83.8337 39.7309 84.5212 40.8159 85.1826L41.2903 84.3912C41.5783 83.9376 41.8636 83.4737 42.1806 83.0456C42.4976 82.6175 42.8862 82.1259 43.2569 81.6501L43.7529 81.0633L40.0031 77.7285C40.4379 77.2334 40.8993 76.7624 41.3853 76.3175C41.7121 76.0085 42.0444 75.7202 42.3796 75.4422L43.1211 76.3505L42.9705 76.4905C42.6127 76.8078 42.2342 77.1307 41.8847 77.4789C41.7395 77.6396 41.5579 77.7879 41.4127 77.9486L44.0405 80.7317L44.7478 80.0661C45.1207 79.7227 45.5012 79.3661 45.9106 79.0349C46.2918 78.7068 46.6959 78.4061 47.1198 78.1353L47.9326 77.5743L45.271 73.5493C45.6454 73.294 46.0234 73.0931 46.4061 72.8687C46.9695 72.5391 47.5518 72.2426 48.1498 71.9808L48.6354 73.0906C47.9141 73.4136 47.2141 73.7823 46.5399 74.1945L46.8423 74.7446L48.3755 77.5331L49.2828 77.0354C49.7791 76.7806 50.3119 76.5382 50.8476 76.3061ZM42.6261 131.725L43.7726 131.418L43.0502 128.722L43.9281 128.487L44.966 132.36L41.8673 133.191L41.5518 132.013L42.6261 131.725ZM55.0725 128.39L56.188 128.091L55.4656 125.396L56.3643 125.155L57.4021 129.028L54.3034 129.858L53.9879 128.681L55.0725 128.39ZM48.8751 130.051L50.0216 129.744L49.2992 127.048L50.1772 126.813L51.215 130.686L48.168 131.502L47.8525 130.325L48.8751 130.051ZM67.5292 125.053L68.6654 124.748L67.943 122.052L68.821 121.817L69.8589 125.69L66.8222 126.504L66.5067 125.327L67.5292 125.053ZM61.3318 126.713L62.4473 126.414L61.725 123.718L62.6236 123.478L63.6615 127.351L60.5628 128.181L60.2473 127.004L61.3318 126.713ZM79.924 121.731L81.0395 121.432L80.3171 118.737L81.2261 118.493L82.2639 122.366L79.1652 123.197L78.8497 122.019L79.924 121.731ZM73.7266 123.392L74.8628 123.088L74.1404 120.392L75.0494 120.148L76.0872 124.021L72.9885 124.852L72.673 123.674L73.7266 123.392Z" fill="#FEFEFE"/>
<path d="M130.678 54.783C130.296 55.0381 129.931 55.3172 129.585 55.6185C129.218 55.9048 128.883 56.1828 128.526 56.5001L127.67 55.6222L128.279 55.0828L128.936 54.5192L129.333 54.2246C128.59 53.2281 127.801 52.2661 127.057 51.2255L125.808 52.2244C125.353 52.6341 124.919 53.0383 124.48 53.4659C123.823 54.0984 123.209 54.7733 122.641 55.4863C123.938 56.5669 125.17 57.6537 126.443 58.8073C126.143 59.144 125.869 59.5023 125.623 59.8795C125.344 60.2421 125.104 60.6274 124.82 61.0135L123.704 60.3605C123.766 60.3439 123.764 60.2557 123.787 60.2164C123.969 59.9462 124.159 59.7069 124.311 59.445C124.462 59.1831 124.77 58.8459 125.006 58.5281C124.01 57.7433 122.994 57.0081 121.997 56.2234L121.612 56.7694C121.253 57.2865 120.88 57.7959 120.557 58.3253L120.486 58.4329C120.314 58.7004 120.163 58.9623 119.981 59.2325C119.583 59.981 119.214 60.711 118.845 61.4409L119.998 61.9843L123.336 63.6583C123.134 64.1001 122.969 64.5205 122.787 64.9126C122.604 65.3048 122.482 65.7581 122.347 66.204L121.139 65.83C121.139 65.83 121.179 65.7308 121.202 65.6915C121.358 65.2401 121.493 64.7943 121.677 64.3243C121.723 64.2034 121.776 64.0855 121.837 63.9715L121.866 63.8309L121.852 63.7792C120.692 63.293 119.53 62.8404 118.373 62.3644C118.035 63.208 117.719 64.0563 117.454 64.9245C117.188 65.7927 116.957 66.7071 116.788 67.6048C116.723 67.8222 116.679 68.0453 116.657 68.2711C118.306 68.5598 119.933 68.8878 121.586 69.2309C121.49 69.6795 121.423 70.1337 121.386 70.5909C121.36 71.0738 121.326 71.5257 121.292 71.9776L120.091 71.8343C120.098 71.6112 120.136 71.3797 120.132 71.1592C120.161 70.8968 120.18 70.6371 120.201 70.3436C120.245 70.1298 120.268 69.9122 120.271 69.694C119.038 69.515 117.812 69.4007 116.569 69.2245C116.542 69.4532 116.504 69.6847 116.489 69.8769C116.393 70.7993 116.334 71.7341 116.326 72.6551C116.318 73.576 116.352 74.486 116.437 75.382C118.115 75.2422 119.755 75.1239 121.424 75.0309C121.478 75.4814 121.535 75.9421 121.603 76.4001C121.67 76.8581 121.748 77.3133 121.867 77.7575L120.637 78.0868C120.572 77.8192 120.521 77.5482 120.486 77.2749C120.359 76.7997 120.323 76.3334 120.266 75.8727C119.02 76.0181 117.812 76.22 116.542 76.3945C116.597 76.601 116.661 76.8386 116.634 77.0673C116.744 77.4805 116.765 77.9289 116.884 78.373C117.003 78.8172 117.139 79.5334 117.292 80.1015L117.521 80.9588L117.82 82.0743L122.768 80.7486L123.598 83.8473L122.069 84.2569L121.483 82.0671L118.064 82.9832L118.23 83.603L119.483 88.282L119.506 88.3647L124.453 87.039L125.284 90.1377L123.755 90.5473L123.168 88.3575L119.749 89.2736L119.915 89.8933L121.169 94.5724L121.191 94.655L129.268 92.4907C129.584 92.8045 129.933 93.0822 130.31 93.3188C130.618 93.5522 130.84 93.883 130.937 94.2576C131.056 94.6928 131.008 95.1566 130.802 95.558C130.596 95.9593 130.248 96.2692 129.825 96.4266L127.759 96.9802C127.388 97.0811 127.04 97.2542 126.736 97.4895C126.431 97.7249 126.176 98.0179 125.985 98.3518C125.794 98.6858 125.67 99.0541 125.621 99.4357C125.573 99.8174 125.599 100.205 125.7 100.576C125.848 101.121 126.157 101.609 126.585 101.978L123.042 102.927C122.494 103.074 122.027 103.432 121.744 103.923C121.46 104.415 121.383 104.998 121.53 105.546L122.084 107.612L123.423 112.611L124.539 112.312L123.199 107.313L126.298 106.483L126.71 108.022L124.541 108.603L125.468 112.063L130.798 110.635L129.458 105.636L132.557 104.806L132.97 106.345L130.8 106.926L131.728 110.386L137.057 108.958L135.718 103.959L138.817 103.128L139.229 104.667L137.07 105.246L137.997 108.706L143.296 107.286L141.956 102.287L145.055 101.457L145.468 102.996L143.309 103.574L144.236 107.034L149.566 105.606L148.226 100.607L151.263 99.7934L151.675 101.332L149.517 101.911L150.444 105.371L155.763 103.946L154.424 98.9465L157.471 98.1301L157.883 99.6691L155.745 100.242L156.672 103.702L161.971 102.282L160.631 97.2832L163.73 96.4529L164.142 97.9919L161.973 98.5731L162.9 102.033L168.23 100.605L166.337 93.5402C166.19 92.9923 165.832 92.5252 165.341 92.2416C164.849 91.958 164.266 91.8811 163.718 92.0279L161.022 92.7503C161.183 92.2144 161.195 91.6447 161.057 91.1026C160.862 90.355 160.379 89.715 159.714 89.3226C159.049 88.9303 158.255 88.8176 157.507 89.0094L155.368 89.5823C154.924 89.6572 154.467 89.5632 154.088 89.3185C153.709 89.0739 153.435 88.6964 153.32 88.2601C153.213 87.8323 153.261 87.3805 153.455 86.9843C153.597 86.6914 153.74 86.3984 153.852 86.1138C154.273 84.9936 154.332 83.77 154.022 82.6144C153.826 81.8622 153.473 81.1599 152.986 80.5538C152.499 79.9477 151.89 79.4515 151.198 79.0979C151.198 79.0979 151.119 79.0525 151.088 79.0608C147.389 77.1958 142.981 76.1961 140.526 70.9199C139.947 70.8039 139.397 70.5752 138.907 70.2468C137.634 69.4999 136.709 68.2784 136.336 66.8506L137.152 66.6319C137.477 67.8411 138.25 68.881 139.315 69.5396C139.68 69.7311 140.06 69.8922 140.451 70.0211C141.571 70.2431 142.73 70.1436 143.795 69.734C144.665 69.3802 145.439 68.8239 146.051 68.1112C147.735 68.1687 149.371 68.6937 150.775 69.6275C152.179 70.5612 153.295 71.8669 153.999 73.3987L156.995 72.1862L159.075 66.935L147.562 55.1189L147.284 54.7838L141.684 53.262L137.764 44.7033C136.885 45.0079 136.141 45.6105 135.661 46.4067C135.18 47.2028 134.994 48.142 135.134 49.0612L135.186 52.313L135.135 52.3269C134.492 52.5712 133.866 52.8573 133.261 53.1833L132.637 52.055C132.692 52.0561 132.746 52.0417 132.792 52.0135C133.201 51.8043 133.623 51.6027 134.071 51.4162L134.604 51.1737L134.666 51.1571C134.187 49.9902 133.702 48.8803 133.225 47.6796C132.615 47.915 132.018 48.1822 131.436 48.4801C131.014 48.6817 130.574 48.8992 130.16 49.1319C129.346 49.6047 128.602 50.0919 127.863 50.5998C128.823 51.9921 129.713 53.3701 130.681 54.7934L130.678 54.783ZM143.567 58.968C143.424 59.0108 143.272 59.0097 143.129 58.965C142.987 58.9203 142.861 58.8339 142.768 58.717C142.675 58.6001 142.619 58.4581 142.607 58.3092C142.595 58.1602 142.629 58.0112 142.702 57.8813C142.776 57.7513 142.887 57.6465 143.021 57.5801C143.155 57.5138 143.305 57.489 143.453 57.509C143.601 57.529 143.74 57.5928 143.852 57.6923C143.963 57.7918 144.042 57.9223 144.079 58.0671C144.126 58.2543 144.099 58.4524 144.004 58.6203C143.909 58.7882 143.752 58.9128 143.567 58.968ZM135.215 53.7003L135.233 54.8024C131.143 56.5869 127.81 59.7518 125.816 63.7443C123.822 67.7367 123.294 72.3029 124.325 76.6448L124.356 76.7585C124.372 76.8826 124.405 77.004 124.452 77.1199L124.928 78.8965L127.884 89.9279C127.997 90.3988 128.181 90.8497 128.431 91.2649C128.431 91.2649 128.456 91.3579 128.531 91.3929L122.086 93.1199L121.256 90.0212L122.433 89.7057L123.02 91.8955L126.79 90.8853L125.348 85.5039L120.401 86.8296L119.57 83.7309L120.748 83.4154L121.335 85.6051L125.105 84.5949L123.721 79.4304L123.652 79.1722L118.828 80.4647L118.598 79.6074C118.438 79.0083 118.28 78.4196 118.131 77.8618C118.07 77.6977 118.024 77.5282 117.995 77.3557L119.18 77.1931L119.227 77.3687C119.246 77.5034 119.281 77.6353 119.332 77.7612C119.37 77.8426 119.394 77.93 119.402 78.0194C119.529 78.4945 119.656 78.9696 119.792 79.4758C120.99 79.1547 122.264 78.8687 123.493 78.5394L123.258 77.6614C123.122 77.1553 123.043 76.6119 122.961 76.0582C122.879 75.5045 122.812 74.9246 122.746 74.3447L122.701 73.5595L117.718 73.843C117.7 73.405 117.68 73.0007 117.702 72.5853L117.685 72.5233C117.695 71.8565 117.733 71.2152 117.774 70.5401L118.978 70.6936C118.991 70.7453 119.008 70.8072 118.954 70.8548C118.901 70.9024 118.979 70.9478 118.993 70.9994C118.938 71.4577 118.914 71.9191 118.92 72.3806C118.905 72.5728 118.909 72.7932 118.905 73.0267C120.15 73.0032 121.43 73.0699 122.725 73.1103L122.733 72.1894C122.739 71.6514 122.772 71.1141 122.833 70.5795C122.889 70.0883 122.946 69.5971 123.042 69.1286L123.221 68.0621L118.346 67.0547C118.403 66.7226 118.481 66.3947 118.581 66.0728C118.591 65.9676 118.615 65.8642 118.653 65.7655C118.824 65.122 119.031 64.4907 119.26 63.8981L120.38 64.3176C120.335 64.3962 120.336 64.4844 120.291 64.5629C120.125 65.0171 120.002 65.4705 119.867 65.9163C119.832 66.114 119.755 66.3228 119.719 66.5205C120.913 66.8428 122.125 67.2375 123.327 67.5908L123.535 66.8377C123.697 66.285 123.89 65.7241 124.101 65.1914C124.313 64.6587 124.498 64.2328 124.715 63.7648L125.144 62.8861L120.637 60.6066L121.113 59.7815C121.277 59.4831 121.45 59.1819 121.633 58.9116C121.815 58.6414 122.084 58.1596 122.332 57.8052L123.312 58.528C123.153 58.759 123.012 59.0181 122.821 59.2573C122.631 59.4966 122.324 60.088 122.065 60.567C123.173 61.1891 124.232 61.8794 125.317 62.5407L125.802 61.7466C126.09 61.293 126.365 60.8319 126.692 60.401C127.02 59.9701 127.388 59.484 127.758 59.0083L128.265 58.4187L124.508 55.263C124.942 54.7679 125.404 54.2969 125.89 53.852C126.217 53.543 126.549 53.2546 126.874 52.9794L127.626 53.885L127.475 54.025C127.117 54.3423 126.759 54.6596 126.389 55.0134C126.244 55.1741 126.062 55.3224 125.917 55.4831L128.545 58.2662L129.242 57.6034C129.625 57.2571 129.995 56.9033 130.415 56.5694C130.793 56.2422 131.193 55.9425 131.614 55.6726L132.468 55.1005L129.682 50.8986C130.046 50.6461 130.434 50.4424 130.817 50.2181C131.378 49.8923 131.957 49.5968 132.55 49.3329L133.036 50.4427C132.318 50.7658 131.622 51.1336 130.95 51.5439L131.253 52.0939L132.786 54.8825L133.683 54.3875C134.179 54.1327 134.66 53.9041 135.248 53.6582L135.215 53.7003ZM127.003 109.117L128.14 108.812L127.417 106.116L128.295 105.881L129.333 109.755L126.296 110.568L125.981 109.391L127.003 109.117ZM139.398 105.796L140.514 105.497L139.791 102.801L140.7 102.557L141.738 106.431L138.64 107.261L138.324 106.083L139.398 105.796ZM133.201 107.456L134.337 107.152L133.615 104.456L134.493 104.221L135.531 108.094L132.483 108.91L132.168 107.733L133.201 107.456ZM151.793 102.474L152.94 102.167L152.217 99.4713L153.095 99.236L154.133 103.109L151.034 103.94L150.719 102.762L151.793 102.474ZM145.596 104.135L146.711 103.836L145.989 101.14L146.898 100.897L147.936 104.77L144.837 105.6L144.521 104.423L145.596 104.135ZM164.25 99.1366L165.365 98.8377L164.643 96.1418L165.552 95.8983L166.59 99.7716L163.491 100.602L163.176 99.4244L164.25 99.1366ZM158.052 100.797L159.199 100.49L158.477 97.7941L159.386 97.5505L160.423 101.424L157.325 102.254L157.009 101.077L158.052 100.797ZM134.119 47.2963L134.16 47.4512L134.119 47.2963Z" fill="#FEFEFE"/>
<path d="M215.024 32.1821C214.629 32.4429 214.297 32.7312 213.931 33.0175C213.565 33.3038 213.24 33.5791 212.882 33.8964L212.016 33.0212L212.625 32.4818C212.86 32.2859 213.088 32.1031 213.292 31.9155L213.689 31.6209C212.957 30.6216 212.167 29.6596 211.413 28.6218L210.175 29.6179C209.72 30.0276 209.286 30.4318 208.847 30.8594C208.185 31.4906 207.567 32.1667 206.998 32.8826C208.295 33.9632 209.527 35.05 210.809 36.2009C210.505 36.5334 210.231 36.8922 209.99 37.273C209.71 37.6356 209.47 38.021 209.186 38.407L208.091 37.7485C208.091 37.7485 208.131 37.6492 208.185 37.6016C208.336 37.3397 208.516 37.1032 208.667 36.8413C208.818 36.5793 209.137 36.2394 209.363 35.9243C208.366 35.1396 207.36 34.4017 206.364 33.6169L205.979 34.1629C205.609 34.6827 205.247 35.1895 204.913 35.7216L204.853 35.8264C204.671 36.0966 204.519 36.3586 204.347 36.626C203.95 37.3746 203.633 38.0906 203.212 38.8344L204.365 39.3778L207.703 41.0518C207.542 41.4825 207.336 41.914 207.195 42.295C207.053 42.6761 206.859 43.1489 206.724 43.5947L205.517 43.2208C205.541 43.1785 205.559 43.1327 205.569 43.085L206.054 41.7151C206.096 41.5926 206.15 41.4744 206.214 41.3622L206.233 41.2244L206.219 41.1728C205.049 40.6892 203.897 40.2339 202.73 39.7607C202.391 40.6042 202.076 41.4526 201.821 42.318C201.551 43.1988 201.328 44.0935 201.155 44.9983C201.09 45.2158 201.046 45.4388 201.024 45.6646C202.663 45.9561 204.289 46.2841 205.953 46.6244C205.857 47.0929 205.817 47.5242 205.752 47.9844C205.688 48.4446 205.693 48.9192 205.649 49.3739L204.385 49.3251C204.391 49.1019 204.418 48.8732 204.425 48.65C204.444 48.3903 204.473 48.1278 204.484 47.8371C204.531 47.6227 204.558 47.4042 204.564 47.1847C203.321 47.0085 202.095 46.8942 200.862 46.7152C200.825 46.9467 200.797 47.1754 200.782 47.3676C200.679 48.2902 200.625 49.2175 200.619 50.1458C200.602 51.0569 200.636 51.9682 200.72 52.8755C202.408 52.733 204.038 52.6173 205.707 52.5244C205.823 52.9582 205.828 53.4328 205.886 53.8936C205.943 54.3543 206.041 54.804 206.16 55.2482L204.931 55.5775C204.862 55.3193 204.79 55.0507 204.718 54.7822C204.59 54.307 204.564 53.838 204.507 53.3773C203.252 53.5255 202.054 53.7246 200.783 53.899L200.865 54.5746C200.976 54.9878 201.037 55.4251 201.125 55.8776C201.226 56.4615 201.359 57.0394 201.523 57.6088L201.753 58.4661L202.051 59.5816L207.216 58.1978L208.046 61.2965L206.497 61.7116L205.91 59.5219L202.481 60.4408L202.647 61.0605L203.901 65.7395L203.923 65.8222L208.901 64.4881L209.732 67.5868L208.182 68.002L207.596 65.8122L204.166 66.7311L204.332 67.3509L205.586 72.0299L205.608 72.1125L213.686 69.9482C213.997 70.2628 214.343 70.5415 214.716 70.7791C215.029 71.0089 215.251 71.3411 215.344 71.7179C215.463 72.1531 215.415 72.6169 215.209 73.0183C215.003 73.4196 214.654 73.7295 214.232 73.8869L212.166 74.4405C211.419 74.6466 210.783 75.1404 210.4 75.8139C210.016 76.4874 209.914 77.2857 210.118 78.0337C210.267 78.5765 210.571 79.0643 210.992 79.4379L207.449 80.3872C206.901 80.534 206.434 80.8924 206.151 81.3836C205.867 81.8748 205.79 82.4586 205.937 83.0065L206.49 85.0723L207.83 90.0715L208.945 89.7726L207.606 84.7734L210.705 83.9431L211.117 85.4821L208.958 86.0605L209.885 89.5207L215.205 88.0954L213.865 83.0962L216.912 82.2797L217.325 83.8187L215.125 84.4083L216.052 87.8685L221.423 86.4293L220.083 81.4301L223.182 80.5998L223.594 82.1388L221.425 82.72L222.353 86.1802L227.62 84.7687L226.281 79.7695L229.379 78.9392L229.792 80.4782L227.623 81.0594L228.55 84.5196L233.818 83.1081L232.478 78.1089L235.577 77.2786L235.989 78.8176L233.82 79.3988L234.747 82.859L240.015 81.4475L238.676 76.4483L241.774 75.618L242.187 77.157L240.018 77.7382L240.945 81.1984L246.212 79.7869L244.873 74.7877L247.972 73.9574L248.384 75.4964L246.215 76.0776L247.142 79.5379L252.472 78.1098L250.579 71.0447C250.432 70.4969 250.074 70.0297 249.582 69.7461C249.091 69.4625 248.507 69.3857 247.959 69.5325L245.264 70.2548C245.414 69.7179 245.423 69.151 245.288 68.6099C245.094 67.8641 244.613 67.2252 243.95 66.8326C243.287 66.4399 242.495 66.3254 241.748 66.5139L239.682 67.0675C239.234 67.1513 238.77 67.0624 238.385 66.8187C237.999 66.575 237.72 66.1946 237.603 65.7536C237.496 65.3258 237.544 64.8739 237.737 64.4777C237.87 64.1876 238.013 63.8947 238.125 63.6101C238.55 62.4909 238.61 61.2657 238.294 60.1107C238.098 59.3584 237.745 58.6561 237.259 58.05C236.772 57.4439 236.162 56.9478 235.47 56.5942C235.47 56.5942 235.402 56.546 235.371 56.5543C231.672 54.6893 227.263 53.6896 224.809 48.4134C224.229 48.3004 223.679 48.0715 223.19 47.7403C221.914 46.9952 220.986 45.7749 220.609 44.3468L221.435 44.1254C221.758 45.3399 222.541 46.3808 223.619 47.0276C223.971 47.2249 224.341 47.3888 224.724 47.5173C225.843 47.7376 227.002 47.6381 228.068 47.2303C228.942 46.8771 229.719 46.3197 230.333 45.6047C232.02 45.6573 233.657 46.1803 235.062 47.1147C236.466 48.049 237.582 49.3574 238.282 50.8922L241.34 49.6631L243.379 44.4229L231.866 32.6069L231.588 32.2718L226.141 30.7863L222.221 22.2276C221.342 22.5322 220.598 23.1348 220.118 23.9309C219.638 24.7271 219.451 25.6663 219.591 26.5854L219.506 29.697L219.444 29.7136C218.802 29.9588 218.176 30.2448 217.57 30.57L216.957 29.4389C217.008 29.4421 217.059 29.4285 217.102 29.4002C217.521 29.1882 217.933 28.9894 218.391 28.8001L218.914 28.5604L218.976 28.5438C218.507 27.3741 218.022 26.2643 217.545 25.0636C216.942 25.2916 216.332 25.5768 215.746 25.8668C215.334 26.0657 214.894 26.2832 214.48 26.5158C213.666 26.9886 212.922 27.4758 212.173 27.9864C213.143 29.376 214.022 30.7567 214.991 32.18L215.024 32.1821ZM227.914 36.3671C227.819 36.3925 227.72 36.399 227.622 36.3862C227.525 36.3733 227.431 36.3414 227.346 36.2923C227.261 36.2431 227.186 36.1777 227.126 36.0997C227.066 36.0217 227.022 35.9327 226.997 35.8378C226.971 35.7428 226.965 35.6438 226.978 35.5463C226.991 35.4489 227.023 35.3549 227.072 35.2698C227.121 35.1846 227.186 35.11 227.264 35.0502C227.342 34.9904 227.431 34.9465 227.526 34.921C227.718 34.8696 227.922 34.8965 228.094 34.9958C228.266 35.095 228.392 35.2585 228.443 35.4503C228.494 35.6421 228.467 35.8464 228.368 36.0183C228.269 36.1902 228.105 36.3157 227.914 36.3671ZM219.571 31.0966L219.579 32.2014C215.492 33.9876 212.161 37.1529 210.169 41.1446C208.177 45.1363 207.651 49.7007 208.682 54.0411L208.712 54.1547C208.729 54.2788 208.761 54.4003 208.809 54.5162L209.285 56.2928L212.241 67.3242C212.354 67.7951 212.538 68.246 212.787 68.6612C212.787 68.6612 212.812 68.7542 212.888 68.7892L206.443 70.5162L205.612 67.4175L206.78 67.1048L207.366 69.2945L211.147 68.2815L209.705 62.9002L204.757 64.2259L203.927 61.1272L205.094 60.8144L205.681 63.0042L209.461 61.9912L208.077 56.8267L208.008 56.5685L203.174 57.8637L202.945 57.0065C202.777 56.4268 202.642 55.8386 202.539 55.2442C202.478 55.0801 202.433 54.9107 202.403 54.7381L203.578 54.5783L203.625 54.7539C203.658 54.8778 203.689 54.9914 203.73 55.1464C203.768 55.2278 203.792 55.3152 203.8 55.4046C203.927 55.8797 204.054 56.3548 204.19 56.861C205.388 56.5399 206.662 56.2539 207.891 55.9246L207.656 55.0466C207.52 54.5405 207.441 53.9971 207.349 53.4462C207.256 52.8952 207.21 52.3098 207.143 51.7299L207.089 50.9474L202.05 51.3123C202.022 50.877 202.012 50.47 202.024 50.0574L202.007 49.9954C202.016 49.3286 202.065 48.6845 202.106 48.0094L203.258 48.1768C203.272 48.2284 203.288 48.2904 203.234 48.338C203.181 48.3856 203.259 48.431 203.273 48.4826C203.222 48.9402 203.201 49.4006 203.211 49.861C203.195 50.076 203.19 50.2916 203.196 50.5071C204.44 50.4836 205.71 50.553 207.015 50.5907L207.013 49.6725C207.019 49.1346 207.053 48.5973 207.113 48.0626C207.169 47.5714 207.226 47.0802 207.322 46.6117L207.542 45.5342L202.626 44.5378C202.683 44.2058 202.761 43.8778 202.861 43.556C202.898 43.4464 202.907 43.3555 202.944 43.2459C203.115 42.6023 203.322 41.9711 203.551 41.3785L204.67 41.798C204.637 41.8782 204.607 41.9601 204.581 42.0433C204.415 42.4975 204.283 42.9536 204.158 43.3967C204.112 43.5972 204.045 43.8032 203.999 44.0037C205.193 44.326 206.406 44.7206 207.607 45.074L207.815 44.3208C207.977 43.7682 208.17 43.2073 208.371 42.6773C208.572 42.1474 208.778 41.7159 208.996 41.248L209.414 40.372L204.917 38.0898L205.383 37.2675C205.557 36.9663 205.731 36.665 205.902 36.3976C206.074 36.1301 206.364 35.6427 206.644 35.2801L207.592 36.0112C207.433 36.2421 207.282 36.504 207.122 36.735C206.963 36.9659 206.594 37.5739 206.366 38.0446C207.474 38.6667 208.543 39.3542 209.628 40.0156L210.103 39.2242C210.391 38.7707 210.676 38.3067 211.004 37.8758C211.331 37.4449 211.699 36.9589 212.07 36.4831L212.576 35.8936L208.826 32.5587C209.259 32.0665 209.717 31.5965 210.198 31.1505C210.525 30.8415 210.857 30.5532 211.192 30.2752L211.934 31.1836L211.783 31.3236L210.697 32.312C210.552 32.4726 210.381 32.6182 210.236 32.7788L212.863 35.5619L213.56 34.8992C213.944 34.5529 214.314 34.1991 214.723 33.868C215.104 33.5398 215.508 33.2392 215.932 32.9683L216.787 32.3963L213.99 28.1971C214.364 27.9418 214.752 27.7381 215.125 27.5166C215.69 27.1899 216.272 26.8935 216.868 26.6287L217.354 27.7385C216.633 28.0614 215.933 28.4302 215.259 28.8424L215.571 29.3896L217.104 32.1782L218.001 31.6833C218.498 31.4285 218.979 31.1999 219.566 30.954L219.571 31.0966ZM211.35 86.5158L212.507 86.2058L211.784 83.5099L212.662 83.2747L213.7 87.148L210.601 87.9783L210.286 86.8008L211.35 86.5158ZM223.744 83.1946L224.901 82.8846L224.179 80.1887L225.088 79.9452L226.126 83.8185L223.027 84.6488L222.712 83.4714L223.744 83.1946ZM217.547 84.8552L218.704 84.5452L217.982 81.8493L218.86 81.6141L219.897 85.4874L216.799 86.3177L216.483 85.1402L217.547 84.8552ZM236.201 79.8568L237.348 79.5496L236.625 76.8537L237.503 76.6185L238.541 80.4918L235.546 81.2945L235.23 80.117L236.201 79.8568ZM230.004 81.5174L231.099 81.224L230.376 78.5281L231.285 78.2846L232.323 82.158L229.348 82.955L229.033 81.7776L230.004 81.5174ZM248.658 76.519L249.763 76.2229L249.041 73.527L250.001 73.2696L251.039 77.143L247.941 77.9733L247.625 76.7958L248.658 76.519ZM242.461 78.1796L243.566 77.8835L242.843 75.1876L243.752 74.944L244.79 78.8174L241.692 79.6477L241.376 78.4702L242.461 78.1796ZM218.496 24.687L218.537 24.8419L218.496 24.687Z" fill="#FEFEFE"/>
<path d="M285.639 286.793C286.081 286.83 286.544 286.905 287.004 286.97C287.464 287.035 287.883 287.111 288.351 287.207L288.663 286.016L287.867 285.853C287.565 285.801 287.276 285.756 287.006 285.696L286.514 285.64C286.649 284.408 286.812 283.157 286.986 281.904C287.506 281.986 288.037 282.066 288.526 282.156C289.015 282.246 289.703 282.416 290.328 282.559C291.216 282.774 292.089 283.051 292.941 283.386C292.358 284.971 291.834 286.528 291.29 288.135C291.744 288.301 292.137 288.484 292.545 288.685C292.953 288.885 293.368 289.073 293.807 289.265L294.426 288.147C294.38 288.111 294.328 288.084 294.272 288.067C294.01 287.915 293.736 287.801 293.474 287.649C293.212 287.498 292.766 287.363 292.413 287.203C292.87 285.974 293.386 284.883 293.856 283.706C294.052 283.812 294.255 283.906 294.463 283.986C295.043 284.251 295.61 284.509 296.165 284.803L296.27 284.863C296.563 285.006 296.825 285.157 297.107 285.303C297.826 285.753 298.45 286.183 299.195 286.648L298.447 287.701L296.394 290.819C296.749 291.112 297.142 291.383 297.455 291.642C297.768 291.901 298.173 292.213 298.513 292.532L299.372 291.605C299.329 291.58 299.291 291.549 299.258 291.513L298.153 290.569C298.056 290.484 297.95 290.409 297.838 290.344L297.805 290.22C298.577 289.216 299.346 288.246 300.09 287.261C300.825 287.8 301.525 288.385 302.186 289.013C302.861 289.64 303.501 290.304 304.103 291.001C304.261 291.163 304.41 291.334 304.55 291.512C303.276 292.584 302.031 293.682 300.761 294.808C301.073 295.145 301.328 295.52 301.615 295.886C301.901 296.252 302.134 296.665 302.399 297.037L303.47 296.363C303.352 296.173 303.214 295.988 303.097 295.798L302.639 295.124C302.496 294.958 302.364 294.783 302.244 294.599C303.232 293.825 304.237 293.113 305.215 292.341C305.363 292.523 305.462 292.685 305.61 292.867C306.158 293.603 306.666 294.369 307.133 295.16C307.603 295.953 308.032 296.769 308.419 297.605C306.885 298.326 305.416 299.041 303.924 299.795C304.04 300.228 304.273 300.642 304.454 301.07C304.635 301.497 304.735 301.913 304.894 302.38L306.123 302.051C306.054 301.792 305.982 301.524 305.91 301.255C305.782 300.78 305.57 300.361 305.389 299.933C306.551 299.434 307.688 299.008 308.875 298.523C308.97 298.728 309.049 298.94 309.112 299.158C309.222 299.571 309.387 299.98 309.535 300.406C309.74 300.965 309.915 301.536 310.059 302.114L310.288 302.971L310.587 304.087L305.64 305.413L306.47 308.511L307.988 308.105L307.352 305.729L310.781 304.81L310.947 305.43L312.201 310.109L312.223 310.191L307.275 311.517L308.106 314.616L309.624 314.209L309.037 312.019L312.467 311.1L312.633 311.72L313.886 316.399L313.909 316.482L305.821 318.649C305.709 319.077 305.548 319.491 305.344 319.884C305.186 320.239 305.16 320.638 305.269 321.011C305.384 321.447 305.658 321.825 306.037 322.069C306.416 322.314 306.873 322.408 307.317 322.333L309.383 321.779C309.754 321.682 310.14 321.658 310.52 321.709C310.9 321.76 311.266 321.886 311.597 322.079C311.929 322.272 312.219 322.528 312.451 322.833C312.683 323.138 312.853 323.486 312.951 323.857C313.096 324.405 313.078 324.983 312.899 325.52L316.441 324.571C316.989 324.424 317.573 324.501 318.064 324.785C318.555 325.068 318.914 325.535 319.061 326.083L319.614 328.149L320.954 333.148L319.807 333.455L318.468 328.456L315.286 329.309L315.699 330.848L317.858 330.269L318.785 333.729L313.455 335.158L312.115 330.158L309.089 330.969L309.501 332.508L311.66 331.93L312.587 335.39L307.268 336.815L305.928 331.816L302.83 332.646L303.242 334.185L305.37 333.615L306.297 337.076L301.029 338.487L299.69 333.488L296.591 334.318L297.003 335.857L299.172 335.276L300.1 338.736L294.77 340.164L293.43 335.165L290.332 335.995L290.744 337.534L292.975 336.937L293.902 340.397L288.572 341.825L287.233 336.826L284.134 337.656L284.547 339.195L286.778 338.597L287.705 342.057L282.406 343.477L281.066 338.478L277.968 339.308L278.38 340.847L280.58 340.258L281.507 343.718L276.136 345.157L274.243 338.092C274.096 337.544 274.173 336.96 274.457 336.469C274.741 335.978 275.208 335.62 275.756 335.473L278.451 334.75C278.05 334.358 277.758 333.868 277.605 333.328C277.403 332.586 277.502 331.794 277.881 331.125C278.259 330.456 278.886 329.963 279.625 329.753L281.691 329.199C282.121 329.048 282.478 328.739 282.69 328.335C282.903 327.932 282.954 327.462 282.835 327.022C282.719 326.596 282.45 326.226 282.081 325.984C281.821 325.799 281.55 325.617 281.311 325.427C280.383 324.67 279.719 323.639 279.415 322.481C279.208 321.731 279.163 320.947 279.281 320.178C279.4 319.41 279.68 318.676 280.102 318.023L280.086 317.961C282.388 314.488 285.706 311.418 285.193 305.622C285.629 305.225 285.99 304.753 286.259 304.229C286.624 303.589 286.858 302.883 286.949 302.152C287.04 301.421 286.986 300.679 286.789 299.969L285.963 300.19C286.284 301.404 286.126 302.694 285.523 303.795C285.316 304.142 285.078 304.47 284.81 304.772C283.951 305.523 282.898 306.016 281.771 306.196C280.837 306.327 279.886 306.232 278.996 305.921C277.562 306.809 276.405 308.081 275.656 309.592C274.907 311.104 274.595 312.795 274.756 314.474L271.493 314.939L267.211 311.392L271.253 295.408L271.326 294.979L275.331 290.961L274.41 281.576C275.33 281.405 276.28 281.558 277.099 282.009C277.918 282.459 278.556 283.18 278.903 284.048L280.498 286.942L280.56 286.925C281.239 286.816 281.924 286.751 282.611 286.73L282.576 285.444C282.534 285.472 282.483 285.486 282.432 285.483C281.963 285.509 281.507 285.542 281.015 285.608L280.412 285.67C280.232 284.422 280.09 283.187 279.91 281.94C280.547 281.836 281.187 281.787 281.871 281.736C282.327 281.703 282.816 281.671 283.291 281.666C284.201 281.676 285.12 281.718 286.024 281.786C285.879 283.474 285.822 285.161 285.681 286.826L285.639 286.793ZM276.569 296.862C276.761 296.811 276.924 296.685 277.023 296.513C277.123 296.341 277.15 296.137 277.098 295.945C277.047 295.754 276.921 295.59 276.749 295.491C276.578 295.391 276.373 295.365 276.181 295.416C275.99 295.467 275.826 295.593 275.727 295.765C275.628 295.937 275.601 296.141 275.652 296.333C275.704 296.525 275.829 296.688 276.001 296.787C276.173 296.887 276.377 296.913 276.569 296.862ZM281.158 288.126L281.673 289.096C286.109 288.597 290.579 289.671 294.305 292.13C298.031 294.589 300.776 298.277 302.061 302.552L302.092 302.666C302.125 302.79 302.156 302.903 302.189 303.027L302.665 304.804L305.618 315.825C305.754 316.282 305.818 316.758 305.808 317.235C305.824 317.297 305.841 317.359 305.787 317.407L312.232 315.68L311.402 312.581L310.235 312.894L310.822 315.084L307.041 316.097L305.605 310.736L310.552 309.41L309.722 306.312L308.555 306.624L309.142 308.814L305.361 309.827L303.977 304.663L303.908 304.404L308.742 303.109L308.513 302.252C308.368 301.666 308.191 301.089 307.983 300.523C307.933 300.337 307.894 300.192 307.847 300.017L306.75 300.466L306.791 300.621C306.83 300.765 306.86 300.879 306.902 301.034C306.91 301.123 306.933 301.211 306.971 301.292C307.099 301.767 307.226 302.242 307.361 302.748C306.132 303.078 304.903 303.407 303.674 303.736L303.439 302.858C303.303 302.352 303.1 301.842 302.904 301.319C302.709 300.796 302.456 300.266 302.221 299.72L301.88 299.025L306.313 296.73C306.12 296.339 305.925 295.982 305.709 295.63L305.692 295.568C305.35 294.995 304.978 294.431 304.613 293.898L303.7 294.618C303.717 294.672 303.753 294.717 303.8 294.746C303.817 294.808 303.825 294.839 303.839 294.891C304.094 295.266 304.358 295.671 304.582 296.054C304.7 296.244 304.817 296.434 304.924 296.626C303.837 297.239 302.772 297.933 301.658 298.608L301.209 297.843C300.935 297.38 300.637 296.932 300.318 296.499C300.023 296.102 299.728 295.705 299.411 295.347L298.681 294.524L302.441 291.203C302.226 290.944 301.994 290.699 301.747 290.47C301.66 290.394 301.607 290.319 301.52 290.243C301.05 289.771 300.555 289.328 300.061 288.929L299.301 289.852C299.374 289.9 299.441 289.956 299.501 290.02C299.871 290.33 300.214 290.659 300.544 290.98C300.684 291.131 300.845 291.276 300.985 291.427C300.112 292.303 299.259 293.251 298.395 294.158L297.839 293.609C297.422 293.212 296.974 292.822 296.527 292.433C296.079 292.044 295.694 291.804 295.277 291.528L294.471 290.958L297.233 286.764L296.418 286.285C296.117 286.111 295.816 285.937 295.533 285.791C295.251 285.646 294.725 285.377 294.333 285.194L293.877 286.302C294.13 286.422 294.392 286.573 294.646 286.693C295.086 286.93 295.523 287.156 295.956 287.45C295.31 288.552 294.727 289.683 294.118 290.798L293.312 290.35C292.836 290.101 292.357 289.842 291.858 289.632C291.359 289.423 290.766 289.194 290.207 288.968L289.487 288.718L291.088 283.949C290.436 283.748 289.82 283.558 289.195 283.416C288.758 283.311 288.326 283.228 287.897 283.155L287.709 284.312L287.909 284.358L289.344 284.671C289.55 284.738 289.771 284.778 289.977 284.845L289.093 288.569L288.158 288.343C287.653 288.235 287.155 288.114 286.635 288.032C286.14 287.944 285.64 287.886 285.138 287.857L284.29 287.996L284.612 282.961C284.16 282.927 283.722 282.945 283.289 282.939C282.628 282.95 281.98 282.969 281.335 283.042L281.469 284.246C282.255 284.165 283.046 284.134 283.836 284.154L283.808 284.793L283.854 287.98L282.85 287.994C282.293 288.022 281.71 288.078 281.13 288.145L281.158 288.126ZM316.009 332.005L314.862 332.312L314.14 329.616L313.221 329.862L314.258 333.736L317.357 332.905L317.042 331.728L316.009 332.005ZM303.562 335.34L302.447 335.638L301.724 332.943L300.826 333.183L301.864 337.057L304.962 336.226L304.647 335.049L303.562 335.34ZM309.76 333.679L308.613 333.986L307.891 331.29L307.023 331.523L308.061 335.396L311.16 334.566L310.844 333.388L309.76 333.679ZM291.106 338.677L289.98 338.979L289.257 336.283L288.431 336.505L289.469 340.378L292.516 339.561L292.2 338.384L291.106 338.677ZM297.303 337.017L296.156 337.324L295.434 334.628L294.628 334.844L295.666 338.717L298.713 337.901L298.398 336.723L297.303 337.017ZM278.649 342.015L277.544 342.311L276.821 339.615L275.912 339.859L276.95 343.732L280.049 342.902L279.733 341.725L278.649 342.015ZM284.846 340.355L283.782 340.64L283.06 337.944L282.151 338.187L283.189 342.061L286.288 341.23L285.972 340.053L284.846 340.355ZM278.854 282.046L278.895 282.201L278.854 282.046Z" fill="black"/>
<path d="M201.282 309.396C201.734 309.43 202.187 309.508 202.647 309.573C203.107 309.638 203.536 309.711 203.995 309.81L204.307 308.619L203.51 308.456C203.219 308.402 202.92 308.36 202.649 308.3L202.168 308.24C202.313 307.006 202.476 305.755 202.639 304.505C203.17 304.584 203.69 304.666 204.179 304.757C204.668 304.847 205.356 305.017 205.991 305.157C206.876 305.376 207.746 305.654 208.594 305.987C208.011 307.571 207.487 309.129 206.944 310.736C207.367 310.91 207.79 311.084 208.198 311.285C208.606 311.486 209.032 311.671 209.461 311.866L210.07 310.75C210.026 310.716 209.977 310.688 209.926 310.667C209.664 310.516 209.379 310.404 209.117 310.253C208.855 310.102 208.42 309.964 208.056 309.806C208.513 308.577 209.039 307.484 209.51 306.306C209.706 306.413 209.908 306.506 210.116 306.587C210.686 306.854 211.264 307.109 211.808 307.406L211.913 307.467C212.206 307.61 212.468 307.761 212.73 307.912C213.469 308.356 214.145 308.773 214.848 309.249L214.09 310.304L212.037 313.423C212.402 313.712 212.785 313.986 213.109 314.243C213.432 314.499 213.827 314.814 214.156 315.135L215.015 314.208C215.015 314.208 214.941 314.139 214.902 314.116L213.796 313.173C213.703 313.087 213.6 313.01 213.492 312.944L213.396 312.837C214.158 311.836 214.938 310.863 215.671 309.881C216.407 310.422 217.11 311.006 217.778 311.63C218.449 312.259 219.085 312.923 219.684 313.621C219.824 313.772 219.993 313.948 220.141 314.129C218.857 315.204 217.613 316.302 216.342 317.428C216.623 317.773 216.91 318.14 217.196 318.506C217.482 318.872 217.725 319.283 217.98 319.657L219.051 318.983C218.995 318.776 218.795 318.608 218.688 318.416C218.532 318.203 218.377 317.957 218.221 317.744C218.083 317.559 217.943 317.409 217.805 317.224C218.782 316.453 219.818 315.733 220.806 314.959L221.191 315.487C221.743 316.222 222.254 316.987 222.724 317.777C223.181 318.574 223.626 319.406 224 320.225C222.466 320.946 220.997 321.661 219.505 322.415C219.684 322.832 219.854 323.262 220.035 323.69C220.216 324.117 220.327 324.53 220.485 324.997L221.714 324.668C221.637 324.403 221.545 324.143 221.439 323.889C221.312 323.414 221.1 322.995 220.929 322.564C222.08 322.068 223.217 321.642 224.405 321.157C224.5 321.362 224.579 321.574 224.641 321.791C224.813 322.197 224.965 322.611 225.095 323.031C225.301 323.591 225.476 324.161 225.619 324.74L225.849 325.597L226.148 326.713L221.2 328.038L222.031 331.137L223.549 330.73L222.912 328.354L226.228 327.466L226.394 328.086L227.648 332.765L227.67 332.847L222.722 334.173L223.553 337.272L225.071 336.865L224.484 334.675L227.914 333.756L228.08 334.376L229.333 339.055L229.355 339.138L221.278 341.302C221.158 341.73 220.995 342.145 220.791 342.54C220.633 342.895 220.606 343.294 220.716 343.667C220.831 344.103 221.105 344.48 221.484 344.725C221.863 344.97 222.319 345.064 222.764 344.989L224.83 344.435C225.201 344.338 225.587 344.314 225.967 344.365C226.347 344.416 226.713 344.542 227.044 344.735C227.376 344.928 227.666 345.184 227.898 345.489C228.13 345.794 228.3 346.142 228.398 346.513C228.543 347.061 228.525 347.639 228.345 348.176L231.888 347.227C232.436 347.08 233.02 347.157 233.511 347.441C234.002 347.724 234.361 348.191 234.508 348.739L235.061 350.805L236.401 355.804L235.264 356.109L233.925 351.109L230.826 351.94L231.239 353.479L233.408 352.898L234.335 356.358L229.005 357.786L227.666 352.787L224.567 353.617L224.979 355.156L227.148 354.575L228.076 358.035L222.746 359.463L221.406 354.464L218.307 355.294L218.72 356.833L220.889 356.252L221.816 359.712L216.517 361.132L215.178 356.133L212.079 356.963L212.492 358.502L214.661 357.921L215.588 361.381L210.258 362.809L208.918 357.81L205.82 358.64L206.232 360.179L208.401 359.598L209.328 363.058L203.999 364.486L202.659 359.487L199.56 360.317L199.973 361.856L202.132 361.278L203.059 364.738L197.76 366.158L196.42 361.159L193.322 361.989L193.734 363.528L195.893 362.95L196.82 366.41L191.501 367.835L189.607 360.77C189.461 360.222 189.538 359.638 189.821 359.147C190.105 358.656 190.572 358.298 191.12 358.151L193.816 357.429C193.406 357.042 193.109 356.551 192.959 356.009C192.757 355.267 192.856 354.475 193.235 353.806C193.613 353.137 194.24 352.644 194.979 352.434L197.045 351.88C197.475 351.729 197.832 351.42 198.044 351.016C198.256 350.612 198.308 350.143 198.189 349.703C198.071 349.279 197.808 348.91 197.445 348.662C197.171 348.498 196.91 348.312 196.665 348.107C195.741 347.347 195.078 346.317 194.769 345.162C194.562 344.412 194.517 343.627 194.635 342.859C194.754 342.091 195.034 341.356 195.456 340.704L195.502 340.625C197.804 337.152 201.122 334.083 200.599 328.289C201.038 327.891 201.402 327.419 201.675 326.893C202.403 325.598 202.59 324.068 202.195 322.636L201.379 322.854C201.696 324.07 201.535 325.362 200.929 326.462C200.725 326.811 200.486 327.139 200.216 327.439C199.358 328.191 198.304 328.685 197.177 328.863C196.243 328.992 195.292 328.898 194.402 328.588C192.966 329.473 191.808 330.744 191.06 332.256C190.312 333.768 190.004 335.46 190.172 337.138L186.909 337.603L182.864 333.993L186.896 318.011L186.969 317.582L190.974 313.564L190.064 304.177C190.983 304.008 191.932 304.161 192.751 304.612C193.57 305.062 194.208 305.782 194.557 306.649L196.141 309.545L196.203 309.529C196.882 309.419 197.567 309.354 198.254 309.333L198.219 308.047C198.177 308.076 198.126 308.09 198.075 308.086C197.616 308.109 197.15 308.146 196.668 308.208L196.055 308.273C195.876 307.026 195.733 305.791 195.564 304.541C196.19 304.44 196.84 304.387 197.483 304.348C198.125 304.308 198.47 304.271 198.934 304.269C199.855 304.277 200.774 304.318 201.667 304.389C201.522 306.077 201.465 307.764 201.324 309.429L201.282 309.396ZM192.212 319.465C192.404 319.414 192.567 319.289 192.667 319.117C192.766 318.945 192.793 318.74 192.741 318.549C192.69 318.357 192.565 318.193 192.393 318.094C192.221 317.995 192.016 317.968 191.825 318.019C191.633 318.071 191.469 318.196 191.37 318.368C191.271 318.54 191.244 318.744 191.295 318.936C191.347 319.128 191.472 319.291 191.644 319.391C191.816 319.49 192.02 319.517 192.212 319.465ZM196.812 310.727L197.316 311.699C201.753 311.202 206.223 312.276 209.95 314.734C213.677 317.192 216.425 320.879 217.715 325.153L217.745 325.266C217.762 325.391 217.795 325.512 217.842 325.628L218.318 327.405L221.271 338.426C221.413 338.882 221.477 339.359 221.461 339.836C221.478 339.898 221.494 339.96 221.503 339.991L227.937 338.267L227.107 335.168L225.94 335.481L226.527 337.671L222.746 338.683L221.31 333.323L226.258 331.997L225.427 328.898L224.26 329.211L224.847 331.401L221.066 332.414L219.683 327.249L219.613 326.991L224.447 325.696L224.218 324.838C224.073 324.253 223.896 323.676 223.688 323.109C223.638 322.924 223.599 322.779 223.552 322.603L222.445 323.055L222.486 323.21C222.525 323.355 222.555 323.468 222.597 323.623L222.666 323.881C222.827 324.358 222.958 324.845 223.056 325.338C221.848 325.662 220.619 325.991 219.389 326.32L219.154 325.442C219.019 324.936 218.877 324.41 218.62 323.903C218.362 323.396 218.182 322.847 217.937 322.304L217.596 321.609L222.039 319.311C221.836 318.923 221.651 318.563 221.424 318.214L221.408 318.152C221.066 317.579 220.693 317.015 220.329 316.482L219.415 317.202C219.412 317.254 219.425 317.304 219.454 317.347C219.47 317.409 219.479 317.44 219.493 317.492C219.748 317.866 220.011 318.271 220.246 318.651C220.353 318.844 220.47 319.034 220.588 319.224C219.491 319.839 218.426 320.534 217.322 321.206L216.863 320.444C216.588 319.981 216.291 319.532 215.971 319.099C215.677 318.702 215.382 318.305 215.065 317.947L214.345 317.122L218.095 313.803C217.879 313.544 217.647 313.3 217.4 313.071C217.313 312.994 217.26 312.92 217.184 312.841C216.714 312.369 216.219 311.926 215.724 311.527L214.964 312.45C214.981 312.512 215.08 312.552 215.164 312.618C215.525 312.931 215.868 313.26 216.208 313.578C216.337 313.732 216.508 313.874 216.638 314.028C215.766 314.903 214.913 315.852 214.049 316.758L213.492 316.21C213.075 315.812 212.618 315.426 212.17 315.037C211.723 314.647 211.348 314.404 210.92 314.132L210.114 313.561L212.876 309.367C212.625 309.213 212.332 309.07 212.062 308.888C211.791 308.706 211.469 308.538 211.177 308.395C210.884 308.252 210.378 307.978 209.976 307.798L209.52 308.905C209.773 309.025 210.035 309.177 210.289 309.297C210.729 309.533 211.166 309.759 211.599 310.053C210.953 311.156 210.381 312.283 209.761 313.401L208.955 312.953C208.479 312.704 208 312.445 207.511 312.233C207.022 312.021 206.419 311.795 205.85 311.571L205.13 311.321L206.741 306.55C206.089 306.348 205.474 306.159 204.839 306.019C204.401 305.915 203.969 305.831 203.54 305.758L203.352 306.916L203.552 306.962L204.987 307.275C205.193 307.341 205.424 307.379 205.63 307.445L204.746 311.169L203.801 310.947C203.306 310.836 202.798 310.717 202.278 310.635C201.786 310.548 201.29 310.489 200.792 310.458L199.766 310.389L200.078 305.357C199.626 305.323 199.198 305.338 198.755 305.335C198.104 305.344 197.445 305.365 196.801 305.438L196.935 306.642C197.721 306.561 198.512 306.531 199.302 306.551L199.284 307.186L199.319 310.376L198.316 310.39C197.759 310.418 197.228 310.461 196.606 310.539L196.812 310.727ZM231.631 354.613L230.485 354.921L229.762 352.225L228.884 352.46L229.922 356.333L232.969 355.517L232.654 354.339L231.631 354.613ZM219.236 357.935L218.131 358.231L217.409 355.535L216.5 355.778L217.538 359.652L220.636 358.822L220.321 357.644L219.236 357.935ZM225.434 356.274L224.298 356.578L223.575 353.883L222.666 354.126L223.704 358L226.803 357.169L226.487 355.992L225.434 356.274ZM206.78 361.272L205.644 361.577L204.921 358.881L204.012 359.125L205.05 362.998L208.149 362.168L207.833 360.99L206.78 361.272ZM212.977 359.612L211.841 359.916L211.119 357.22L210.241 357.456L211.278 361.329L214.377 360.499L214.062 359.321L212.977 359.612ZM194.385 364.594L193.238 364.901L192.516 362.205L191.638 362.44L192.676 366.314L195.775 365.483L195.459 364.306L194.385 364.594ZM200.582 362.933L199.467 363.232L198.744 360.536L197.835 360.78L198.873 364.653L201.972 363.823L201.656 362.645L200.582 362.933ZM194.59 304.625L194.632 304.78L194.59 304.625Z" fill="black"/>
<path d="M116.925 332C117.377 332.033 117.84 332.109 118.3 332.174C118.761 332.238 119.179 332.314 119.617 332.419L119.95 331.222L119.153 331.059C118.862 331.005 118.563 330.963 118.302 330.9L117.811 330.843C117.956 329.609 118.119 328.358 118.293 327.105L119.833 327.357C120.462 327.476 121.009 327.617 121.634 327.76C122.52 327.976 123.39 328.254 124.237 328.59C123.664 330.172 123.141 331.729 122.597 333.336C123.02 333.51 123.443 333.685 123.851 333.886C124.259 334.086 124.675 334.274 125.114 334.466L125.723 333.351C125.683 333.311 125.634 333.282 125.579 333.268C125.317 333.116 125.032 333.004 124.781 332.85C124.529 332.696 124.073 332.564 123.72 332.404C124.167 331.177 124.693 330.084 125.132 328.915C125.349 329.023 125.555 329.089 125.77 329.187C126.35 329.452 126.917 329.71 127.462 330.007L127.577 330.064C127.859 330.21 128.121 330.361 128.383 330.512C129.102 330.924 129.799 331.373 130.471 331.857L129.744 332.904L127.7 336.02C128.055 336.313 128.439 336.586 128.762 336.843C129.086 337.099 129.48 337.414 129.82 337.733L130.678 336.806C130.678 336.806 130.594 336.739 130.555 336.717L129.46 335.77C129.345 335.713 129.26 335.603 129.145 335.545L129.029 335.443C129.79 334.442 130.57 333.469 131.314 332.484C132.049 333.023 132.75 333.608 133.411 334.236C134.08 334.876 134.732 335.531 135.327 336.224C135.457 336.378 135.636 336.551 135.774 336.735C134.49 337.81 133.256 338.905 131.986 340.031C132.266 340.377 132.553 340.743 132.839 341.109C133.125 341.475 133.358 341.889 133.613 342.263L134.694 341.586C134.576 341.396 134.438 341.212 134.321 341.022L133.864 340.347L133.437 339.83C134.426 339.056 135.451 338.339 136.439 337.565C136.588 337.746 136.686 337.908 136.835 338.09C137.379 338.841 137.89 339.589 138.357 340.383C138.824 341.177 139.258 342.012 139.643 342.828C138.109 343.549 136.63 344.267 135.117 345.026C135.316 345.438 135.497 345.865 135.668 346.296C135.839 346.726 135.96 347.136 136.118 347.603L137.347 347.274C137.278 347.016 137.206 346.747 137.072 346.495C136.945 346.02 136.743 345.598 136.562 345.17C137.713 344.674 138.86 344.245 140.048 343.76C140.122 343.973 140.181 344.19 140.222 344.411C140.395 344.808 140.539 345.223 140.687 345.648C140.834 346.074 141.04 346.76 141.2 347.359L141.43 348.217L141.729 349.332L136.781 350.658L137.612 353.757L139.068 353.366L138.432 350.991L141.85 350.075L142.016 350.694L143.27 355.373L143.292 355.456L138.345 356.782L139.175 359.88L140.704 359.471L140.117 357.281L143.536 356.365L143.702 356.985L144.956 361.664L144.978 361.746L136.901 363.911C136.784 364.34 136.621 364.755 136.413 365.148C136.261 365.505 136.234 365.902 136.339 366.275C136.453 366.712 136.727 367.089 137.106 367.334C137.485 367.578 137.942 367.673 138.387 367.598L140.452 367.044C140.823 366.946 141.209 366.922 141.589 366.974C141.969 367.025 142.335 367.151 142.667 367.344C142.998 367.537 143.288 367.793 143.52 368.098C143.752 368.403 143.922 368.751 144.02 369.121C144.167 369.671 144.145 370.251 143.958 370.788L147.5 369.838C148.048 369.692 148.632 369.768 149.123 370.052C149.614 370.336 149.973 370.803 150.12 371.351L150.673 373.416L152.013 378.416L150.866 378.723L149.527 373.724L146.428 374.554L146.84 376.093L149.009 375.512L149.937 378.972L144.607 380.4L143.267 375.401L140.169 376.231L140.581 377.77L142.74 377.192L143.667 380.652L138.368 382.072L137.029 377.073L133.93 377.903L134.342 379.442L136.501 378.863L137.428 382.324L132.109 383.749L130.769 378.75L127.722 379.566L128.135 381.105L130.304 380.524L131.231 383.984L125.901 385.412L124.562 380.413L121.515 381.23L121.927 382.769L124.096 382.187L125.023 385.648L119.693 387.076L118.354 382.076L115.255 382.907L115.668 384.446L117.837 383.865L118.764 387.325L113.465 388.745L112.125 383.745L109.027 384.576L109.439 386.115L111.608 385.533L112.535 388.994L107.206 390.422L105.313 383.357C105.166 382.809 105.243 382.225 105.526 381.734C105.81 381.243 106.277 380.884 106.825 380.737L109.521 380.015C109.103 379.635 108.805 379.142 108.664 378.595C108.462 377.851 108.562 377.058 108.942 376.388C109.323 375.718 109.953 375.225 110.695 375.018L112.76 374.464C113.191 374.313 113.548 374.004 113.76 373.6C113.972 373.196 114.023 372.727 113.904 372.287C113.788 371.86 113.52 371.491 113.15 371.249C112.882 371.08 112.625 370.894 112.381 370.691C111.453 369.934 110.789 368.903 110.484 367.745C110.28 366.996 110.236 366.211 110.355 365.444C110.473 364.676 110.752 363.941 111.172 363.288L111.217 363.209C113.519 359.736 116.837 356.666 116.324 350.87C116.758 350.471 117.119 350 117.39 349.477C117.753 348.837 117.985 348.131 118.075 347.4C118.164 346.67 118.108 345.929 117.91 345.22L117.094 345.438C117.417 346.654 117.256 347.947 116.644 349.046C116.441 349.403 116.195 349.733 115.911 350.029C115.139 350.723 114.194 351.195 113.176 351.396C112.158 351.596 111.105 351.518 110.127 351.169C108.689 352.053 107.529 353.324 106.779 354.836C106.029 356.349 105.72 358.042 105.888 359.722L102.625 360.187L98.5074 356.596L102.539 340.615L102.612 340.185L106.628 336.165L105.707 326.78C106.626 326.609 107.576 326.762 108.395 327.212C109.215 327.663 109.852 328.384 110.2 329.252L111.794 332.146C112.473 332.038 113.158 331.972 113.845 331.95L113.821 330.662C113.759 330.678 113.697 330.695 113.677 330.7C113.208 330.726 112.721 330.768 112.26 330.825L111.646 330.89C111.467 329.643 111.324 328.408 111.145 327.161C111.771 327.059 112.421 327.007 113.074 326.965C113.561 326.923 114.051 326.891 114.525 326.886C115.436 326.896 116.355 326.938 117.259 327.006C117.113 328.694 117.056 330.381 116.905 332.049L116.925 332ZM107.855 342.069C108.047 342.017 108.21 341.892 108.31 341.72C108.409 341.548 108.436 341.344 108.384 341.152C108.333 340.96 108.208 340.797 108.036 340.697C107.864 340.598 107.659 340.571 107.468 340.623C107.276 340.674 107.112 340.799 107.013 340.971C106.914 341.143 106.887 341.348 106.938 341.539C106.99 341.731 107.115 341.895 107.287 341.994C107.459 342.093 107.663 342.12 107.855 342.069ZM112.455 333.33L112.969 334.299C117.405 333.801 121.876 334.874 125.602 337.333C129.328 339.792 132.072 343.481 133.358 347.756L133.485 348.231L134.023 349.991L136.976 361.012C137.113 361.469 137.177 361.945 137.166 362.423C137.183 362.485 137.199 362.547 137.146 362.594L143.591 360.867L142.761 357.768L141.562 358.089L142.149 360.279L138.4 361.284L136.963 355.923L141.911 354.597L141.081 351.499L139.882 351.82L140.469 354.01L136.72 355.014L135.336 349.85L135.267 349.591L140.09 348.299L139.861 347.442C139.692 346.812 139.542 346.254 139.393 345.696C139.343 345.51 139.304 345.366 139.257 345.19L138.129 345.647L138.146 345.709L138.17 345.802C138.209 345.947 138.24 346.06 138.281 346.215L138.35 346.474C138.512 346.95 138.642 347.437 138.741 347.93C137.542 348.251 136.313 348.58 135.084 348.91L134.849 348.032C134.713 347.526 134.51 347.015 134.304 346.495C134.098 345.974 133.866 345.439 133.631 344.893L133.259 344.207L137.724 341.903C137.52 341.515 137.335 341.155 137.119 340.803L137.102 340.741C136.761 340.169 136.388 339.604 136.024 339.071L135.058 339.806C135.075 339.859 135.111 339.904 135.159 339.934C135.175 339.996 135.184 340.027 135.198 340.078C135.463 340.45 135.727 340.855 135.951 341.238C136.068 341.428 136.186 341.618 136.293 341.811C135.206 342.423 134.131 343.121 133.027 343.793L132.578 343.027C132.279 342.532 131.971 342.083 131.676 341.686C131.382 341.289 131.087 340.892 130.77 340.534L130.05 339.708L133.81 336.387C133.588 336.132 133.352 335.888 133.105 335.657C133.08 335.564 132.975 335.504 132.889 335.427C132.419 334.955 131.924 334.512 131.429 334.113L130.669 335.037C130.743 335.084 130.81 335.141 130.869 335.205C131.24 335.515 131.573 335.846 131.913 336.165C132.053 336.316 132.213 336.461 132.343 336.614C131.471 337.49 130.618 338.438 129.754 339.345L129.197 338.797C128.781 338.399 128.333 338.01 127.886 337.62C127.438 337.231 127.053 336.991 126.636 336.715L125.819 336.148L128.561 331.959C128.33 331.8 128.037 331.657 127.767 331.475C127.496 331.293 127.174 331.124 126.882 330.981C126.589 330.838 126.083 330.564 125.691 330.381L125.235 331.489C125.489 331.609 125.751 331.76 125.994 331.883C126.434 332.12 126.871 332.346 127.304 332.639C126.658 333.742 126.086 334.87 125.477 335.985L124.66 335.54C124.194 335.288 123.715 335.029 123.216 334.82C122.717 334.61 122.125 334.381 121.566 334.155L120.835 333.908L122.446 329.136C121.794 328.935 121.231 328.731 120.544 328.606C120.106 328.501 119.684 328.415 119.255 328.342L119.057 329.502L119.257 329.548C119.726 329.644 120.194 329.74 120.692 329.861C120.898 329.928 121.129 329.965 121.335 330.032L120.585 333.964L119.65 333.738C119.144 333.63 118.647 333.509 118.117 333.43C117.625 333.341 117.128 333.282 116.63 333.252L115.604 333.184L115.916 328.152C115.475 328.115 115.037 328.133 114.593 328.13C113.942 328.138 113.284 328.16 112.649 328.23L112.784 329.434C113.566 329.354 114.354 329.324 115.14 329.345L115.097 330.01L115.132 333.2L114.139 333.211C113.551 333.247 113.051 333.281 112.419 333.362L112.455 333.33ZM147.274 377.217L146.138 377.521L145.416 374.825L144.538 375.06L145.576 378.934L148.623 378.117L148.307 376.94L147.274 377.217ZM134.88 380.538L133.764 380.837L133.042 378.141L132.133 378.384L133.171 382.258L136.269 381.427L135.954 380.25L134.88 380.538ZM141.077 378.877L139.961 379.176L139.239 376.48L138.33 376.724L139.368 380.597L142.467 379.767L142.151 378.589L141.077 378.877ZM122.485 383.859L121.338 384.166L120.616 381.47L119.707 381.714L120.745 385.587L123.844 384.757L123.528 383.579L122.485 383.859ZM128.682 382.198L127.536 382.506L126.813 379.81L125.935 380.045L126.973 383.918L130.072 383.088L129.756 381.911L128.682 382.198ZM110.028 387.197L108.892 387.501L108.169 384.805L107.281 385.043L108.319 388.917L111.366 388.1L111.051 386.923L110.028 387.197ZM116.225 385.536L115.11 385.835L114.388 383.139L113.479 383.383L114.516 387.256L117.615 386.426L117.3 385.248L116.225 385.536ZM110.233 327.228L110.275 327.383L110.233 327.228Z" fill="black"/>
</svg>
