<svg width="1440" height="270" viewBox="0 0 1440 270" fill="none" xmlns="http://www.w3.org/2000/svg">
<path d="M1440 70.4111L1340.86 171.511C1337.71 174.693 1333.97 177.218 1329.86 178.94C1325.74 180.662 1321.33 181.549 1316.88 181.549C1312.43 181.549 1308.02 180.662 1303.9 178.94C1299.79 177.218 1296.05 174.693 1292.9 171.511L1191.39 68.5066C1191.11 69.3687 1190.97 70.2674 1190.96 71.1729V91.0882L1254.91 156.384L1190.96 221.681V241.759C1190.97 242.664 1191.12 243.562 1191.39 244.426L1266.18 167.757L1281.59 183.482C1286.14 188.221 1291.58 191.999 1297.59 194.596C1303.61 197.192 1310.07 198.557 1316.61 198.609C1323.14 198.556 1329.6 197.19 1335.6 194.593C1341.6 191.996 1347.03 188.22 1351.58 183.482L1366.99 167.757L1440 242.521V219.504L1378.3 156.384L1440 93.428V70.4111Z" fill="white"/>
<path d="M1433.86 267.606H1199.74C1193.12 267.548 1186.79 264.851 1182.12 260.102C1177.46 255.353 1174.85 248.936 1174.85 242.249V71.7713C1174.87 65.0925 1177.5 58.692 1182.15 53.949C1186.81 49.206 1193.13 46.5002 1199.74 46.4146H1433.86C1435.91 46.4095 1437.96 46.6655 1439.95 47.1764V66.0035C1439.17 64.9453 1438.15 64.0944 1436.98 63.5253C1435.81 62.9562 1434.51 62.6861 1433.21 62.7387H1199.31C1198.2 62.709 1197.1 62.9065 1196.07 63.3191C1195.04 63.7318 1194.1 64.3511 1193.32 65.1395C1192.53 65.9279 1191.91 66.8691 1191.5 67.9061C1191.08 68.9431 1190.88 70.0544 1190.9 71.1728V241.759C1190.88 242.878 1191.08 243.989 1191.5 245.026C1191.91 246.063 1192.53 247.004 1193.32 247.793C1194.1 248.581 1195.04 249.2 1196.07 249.613C1197.1 250.026 1198.2 250.223 1199.31 250.193H1433.26C1434.58 250.253 1435.9 249.969 1437.08 249.368C1438.26 248.768 1439.26 247.872 1440 246.765V266.844C1438.02 267.408 1435.97 267.665 1433.91 267.606H1433.86Z" fill="white"/>
<path fill-rule="evenodd" clip-rule="evenodd" d="M1121.34 133.966H1018.43C1017.63 140.516 1018.88 147.152 1021.98 152.957C1023.92 155.889 1026.59 158.254 1029.72 159.812C1032.85 161.369 1036.33 162.064 1039.82 161.826H1108.89C1101.4 170.78 1092.25 178.173 1081.95 183.591C1070.05 189.686 1053.83 192.461 1033.46 192.461C1015.89 192.461 1002.32 189.958 993.156 184.843C983.618 179.291 976.199 170.669 972.087 160.357C967.298 147.808 966.176 134.135 968.855 120.961C971.846 100.542 982.116 81.9287 997.735 68.6155C1014.37 55.0518 1035.32 48.0519 1056.68 48.9178C1075.81 48.9178 1090.3 51.8562 1100.38 57.9505C1110.31 63.6361 1117.78 72.8503 1121.34 83.7969C1125.27 98.1781 1125.64 113.313 1122.42 127.872L1121.34 133.966V133.966ZM40.627 226.034V268.694H49.0865V254.057H55.8218L64.0658 268.694H73.2258L63.6886 252.642V252.37C65.852 251.176 67.6252 249.373 68.7923 247.18C69.9594 244.987 70.4701 242.499 70.2622 240.018C70.3742 238.096 70.0707 236.171 69.3726 234.379C68.6745 232.587 67.5987 230.969 66.2197 229.639C64.8407 228.308 63.1916 227.297 61.3868 226.674C59.582 226.052 57.6647 225.833 55.7679 226.034H40.627ZM49.0865 233.053H55.8218C56.665 233.086 57.4927 233.293 58.254 233.661C59.0153 234.028 59.6943 234.549 60.2492 235.191C60.8042 235.833 61.2233 236.582 61.4812 237.394C61.7391 238.205 61.8302 239.061 61.7489 239.909C61.8458 240.769 61.7667 241.639 61.5165 242.467C61.2664 243.294 60.8504 244.061 60.2946 244.719C59.7388 245.377 59.055 245.913 58.2855 246.293C57.5161 246.673 56.6775 246.89 55.8218 246.929H49.0865V233.053ZM240.314 262.545L247.481 242.412L249.905 268.585H258.472L254.647 225.925H245.487L237.351 249.377H237.027L228.784 225.871H219.462L215.636 268.531H224.203L226.898 242.521L233.956 262.654L240.314 262.545ZM326.903 225.925H318.497V268.694H326.903V225.925ZM411.39 252.261L397.327 225.925H388.544V268.694H396.788V242.521H397.111L411.175 268.694H419.85V226.034H411.606V252.37L411.39 252.261ZM512.904 247.527C512.904 233.978 505.414 226.034 494.854 226.034H481.706V268.694H494.854C505.63 268.694 512.904 260.75 512.904 247.527V247.527ZM494.854 233.053C500.242 233.053 504.337 237.298 504.337 247.418C504.337 257.539 500.188 261.729 494.854 261.729H490.004V233.053H494.854ZM659.032 226.034V268.694H667.33V254.057H674.119L682.363 268.694H691.523L682.148 252.642V252.37C684.277 251.149 686.013 249.335 687.15 247.145C688.287 244.955 688.776 242.481 688.56 240.018C688.68 238.098 688.384 236.175 687.692 234.382C687.001 232.59 685.93 230.972 684.555 229.64C683.18 228.308 681.534 227.296 679.732 226.673C677.929 226.05 676.014 225.832 674.119 226.034H659.032ZM667.33 233.053H674.119C674.959 233.085 675.782 233.292 676.538 233.661C677.295 234.029 677.967 234.552 678.514 235.196C679.06 235.84 679.469 236.591 679.714 237.402C679.959 238.213 680.036 239.067 679.939 239.909C680.068 240.771 680.016 241.651 679.786 242.491C679.557 243.331 679.154 244.113 678.605 244.786C678.056 245.458 677.373 246.006 676.6 246.394C675.827 246.782 674.982 247.002 674.119 247.038H667.276L667.33 233.053ZM748.854 268.585H776.495V261.838H757.098V250.955H769.922V243.936H757.098V233.053H776.064V226.034H748.854V268.585ZM841.154 237.733C841.195 236.965 841.387 236.214 841.72 235.522C842.053 234.831 842.519 234.213 843.091 233.706C843.663 233.199 844.33 232.813 845.052 232.57C845.775 232.327 846.538 232.232 847.297 232.291C850.416 232.373 853.402 233.59 855.702 235.72L858.881 230.278C857.336 228.531 855.431 227.148 853.298 226.227C851.166 225.306 848.86 224.868 846.542 224.946C844.776 224.788 842.997 225.001 841.317 225.57C839.636 226.139 838.089 227.052 836.774 228.252C835.459 229.453 834.404 230.914 833.674 232.546C832.944 234.177 832.556 235.943 832.533 237.733C832.533 252.533 851.014 248.616 851.014 256.233C851.014 259.988 848.374 262.654 843.04 262.654C841.383 262.628 839.748 262.268 838.23 261.595C836.713 260.923 835.344 259.951 834.203 258.736L830.701 264.504C832.369 266.276 834.387 267.676 836.623 268.613C838.86 269.55 841.266 270.004 843.686 269.946C853.762 269.946 859.851 263.906 859.851 256.233C859.851 241.923 841.208 245.677 841.208 237.733H841.154ZM951.72 247.527C951.72 233.162 943.584 224.946 933.508 224.946C923.432 224.946 915.511 233.053 915.511 247.527C915.511 262.001 923.432 269.946 933.508 269.946C943.584 269.946 951.72 261.838 951.72 247.527V247.527ZM942.991 247.527C942.991 258.138 938.573 262.654 933.508 262.654C928.443 262.654 924.186 258.138 924.186 247.527C924.186 236.917 928.497 232.074 933.508 232.074C938.519 232.074 942.991 236.753 942.991 247.527V247.527ZM1010.67 226.034V268.694H1018.97V254.057H1025.81L1034.11 268.694H1043.27L1033.73 252.642V252.37C1035.93 251.207 1037.75 249.417 1038.96 247.222C1040.16 245.026 1040.71 242.522 1040.52 240.018C1040.62 238.093 1040.31 236.168 1039.61 234.375C1038.9 232.583 1037.82 230.967 1036.44 229.637C1035.05 228.308 1033.4 227.297 1031.6 226.675C1029.79 226.053 1027.87 225.834 1025.97 226.034H1010.67ZM1018.97 233.053H1025.81C1026.65 233.085 1027.47 233.292 1028.23 233.661C1028.98 234.029 1029.66 234.552 1030.2 235.196C1030.75 235.84 1031.16 236.591 1031.4 237.402C1031.65 238.213 1031.72 239.067 1031.63 239.909C1031.76 240.776 1031.7 241.66 1031.47 242.504C1031.24 243.347 1030.83 244.132 1030.28 244.805C1029.72 245.479 1029.03 246.026 1028.25 246.411C1027.47 246.795 1026.62 247.009 1025.75 247.038H1018.97V233.053ZM1096.39 225.925V233.053H1107.17V268.694H1115.47V233.053H1126.24V226.034L1096.39 225.925ZM590.979 51.8018H714.531L710.867 72.6421C710.71 76.006 709.729 79.2779 708.011 82.1645C706.56 84.6091 704.742 86.8118 702.623 88.6941L630.044 153.555H701.384L695.241 189.522H562.368L565.439 170.967L566.948 162.098V161.772C568.384 156.893 571.147 152.519 574.922 149.148L643.622 87.9324H584.675L590.979 51.8018ZM387.251 64.4257C384.895 74.8985 380.297 84.7235 373.78 93.2105V93.2105L373.295 93.7002C372.541 94.6252 371.625 95.5502 370.871 96.4753L370.116 97.2371L367.961 99.2504L366.883 100.175L366.56 100.447H366.291L365.967 100.774H365.698L365.105 101.264H364.782H364.459L364.135 101.59H363.866L363.381 102.025H363.058H362.734H362.465H362.142H361.819L361.549 102.352L360.902 102.678L359.987 103.114H359.717H359.394L356.646 104.692C354.221 105.78 351.635 106.868 348.995 107.793L347.324 108.392H347.055C336.591 111.653 325.673 113.178 314.725 112.908H283.582L266.986 189.522H209.871L224.958 100.23V99.9033C226.498 94.647 229.597 89.9934 233.835 86.569C238.074 83.1446 243.25 81.1137 248.666 80.7498H299.207C307.805 81.6526 316.461 79.7248 323.885 75.254C328.792 71.5989 332.127 66.1865 333.207 60.127C333.795 57.4986 333.78 54.7694 333.163 52.1477C332.547 49.526 331.346 47.0813 329.651 45.0001C326.741 41.1367 320.06 38.9057 309.984 38.7969H235.357L242.092 0.163312H336.763C357.239 0.163312 371.894 5.11495 380.462 15.2359C389.029 25.3568 391.615 39.722 388.382 58.3858V59.0388V59.8005V60.2903V60.8888V61.4874L387.951 63.9904V64.4801L387.251 64.4257ZM536.882 189.522H440.971C426.746 189.522 416.347 185.333 410.097 176.409C403.847 167.485 401.853 154.643 404.709 136.415L418.88 52.4547H470.229L458.214 124.226C456.813 132.932 457.298 139.027 459.884 142.618C461.263 144.496 463.098 145.983 465.212 146.936C467.327 147.889 469.648 148.276 471.954 148.059H492.752L497.763 117.86C498.079 116.853 498.278 115.812 498.356 114.758L505.684 71.2274C507.204 65.9592 510.296 61.2928 514.539 57.8649C518.782 54.4371 523.969 52.4147 529.392 52.0738H560.105L536.882 189.522ZM928.174 0.108887H958.886L926.557 189.849H875.369L904.25 19.6978V19.4257C905.732 14.1314 908.802 9.43107 913.038 5.97171C917.274 2.51236 922.468 0.464087 927.904 0.108887H928.174ZM180.828 0.108887H211.703L204.968 38.7425H153.779L154.857 32.9747L157.174 19.0992C158.719 13.8697 161.815 9.24469 166.045 5.84869C170.275 2.45269 175.435 0.449242 180.828 0.108887V0.108887ZM172.153 52.1282H202.812L179.481 189.522H128.293L148.284 71.8804V71.445C149.775 66.1464 152.855 61.4445 157.101 57.9855C161.346 54.5266 166.548 52.4804 171.992 52.1282H172.153ZM744.921 52.1282H868.472L864.97 72.9686C864.587 76.3183 863.543 79.5564 861.898 82.491C860.44 84.9306 858.623 87.1322 856.51 89.0206L783.823 153.555H855.325L849.236 189.522H716.309L719.38 170.967L720.943 162.098V161.772C722.308 156.9 725.018 152.521 728.756 149.148L797.617 87.9324H738.778L744.921 52.1282ZM0 52.4547H77.7519C91.8151 52.4547 102.16 56.8078 108.572 65.514C114.984 74.2201 116.816 87.6603 113.961 105.889L99.5741 189.522H48.2783L60.3479 117.37C61.8566 108.99 61.4255 102.733 58.7853 99.1415C57.399 97.2714 55.5628 95.7899 53.4505 94.8377C51.3382 93.8854 49.0199 93.4938 46.7157 93.7002H25.9711L20.9061 124.226C20.657 125.194 20.4592 126.175 20.3135 127.165L12.8238 170.695C10.7638 177.477 6.16238 183.179 0 186.584V52.4547ZM1073.44 108.882C1074.19 98.5974 1072.69 91.2516 1069.13 87.1162C1067.13 84.8215 1064.62 83.0242 1061.82 81.8634C1059.02 80.7027 1055.99 80.2099 1052.96 80.4233C1048.91 80.4629 1044.92 81.388 1041.25 83.1351C1037.59 84.8821 1034.34 87.4097 1031.74 90.5442C1027.36 96.0104 1024.29 102.413 1022.74 109.262H1073.28L1073.44 108.882Z" fill="white"/>
</svg>
