<svg width="12" height="16" viewBox="0 0 12 16" fill="none" xmlns="http://www.w3.org/2000/svg">
<path fill-rule="evenodd" clip-rule="evenodd" d="M6.19148 2.14505C6.30076 2.19422 6.39363 2.2434 6.5029 2.28711C6.61217 2.33082 6.70505 2.38 6.80887 2.42917L6.95093 2.14505C6.89156 2.11972 6.83483 2.08862 6.78155 2.05217C6.71181 2.02663 6.64421 1.99556 6.5794 1.95928C6.54523 1.9396 6.50843 1.92489 6.47012 1.91558V1.91558C6.59578 1.61508 6.72145 1.33642 6.82526 1.01953C6.95092 1.08509 7.07659 1.1288 7.18586 1.19437C7.32398 1.25736 7.45729 1.33041 7.58472 1.41291C7.77594 1.51872 7.95862 1.63929 8.13109 1.77352C7.90161 2.13412 7.66668 2.47834 7.4372 2.83348C7.53402 2.90312 7.62703 2.9779 7.71584 3.05749C7.80317 3.12406 7.88537 3.19711 7.96171 3.27603L8.18026 3.0411L8.14748 3.00832C8.10377 2.95915 8.0382 2.91543 7.9781 2.84987C7.918 2.7843 7.83605 2.74059 7.75956 2.68049C7.94533 2.42916 8.13108 2.17784 8.33324 1.91558C8.37236 1.95507 8.41437 1.99159 8.45891 2.02484L8.81405 2.33628L8.98342 2.50565C9.12002 2.64771 9.26208 2.8007 9.39867 2.95915L9.1528 3.17769L8.49715 3.8224C8.5791 3.91529 8.63922 4.00818 8.71571 4.10106L8.90147 4.38516L9.16372 4.21032C9.16372 4.21032 9.16372 4.21033 9.16372 4.18301C9.10362 4.08466 9.02713 3.97538 8.96703 3.8825C8.9494 3.85367 8.92726 3.82785 8.90147 3.80601V3.77323C9.13095 3.58747 9.3768 3.4017 9.62813 3.22686C9.76473 3.41809 9.90679 3.58747 10.0325 3.77323L10.3548 4.38516C10.3799 4.43591 10.4001 4.48898 10.4149 4.54362C10.0434 4.71299 9.68824 4.89876 9.32217 5.08999L9.46423 5.40142C9.50794 5.51069 9.54071 5.61996 9.57349 5.72923L9.86307 5.63636C9.86307 5.58718 9.83576 5.52708 9.81937 5.4779C9.78873 5.41634 9.76315 5.35238 9.74288 5.28667C9.72495 5.23408 9.70302 5.18294 9.67731 5.13369L10.546 4.77308C10.5649 4.82531 10.5868 4.87639 10.6116 4.92607C10.6881 5.14461 10.7646 5.37956 10.8247 5.59811C10.8877 5.82037 10.9352 6.04675 10.9667 6.2756L9.75927 6.51055C9.75927 6.63075 9.78659 6.74002 9.80298 6.86569C9.81155 6.98027 9.81155 7.09533 9.80298 7.2099H10.1144V7.00773C10.1144 6.88207 10.1144 6.77281 10.0816 6.64714C10.3767 6.60343 10.6881 6.57064 10.9941 6.53786C10.9941 6.58704 10.9941 6.64714 10.9941 6.7127C11.0131 6.82102 11.024 6.9306 11.0268 7.04053C11.0353 7.19157 11.0353 7.34297 11.0268 7.49401V7.71255V8.01307H9.75381V8.82168H10.1417V8.19336H11.0268V8.3682V9.5866V9.61938H9.75381V10.4171H10.1417V9.83247H11.0268V10.0073V11.2257V11.2585H9.01073C9.01073 11.2858 8.97795 11.3022 8.96156 11.335C8.88496 11.4246 8.79678 11.5036 8.69932 11.5699C8.66423 11.6378 8.64374 11.7122 8.63921 11.7885C8.636 11.9014 8.67609 12.0112 8.75126 12.0955C8.82642 12.1799 8.93098 12.2322 9.04352 12.242V12.242H9.58988C9.68481 12.2427 9.77867 12.2622 9.86595 12.2996C9.95324 12.3369 10.0322 12.3912 10.0983 12.4593C10.1644 12.5274 10.2163 12.608 10.251 12.6964C10.2856 12.7848 10.3024 12.8792 10.3002 12.9741V12.9741C10.3015 13.1129 10.2636 13.2492 10.1909 13.3675H11.0924C11.2373 13.3675 11.3763 13.425 11.4788 13.5275C11.5812 13.63 11.6388 13.7689 11.6388 13.9139V14.4602V15.777H11.3601V14.4602H10.557V14.87H11.1033V15.777H9.75381V14.4602H8.95064V14.87H9.49701V15.777H8.13109V14.4602H7.35523V14.87H7.9016V15.777H6.53568V14.4602H5.74891V14.87H6.29528V15.777H4.92935V14.4602H4.14259V14.87H4.68896V15.777H3.32304V14.4602H2.56358V14.87H3.10995V15.777H1.74402V14.4602H0.95725V14.87H1.50362V15.777H0.137695V13.9139C0.137695 13.7689 0.195267 13.63 0.297731 13.5275C0.400195 13.425 0.539159 13.3675 0.684065 13.3675H1.36156C1.30855 13.2758 1.27447 13.1744 1.26133 13.0693C1.24819 12.9642 1.25627 12.8575 1.28508 12.7556C1.32063 12.6417 1.37817 12.5359 1.45445 12.4441C1.57089 12.345 1.70962 12.2757 1.85876 12.242C1.95146 12.2338 2.04471 12.2338 2.13741 12.242H2.56358C2.67466 12.2286 2.77706 12.1752 2.85152 12.0917C2.92597 12.0082 2.96735 11.9003 2.96789 11.7885C2.97151 11.7103 2.94839 11.6332 2.90232 11.5699C2.80074 11.5023 2.71196 11.4172 2.64008 11.3186V11.2858C2.55218 11.1691 2.48558 11.0378 2.44338 10.8979C2.40595 10.755 2.38397 10.6084 2.37781 10.4608C2.38009 10.2506 2.42275 10.0429 2.50349 9.84886C2.59631 9.66464 2.71599 9.49523 2.85862 9.34619C2.85862 9.34619 2.85862 9.3462 2.8914 9.31888C3.028 9.19322 3.18645 9.08394 3.33943 8.95828C4.12732 8.43162 4.67826 7.61796 4.87473 6.69085V6.65806H4.90204C4.96804 6.62906 5.03039 6.59238 5.0878 6.54878C5.28364 6.39926 5.43481 6.19897 5.52491 5.96963C5.5783 5.82962 5.60963 5.68217 5.61778 5.53254H5.53583C5.53617 5.67094 5.5102 5.80814 5.45933 5.93685C5.39771 6.09326 5.30894 6.23753 5.19708 6.36302V6.36302C5.12244 6.43565 5.03998 6.49979 4.95121 6.55425V6.55425C4.81732 6.61866 4.67604 6.66637 4.53051 6.69631C4.38747 6.71822 4.24192 6.71822 4.09888 6.69631C3.97611 6.6856 3.85603 6.65419 3.74374 6.60342C3.63839 6.57487 3.53863 6.52869 3.44869 6.46683C3.06688 6.57901 2.72666 6.80139 2.47069 7.10609C2.19783 7.41263 2.02113 7.79264 1.96257 8.19883V8.28078L1.05014 8.15511L0.181414 6.94764L2.1975 3.27057L2.25761 3.1613L3.46508 2.44556L3.853 0.0688477H3.91311C4.15967 0.080109 4.39246 0.185749 4.56329 0.363892C4.74267 0.539736 4.85807 0.77052 4.89112 1.01953L5.09327 1.83361C5.22987 1.86639 5.41563 1.88279 5.5413 1.91011L5.60139 1.59868H5.56861C5.45735 1.57025 5.34412 1.55017 5.22987 1.53858C5.18616 1.53858 5.13698 1.53858 5.07688 1.5058C5.12059 1.19437 5.16977 0.877477 5.21347 0.566046C5.37192 0.566046 5.52491 0.615217 5.67789 0.631608C5.83088 0.647999 5.91282 0.6917 6.03848 0.708091C6.25157 0.768191 6.47012 0.85016 6.68866 0.926652C6.54661 1.33097 6.41002 1.72434 6.28435 2.12866L6.19148 2.14505ZM4.74906 2.44556C4.43171 2.40382 4.11026 2.40382 3.79291 2.44556L4.02239 0.505937C4.5032 0.65892 4.53597 1.55498 4.74906 2.44556ZM9.12002 10.9689H10.699V10.1548H10.404V10.7012H9.42598V9.29702H10.699V8.49933H10.404V9.0457H9.42598V7.64699H10.6662C10.6748 7.58903 10.6748 7.53011 10.6662 7.47215C10.6662 7.3137 10.6662 7.16073 10.6662 7.00228C10.6572 6.96088 10.6572 6.91801 10.6662 6.87661L10.3712 6.92578V7.06784C10.3712 7.06784 10.3712 7.11154 10.3712 7.12793V7.52132H9.44237V7.29186C9.45055 7.15539 9.45055 7.01855 9.44237 6.88208C9.42751 6.73472 9.40195 6.58862 9.36589 6.44497L9.33856 6.24282L10.5624 5.99149C10.5275 5.88984 10.5001 5.78574 10.4805 5.68006C10.4313 5.52161 10.3876 5.36864 10.322 5.21019L10.0434 5.31945C10.0468 5.32719 10.0486 5.33557 10.0486 5.34405C10.0486 5.35252 10.0468 5.36089 10.0434 5.36862C10.0434 5.36862 10.0434 5.36863 10.0434 5.39595C10.0871 5.50825 10.1236 5.62322 10.1527 5.74017C10.1527 5.78934 10.18 5.83304 10.1964 5.8986C9.88493 5.97509 9.59535 6.06799 9.28392 6.16634L9.22383 5.94232C9.18852 5.81097 9.14657 5.68151 9.09816 5.5544C9.04898 5.42874 9.00528 5.31946 8.95611 5.21019L8.83591 4.95885L9.92865 4.41248C9.87947 4.33598 9.85215 4.25403 9.80298 4.19393C9.7538 4.13383 9.7702 4.14477 9.75927 4.11745C9.67993 3.96941 9.59047 3.82702 9.49154 3.69128L9.26208 3.8825C9.26208 3.8825 9.26207 3.90983 9.28939 3.92622C9.35495 4.03549 9.41505 4.12838 9.47515 4.23765C9.53525 4.34692 9.52432 4.33599 9.5571 4.3797C9.28938 4.52175 9.01075 4.70753 8.74849 4.86597L8.6556 4.69113C8.57911 4.57093 8.48623 4.44527 8.40974 4.33599C8.33325 4.22672 8.25674 4.12836 8.17479 4.01909L8.02728 3.8224L8.95611 2.97554C8.90972 2.91508 8.85857 2.85845 8.80313 2.80617L8.61735 2.61493C8.54086 2.53844 8.46437 2.47834 8.38241 2.39639L8.18573 2.63132C8.24583 2.6805 8.30593 2.74058 8.3551 2.78976C8.45192 2.86928 8.53984 2.95906 8.61735 3.05749C8.3988 3.27604 8.18573 3.51097 7.96718 3.7459L7.79779 3.58747C7.706 3.49126 7.60741 3.40178 7.50277 3.31974C7.3771 3.22685 7.26783 3.13398 7.14763 3.05749L6.98918 2.94821L7.67214 1.8828C7.54041 1.78555 7.39949 1.70136 7.25142 1.63146C7.15856 1.5722 7.06182 1.51928 6.96185 1.47302L6.85258 1.75713C6.85258 1.75713 6.85258 1.75713 6.8799 1.75713L7.20772 1.9265C7.26105 1.9555 7.31218 1.98836 7.3607 2.02484L6.89629 2.86626L6.69413 2.75698L6.35539 2.57121C6.23969 2.52208 6.12109 2.48013 6.00025 2.44556L5.7653 2.35267L6.15323 1.1452L5.8418 1.05231C5.68907 1.00754 5.53404 0.971069 5.37738 0.943042L5.33368 1.25446C5.51944 1.28724 5.70521 1.33642 5.88005 1.38013L5.84727 1.53858L5.6615 2.31989L5.41563 2.2598C5.32275 2.2598 5.18069 2.21061 5.06049 2.19422V2.227V2.39639C6.15617 2.56908 7.15511 3.1247 7.87976 3.96447C8.63805 4.82615 9.07101 5.92595 9.10362 7.07331C9.10362 7.26454 9.10362 7.48309 9.10362 7.66885V10.5646C9.10281 10.7015 9.08257 10.8377 9.04352 10.9689H9.12002ZM2.16472 13.3948H3.48148C3.59946 13.3822 3.70861 13.3264 3.78792 13.2381C3.86724 13.1499 3.91111 13.0354 3.91111 12.9167C3.91111 12.7981 3.86724 12.6836 3.78792 12.5953C3.70861 12.5071 3.59946 12.4513 3.48148 12.4386H2.18111C2.06313 12.4513 1.95399 12.5071 1.87468 12.5953C1.79537 12.6836 1.75149 12.7981 1.75149 12.9167C1.75149 13.0354 1.79537 13.1499 1.87468 13.2381C1.95399 13.3264 2.06313 13.3822 2.18111 13.3948H2.16472ZM5.0441 13.3948H5.07688C5.13191 13.3927 5.18597 13.3797 5.23592 13.3565C5.28586 13.3333 5.33069 13.3004 5.36781 13.2598C5.40493 13.2191 5.43358 13.1714 5.45211 13.1196C5.47064 13.0677 5.47866 13.0127 5.47572 12.9577V12.8648C5.47644 12.8096 5.46629 12.7547 5.44581 12.7034C5.42533 12.6521 5.39495 12.6053 5.35639 12.5657C5.31783 12.5262 5.27185 12.4946 5.22108 12.4728C5.17031 12.451 5.11574 12.4394 5.06049 12.4386C4.94696 12.4386 4.83799 12.4834 4.75719 12.5631C4.6764 12.6429 4.63029 12.7513 4.62886 12.8648V12.9577C4.62666 13.0139 4.63573 13.0699 4.65555 13.1225C4.67537 13.1751 4.70552 13.2231 4.74422 13.2639C4.78293 13.3046 4.82941 13.3372 4.88091 13.3597C4.93242 13.3822 4.98791 13.3941 5.0441 13.3948V13.3948ZM1.01736 8.01307C1.27962 5.66914 3.3886 4.89875 2.25761 3.28696C1.71124 4.42887 0.880759 5.82212 0.241507 6.96403L1.01736 8.01307ZM3.35582 4.02456C3.4022 4.02045 3.44532 3.99909 3.47669 3.96468C3.50806 3.93028 3.52538 3.88535 3.52519 3.8388C3.52976 3.81287 3.52859 3.78625 3.52178 3.76083C3.51496 3.7354 3.50265 3.71178 3.48573 3.69161C3.4688 3.67145 3.44766 3.65523 3.4238 3.64411C3.39994 3.63299 3.37394 3.62722 3.34762 3.62722C3.32129 3.62722 3.29529 3.63299 3.27143 3.64411C3.24758 3.65523 3.22643 3.67145 3.20951 3.69161C3.19258 3.71178 3.18029 3.7354 3.17348 3.76083C3.16666 3.78625 3.16548 3.81287 3.17004 3.8388C3.17004 3.88806 3.18963 3.93531 3.22446 3.97015C3.2593 4.00499 3.30655 4.02456 3.35582 4.02456ZM10.5296 15.1924H10.251V14.4875H10.0161V15.5038H10.8083V15.1924H10.5296ZM7.33884 15.1924H7.06021V14.4875H6.82526V15.5038H7.6175V15.1924H7.33884ZM8.93425 15.1924H8.6556V14.4875H8.42066V15.5038H9.21291V15.1924H8.93425ZM4.14805 15.1924H3.86941V14.4875H3.65632V15.5038H4.46495V15.1924H4.14805ZM5.74345 15.1924H5.4648V14.4875H5.21347V15.5038H6.02209V15.1924H5.74345ZM0.95725 15.1924H0.662206V14.4875H0.427271V15.5038H1.21951V15.1924H0.95725ZM2.55266 15.1924H2.25761V14.4875H2.01721V15.5038H2.80945V15.1924H2.55266Z" fill="white"/>
</svg>
