<svg width="15" height="16" viewBox="0 0 15 16" fill="none" xmlns="http://www.w3.org/2000/svg">
<path fill-rule="evenodd" clip-rule="evenodd" d="M6.47904 15.7334H2.82383C2.47896 15.7284 2.14157 15.6322 1.84584 15.4548H2.14087C2.40312 15.4548 2.68723 15.4548 2.94948 15.422C3.00611 15.5157 3.08643 15.5928 3.18235 15.6455C3.27827 15.6983 3.38641 15.7248 3.49585 15.7225C3.63394 15.7195 3.7674 15.6722 3.87658 15.5876C3.98577 15.503 4.06489 15.3856 4.10232 15.2526C4.72257 15.1341 5.3287 14.951 5.9108 14.7062L6.0037 14.6735C6.07255 14.7943 6.17988 14.8887 6.30857 14.9414C6.43726 14.9942 6.57989 15.0024 6.71378 14.9647C6.84766 14.927 6.96507 14.8455 7.04729 14.7333C7.12951 14.6212 7.17184 14.4847 7.16747 14.3456C7.1685 14.2541 7.15178 14.1631 7.11829 14.0779C7.6808 13.7425 8.20639 13.3488 8.68637 12.9032C8.76395 12.9367 8.84774 12.9535 8.93224 12.9524C9.10039 12.9495 9.26076 12.8811 9.37916 12.7617C9.49757 12.6423 9.56461 12.4813 9.56601 12.3131C9.56228 12.221 9.54193 12.1303 9.50592 12.0454C9.89634 11.5846 10.249 11.0931 10.5604 10.5757C10.6244 10.5945 10.6905 10.6055 10.7571 10.6085C10.9272 10.6028 11.088 10.5301 11.2047 10.4062C11.3214 10.2824 11.3844 10.1174 11.38 9.94736C11.3813 9.85035 11.3592 9.75447 11.3154 9.66789C11.2716 9.58131 11.2076 9.5066 11.1287 9.45016C11.1778 9.35182 11.2106 9.25894 11.2543 9.16606C11.4081 8.7737 11.5377 8.37227 11.6422 7.96404C11.8065 7.95427 11.9608 7.88206 12.0736 7.7622C12.1864 7.64233 12.249 7.48389 12.2487 7.31932C12.2446 7.20391 12.2088 7.09185 12.1452 6.99547C12.0815 6.89908 11.9926 6.82209 11.8881 6.77295C11.9577 6.28058 11.9942 5.78409 11.9974 5.28683V5.28683L14.2758 7.58704C14.5225 7.83517 14.6966 8.1461 14.7793 8.48613C14.862 8.82616 14.8501 9.18232 14.7449 9.51606C14.6396 9.84979 14.4451 10.1484 14.1823 10.3795C13.9195 10.6105 13.5985 10.7653 13.254 10.827C13.2019 10.8349 13.1544 10.8614 13.1203 10.9016C13.0861 10.9417 13.0677 10.9929 13.0683 11.0456C13.07 11.096 13.0851 11.145 13.112 11.1876V11.1876L14.3194 12.6573C14.6065 12.9979 14.7616 13.4304 14.7565 13.8758C14.7609 14.3743 14.5682 14.8545 14.2203 15.2116C13.8723 15.5687 13.3974 15.774 12.8989 15.7826H6.47904V15.7334ZM1.49069 15.1597C1.36514 15.0288 1.26013 14.8796 1.17925 14.7172C1.22842 14.7172 1.27214 14.7172 1.32131 14.7172C1.54277 14.7237 1.76333 14.6865 1.97036 14.6076C2.17739 14.5287 2.36681 14.4096 2.52773 14.2573C2.68866 14.1051 2.81791 13.9225 2.9081 13.7201C2.99829 13.5177 3.04764 13.2996 3.05329 13.0781C3.0489 12.7797 2.96313 12.4881 2.80522 12.2349C2.64731 11.9817 2.42326 11.7764 2.15724 11.6411L1.3814 12.5809L2.58889 11.1111C2.61971 11.0701 2.63689 11.0204 2.63805 10.9691C2.63934 10.9187 2.62319 10.8694 2.59233 10.8296C2.56146 10.7898 2.51777 10.7618 2.46867 10.7505C2.02399 10.6718 1.62152 10.4383 1.33252 10.0913C1.04351 9.74428 0.886653 9.3062 0.889692 8.85462C0.890663 8.52213 0.975183 8.19522 1.13553 7.90394L1.47428 7.94765C1.64912 7.98043 1.80212 7.99682 1.97149 8.01321L2.46867 8.05693H3.41392C3.45126 8.19337 3.53139 8.31423 3.64252 8.40176C3.75365 8.48929 3.88992 8.53885 4.03132 8.54319C4.19468 8.53898 4.3501 8.47185 4.46514 8.35579C4.58018 8.23973 4.64592 8.08372 4.64868 7.92033C4.85901 7.89322 5.06717 7.85122 5.27155 7.79466C5.65599 7.71293 6.03399 7.60336 6.40254 7.46684C6.45736 7.56294 6.53699 7.64255 6.63311 7.69734C6.72923 7.75212 6.83829 7.78008 6.94891 7.77827C7.11711 7.77268 7.27673 7.70263 7.39471 7.58262C7.51268 7.46261 7.58001 7.30183 7.58272 7.13356C7.58936 7.08278 7.58936 7.03136 7.58272 6.98058C8.22239 6.65526 8.82818 6.26726 9.3912 5.82228C9.49505 5.8847 9.61424 5.91687 9.73539 5.91515C9.81812 5.91445 9.8999 5.89729 9.97592 5.86464C10.0519 5.832 10.1207 5.78453 10.1782 5.72502C10.2357 5.66551 10.2807 5.59514 10.3107 5.51803C10.3407 5.44092 10.355 5.35861 10.3528 5.27591C10.355 5.17783 10.3344 5.08056 10.2927 4.99178C10.5386 4.72953 10.7735 4.44542 11.003 4.1777L11.7461 4.93169V5.22672C11.7489 5.69822 11.7179 6.16932 11.6531 6.63636C11.4854 6.64057 11.3259 6.70943 11.2078 6.82856C11.0896 6.94769 11.0221 7.10787 11.0194 7.2756C11.0176 7.40434 11.0555 7.5305 11.1278 7.63701C11.2001 7.74353 11.3034 7.82527 11.4237 7.87116C11.3144 8.26455 11.1887 8.65247 11.0522 9.02946C11.003 9.10596 10.9757 9.19883 10.9265 9.28079C10.8937 9.28079 10.85 9.28079 10.8008 9.28079C10.6322 9.28223 10.471 9.35021 10.3523 9.46994C10.2336 9.58966 10.167 9.75145 10.167 9.92005C10.1669 10.0104 10.1847 10.1 10.2194 10.1834C10.2541 10.2669 10.305 10.3427 10.3692 10.4063C10.0827 10.8999 9.7517 11.3663 9.38027 11.7995C9.26836 11.7008 9.12518 11.6447 8.97596 11.6411C8.80776 11.6467 8.64814 11.7167 8.53016 11.8368C8.41219 11.9568 8.34486 12.1176 8.34215 12.2858C8.34077 12.4399 8.39511 12.5893 8.49515 12.7065C8.0315 13.1289 7.52835 13.5058 6.99263 13.832C6.88123 13.7324 6.73774 13.6762 6.58832 13.6736C6.50417 13.6736 6.42083 13.6903 6.34322 13.7229C6.2656 13.7554 6.19526 13.8031 6.13626 13.8631C6.07726 13.9231 6.0308 13.9943 5.9996 14.0724C5.9684 14.1506 5.95307 14.2342 5.95452 14.3183V14.3784L5.86164 14.4112C5.313 14.6496 4.74195 14.8326 4.15697 14.9576C4.1282 14.8057 4.04401 14.67 3.92077 14.5768C3.79753 14.4836 3.64402 14.4395 3.49008 14.4531C3.33615 14.4667 3.1928 14.5371 3.08784 14.6505C2.98289 14.7639 2.92383 14.9123 2.92217 15.0668V15.1488C2.68723 15.1488 2.44137 15.1488 2.20643 15.1488C1.97149 15.1488 1.77479 15.1488 1.55625 15.1488L1.49069 15.1597ZM1.3049 7.67993L1.44697 7.53787L6.88335 2.04686L2.54517 6.41782C2.86487 6.49924 3.19327 6.54142 3.52316 6.54347C5.90534 6.54347 7.50075 4.41264 8.15093 2.91559L8.58802 3.16144C8.61191 3.17942 8.63958 3.19173 8.66892 3.19741C8.69827 3.20309 8.72853 3.20199 8.7574 3.19422C8.78397 3.18782 8.80904 3.17624 8.83113 3.16012C8.85321 3.14401 8.87187 3.1237 8.88608 3.10035C8.9003 3.077 8.90976 3.05107 8.91393 3.02405C8.9181 2.99703 8.91691 2.96945 8.9104 2.9429L8.74102 2.10148L8.81749 2.01953L10.7517 3.97554C10.5437 4.25611 10.3174 4.52258 10.0742 4.77324C9.96163 4.68879 9.82669 4.63937 9.68623 4.63118C9.51619 4.63262 9.3536 4.70119 9.23387 4.82194C9.11414 4.9427 9.04698 5.10586 9.04699 5.27591C9.05301 5.39596 9.08467 5.51332 9.13986 5.62011C8.61138 6.04837 8.03579 6.41498 7.42425 6.71284C7.36461 6.63855 7.28886 6.5788 7.20272 6.5381C7.11659 6.4974 7.02233 6.47681 6.92707 6.47791C6.75892 6.48075 6.59855 6.54918 6.48014 6.66861C6.36174 6.78803 6.29466 6.949 6.29326 7.11717C6.29484 7.14447 6.29484 7.17183 6.29326 7.19912C5.93812 7.32479 5.56659 7.43406 5.20052 7.52695C5.01476 7.57612 4.80169 7.60343 4.59953 7.63621C4.54887 7.51073 4.45872 7.40515 4.34272 7.33546C4.22672 7.26577 4.0912 7.23576 3.95662 7.24996C3.82204 7.26416 3.69573 7.3218 3.59683 7.41416C3.49793 7.50653 3.4318 7.62859 3.40845 7.76188C3.2574 7.77006 3.106 7.77006 2.95495 7.76188C2.79661 7.77006 2.63795 7.77006 2.47961 7.76188C2.31886 7.75987 2.15834 7.74893 1.99881 7.7291C1.82943 7.7291 1.67098 7.69631 1.518 7.66899C1.44423 7.66548 1.37102 7.6545 1.29947 7.63621L1.3049 7.67993Z" fill="white"/>
<path d="M6.47928 15.7989H2.82407C2.43309 15.7992 2.05152 15.679 1.73133 15.4547H1.96626C2.2254 15.5861 2.51165 15.6554 2.80222 15.6568H3.19012C3.27067 15.7003 3.36084 15.7229 3.45237 15.7224C3.54426 15.7261 3.6353 15.7033 3.71465 15.6568H12.8937C13.1318 15.6554 13.3674 15.6068 13.5867 15.5139C13.8059 15.4209 14.0046 15.2854 14.1712 15.1152C14.3379 14.945 14.4691 14.7435 14.5574 14.5223C14.6458 14.3011 14.6894 14.0646 14.6858 13.8265C14.6894 13.3983 14.5425 12.9825 14.2705 12.6518L13.0467 11.1657C13.0295 11.1476 13.018 11.1247 13.0138 11.1001C13.006 11.0696 13.006 11.0377 13.0138 11.0072C13.0107 10.9734 13.0149 10.9392 13.0262 10.9071C13.0375 10.8751 13.0557 10.8458 13.0794 10.8215C13.1203 10.7652 13.1807 10.7262 13.2488 10.7122C13.679 10.6474 14.0692 10.4231 14.3415 10.0839C14.5609 9.82693 14.7046 9.51417 14.7567 9.1804C14.8088 8.84663 14.7672 8.50496 14.6366 8.19342C14.5425 7.97409 14.4112 7.77262 14.2486 7.59788C13.7023 7.05151 12.8718 6.26473 12.0195 5.43971V5.26487V5.13922L14.3579 7.50499C14.7103 7.88104 14.9057 8.37745 14.9043 8.89277C14.9078 9.36249 14.743 9.81794 14.4399 10.1767C14.1437 10.5369 13.7257 10.7759 13.2652 10.8488C13.2497 10.851 13.2348 10.8565 13.2216 10.865C13.2084 10.8735 13.1972 10.8847 13.1887 10.8979C13.1727 10.9112 13.16 10.928 13.1515 10.9469C13.143 10.9658 13.1389 10.9865 13.1395 11.0072C13.1395 11.0072 13.1395 11.04 13.1395 11.0564C13.1395 11.0728 13.1395 11.0564 13.1723 11.1001L14.3798 12.5698C14.5156 12.7516 14.6242 12.9522 14.7021 13.1654C14.7768 13.3815 14.8138 13.6088 14.8114 13.8374C14.8137 14.3545 14.6182 14.8529 14.265 15.2307C14.0883 15.4129 13.8769 15.558 13.6432 15.6575C13.4096 15.7569 13.1585 15.8087 12.9046 15.8098L6.47928 15.7989ZM1.39805 15.1596C1.06917 14.7937 0.888075 14.3185 0.889929 13.8265C0.893793 13.5988 0.928686 13.3727 0.993707 13.1545C1.07944 12.9405 1.19536 12.74 1.33792 12.5589L2.52904 11.1056C2.52904 11.1056 2.52904 11.0728 2.52904 11.0619C2.53251 11.0541 2.53427 11.0457 2.53427 11.0373C2.53427 11.0288 2.53251 11.0204 2.52904 11.0127C2.52825 10.974 2.51688 10.9362 2.49622 10.9034C2.46344 10.9034 2.43613 10.8542 2.40335 10.8542C1.94461 10.7848 1.52898 10.5448 1.23958 10.1822C0.931773 9.82497 0.761327 9.36976 0.758789 8.89823C0.763874 8.64095 0.817642 8.38697 0.917241 8.1497C0.944792 8.07274 0.981486 7.99937 1.02652 7.93116L1.16311 7.96394C1.11589 8.03928 1.07388 8.11777 1.03743 8.19887C0.945109 8.42037 0.898643 8.65827 0.900834 8.89823C0.901624 9.3334 1.0543 9.75467 1.33249 10.0893C1.60991 10.4227 1.99758 10.6456 2.42523 10.7176C2.49092 10.7372 2.54968 10.7751 2.5946 10.8269C2.6316 10.882 2.65241 10.9464 2.65469 11.0127C2.65469 11.0455 2.65469 11.0728 2.65469 11.1056C2.64411 11.1298 2.6293 11.152 2.61097 11.1711V11.1711L1.40348 12.6573C1.26016 12.8138 1.15377 13.0005 1.09208 13.2036C1.0175 13.4027 0.980444 13.6139 0.982803 13.8265C0.988057 14.3147 1.18417 14.7814 1.52917 15.1269L1.56195 15.1596H1.41989H1.39805ZM1.22868 7.64158C1.28093 7.58107 1.33754 7.52446 1.39805 7.47221L6.81803 1.9812L6.92731 2.07407C6.38674 2.69375 5.81215 3.28292 5.20623 3.83885C5.05325 3.9973 4.86748 4.21585 4.69811 4.38522C3.60537 5.47796 2.39243 6.63627 1.49092 7.55963L1.38164 7.66889L1.22868 7.64158ZM11.6971 5.15561C11.4185 4.8715 11.1507 4.60923 10.8448 4.30872L10.9868 4.12296L11.6971 4.84417V5.15561ZM10.6426 4.12296C9.97594 3.47963 9.35005 2.79533 8.76857 2.07407V2.07407L8.86144 1.9812L10.8011 3.9372C10.7519 3.9973 10.6918 4.0574 10.6426 4.12296V4.12296Z" fill="white"/>
<path d="M1.11961 14.7444C0.968072 14.4603 0.889245 14.1431 0.890144 13.8211C0.894008 13.5934 0.928902 13.3673 0.993923 13.149C1.07966 12.9351 1.19557 12.7346 1.33814 12.5535L2.14132 11.5864H2.19047C2.46595 11.7326 2.69928 11.947 2.868 12.2093C3.04363 12.4669 3.13698 12.7717 3.13572 13.0835C3.13416 13.3094 3.08464 13.5324 2.99045 13.7377C2.89626 13.943 2.75955 14.126 2.58935 14.2746C2.2402 14.5983 1.78147 14.7778 1.30536 14.7772H1.15239H1.11961V14.7444ZM1.07589 14.2582C1.10404 14.3947 1.14996 14.527 1.21248 14.6516H1.32176C1.76142 14.654 2.18617 14.4923 2.51285 14.1981C2.66239 14.0577 2.78205 13.8885 2.86467 13.7007C2.94728 13.513 2.99116 13.3105 2.99365 13.1053C2.99288 12.8278 2.91608 12.5558 2.77159 12.3188C2.62711 12.0819 2.42046 11.8891 2.1741 11.7613L1.44742 12.6519C1.30409 12.8084 1.19767 12.9951 1.13598 13.1982C1.0614 13.3973 1.02438 13.6085 1.02674 13.8211C1.02566 13.9682 1.04215 14.1149 1.07589 14.2582V14.2582Z" fill="white"/>
<path d="M8.10751 0.232859L8.42988 0.997774L9.24944 1.07973C9.32226 1.09171 9.38813 1.13009 9.43448 1.18752C9.48083 1.24496 9.50441 1.31744 9.50074 1.39116C9.49995 1.42989 9.48862 1.46767 9.46796 1.50044C9.45119 1.53338 9.42444 1.56015 9.3915 1.57692L8.80141 2.12329L8.97078 2.93193C8.97987 2.96757 8.98066 3.00483 8.97308 3.04082C8.96551 3.07682 8.94975 3.11059 8.92706 3.13955C8.90962 3.17152 8.88544 3.1993 8.8562 3.221C8.82695 3.2427 8.79334 3.25778 8.75769 3.2652C8.68321 3.27742 8.60679 3.26595 8.53916 3.23242L7.83979 2.82265L7.12952 3.23242C7.06914 3.26971 6.99643 3.2815 6.92736 3.2652C6.88964 3.25724 6.85446 3.24012 6.82492 3.21535C6.79538 3.19058 6.7724 3.15892 6.75799 3.12316C6.6815 3.01389 6.70882 2.94831 6.75799 2.82265L6.90005 2.12329L6.29356 1.57692C6.24906 1.51662 6.21745 1.44781 6.20068 1.37477C6.20651 1.3015 6.23305 1.23139 6.27718 1.17262C6.30928 1.13908 6.34859 1.11329 6.39213 1.0972C6.43568 1.08111 6.4823 1.07513 6.52849 1.07973L7.27158 0.997774L7.61033 0.232859C7.6424 0.166212 7.69874 0.114361 7.76783 0.0879464C7.83691 0.0615315 7.9135 0.0625493 7.98185 0.0907977C8.01402 0.103389 8.04099 0.126495 8.05835 0.156359C8.08476 0.177571 8.10699 0.203518 8.12392 0.232859H8.10751ZM8.3206 1.07973L7.98185 0.298421C7.98185 0.298421 7.98186 0.265641 7.94907 0.24925L7.90535 0.216469C7.88832 0.208242 7.86965 0.203963 7.85073 0.203963C7.83181 0.203963 7.81311 0.208242 7.79607 0.216469C7.76275 0.235258 7.73606 0.263877 7.71961 0.298421L7.34805 1.12344L6.46293 1.22179C6.43015 1.22179 6.41923 1.22179 6.40284 1.22179C6.39414 1.22179 6.38581 1.22524 6.37966 1.23139C6.37351 1.23754 6.37006 1.24587 6.37006 1.25457C6.35539 1.2686 6.34388 1.28562 6.33634 1.30447C6.3288 1.32332 6.32539 1.34357 6.32634 1.36385C6.32591 1.38166 6.32966 1.39932 6.33724 1.41544C6.34483 1.43156 6.35606 1.4457 6.37006 1.45672C6.605 1.64795 6.8181 1.8665 7.03665 2.06865L6.85086 2.95924V3.00841C6.85086 3.00841 6.85086 3.0412 6.85086 3.05213C6.85086 3.06306 6.91096 3.11769 6.94374 3.11769C6.96078 3.12592 6.97947 3.1302 6.9984 3.1302C7.01732 3.1302 7.03598 3.12592 7.05302 3.11769L7.82339 2.66421C8.09111 2.80627 8.337 2.95924 8.59925 3.1013L8.64841 3.13408H8.70854C8.74132 3.13408 8.78502 3.1013 8.80141 3.06852C8.80927 3.05138 8.81331 3.03274 8.81331 3.01388C8.81331 2.99502 8.80927 2.97638 8.80141 2.95924L8.61563 2.06865C8.82871 1.8665 9.04728 1.66434 9.28222 1.47311C9.28222 1.47311 9.28222 1.44034 9.28222 1.42941C9.28222 1.41848 9.28222 1.39663 9.28222 1.36385C9.2846 1.34436 9.28292 1.32458 9.27728 1.30577C9.27164 1.28697 9.26216 1.26953 9.24944 1.25457C9.24944 1.22179 9.18931 1.21087 9.15653 1.21087L8.26051 1.11251L8.3206 1.07973Z" fill="white"/>
</svg>
