<svg width="16" height="16" viewBox="0 0 16 16" fill="none" xmlns="http://www.w3.org/2000/svg">
<path fill-rule="evenodd" clip-rule="evenodd" d="M2.35814 2.36342C3.07892 1.63432 3.93679 1.05498 4.88237 0.658745C6.78771 -0.127785 8.92699 -0.127785 10.8323 0.658745C11.7822 1.056 12.6452 1.63507 13.373 2.36342C14.0892 3.09555 14.6618 3.95546 15.0612 4.89858C15.4467 5.85359 15.6452 6.87374 15.6458 7.90361C15.6428 8.9368 15.4445 9.96008 15.0612 10.9196C14.6599 11.8665 14.0876 12.7315 13.373 13.4711C12.6481 14.2029 11.7843 14.7825 10.8323 15.1758C9.88972 15.5688 8.8786 15.7711 7.85735 15.7711C6.8361 15.7711 5.82497 15.5688 4.88237 15.1758C3.93462 14.7836 3.07599 14.2037 2.35814 13.4711C1.62947 12.7406 1.05205 11.8735 0.658928 10.9196C0.273822 9.96045 0.0736088 8.93715 0.0688477 7.90361C0.0713929 6.8734 0.271713 5.85326 0.658928 4.89858C1.05205 3.94461 1.62947 3.07754 2.35814 2.34703V2.36342ZM7.86008 0.527622C9.68343 0.546854 11.4356 1.23782 12.7814 2.46828C14.1271 3.69874 14.9718 5.38226 15.1537 7.19661C15.3357 9.01095 14.8422 10.8287 13.7677 12.3019C12.6931 13.7751 11.113 14.8003 9.32982 15.1813L9.26971 15.3069C9.26971 15.3069 9.23693 15.3397 9.22054 15.3397C8.99497 15.3844 8.7669 15.4154 8.53758 15.4326C8.31287 15.4602 8.08641 15.4712 7.86008 15.4654C7.50747 15.4687 7.15507 15.4468 6.80559 15.3998C6.45969 15.3468 6.11819 15.2682 5.78387 15.1649C5.77257 15.1623 5.76214 15.1568 5.75367 15.1488C5.7452 15.1409 5.73898 15.1309 5.73565 15.1198C5.73231 15.1087 5.73199 15.0969 5.7347 15.0856C5.73742 15.0743 5.74307 15.064 5.75109 15.0556L5.78387 15.0283C4.09503 14.5093 2.64704 13.4042 1.70075 11.9122C0.754458 10.4202 0.372079 8.63927 0.622496 6.89031C0.872912 5.14134 1.73966 3.53929 3.0666 2.37275C4.39354 1.20622 6.09345 0.551882 7.86008 0.527622V0.527622ZM4.93154 0.789885C4.00416 1.1836 3.16181 1.7532 2.45102 2.46723C1.74279 3.18963 1.18558 4.04589 0.811911 4.986C0.417096 5.91542 0.216298 6.91569 0.221831 7.92547C0.21621 8.94056 0.416968 9.94621 0.811911 10.8813C1.1903 11.8184 1.75064 12.6713 2.46055 13.3906C3.17046 14.1098 4.01587 14.6813 4.94793 15.072C6.82208 15.844 8.92539 15.844 10.7995 15.072C12.6835 14.2794 14.1767 12.7725 14.952 10.8813C15.3244 9.94089 15.5099 8.9369 15.4983 7.92547C15.5019 6.91181 15.3054 5.9074 14.92 4.96983C14.5347 4.03226 13.9681 3.17996 13.2527 2.46178C12.5452 1.74891 11.7066 1.17936 10.7832 0.784416C9.85778 0.391443 8.86271 0.188909 7.85735 0.188909C6.85198 0.188909 5.85692 0.391443 4.93154 0.784416V0.789885ZM6.15541 14.837L5.92047 15.072C6.21744 15.1514 6.51835 15.2152 6.82198 15.2632C7.16598 15.3112 7.51275 15.3368 7.86008 15.3397C8.08956 15.3397 8.3081 15.3397 8.52665 15.3069C8.7452 15.2741 8.95828 15.2632 9.16044 15.214C9.22054 15.0884 9.28064 14.9463 9.34621 14.8097C9.41177 14.6731 9.43909 14.5584 9.4828 14.4163C9.23693 14.4655 8.99106 14.5092 8.73973 14.542C8.44756 14.5729 8.15388 14.5875 7.86008 14.5857C7.60875 14.5857 7.37928 14.5857 7.12795 14.5584L6.46684 14.4655C6.35756 14.5857 6.24829 14.7114 6.15541 14.837V14.837ZM7.06784 13.5422C6.95857 13.7115 6.86569 13.8864 6.75641 14.0394C6.92087 14.07 7.08684 14.0918 7.25361 14.1049C7.45577 14.1049 7.65792 14.1049 7.86008 14.1049C8.1649 14.1052 8.4695 14.0888 8.77252 14.0557C9.06756 14.0066 9.31889 13.9629 9.62486 13.8973C9.66856 13.7115 9.71774 13.5258 9.74506 13.3509C9.79195 13.171 9.82844 12.9886 9.85433 12.8045L9.18776 12.8974C8.94189 12.8974 8.67963 12.9302 8.41738 12.9302C8.248 12.9302 8.05677 12.9302 7.87101 12.9302L7.37928 12.8865C7.27 13.116 7.16073 13.3509 7.05145 13.5585L7.06784 13.5422ZM7.8273 11.679C7.75081 11.9468 7.67431 12.1926 7.58143 12.4276C7.70585 12.4306 7.82994 12.4415 7.95296 12.4603C8.10595 12.4603 8.25893 12.4603 8.41738 12.4603C8.68042 12.4608 8.94322 12.4444 9.20415 12.4112C9.43909 12.4112 9.68495 12.3511 9.91989 12.3019C9.91989 12.0506 9.98 11.7883 9.99639 11.5206C10.0128 11.2529 9.99639 11.007 10.0401 10.7393C9.87217 10.7701 9.70245 10.7901 9.53197 10.7994C9.34621 10.7994 9.14405 10.7994 8.94189 10.7994C8.78173 10.8075 8.62125 10.8075 8.46109 10.7994C8.32226 10.7984 8.1836 10.7893 8.04585 10.7721C7.98028 11.0835 7.90379 11.3785 7.8273 11.6626V11.679ZM8.248 9.31871C8.21522 9.67385 8.16605 10.0071 8.12234 10.335C8.248 10.335 8.3682 10.335 8.49387 10.3623C8.61954 10.3896 8.78891 10.3623 8.94189 10.3623C9.09488 10.3623 9.34621 10.3623 9.53197 10.3623C9.71514 10.3503 9.89753 10.3284 10.0783 10.2967C10.0783 9.68478 10.0783 9.0783 10.0182 8.51554C9.98256 7.98563 9.91506 7.45835 9.81608 6.93654V6.90376C9.81714 6.88763 9.82367 6.87232 9.8346 6.86039C9.84553 6.84847 9.8602 6.84064 9.87618 6.83818C11.3951 6.93653 12.466 9.64107 12.7446 10.3623C12.7883 10.2038 12.8375 10.029 12.8812 9.85961C13.1076 9.07708 13.1561 8.25384 13.0233 7.45013C12.9527 7.02287 12.7727 6.62116 12.5008 6.28413C12.2288 5.9471 11.8743 5.68622 11.4716 5.5269L11.0837 5.38486C11.0685 5.38266 11.0545 5.37561 11.0436 5.36478C11.0328 5.35395 11.0258 5.33991 11.0236 5.32475C11.0236 5.27557 11.0727 5.24279 11.1001 5.25918C11.8536 5.26423 12.5903 5.48203 13.2254 5.88751C13.1414 5.30184 12.9287 4.74205 12.6026 4.2484C12.3732 3.89725 12.0519 3.61569 11.6737 3.43431C11.3113 3.27189 10.9001 3.25622 10.5264 3.39059C10.1259 3.56158 9.7746 3.83021 9.50465 4.17191V4.17191C9.49175 4.18307 9.47527 4.18919 9.45821 4.18919C9.44116 4.18919 9.42467 4.18307 9.41177 4.17191C9.24997 3.92094 9.04675 3.69924 8.81076 3.51626C8.01306 2.95472 7.05388 2.66889 6.07891 2.70218C5.12134 2.68597 4.17727 2.92953 3.34707 3.40698C3.16248 3.52328 2.99512 3.66491 2.84987 3.8277C3.54994 3.82384 4.24934 3.87131 4.94247 3.96974C5.18833 4.01345 5.40688 4.04624 5.61996 4.08995C5.83305 4.13366 6.08438 4.17191 6.3521 4.23201V4.29757V4.35221L6.04067 4.30304H5.60904C3.37438 4.3686 3.01924 7.2753 2.87719 8.52648C3.24872 8.01289 4.31414 6.63603 5.25936 6.24264C5.41077 6.18187 5.56589 6.13077 5.72378 6.08966C5.75656 6.08966 5.80027 6.08966 5.80027 6.12244C5.80464 6.13129 5.80697 6.141 5.80706 6.15087C5.80716 6.16074 5.80503 6.1705 5.80082 6.17943C5.79662 6.18836 5.79046 6.19623 5.78279 6.20244C5.77513 6.20866 5.76616 6.21307 5.75656 6.21533V6.21533C3.62025 6.92015 3.84973 9.44984 4.0191 10.6573C4.3423 9.83551 4.77611 9.06162 5.30853 8.35709C5.30853 8.35709 5.30853 8.35709 5.35224 8.35709C5.39595 8.35709 5.41234 8.35711 5.42874 8.40628C5.47147 8.6702 5.60949 8.90929 5.81666 9.0783C6.04064 9.24631 6.31252 9.33822 6.5925 9.34057C6.90293 9.34282 7.2023 9.22541 7.42845 9.01274C7.5368 8.91727 7.62319 8.79945 7.68167 8.66741C7.74015 8.53536 7.76932 8.39223 7.7672 8.24783V8.12216C7.77176 8.08039 7.77176 8.03827 7.7672 7.9965C7.7622 7.98236 7.7622 7.96692 7.7672 7.95278C7.77544 7.93637 7.78972 7.9238 7.80703 7.91768C7.82435 7.91157 7.84336 7.9124 7.86008 7.92L8.07863 8.01289C8.15516 8.03412 8.23415 8.04514 8.31357 8.04567C8.32873 8.04787 8.34277 8.0549 8.3536 8.06573C8.36443 8.07656 8.37147 8.09061 8.37367 8.10577C8.37367 8.54286 8.37367 8.95263 8.32996 9.32963L8.248 9.31871Z" fill="white"/>
</svg>
