<svg width="142" height="29" viewBox="0 0 142 29" fill="none" xmlns="http://www.w3.org/2000/svg">
<path fill-rule="evenodd" clip-rule="evenodd" d="M141.269 14.4587H130.645C130.573 15.1186 130.706 15.7847 131.024 16.3663C131.219 16.671 131.49 16.9193 131.81 17.0866C132.129 17.2538 132.487 17.3344 132.847 17.3201H132.933H139.987C139.227 18.2594 138.284 19.0321 137.215 19.5901C135.638 20.2895 133.923 20.6159 132.202 20.5439C130.769 20.6246 129.338 20.3529 128.034 19.7523C127.055 19.1752 126.289 18.2951 125.85 17.2438C125.354 15.9459 125.242 14.5315 125.527 13.171C125.837 11.0777 126.889 9.16724 128.49 7.7916C130.207 6.39732 132.368 5.67254 134.575 5.75044C136.139 5.65768 137.7 5.987 139.094 6.70425C140.124 7.29227 140.894 8.24974 141.25 9.38443C141.656 10.862 141.701 12.416 141.382 13.915L141.278 14.5159L141.269 14.4587ZM136.341 11.8643C136.482 11.0806 136.33 10.2723 135.914 9.59427C135.708 9.36433 135.454 9.18337 135.17 9.06457C134.886 8.94577 134.579 8.89212 134.271 8.90753C133.85 8.9104 133.434 9.00481 133.052 9.18426C132.67 9.36371 132.332 9.62397 132.059 9.9472C131.613 10.5093 131.29 11.1592 131.11 11.8548H136.341V11.8643Z" fill="white"/>
<path fill-rule="evenodd" clip-rule="evenodd" d="M17.4378 0.666748H21.2354L19.2511 12.2936C19.0634 13.4283 18.6981 14.5261 18.1688 15.5461C17.6538 16.5708 16.9405 17.4819 16.0707 18.2263C15.3017 18.9283 14.4057 19.4756 13.4313 19.8382C12.0787 20.2896 10.66 20.5088 9.23493 20.4868C8.22862 20.4904 7.2232 20.4267 6.22532 20.296C5.30896 20.2213 4.41893 19.9515 3.61446 19.5044C2.91995 19.0909 2.32888 18.5232 1.88655 17.8448C1.42325 17.1659 1.12117 16.3893 1.0036 15.5747C0.850363 14.4864 0.850363 13.3819 1.0036 12.2936L2.99735 0.695361H8.86466L7.54499 8.39256C7.27916 9.87096 6.87092 11.6164 6.76649 13.0376C6.66973 13.7488 6.84255 14.4705 7.25068 15.0596C7.53507 15.3634 7.88211 15.601 8.26751 15.7559C8.6529 15.9107 9.06733 15.9791 9.48179 15.9562C10.4094 15.9916 11.3157 15.671 12.0167 15.0596C12.7258 14.4088 13.1831 13.527 13.3079 12.5702L15.0263 2.60297C15.1892 2.0756 15.5082 1.61058 15.9406 1.2698C16.3731 0.929029 16.8986 0.728668 17.4473 0.695361L17.4378 0.666748Z" fill="#4EAE3B"/>
<path fill-rule="evenodd" clip-rule="evenodd" d="M6.3584 20.296C8.66545 20.0003 10.0421 18.0641 10.6592 15.7941C11.16 15.6595 11.6219 15.4079 12.0074 15.0596C12.5664 14.567 12.9691 13.9202 13.1656 13.1997V13.1997L12.7859 15.1932C12.7859 15.2981 12.7859 15.4126 12.7289 15.4889C12.4404 16.8376 11.7008 18.0463 10.6333 18.914C9.56581 19.7817 8.23473 20.256 6.86158 20.2579C6.69418 20.2728 6.5258 20.2728 6.3584 20.2579V20.296Z" fill="#258711"/>
<path fill-rule="evenodd" clip-rule="evenodd" d="M50.4106 0.666748H60.18C62.3066 0.666748 63.813 1.18499 64.6991 2.22145C65.5916 3.2611 65.8574 4.72994 65.5346 6.6757C65.2839 8.47328 64.3853 10.1159 63.0092 11.2921C61.4017 12.4826 59.4298 13.0698 57.4362 12.9517H54.2082L52.9645 20.1625H47.0972L48.6637 10.9869C48.8258 10.4487 49.1468 9.9726 49.5842 9.62173C50.0216 9.27086 50.5548 9.06175 51.1132 9.02208H56.3634C57.238 9.09272 58.1124 8.8823 58.8603 8.42118C59.1138 8.23883 59.3285 8.0073 59.4915 7.74029C59.6546 7.47327 59.7628 7.17616 59.8097 6.86647C59.8736 6.59824 59.876 6.31893 59.8168 6.04962C59.7576 5.78031 59.6383 5.52801 59.4679 5.31177C59.1781 5.0614 58.8386 4.87578 58.472 4.76725C58.1053 4.65872 57.7199 4.62975 57.3412 4.68225H49.746L50.4201 0.695361L50.4106 0.666748Z" fill="white"/>
<path fill-rule="evenodd" clip-rule="evenodd" d="M51.4547 1.40112C55.4707 1.72542 68.3826 1.23898 64.2431 9.98535C64.1544 10.1195 64.056 10.247 63.9488 10.3669V10.3669C63.813 10.5316 63.6672 10.6877 63.5121 10.8343V10.8343L63.4646 10.8915C63.3032 11.0536 63.1703 11.1585 63.0089 11.3016C62.3304 11.8357 61.5618 12.2428 60.7398 12.5034C63.1703 10.5958 62.5153 4.5773 57.6733 4.66314H50.8945L51.4262 1.41067L51.4547 1.40112Z" fill="#0E125E"/>
<path fill-rule="evenodd" clip-rule="evenodd" d="M23.4952 6.04619H33.3974C34.0018 5.99974 34.6085 6.09934 35.1668 6.33663C35.7251 6.57392 36.2187 6.94201 36.6064 7.41015C37.2805 8.28765 37.4609 9.68018 37.1381 11.5306L35.7045 20.1625H30.3783L31.641 12.7324C31.8265 12.0986 31.7689 11.418 31.4796 10.8248C31.3317 10.6341 31.1388 10.4837 30.9182 10.387C30.6977 10.2904 30.4566 10.2507 30.2169 10.2716H28.1092L27.5681 13.3905C27.5681 13.4954 27.5681 13.5812 27.5206 13.6862L26.7421 18.1691C26.5872 18.7078 26.2707 19.1855 25.8358 19.5371C25.4009 19.8887 24.8687 20.0971 24.3116 20.1339H21.1406L23.5331 6.01758L23.4952 6.04619Z" fill="#54B03D"/>
<path fill-rule="evenodd" clip-rule="evenodd" d="M102.381 6.01758H115.132L114.78 8.17318C114.746 8.51168 114.636 8.83792 114.458 9.12699C114.319 9.38365 114.139 9.61567 113.926 9.81373L106.416 16.4904H113.783L113.138 20.1721H99.4189L99.7418 18.2644L99.9032 17.3106C100.042 16.8144 100.322 16.37 100.71 16.0325V16.0325L107.84 9.71834H101.735L102.381 6.01758Z" fill="white"/>
<path fill-rule="evenodd" clip-rule="evenodd" d="M44.0875 0.666748H47.2586L46.5655 4.65364H41.2868L41.3912 4.05274L41.6381 2.63158C41.7903 2.08775 42.1086 1.60562 42.5481 1.25312C42.9875 0.90063 43.5259 0.695548 44.0875 0.666748V0.666748ZM43.1381 6.01757H46.3186L43.8977 20.1625H38.6475L40.7172 8.06827V8.01105C40.8707 7.46543 41.1886 6.98092 41.6272 6.624C42.0657 6.26709 42.6035 6.05524 43.1666 6.01757H43.1381Z" fill="#54B03D"/>
<path fill-rule="evenodd" clip-rule="evenodd" d="M121.322 0.666748H124.502L121.151 20.1625H115.853L118.834 2.68881C118.984 2.14108 119.301 1.65427 119.74 1.29673C120.179 0.939184 120.719 0.728878 121.284 0.695361L121.322 0.666748Z" fill="white"/>
<path fill-rule="evenodd" clip-rule="evenodd" d="M80.8772 20.1625H70.9464C70.3457 20.2131 69.7418 20.1153 69.1874 19.8776C68.633 19.6398 68.145 19.2694 67.7659 18.7985C67.0918 17.921 66.9114 16.5571 67.2342 14.6781L68.6868 6.04614H74.013L72.7313 13.4763C72.6305 13.789 72.5929 14.1189 72.6206 14.4464C72.6483 14.774 72.7408 15.0927 72.8927 15.3839C73.041 15.5735 73.2344 15.7226 73.455 15.8176C73.6756 15.9126 73.9164 15.9504 74.1554 15.9276H76.2821L76.8232 12.8182C76.8232 12.7132 76.8232 12.5988 76.8707 12.4939L77.6302 8.03962C77.7863 7.49792 78.1056 7.01812 78.5442 6.66625C78.9829 6.31439 79.5193 6.10773 80.0797 6.07476H83.2507L80.8582 20.1911L80.8772 20.1625Z" fill="white"/>
<path fill-rule="evenodd" clip-rule="evenodd" d="M50.4106 0.666748H60.1799C62.3066 0.666748 63.813 1.18499 64.6991 2.22145C65.5915 3.2611 65.8574 4.72994 65.5346 6.6757C65.3384 7.99017 64.8087 9.23178 63.9965 10.2811C64.1624 9.62151 64.178 8.93283 64.042 8.26638C63.9061 7.59993 63.6223 6.9729 63.2116 6.43198C62.801 5.89106 62.2741 5.45024 61.6703 5.14233C61.0665 4.83442 60.4012 4.66736 59.7242 4.65364H49.708L50.3821 0.666748H50.4106Z" fill="#0598F5"/>
<path fill-rule="evenodd" clip-rule="evenodd" d="M86.4405 6.01758H99.2289L98.8492 8.17318C98.8254 8.50962 98.7246 8.83601 98.5549 9.12699C98.397 9.37821 98.2089 9.60887 97.9947 9.81373L90.4849 16.4904H97.8523L97.2352 20.1721H83.4878L83.8106 18.2644L84.0005 17.3106C84.1279 16.8095 84.4105 16.3619 84.8075 16.0325L91.909 9.71834H85.7949L86.4405 6.01758Z" fill="white"/>
<path d="M2.88329 25.8471L2.00035 23.9395H1.10791L2.47505 26.9059V28.2984H3.32951V26.9059L4.67768 23.9014H3.79473L2.88329 25.8471ZM13.9154 26.1142C13.9154 24.6453 13.0799 23.7965 12.0166 23.7965C10.9532 23.7965 10.1178 24.6453 10.1178 26.1142C10.1178 27.5831 10.9532 28.4415 12.0166 28.4415C13.0799 28.4415 13.9154 27.5926 13.9154 26.1142ZM13.0324 26.1142C13.0324 27.2111 12.5672 27.6689 12.083 27.6689C11.5988 27.6689 11.1336 27.2111 11.1336 26.1142C11.1336 25.0173 11.5893 24.5309 12.083 24.5309C12.5767 24.5309 13.0324 24.9982 13.0324 26.1142ZM20.8365 23.9014H20.0011V26.8773C19.9954 27.0891 20.0337 27.2999 20.1135 27.4961C20.1934 27.6922 20.313 27.8696 20.4649 28.0167C20.6167 28.1639 20.7974 28.2776 20.9954 28.3508C21.1935 28.4239 21.4045 28.4548 21.615 28.4415C21.8253 28.4533 22.0357 28.4215 22.233 28.3478C22.4304 28.2742 22.6105 28.1603 22.762 28.0134C22.9136 27.8666 23.0333 27.6899 23.1136 27.4943C23.194 27.2988 23.2333 27.0887 23.229 26.8773V23.9014H22.4125V26.8773C22.4293 26.9817 22.4217 27.0886 22.3906 27.1897C22.3594 27.2907 22.3054 27.3832 22.2328 27.4598C22.1602 27.5364 22.0709 27.5952 21.972 27.6314C21.8731 27.6677 21.7672 27.6805 21.6625 27.6689C21.5568 27.6795 21.4501 27.6663 21.3502 27.6301C21.2503 27.5939 21.1597 27.5357 21.0851 27.4598C21.0104 27.3839 20.9536 27.2923 20.9188 27.1914C20.884 27.0906 20.8721 26.9833 20.884 26.8773V23.9014H20.8365ZM29.5805 23.9014V28.2984H30.4445V26.8009H31.1376L32.0015 28.2984H32.9509L32.0015 26.6388C32.2251 26.5193 32.4085 26.336 32.5285 26.1119C32.6484 25.8878 32.6996 25.6331 32.6756 25.3798C32.6878 25.1804 32.6565 24.9808 32.584 24.7948C32.5115 24.6088 32.3995 24.4409 32.2557 24.3029C32.112 24.1649 31.9401 24.06 31.7519 23.9956C31.5637 23.9312 31.3637 23.9088 31.166 23.93L29.5805 23.9014ZM30.4445 24.6453H31.1376C31.3041 24.6729 31.4554 24.759 31.5646 24.8883C31.6738 25.0176 31.7337 25.1816 31.7337 25.3512C31.7337 25.5207 31.6738 25.6847 31.5646 25.814C31.4554 25.9433 31.3041 26.0294 31.1376 26.057H30.4445V24.6453ZM50.2206 27.6689L50.9516 25.5991L51.1985 28.2984H52.0814L51.6827 23.9014H50.7332L49.9453 26.3336L49.0813 23.9014H48.1319L47.7332 28.2984H48.6161L48.8914 25.5991L49.6225 27.6689H50.2206ZM59.1545 23.9014H58.2905V28.2984H59.1545V23.9014ZM67.8985 26.6102L66.4459 23.9014H65.4965V28.2984H66.3605V25.5991L67.813 28.2984H68.7625V23.9014H67.8985V26.6102ZM78.3989 26.1142C78.3989 24.7216 77.6204 23.9014 76.5001 23.9014H75.1329V28.2984H76.5286C76.8029 28.3013 77.0746 28.2445 77.3249 28.1318C77.5753 28.0192 77.7984 27.8533 77.9788 27.6458C78.1593 27.4382 78.2928 27.1938 78.3702 26.9294C78.4477 26.665 78.4672 26.3869 78.4274 26.1142H78.3989ZM76.5001 24.6453C77.0413 24.6453 77.4495 25.0745 77.4495 26.1142C77.4495 27.1538 77.0223 27.5926 76.5001 27.5926H75.9874V24.6453H76.5001ZM93.4564 23.9014V28.2984H94.3204V26.8009H95.023L95.8774 28.2984H96.8268L95.8774 26.6388C96.101 26.5193 96.2844 26.336 96.4044 26.1119C96.5243 25.8878 96.5755 25.6331 96.5515 25.3798C96.5635 25.1813 96.5324 24.9826 96.4604 24.7973C96.3885 24.6121 96.2773 24.4447 96.1347 24.3069C95.992 24.169 95.8213 24.0639 95.6343 23.9989C95.4473 23.9338 95.2484 23.9103 95.0515 23.93L93.4564 23.9014ZM94.3204 24.6453H95.023C95.1895 24.6729 95.3408 24.759 95.45 24.8883C95.5592 25.0176 95.6191 25.1816 95.6191 25.3512C95.6191 25.5207 95.5592 25.6847 95.45 25.814C95.3408 25.9433 95.1895 26.0294 95.023 26.057H94.3204V24.6453ZM102.742 28.2984H105.59V27.5926H103.596V26.4671H105.011V25.7613H103.691V24.6453H105.656V23.9014H102.808L102.742 28.2984ZM112.236 25.1032C112.236 25.0216 112.254 24.9411 112.288 24.867C112.322 24.7928 112.371 24.7265 112.432 24.6726C112.492 24.6186 112.564 24.5781 112.641 24.5537C112.719 24.5293 112.801 24.5215 112.881 24.5309C113.199 24.5412 113.503 24.6666 113.736 24.8838L114.059 24.2829C113.898 24.1196 113.705 23.992 113.493 23.9082C113.28 23.8244 113.052 23.7863 112.824 23.7965C112.64 23.7781 112.455 23.7979 112.279 23.8546C112.103 23.9114 111.94 24.004 111.801 24.1265C111.662 24.2491 111.55 24.399 111.471 24.567C111.392 24.735 111.349 24.9175 111.343 25.1032C111.343 26.6388 113.242 26.2287 113.242 27.0108C113.242 27.3923 112.976 27.6594 112.407 27.6594C112.229 27.6604 112.053 27.6245 111.889 27.5539C111.726 27.4833 111.579 27.3796 111.457 27.2492L111.077 27.8501C111.248 28.038 111.456 28.1872 111.689 28.2875C111.921 28.3878 112.173 28.4371 112.426 28.4319C112.63 28.4586 112.837 28.4422 113.035 28.3836C113.233 28.3251 113.416 28.2258 113.573 28.092C113.731 27.9583 113.858 27.793 113.948 27.6068C114.039 27.4207 114.089 27.2176 114.096 27.0108C114.096 25.5324 112.198 25.9139 112.198 25.1032H112.236ZM123.628 26.1142C123.628 24.6453 122.793 23.7965 121.73 23.7965C120.666 23.7965 119.831 24.6453 119.831 26.1142C119.831 27.5831 120.666 28.4415 121.73 28.4415C122.793 28.4415 123.628 27.5926 123.628 26.1142ZM122.746 26.1142C122.746 27.2111 122.29 27.6689 121.749 27.6689C121.208 27.6689 120.799 27.2111 120.799 26.1142C120.799 25.0173 121.255 24.5309 121.749 24.5309C122.242 24.5309 122.746 24.9982 122.746 26.1142ZM129.714 23.9014V28.2984H130.578V26.8009H131.271L132.135 28.2984H133.085L132.135 26.6388C132.359 26.5193 132.542 26.336 132.662 26.1119C132.782 25.8878 132.833 25.6331 132.809 25.3798C132.823 25.18 132.793 24.9796 132.721 24.7928C132.649 24.606 132.537 24.4375 132.393 24.2991C132.249 24.1607 132.076 24.0559 131.887 23.9921C131.698 23.9283 131.498 23.9071 131.3 23.93L129.714 23.9014ZM130.578 24.6453H131.271C131.458 24.6453 131.636 24.7197 131.768 24.8521C131.9 24.9844 131.974 25.164 131.974 25.3512C131.974 25.5384 131.9 25.7179 131.768 25.8502C131.636 25.9826 131.458 26.057 131.271 26.057H130.578V24.6453ZM138.591 23.9014V24.6453H139.673V28.2984H140.528V24.6453H141.639V23.9014H138.591Z" fill="white"/>
<path fill-rule="evenodd" clip-rule="evenodd" d="M17.4378 0.666748H21.2354L19.2512 12.2936C19.0635 13.4283 18.6982 14.5261 18.1689 15.5461C17.6538 16.5708 16.9405 17.4819 16.0707 18.2263C15.3017 18.9283 14.4057 19.4756 13.4313 19.8382C12.0787 20.2896 10.6601 20.5088 9.23496 20.4868C8.22866 20.4904 7.22323 20.4267 6.22536 20.296C6.13991 20.296 6.06396 20.296 5.97852 20.296C6.27283 20.296 6.56714 20.3532 6.86145 20.3532C8.2346 20.3513 9.56569 19.8771 10.6332 19.0094C11.7007 18.1417 12.4403 16.9329 12.7288 15.5842V15.5842C12.7288 15.5079 12.7288 15.3935 12.7857 15.2885L13.1655 13.2951L13.5927 11.025L15.0168 2.66974C15.1821 2.14375 15.5017 1.68017 15.9337 1.33978C16.3657 0.999383 16.89 0.798051 17.4378 0.762134V0.666748Z" fill="#A1D154"/>
</svg>
